<svg xmlns="http://www.w3.org/2000/svg" width="29.262" height="28.458" viewBox="0 0 29.262 28.458">
  <g id="Group_1" data-name="Group 1" transform="translate(0.776 0.649)">
    <path id="Path_1" data-name="Path 1" d="M716.625,628.334l9.758-5.692.25-.145.143-.083.174.092,10.479,5.609-10.434,5.547-10.934-5.8-3-3.517,10.83-6.039,2.632,3.509" transform="translate(-713.064 -618.311)" fill="none" stroke="#000" stroke-width="1"/>
    <path id="Path_2" data-name="Path 2" d="M723.5,629.929v11.5l10.862-5.953v-5.547l-7.8,4.292-2.509-3.822" transform="translate(-709.717 -614.585)" fill="none" stroke="#000" stroke-width="1"/>
    <path id="Path_3" data-name="Path 3" d="M716.108,625.754l-2.914,3.948,10.434,5.671,3.1-3.822" transform="translate(-713.022 -615.924)" fill="none" stroke="#000" stroke-width="1"/>
    <path id="Path_4" data-name="Path 4" d="M715.5,630.309v5.608l9.586,5.558.627.365" transform="translate(-712.283 -614.463)" fill="none" stroke="#000" stroke-width="1"/>
    <path id="Path_5" data-name="Path 5" d="M723.653,622.195l3.038-3.728,10.526,5.576-2.977,3.7,3.17,4.1-3.17,1.849" transform="translate(-709.668 -618.261)" fill="none" stroke="#000" stroke-width="1"/>
  </g>
</svg>
