<svg xmlns="http://www.w3.org/2000/svg" width="34.781" height="31.505" viewBox="0 0 34.781 31.505"><defs><style>.a{fill:none;}</style></defs><path class="a" d="M34.894,35.341H33.542V21.077A1.881,1.881,0,0,0,31.664,19.2H26.7V7.487A1.881,1.881,0,0,0,24.818,5.61H11.977A1.881,1.881,0,0,0,10.1,7.487V19.2H5.131a1.881,1.881,0,0,0-1.877,1.877V35.341H1.887a.887.887,0,1,0,0,1.775H34.894a.887.887,0,1,0,0-1.775ZM11.871,7.487a.1.1,0,0,1,.1-.1H24.8a.1.1,0,0,1,.1.1V35.341H11.874Z" transform="translate(-1 -5.61)"/><path class="a" d="M38.387,78.835h7.1a.887.887,0,1,0,0-1.775h-7.1a.887.887,0,0,0,0,1.775Z" transform="translate(-24.546 -51.702)"/><path class="a" d="M38.387,66.935h7.1a.887.887,0,1,0,0-1.775h-7.1a.887.887,0,0,0,0,1.775Z" transform="translate(-24.546 -44.025)"/><path class="a" d="M38.387,55.035h7.1a.887.887,0,1,0,0-1.775h-7.1a.887.887,0,0,0,0,1.775Z" transform="translate(-24.546 -36.348)"/><path class="a" d="M38.387,43.145h7.1a.887.887,0,1,0,0-1.775h-7.1a.887.887,0,0,0,0,1.775Z" transform="translate(-24.546 -28.678)"/><path class="a" d="M38.387,31.245h7.1a.887.887,0,1,0,0-1.775h-7.1a.887.887,0,0,0,0,1.775Z" transform="translate(-24.546 -21.002)"/><path class="a" d="M38.387,19.345h7.1a.887.887,0,1,0,0-1.775h-7.1a.887.887,0,0,0,0,1.775Z" transform="translate(-24.546 -13.325)"/></svg>