<svg xmlns="http://www.w3.org/2000/svg" width="28.873" height="24.593" viewBox="0 0 28.873 24.593"><defs><style>.a{fill:#fff;stroke:#fff;stroke-miterlimit:10;}</style></defs><g transform="translate(-220.017 -103.047)"><path class="a" d="M234.407,127.139q-5.38,0-10.761,0a3,3,0,0,1-2.025-.666,2.8,2.8,0,0,1-1.1-2.234c.015-5.928.027-11.857-.009-17.785a3.034,3.034,0,0,1,1.841-2.677,3.459,3.459,0,0,1,1.084-.217c2.134-.02,4.268-.016,6.4-.007a2.96,2.96,0,0,1,2.367,1.2c.794.98,1.594,1.956,2.382,2.942a.546.546,0,0,0,.478.232q5.081-.01,10.161-.005a3.029,3.029,0,0,1,2.74,1.477,2.684,2.684,0,0,1,.415,1.446c0,4.449.009,8.9,0,13.346a3,3,0,0,1-3.108,2.948c-2.4.006-4.795,0-7.192,0Zm.846-1.256q4.984,0,9.968,0a1.773,1.773,0,0,0,1.907-1.9q0-6.467,0-12.934a1.742,1.742,0,0,0-1.874-1.868q-9.247,0-18.493,0a2.341,2.341,0,0,0-.618.079,1.717,1.717,0,0,0-1.263,1.81q0,7.243,0,14.487c0,.326,0,.326.324.326Zm-2.129-17.961a1.028,1.028,0,0,0-.063-.12c-.633-.783-1.262-1.571-1.9-2.347a1.7,1.7,0,0,0-1.408-.647H229.7c-2.033,0-4.067,0-6.1,0a1.776,1.776,0,0,0-1.529.732,1.933,1.933,0,0,0-.332,1.208q.006,8.55,0,17.1c0,.091,0,.182,0,.272a1.736,1.736,0,0,0,1.549,1.745c.341.05.342.05.342-.3q0-7.175,0-14.349c0-.154,0-.309.007-.463a2.606,2.606,0,0,1,.4-1.339,3.017,3.017,0,0,1,2.709-1.484q3.009,0,6.019,0Z" transform="translate(0)"/><path class="a" d="M427.586,274.819v.287q0,3.062,0,6.124a1.964,1.964,0,0,1-.019.352.624.624,0,0,1-.6.5.611.611,0,0,1-.6-.495,2.2,2.2,0,0,1-.033-.405q0-3.007,0-6.015v-.318l-.084-.058a2.393,2.393,0,0,1-.169.232c-.72.78-1.436,1.564-2.171,2.329a1.1,1.1,0,0,1-.528.287.5.5,0,0,1-.541-.286.577.577,0,0,1,0-.618,1.485,1.485,0,0,1,.2-.256q1.678-1.8,3.359-3.6c.42-.45.755-.454,1.171-.007q1.7,1.822,3.391,3.648a.636.636,0,0,1,.135.878.6.6,0,0,1-.817.168,1.59,1.59,0,0,1-.285-.25q-1.081-1.15-2.157-2.306c-.065-.07-.127-.144-.19-.216Z" transform="translate(-191.175 -159.748)"/></g></svg>