<svg xmlns="http://www.w3.org/2000/svg" width="15.851" height="17.21" viewBox="0 0 15.851 17.21"><defs><style>.a{fill:#57606f;}</style></defs><g transform="translate(-5.291 1)"><g transform="translate(5.411)"><path class="a" d="M119.677,258.723a.481.481,0,0,0-.481-.481h-1.68a.481.481,0,0,0-.481.481v1.68a.481.481,0,0,0,.481.481h1.68a.481.481,0,0,0,.481-.481v-1.68Z" transform="translate(-113.495 -250.043)"/><path class="a" d="M216.312,258.723a.481.481,0,0,0-.481-.481h-1.68a.481.481,0,0,0-.481.481v1.68a.481.481,0,0,0,.481.481h1.68a.481.481,0,0,0,.481-.481Z" transform="translate(-207.066 -250.043)"/><path class="a" d="M312.941,258.723a.481.481,0,0,0-.481-.481h-1.68a.481.481,0,0,0-.481.481v1.68a.481.481,0,0,0,.481.481h1.68a.481.481,0,0,0,.481-.481Z" transform="translate(-300.63 -250.043)"/><path class="a" d="M119.677,355.356a.481.481,0,0,0-.481-.481h-1.68a.481.481,0,0,0-.481.481v1.679a.481.481,0,0,0,.481.481h1.68a.481.481,0,0,0,.481-.481v-1.679Z" transform="translate(-113.495 -343.739)"/><path class="a" d="M216.312,355.356a.481.481,0,0,0-.481-.481h-1.68a.481.481,0,0,0-.481.481v1.679a.481.481,0,0,0,.481.481h1.68a.481.481,0,0,0,.481-.481Z" transform="translate(-207.066 -343.739)"/><path class="a" d="M312.941,355.356a.481.481,0,0,0-.481-.481h-1.68a.481.481,0,0,0-.481.481v1.679a.481.481,0,0,0,.481.481h1.68a.481.481,0,0,0,.481-.481v-1.679Z" transform="translate(-300.63 -343.739)"/><path class="a" d="M19.851,54.149v1.885a1.572,1.572,0,0,1-1.605,1.539H17.233a1.58,1.58,0,0,1-1.615-1.539V54.142H11.054v1.892A1.58,1.58,0,0,1,9.44,57.573H8.427a1.572,1.572,0,0,1-1.605-1.539V54.149a1.43,1.43,0,0,0-1.411,1.4V66.594A1.433,1.433,0,0,0,6.864,68H19.809a1.434,1.434,0,0,0,1.453-1.405V55.545A1.43,1.43,0,0,0,19.851,54.149Zm-.47,11.757a.616.616,0,0,1-.628.6H7.893a.616.616,0,0,1-.628-.6V60.2a.616.616,0,0,1,.628-.6h10.86a.617.617,0,0,1,.628.6v5.707Z" transform="translate(-5.531 -51.79)"/><path class="a" d="M80.132,5.646H81.19a.662.662,0,0,0,.582-.72V.72A.662.662,0,0,0,81.19,0H80.132a.662.662,0,0,0-.582.72V4.926A.662.662,0,0,0,80.132,5.646Z" transform="translate(-77.029 -1)"/><path class="a" d="M345.055,5.646h1.086a.667.667,0,0,0,.6-.72V.72a.667.667,0,0,0-.6-.72h-1.086a.667.667,0,0,0-.6.72V4.926A.667.667,0,0,0,345.055,5.646Z" transform="translate(-333.259 -1)"/></g></g></svg>