<svg xmlns="http://www.w3.org/2000/svg" width="14" height="14.002" viewBox="0 0 14 14.002"><defs><style>.a{fill:#53c930;}</style></defs><g transform="translate(0 0)"><path class="a" d="M15.743,13.824l-.762,1.27a1.292,1.292,0,0,1-.762.591c-1.538.422-4.225.073-8.29-3.994S1.513,4.938,1.935,3.4a1.294,1.294,0,0,1,.592-.763L3.8,1.874a.382.382,0,0,1,.516.116l1.1,1.651.923,1.385a.385.385,0,0,1-.083.515l-1.137.884a.875.875,0,0,0-.232,1.123l.09.164a10.605,10.605,0,0,0,2.167,2.765A10.616,10.616,0,0,0,9.9,12.644l.164.09a.875.875,0,0,0,1.123-.232l.884-1.137a.385.385,0,0,1,.515-.083l3.036,2.025A.382.382,0,0,1,15.743,13.824Z" transform="translate(-1.798 -1.82)"/><path class="a" d="M282.89,69.848a4.457,4.457,0,0,1,4.452,4.452.262.262,0,0,0,.524,0,4.981,4.981,0,0,0-4.975-4.975.262.262,0,0,0,0,.524Z" transform="translate(-273.896 -69.03)"/><path class="a" d="M282.89,121.048a2.884,2.884,0,0,1,2.88,2.88.262.262,0,0,0,.524,0,3.408,3.408,0,0,0-3.4-3.4.262.262,0,0,0,0,.524Z" transform="translate(-274.47 -118.103)"/><path class="a" d="M282.89,172.248a1.311,1.311,0,0,1,1.309,1.309.262.262,0,1,0,.524,0,1.835,1.835,0,0,0-1.833-1.833.262.262,0,0,0,0,.524Z" transform="translate(-274.945 -167.253)"/></g></svg>