<svg xmlns="http://www.w3.org/2000/svg" width="27.671" height="31.49" viewBox="0 0 27.671 31.49">
  <g id="Group_79926" data-name="Group 79926" transform="translate(-772.021 -322)">
    <g id="Path_37688" data-name="Path 37688" transform="translate(772.021 345.517)" fill="#d1d1d6" stroke-linecap="round">
      <path d="M 26.08943367004395 7.473824024200439 L 1.581183314323425 7.473824024200439 C 0.9850233197212219 7.473824024200439 0.5000032782554626 6.98271369934082 0.5000032782554626 6.379064083099365 L 0.5000032782554626 1.594763875007629 C 0.5000032782554626 0.9911139011383057 0.9850233197212219 0.5000039339065552 1.581183314323425 0.5000039339065552 L 26.08943367004395 0.5000039339065552 C 26.68559265136719 0.5000039339065552 27.17060279846191 0.9911139011383057 27.17060279846191 1.594763875007629 L 27.17060279846191 6.379064083099365 C 27.17060279846191 6.98271369934082 26.68559265136719 7.473824024200439 26.08943367004395 7.473824024200439 Z" stroke="none"/>
      <path d="M 1.581172943115234 1.000003814697266 C 1.260713577270508 1.000003814697266 1.000003814697266 1.2668137550354 1.000003814697266 1.59476375579834 L 1.000003814697266 6.379064083099365 C 1.000003814697266 6.707014083862305 1.260713577270508 6.973824024200439 1.581172943115234 6.973824024200439 L 26.08942413330078 6.973824024200439 C 26.40988349914551 6.973824024200439 26.67060279846191 6.707014083862305 26.67060279846191 6.379064083099365 L 26.67060279846191 1.59476375579834 C 26.67060279846191 1.2668137550354 26.40988349914551 1.000003814697266 26.08942413330078 1.000003814697266 L 1.581172943115234 1.000003814697266 M 1.581172943115234 3.814697265625e-06 L 26.08942413330078 3.814697265625e-06 C 26.96268272399902 3.814697265625e-06 27.67060279846191 0.7140040397644043 27.67060279846191 1.59476375579834 L 27.67060279846191 6.379064083099365 C 27.67060279846191 7.259823799133301 26.96268272399902 7.973824024200439 26.08942413330078 7.973824024200439 L 1.581172943115234 7.973824024200439 C 0.7079124450683594 7.973824024200439 3.814697265625e-06 7.259823799133301 3.814697265625e-06 6.379064083099365 L 3.814697265625e-06 1.59476375579834 C 3.814697265625e-06 0.7140040397644043 0.7079124450683594 3.814697265625e-06 1.581172943115234 3.814697265625e-06 Z" stroke="none" fill="#57606f"/>
    </g>
    <line id="Line_1356" data-name="Line 1356" y1="9.569" transform="translate(786.251 332.896)" fill="none" stroke="#57606f" stroke-linecap="round" stroke-linejoin="round" stroke-width="1"/>
    <path id="Path_27076" data-name="Path 27076" d="M786.643,334.9a3.429,3.429,0,1,0-3.429,0" transform="translate(1.081 0.785)" fill="none" stroke="#57606f" stroke-linecap="round" stroke-linejoin="round" stroke-width="1"/>
    <path id="Path_27077" data-name="Path 27077" d="M781.357,337.922a6.855,6.855,0,1,1,6.915.641l-.057.026" transform="translate(0.651 0.429)" fill="none" stroke="#57606f" stroke-linecap="round" stroke-linejoin="round" stroke-width="1"/>
    <path id="Path_27079" data-name="Path 27079" d="M780.584,341.7a10.161,10.161,0,1,1,9.038.57" transform="translate(0.344 0)" fill="none" stroke="#57606f" stroke-linecap="round" stroke-linejoin="round" stroke-width="1"/>
    <circle id="Ellipse_46" data-name="Ellipse 46" cx="1.715" cy="1.715" r="1.715" transform="translate(775.844 347.57)" fill="#fff"/>
    <circle id="Ellipse_47" data-name="Ellipse 47" cx="0.572" cy="0.572" r="0.572" transform="translate(780.908 348.713)" fill="#fff"/>
  </g>
</svg>
