<svg xmlns="http://www.w3.org/2000/svg" width="33.744" height="31.084" viewBox="0 0 33.744 31.084"><defs><style>.a,.b{fill:none;stroke:#67809f;stroke-linecap:round;stroke-linejoin:round;}.a,.c{fill-rule:evenodd;}.c{fill:#67809f;}</style></defs><g transform="translate(0.5 0.5)"><path class="a" d="M144,302.063v-18.2L148.142,281l3.437,1.63v19.433" transform="translate(-140.783 -273.389)"/><path class="a" d="M316,65.712V60.417L323.227,55l3.437,3.218V68.441l3.569-2.118,3,1.426V83.674" transform="translate(-303.702 -55)"/><line class="b" y2="27.936" transform="translate(17.678 0.701)"/><line class="b" y2="21.084" transform="translate(7.634 7.553)"/><line class="b" y2="16.484" transform="translate(22.499 12.154)"/><line class="b" y2="18.982" transform="translate(25.675 9.844)"/><path class="a" d="M71.046,759h32.7v1.41H71Z" transform="translate(-71 -730.326)"/><path class="c" d="M148.142,302.063V281L144,283.864v18.2Z" transform="translate(-140.783 -273.389)"/><path class="c" d="M316,86.79V104.7h6.037V77L316,81.509Z" transform="translate(-304.561 -76.031)"/><path class="c" d="M558,335.291v16.48h3.569V333Z" transform="translate(-535.376 -323.098)"/></g></svg>