<svg xmlns="http://www.w3.org/2000/svg" width="27.56" height="24.964" viewBox="0 0 27.56 24.964"><defs><style>.a{fill:#fff;}</style></defs><path class="a" d="M27.857,29.168H26.786v-11.3A1.491,1.491,0,0,0,25.3,16.378H21.361V7.1A1.491,1.491,0,0,0,19.873,5.61H9.7A1.491,1.491,0,0,0,8.211,7.1v9.28H4.273a1.49,1.49,0,0,0-1.488,1.488v11.3H1.7a.7.7,0,0,0,0,1.406H27.857a.7.7,0,1,0,0-1.406ZM9.614,7.1A.082.082,0,0,1,9.7,7.016H19.862a.082.082,0,0,1,.082.082V29.168H9.617Z" transform="translate(-1 -5.61)"/><path class="a" d="M38.2,78.466h5.625a.7.7,0,1,0,0-1.406H38.2a.7.7,0,0,0,0,1.406Z" transform="translate(-27.235 -56.966)"/><path class="a" d="M38.2,66.566h5.625a.7.7,0,1,0,0-1.406H38.2a.7.7,0,0,0,0,1.406Z" transform="translate(-27.235 -48.413)"/><path class="a" d="M38.2,54.666h5.625a.7.7,0,1,0,0-1.406H38.2a.7.7,0,0,0,0,1.406Z" transform="translate(-27.235 -39.86)"/><path class="a" d="M38.2,42.776h5.625a.7.7,0,1,0,0-1.406H38.2a.7.7,0,0,0,0,1.406Z" transform="translate(-27.235 -31.313)"/><path class="a" d="M38.2,30.876h5.625a.7.7,0,1,0,0-1.406H38.2a.7.7,0,0,0,0,1.406Z" transform="translate(-27.235 -22.76)"/><path class="a" d="M38.2,18.976h5.625a.7.7,0,1,0,0-1.406H38.2a.7.7,0,0,0,0,1.406Z" transform="translate(-27.235 -14.207)"/></svg>