<svg xmlns="http://www.w3.org/2000/svg" width="26.481" height="36.615" viewBox="0 0 26.481 36.615"><defs><style>.a{fill:#636366;}</style></defs><g transform="translate(-17.892 -5.603)"><path class="a" d="M21.178,26.814a.775.775,0,0,0,.923-.248l8.453-11.272a.773.773,0,0,0-.618-1.237H26.622L27.881,6.5a.773.773,0,0,0-1.381-.59L18.047,17.186a.773.773,0,0,0,.618,1.237h3.314L20.72,25.975A.773.773,0,0,0,21.178,26.814Zm-.967-9.938,5.624-7.5L24.947,14.7a.773.773,0,0,0,.762.9h2.68l-5.623,7.5.888-5.326a.773.773,0,0,0-.762-.9h-2.68Z" transform="translate(0 0)"/><path class="a" d="M55.209,51.385a.773.773,0,0,0-1.093,0l-3.275,3.277a2.918,2.918,0,0,0-1.4-.37A2.964,2.964,0,1,0,52.4,57.257a2.937,2.937,0,0,0-.439-1.531l3.246-3.247A.774.774,0,0,0,55.209,51.385Zm-5.772,7.289a1.418,1.418,0,1,1,1.418-1.418A1.42,1.42,0,0,1,49.437,58.675Z" transform="translate(-16.795 -26.77)"/><path class="a" d="M36.943,37.495a.773.773,0,0,0-.773.773v2.193a.773.773,0,0,0,1.546,0v-1.38a10.187,10.187,0,0,1,9.372,9.373H45.709a.773.773,0,0,0,0,1.546h1.379a10.187,10.187,0,0,1-9.372,9.373v-1.38a.773.773,0,0,0-1.546,0v1.38A10.188,10.188,0,0,1,26.8,50h1.38a.773.773,0,1,0,0-1.546H25.984a.773.773,0,0,0-.773.773A11.731,11.731,0,1,0,36.943,37.495Z" transform="translate(-4.301 -18.741)"/></g></svg>