<svg xmlns="http://www.w3.org/2000/svg" xmlns:xlink="http://www.w3.org/1999/xlink" width="194.02" height="66" viewBox="0 0 194.02 66">
  <defs>
    <filter id="Path_42836" x="0" y="0" width="194.02" height="66" filterUnits="userSpaceOnUse">
      <feOffset dy="3" input="SourceAlpha"/>
      <feGaussianBlur stdDeviation="6" result="blur"/>
      <feFlood flood-opacity="0.161"/>
      <feComposite operator="in" in2="blur"/>
      <feComposite in="SourceGraphic"/>
    </filter>
  </defs>
  <g id="Group_59286" data-name="Group 59286" transform="translate(-698.211 -82)">
    <g transform="matrix(1, 0, 0, 1, 698.21, 82)" filter="url(#Path_42836)">
      <path id="Path_42836-2" data-name="Path 42836" d="M10,0H150.23S143,.341,143,10V20a10,10,0,0,1-10,10H10A10,10,0,0,1,0,20V10C0-.149-7.789,0-7.789,0Z" transform="translate(25.79 15)" fill="#292f38"/>
    </g>
    <g id="Group_59208" data-name="Group 59208">
      <path id="Icon_awesome-user" data-name="Icon awesome-user" d="M7.517,8.59a4.3,4.3,0,1,0-4.3-4.3A4.295,4.295,0,0,0,7.517,8.59Zm3.007,1.074h-.56a5.841,5.841,0,0,1-4.893,0H4.51A4.511,4.511,0,0,0,0,14.174v1.4a1.611,1.611,0,0,0,1.611,1.611H13.423a1.611,1.611,0,0,0,1.611-1.611v-1.4A4.511,4.511,0,0,0,10.523,9.664Z" transform="translate(743.398 103.625)" fill="none" stroke="#fff" stroke-width="1"/>
    </g>
  </g>
   <g id="centreMe">
    <!-- <image xlink:href="https://d30y9cdsu7xlg0.cloudfront.net/noun-svg/703414.svg?Expires=1481685113&Signature=hsa76aA6t5W6xisN8bYKk5t74cmOzTXmYUObaVwE0hUso99Gb4czprrsQAtkaC0aOQJBhNfAn8MjRpKyu8M~AzS5OS3rthGOLFqa3Pk2lCwAWjs-KtTa9fSo7w-sZSJwG6LDeRm5B6T5hYnoKQLibJzCtHvSdUYlp5XBUx1RNvs_&Key-Pair-Id=APKAI5ZVHAXN65CHVU2Q" x="0" y="-50" height="50px" width="50px"/> -->
   <text fill="#ffffff" x="50%" y="50%" alignment-baseline="middle" text-anchor="middle" font-size="15" font-family="Verdana">Customer</text>
  </g> 
</svg>
