<svg xmlns="http://www.w3.org/2000/svg" width="40.243" height="41.121" viewBox="0 0 40.243 41.121">
  <g id="Group_61993" data-name="Group 61993" transform="translate(-560.603 -771.879)">
    <g id="Group_57449" data-name="Group 57449" transform="translate(478.895 368.15)">
      <g id="Path_42615" data-name="Path 42615" transform="translate(0 0)" fill="none">
        <path d="M119.83,418.045l-2.174-2.174a6.056,6.056,0,0,1-7.849-7.849l-2.172-2.172-3.5,3.5.652.652a.578.578,0,0,1,0,.819.567.567,0,0,1-.407.169.576.576,0,0,1-.409-.169l-.655-.655L83.83,429.655l2.133,2.133a6.052,6.052,0,0,1,7.93,7.93l2.133,2.133,6.97-6.97a6.054,6.054,0,0,1,8.459-8.459l4.062-4.062-.655-.655a.578.578,0,0,1,.817-.819l.655.655v0Zm-12.618-4.807a.578.578,0,0,1-.817,0l-1.21-1.21a.578.578,0,1,1,.817-.819l1.21,1.21A.578.578,0,0,1,107.212,413.238Zm2.42,2.42a.581.581,0,0,1-.819,0l-1.207-1.21a.578.578,0,0,1,.817-.819l1.21,1.21A.578.578,0,0,1,109.631,415.658Zm2.42,2.417a.575.575,0,0,1-.819,0l-1.21-1.21a.578.578,0,1,1,.819-.817l1.21,1.21A.579.579,0,0,1,112.051,418.075Zm2.42,2.42a.581.581,0,0,1-.819,0l-1.21-1.21a.578.578,0,0,1,.819-.817l1.21,1.21A.579.579,0,0,1,114.47,420.495Z" stroke="none"/>
        <path d="M 107.6349334716797 405.8500366210938 L 104.1397094726562 409.3475952148438 L 104.7920227050781 409.9998779296875 C 105.0187149047852 410.2265625 105.0187149047852 410.592041015625 104.7920227050781 410.8187255859375 C 104.5699615478516 411.0454406738281 104.2021408081055 411.04541015625 103.9754791259766 410.8187255859375 L 103.3208389282227 410.1641235351562 L 83.83000183105469 429.6549072265625 L 85.96275329589844 431.7877197265625 C 88.16257476806641 430.8554077148438 90.80191802978516 431.2881164550781 92.59695434570312 433.0831298828125 C 94.39198303222656 434.8781127929688 94.82453918457031 437.5173950195312 93.892333984375 439.71728515625 L 96.02508544921875 441.8499755859375 L 102.9946899414062 434.8804321289062 C 101.2597885131836 432.51171875 101.4633636474609 429.1691284179688 103.6030654907227 427.0294799804688 C 105.7427444458008 424.8897094726562 109.0852890014648 424.6862487792969 111.4539794921875 426.421142578125 L 115.5159301757812 422.3591918945312 L 114.8613052368164 421.7045288085938 C 114.6346130371094 421.4778442382812 114.6346130371094 421.1123657226562 114.8613052368164 420.8856811523438 C 115.0879821777344 420.6613159179688 115.4534606933594 420.6613159179688 115.677848815918 420.8856811523438 L 116.3324737548828 421.5426635742188 L 119.8300018310547 418.0451049804688 L 117.6556091308594 415.8707275390625 C 115.4835586547852 416.7220153808594 112.9182052612305 416.2709350585938 111.1625213623047 414.5151977539062 C 109.4068298339844 412.759521484375 108.9557495117188 410.1941528320312 109.8069915771484 408.0220947265625 L 107.6349334716797 405.8500366210938 M 106.8021697998047 413.4072265625 C 106.6541442871094 413.4072265625 106.508415222168 413.3516845703125 106.3950653076172 413.2383422851562 L 105.1852493286133 412.028564453125 C 104.9585723876953 411.8018188476562 104.9585723876953 411.4363403320312 105.1852493286133 411.2096557617188 C 105.4096450805664 410.9852905273438 105.7774505615234 410.9852905273438 106.0018310546875 411.2096557617188 L 107.2116088867188 412.41943359375 C 107.4383087158203 412.6461181640625 107.4383087158203 413.0116577148438 107.2116088867188 413.2383422851562 C 107.098258972168 413.3516845703125 106.9502182006836 413.4072265625 106.8021697998047 413.4072265625 M 109.2217712402344 415.8267822265625 C 109.07373046875 415.8267822265625 108.9256744384766 415.7689208984375 108.8123321533203 415.6578979492188 L 107.6048583984375 414.4481201171875 C 107.3781585693359 414.221435546875 107.3781585693359 413.85595703125 107.6048583984375 413.6292114257812 C 107.8292388916016 413.402587890625 108.197021484375 413.402587890625 108.4214019775391 413.6292114257812 L 109.6311950683594 414.8390502929688 C 109.8578948974609 415.0657348632812 109.8578948974609 415.4312133789062 109.6311950683594 415.6578979492188 C 109.5178527832031 415.7689208984375 109.3698120117188 415.8267822265625 109.2217712402344 415.8267822265625 M 111.6413421630859 418.246337890625 C 111.4933013916016 418.246337890625 111.3452606201172 418.1885375976562 111.2319030761719 418.0751953125 L 110.0221252441406 416.8654174804688 C 109.7977447509766 416.6410522460938 109.7977447509766 416.2755737304688 110.0221252441406 416.048828125 C 110.2488098144531 415.8221435546875 110.6143035888672 415.8221435546875 110.8409881591797 416.048828125 L 112.05078125 417.2586669921875 C 112.2751617431641 417.4829711914062 112.2751617431641 417.8507690429688 112.05078125 418.0751953125 C 111.9374389648438 418.1885375976562 111.7893981933594 418.246337890625 111.6413421630859 418.246337890625 M 114.0609436035156 420.6636352539062 C 113.9128952026367 420.6636352539062 113.7648391723633 420.608154296875 113.6515045166016 420.4947509765625 L 112.4417114257812 419.2849731445312 C 112.2150192260742 419.060546875 112.2150192260742 418.6928100585938 112.4417114257812 418.4684448242188 C 112.6684112548828 418.2417602539062 113.0338745117188 418.2417602539062 113.2605743408203 418.4684448242188 L 114.4703598022461 419.67822265625 C 114.6947326660156 419.902587890625 114.6947326660156 420.2703857421875 114.4703598022461 420.4947509765625 C 114.3570251464844 420.608154296875 114.2089691162109 420.6636352539062 114.0609436035156 420.6636352539062 M 107.6345825195312 403.7283630371094 L 111.5617294311523 407.655517578125 L 111.2035751342773 408.5694274902344 C 110.5424118041992 410.2564697265625 110.9426345825195 412.1739807128906 112.2231826782227 413.4545288085938 C 113.0830383300781 414.3144226074219 114.2263793945312 414.7879638671875 115.4425888061523 414.7879638671875 C 116.0165252685547 414.7879638671875 116.5769424438477 414.682373046875 117.108283996582 414.4741516113281 L 118.0221786499023 414.1159973144531 L 121.9513244628906 418.0451049804688 L 111.6052322387695 428.3912048339844 L 110.5676651000977 427.6312866210938 C 109.7861709594727 427.0589294433594 108.8578414916992 426.7563781738281 107.8830337524414 426.7564086914062 C 106.6670684814453 426.7564086914062 105.5237731933594 427.2300720214844 104.6637191772461 428.0901489257812 C 103.089714050293 429.6640930175781 102.8924407958984 432.2022705078125 104.2048187255859 433.9941101074219 L 104.9647750854492 435.0316772460938 L 96.02509307861328 443.9712829589844 L 92.11671447753906 440.0630187988281 L 92.51121520996094 439.1320495605469 C 93.23685455322266 437.4196472167969 92.85417175292969 435.4616394042969 91.53630065917969 434.143798828125 C 90.67620849609375 433.28369140625 89.53397369384766 432.8100280761719 88.31998443603516 432.81005859375 C 87.70594024658203 432.81005859375 87.10977172851562 432.9307556152344 86.54804229736328 433.1688232421875 L 85.61705017089844 433.5633544921875 L 81.70869445800781 429.6548767089844 L 103.3208084106445 408.0428466796875 L 103.321891784668 408.0439147949219 L 107.6345825195312 403.7283630371094 Z" stroke="none" fill="#999"/>
      </g>
    </g>
    <g id="Group_61992" data-name="Group 61992" transform="translate(-3 -1)">
      <g id="Ellipse_1552" data-name="Ellipse 1552" transform="translate(587 798)" fill="#fff" stroke="#999" stroke-width="1.5">
        <circle cx="4" cy="4" r="4" stroke="none"/>
        <circle cx="4" cy="4" r="3.25" fill="none"/>
      </g>
      <g id="Rectangle_12078" data-name="Rectangle 12078" transform="translate(585 807)" fill="#fff" stroke="#999" stroke-width="1.5">
        <path d="M4,0H8a4,4,0,0,1,4,4V7a0,0,0,0,1,0,0H0A0,0,0,0,1,0,7V4A4,4,0,0,1,4,0Z" stroke="none"/>
        <path d="M4,.75H8A3.25,3.25,0,0,1,11.25,4V5.5a.75.75,0,0,1-.75.75h-9A.75.75,0,0,1,.75,5.5V4A3.25,3.25,0,0,1,4,.75Z" fill="none"/>
      </g>
    </g>
  </g>
</svg>
