<svg xmlns="http://www.w3.org/2000/svg" xmlns:xlink="http://www.w3.org/1999/xlink" width="32.993" height="36.835" viewBox="0 0 32.993 36.835"><defs><style>.a,.f{fill:none;}.b{opacity:0.24;}.c{clip-path:url(#a);}.d{fill:#ff6b81;}.e{opacity:0.32;isolation:isolate;}.f{stroke:#759dfd;stroke-miterlimit:10;}</style><clipPath id="a"><path class="a" d="M414.141,45.084V68.263l4.432,2.153,3.527-1.975,3.4,2.422,4.838-2.4,4.312,2.4,3.044-2.21V41.363a2.8,2.8,0,0,0-2.718-2.766H424.914l1.267,1.774a2.111,2.111,0,0,1,.422,1.046c-.022.451.157,1.1-.608,1.579a2,2,0,0,1-2.044.2c-.79-.28-3.363-1.2-3.657-1.224a3.129,3.129,0,0,0-1.974.128,18.429,18.429,0,0,0-2.821,2.3A2.682,2.682,0,0,1,414.141,45.084Z"/></clipPath></defs><g transform="translate(-603.925 -91)"><g class="b" transform="translate(198.724 56.377)"><g class="c"><rect class="d" width="1" height="0.405" transform="translate(418.073 67.743)"/><rect class="d" width="24.126" height="1" transform="translate(403.791 59.08) rotate(-45)"/><rect class="d" width="11.37" height="1" transform="translate(424.742 38.128) rotate(-45)"/><rect class="d" width="25.224" height="1" transform="translate(405.603 60.891) rotate(-45)"/><rect class="d" width="11.76" height="1" transform="translate(426.278 40.216) rotate(-45)"/><rect class="d" width="40.998" height="1" transform="translate(407.415 62.703) rotate(-45)"/><rect class="d" width="40.998" height="1" transform="translate(409.227 64.515) rotate(-45)"/><rect class="d" width="40.998" height="1" transform="translate(411.039 66.327) rotate(-45)"/><rect class="d" width="40.998" height="1" transform="translate(412.851 68.139) rotate(-45)"/><rect class="d" width="40.998" height="1" transform="translate(414.663 69.951) rotate(-45)"/><rect class="d" width="40.998" height="1" transform="translate(416.475 71.763) rotate(-45)"/><rect class="d" width="40.998" height="1" transform="translate(418.287 73.575) rotate(-45)"/><rect class="d" width="40.998" height="1" transform="translate(420.099 75.386) rotate(-45)"/><rect class="d" width="40.998" height="1" transform="translate(421.91 77.197) rotate(-45)"/><rect class="d" width="40.998" height="1" transform="translate(423.722 79.009) rotate(-45)"/><rect class="d" width="40.998" height="1" transform="translate(425.534 80.821) rotate(-45)"/></g></g><g class="e" transform="translate(198.724 56.377)"><path class="d" d="M427.268,38.663h7.673a2.8,2.8,0,0,1,2.717,2.766v27.29l-3.044,2.21-4.312-2.4-4.838,2.4-3.4-2.422-3.527,1.975-4.4-2.219V45.084a6.36,6.36,0,0,0,2.163-1.332,7.284,7.284,0,0,1,2.012-1.652,5.386,5.386,0,0,1,3.124.15c.9.42,2.854,1.051,2.854,1.051s1.349.329,1.606-.121,1.1-1.2.872-1.8a25.213,25.213,0,0,0-2.13-2.934Z"/></g><g transform="translate(198.724 56.377)"><path class="d" d="M434.686,71.458l-4.361-2.428-4.871,2.416-3.386-2.412-3.7,2.07-4.731-2.542V45.494h1v22.47l3.721,2,3.77-2.111,3.414,2.432,4.806-2.384,4.263,2.373,2.579-1.874V41.363a2.292,2.292,0,0,0-2.233-2.268H425.09v-1h9.886a3.293,3.293,0,0,1,3.218,3.262V68.909Z"/></g><g transform="translate(198.724 56.377)"><path class="f" d="M424.414,38.6"/></g><g transform="translate(198.724 56.377)"><path class="d" d="M417.323,38.7v-1h15.005a1.067,1.067,0,0,0,1.04-1.106.973.973,0,0,0-1.04-.972h-17.1a38.686,38.686,0,0,0-5.113,2.832l-.526-.85c1.8-1.114,4.92-2.982,5.639-2.982h17.1a1.946,1.946,0,0,1,2.039,1.953A2.066,2.066,0,0,1,432.38,38.7Z"/></g><g transform="translate(198.724 56.377)"><path class="d" d="M412.021,45.584v-1h2.138c-.014,0,1.144-.107,2.735-2.041,1.741-2.113,5.673-.467,7.353.236.282.118.493.21.607.241a.951.951,0,0,0,.645-.262,1.867,1.867,0,0,0,.773-1.18,10.058,10.058,0,0,0-2.334-3.023l.708-.707c.789.789,2.626,2.733,2.626,3.73a2.789,2.789,0,0,1-1.168,1.975,1.781,1.781,0,0,1-1.517.431c-.136-.038-.39-.141-.727-.282-1.474-.618-4.927-2.065-6.193-.523-1.885,2.289-3.333,2.4-3.492,2.4Z"/></g><g transform="translate(198.724 56.377)"><path class="d" d="M413.312,49.819a.5.5,0,0,1-.32-.116l-3.46-2.888a.5.5,0,1,1,.64-.768l3.46,2.888a.5.5,0,0,1-.32.884Z"/></g><g transform="translate(198.724 56.377)"><path class="d" d="M410.352,50.455H405.2V35.906h5.151Zm-4.151-1h3.151V36.906H406.2Z"/></g><g transform="translate(198.724 56.377)"><rect class="d" width="6.099" height="6.099" transform="translate(416.555 49.319)"/></g><g transform="translate(198.724 56.377)"><rect class="d" width="9.288" height="1" transform="translate(425.272 49.835)"/></g><g transform="translate(198.724 56.377)"><rect class="d" width="9.288" height="1" transform="translate(425.272 52)"/></g><g transform="translate(198.724 56.377)"><rect class="d" width="9.288" height="1" transform="translate(425.272 54.165)"/></g><g transform="translate(198.724 56.377)"><rect class="d" width="18.006" height="1" transform="translate(416.555 58.496)"/></g><g transform="translate(198.724 56.377)"><rect class="d" width="18.006" height="1" transform="translate(416.555 60.661)"/></g><g transform="translate(198.724 56.377)"><rect class="d" width="18.006" height="1" transform="translate(416.555 62.826)"/></g><g transform="translate(198.724 56.377)"><rect class="d" width="18.006" height="1" transform="translate(416.555 64.991)"/></g></g></svg>