<svg xmlns="http://www.w3.org/2000/svg" width="29.026" height="36.048" viewBox="0 0 29.026 36.048"><defs><style>.a,.c{fill:none;stroke:#7766de;}.a{stroke-miterlimit:10;}.b,.e{fill:#7766de;}.b,.c{stroke-linejoin:round;}.d,.e{stroke:none;}</style></defs><g transform="translate(0.5 0.46)"><path class="a" d="M3888.9,764.1v19.832a3.7,3.7,0,0,1-3.7,3.694h-20.637a3.694,3.694,0,0,1-3.694-3.694V756.272a3.7,3.7,0,0,1,3.694-3.7h12.811a3.7,3.7,0,0,1,2.613,1.083l7.827,7.825A3.7,3.7,0,0,1,3888.9,764.1Z" transform="translate(-3860.874 -752.537)"/><g class="b" transform="translate(-3860.639 -752.537)"><path class="d" d="M 3887.4580078125 762.0686645507813 L 3879.1337890625 762.0686645507813 L 3879.1337890625 753.7445068359375 L 3887.4580078125 762.0686645507813 Z"/><path class="e" d="M 3886.250732421875 761.5686645507813 L 3879.6337890625 754.95166015625 L 3879.6337890625 761.5686645507813 L 3886.250732421875 761.5686645507813 M 3888.6650390625 762.5686645507813 L 3878.6337890625 762.5686645507813 L 3878.6337890625 752.5374145507813 L 3888.6650390625 762.5686645507813 Z"/></g><line class="c" x2="7.05" transform="translate(5.711 8.704)"/><line class="c" x2="16.169" transform="translate(5.711 13.522)"/><line class="c" x2="16.169" transform="translate(5.711 18.341)"/><line class="c" x2="16.169" transform="translate(5.711 23.159)"/><line class="c" x2="0.679" transform="translate(21.201 27.978)"/><line class="c" x2="1.002" transform="translate(18.549 27.978)"/><line class="c" x2="1.229" transform="translate(15.607 27.978)"/><line class="c" x2="8.084" transform="translate(5.711 27.978)"/></g></svg>