<svg xmlns="http://www.w3.org/2000/svg" width="16.502" height="18.234" viewBox="0 0 16.502 18.234"><defs><style>.a{fill:#67809f;}.a,.b{stroke:#57606f;stroke-width:0.5px;}.b{fill:#fff;}</style></defs><g transform="translate(-166.935 -205.763)"><path class="a" d="M92.119,167.37H87.707a.246.246,0,0,1-.246-.246V149.882a.246.246,0,0,1,.246-.246H100.5a.246.246,0,0,1,.246.246v6.477h-.492v-6.231h-12.3v16.75h4.166Z" transform="translate(79.724 56.377)"/><rect class="a" width="7.412" height="0.492" transform="translate(170.078 210.372)"/><rect class="a" width="7.412" height="0.492" transform="translate(170.078 212.913)"/><rect class="a" width="4.853" height="0.492" transform="translate(170.078 215.455)"/><path class="a" d="M102.145,177.813a.246.246,0,0,1-.244-.278l.4-2.989a.249.249,0,0,1,.074-.145l3.871-3.706a.247.247,0,0,1,.341,0l2.316,2.25a.246.246,0,0,1,.009.344l-3.629,3.9a.243.243,0,0,1-.136.074l-2.956.541A.27.27,0,0,1,102.145,177.813Zm.63-3.117-.341,2.568,2.543-.465,3.409-3.668-1.974-1.917Z" transform="translate(72.389 45.713)"/><path class="b" d="M114.042,167.593l.889.859a.984.984,0,0,1,.024,1.391l-1.541,1.594h0l-2.3-2.227h0l1.541-1.594A.984.984,0,0,1,114.042,167.593Z" transform="translate(67.71 47.395)"/><path class="a" d="M113.158,171.431a.248.248,0,0,1-.171-.069l-2.3-2.227a.246.246,0,0,1-.005-.348l1.541-1.594a1.231,1.231,0,0,1,1.739-.03l.889.859a1.229,1.229,0,0,1,.029,1.739l-1.541,1.594a.245.245,0,0,1-.173.075Zm-1.956-2.479,1.95,1.885,1.37-1.418a.737.737,0,0,0-.018-1.043l-.888-.859h0a.739.739,0,0,0-1.043.018Z" transform="translate(67.964 47.648)"/></g></svg>