<svg xmlns="http://www.w3.org/2000/svg" width="22.093" height="20.014" viewBox="0 0 22.093 20.014"><defs><style>.a{fill:#67809f;}</style></defs><g transform="translate(-1 -5.609)"><path class="a" d="M22.53,24.5h-.859v-9.06a1.2,1.2,0,0,0-1.193-1.193H17.322V6.8A1.2,1.2,0,0,0,16.129,5.61H7.973A1.2,1.2,0,0,0,6.78,6.8v7.44H3.624a1.2,1.2,0,0,0-1.193,1.193V24.5H1.564a.564.564,0,0,0,0,1.127H22.53a.564.564,0,0,0,0-1.127ZM7.905,6.8a.065.065,0,0,1,.065-.065h8.15a.065.065,0,0,1,.065.065V24.5H7.908Z"/><path class="a" d="M38.064,78.187h4.509a.564.564,0,0,0,0-1.127H38.064a.564.564,0,0,0,0,1.127Z" transform="translate(-28.271 -55.342)"/><path class="a" d="M38.064,66.287h4.509a.564.564,0,1,0,0-1.127H38.064a.564.564,0,1,0,0,1.127Z" transform="translate(-28.271 -46.125)"/><path class="a" d="M38.064,54.387h4.509a.564.564,0,0,0,0-1.127H38.064a.564.564,0,0,0,0,1.127Z" transform="translate(-28.271 -36.908)"/><path class="a" d="M38.064,42.5h4.509a.564.564,0,0,0,0-1.127H38.064a.564.564,0,0,0,0,1.127Z" transform="translate(-28.271 -27.698)"/><path class="a" d="M38.064,30.6h4.509a.564.564,0,0,0,0-1.127H38.064a.564.564,0,0,0,0,1.127Z" transform="translate(-28.271 -18.481)"/><path class="a" d="M38.064,18.7h4.509a.564.564,0,0,0,0-1.127H38.064a.564.564,0,0,0,0,1.127Z" transform="translate(-28.271 -9.264)"/></g></svg>