<?xml version="1.0" encoding="utf-8"?>
<!-- Generator: Adobe Illustrator 26.0.3, SVG Export Plug-In . SVG Version: 6.00 Build 0)  -->
<svg version="1.1" id="Layer_1" xmlns="http://www.w3.org/2000/svg" xmlns:xlink="http://www.w3.org/1999/xlink" x="0px" y="0px"
	 viewBox="0 0 1920 1280" style="enable-background:new 0 0 1920 1280;" xml:space="preserve">
<style type="text/css">
	.st0{fill:#FFCC04;}
</style>
<g id="MTN_Logo">
	<path class="st0" d="M960.1,160c-530.2,0-960,214.9-960,480s429.8,480,960,480s960-214.9,960-480S1490.3,160,960.1,160z
		 M960.1,1044.3c-488.3,0-884.2-181-884.2-404.2s395.9-404.2,884.2-404.2s884.2,181,884.2,404.2S1448.4,1044.3,960.1,1044.3z
		 M839,555.8V480h270.8v75.8h-97.5V800h-75.8V555.8H839z M1436.8,480v320H1361l-137.4-190.5V800h-75.8V480h75.8L1361,670.5V480
		L1436.8,480z M481.2,800V480h75.8l84.2,129.5L725.3,480h75.8v320h-75.8V619l-57.5,88.4h-53.4L556.9,619v181H481.2z"/>
</g>
</svg>
