<svg xmlns="http://www.w3.org/2000/svg" width="18" height="16" viewBox="0 0 18 16"><defs><style>.a{fill:#e5e5e5;}.b{fill:#636366;}</style></defs><g transform="translate(-464.724 -201.877)"><circle class="a" cx="4" cy="4" r="4" transform="translate(474.724 201.877)"/><path class="b" d="M399,153.5a4,4,0,1,1,4-4A4,4,0,0,1,399,153.5Zm0-6a2,2,0,1,0,2,2A2,2,0,0,0,399,147.5Z" transform="translate(79.724 56.377)"/><circle class="a" cx="4" cy="4" r="4" transform="translate(464.724 209.877)"/><path class="b" d="M389,161.5a4,4,0,1,1,4-4A4,4,0,0,1,389,161.5Zm0-6a2,2,0,1,0,2,2A2,2,0,0,0,389,155.5Z" transform="translate(79.724 56.377)"/><rect class="b" width="8" height="2" transform="translate(465.724 205.377)"/><rect class="b" width="8" height="2" transform="translate(473.724 212.377)"/></g></svg>