<svg xmlns="http://www.w3.org/2000/svg" width="24" height="24" viewBox="0 0 24 24"><defs><style>.a{fill:#57606f;}</style></defs><path class="a" d="M12,2.16A9.84,9.84,0,1,1,2.16,12,9.84,9.84,0,0,1,12,2.16M12,0A12,12,0,1,0,24,12,12,12,0,0,0,12,0Z"/><path class="a" d="M36.818,31.2h-.756a.232.232,0,0,1-.251-.238,7.815,7.815,0,0,1,.153-1.94,1.768,1.768,0,0,1,.466-.829c.207-.22.431-.414.655-.622s.491-.435.744-.642a.868.868,0,0,0-.184-1.476,1.451,1.451,0,0,0-2.031.715,2.839,2.839,0,0,0-.124.39c-.05.18-.133.245-.319.222L33.693,26.6a.261.261,0,0,1-.245-.315,3.028,3.028,0,0,1,2.508-2.673,4.3,4.3,0,0,1,2.609.24,2.816,2.816,0,0,1,1.585,1.658,2.193,2.193,0,0,1-.344,2.188,7.848,7.848,0,0,1-1.194,1.167c-.139.12-.271.249-.414.367a.937.937,0,0,0-.342.756c0,.317-.021.632-.029.949a.255.255,0,0,1-.28.28h-.729Z" transform="translate(-24.874 -17.411)"/><path class="a" d="M46.962,67.536A1.036,1.036,0,1,1,45.926,66.5,1.036,1.036,0,0,1,46.962,67.536Z" transform="translate(-33.953 -50.298)"/></svg>