<svg xmlns="http://www.w3.org/2000/svg" width="24.425" height="23.646" viewBox="0 0 24.425 23.646">
  <path id="Path_43500" data-name="Path 43500" d="M24.118,16.427a1.165,1.165,0,0,0-.1-1.667L13.107,5.209a1.361,1.361,0,0,0-1.775.02L.38,15.27a1.158,1.158,0,0,0-.053,1.664L.6,17.22a1.2,1.2,0,0,0,1.644.126l.819-.733V27.345a1.191,1.191,0,0,0,1.191,1.191H8.525a1.191,1.191,0,0,0,1.191-1.191V19.837h5.446v7.508a1.126,1.126,0,0,0,1.119,1.191h4.525A1.191,1.191,0,0,0,22,27.344V16.764l.505.443c.278.245.863.048,1.306-.439Z" transform="translate(0 -4.89)"/>
</svg>
