<svg xmlns="http://www.w3.org/2000/svg" width="35.907" height="29.56" viewBox="0 0 35.907 29.56"><defs><style>.a{fill:none;stroke:#636366;stroke-linecap:round;stroke-linejoin:round;}</style></defs><g transform="translate(0.5 0.5)"><path class="a" d="M25.107,31.352V28.4a5.9,5.9,0,0,0-5.9-5.9H7.4a5.9,5.9,0,0,0-5.9,5.9v2.951" transform="translate(-1.5 -2.792)"/><path class="a" d="M19.3,10.4a5.9,5.9,0,1,1-5.9-5.9,5.9,5.9,0,0,1,5.9,5.9Z" transform="translate(-0.899 -4.5)"/><path class="a" d="M34.426,31.356V28.4A5.9,5.9,0,0,0,30,22.7" transform="translate(0.48 -2.796)"/><path class="a" d="M24,4.7a5.9,5.9,0,0,1,0,11.434" transform="translate(0.064 -4.503)"/></g></svg>