<svg id="Group_34989" data-name="Group 34989" xmlns="http://www.w3.org/2000/svg" width="19.636" height="24" viewBox="0 0 19.636 24">
  <g id="Group_34945" data-name="Group 34945">
    <path id="ic_playlist_add_check_24px" d="M15.126,10.341H2v2.17H15.126Zm0-4.341H2V8.17H15.126ZM2,16.851h8.75v-2.17H2Z" transform="translate(1.255 3.893)"/>
    <path id="ic_content_paste_24px" d="M20.455,2.182h-4.56a3.26,3.26,0,0,0-6.153,0H5.182A2.188,2.188,0,0,0,3,4.364V21.818A2.188,2.188,0,0,0,5.182,24H20.455a2.188,2.188,0,0,0,2.182-2.182V4.364A2.188,2.188,0,0,0,20.455,2.182Zm-7.636,0a1.091,1.091,0,1,1-1.091,1.091A1.094,1.094,0,0,1,12.818,2.182Zm7.636,19.636H5.182V4.364H7.364V7.636H18.273V4.364h2.182Z" transform="translate(-3)"/>
  </g>
</svg>
