<svg id="Layer_1" data-name="Layer 1" xmlns="http://www.w3.org/2000/svg" viewBox="0 0 1384.0741 211.135"><defs><style>.cls-1{fill:#1c00c8;}</style></defs><polygon class="cls-1" points="181.905 0 0 0 0 33.596 73.111 33.596 73.111 206.29 109.405 206.29 109.405 33.596 181.905 33.596 181.905 0"/><path class="cls-1" d="M304.0259,796.4126c4.19-14.0923,20.5094-28.3106,43.5983-28.3106,16.6467,0,37.3889,8.8709,43.592,28.3106l.0378.1889v9.814h-87.26Zm45.1082,79.4581c-23.9,0-40.78-14.3439-45.1082-28.5621l-.0315-.2515v-14.03h120.232V789.4985c-10.6511-30.8334-40.5911-50.7769-76.3-50.7769-35.8412,0-66.7312,20.3836-76.9042,50.7769v64.9822c10.2422,30.5753,41.4907,51.0849,77.81,51.0849,34.885,0,63.3592-16.546,76.3443-44.2277l-30.6447-12.142c-4.6806,10.3177-16.6655,26.6748-45.3976,26.6748" transform="translate(-107.963 -694.4325)"/><path class="cls-1" d="M567.1925,795.0925l30.9655-12.4566c-12.117-27.4927-39.5845-43.9128-73.6454-43.9128-37.1309,0-67.7755,19.9436-78.1121,50.7708v64.9879c10.2925,31.0162,40.9372,51.0853,78.1121,51.0853,34.1112,0,61.5788-16.546,73.6454-44.1647l-30.9655-12.205c-5.7125,12.5825-19.8049,25.794-42.68,25.794-16.9863,0-38.1627-9.0595-44.4979-28.8767l-.0315-.2518.0315-47.6248c6.3352-19.88,27.5116-28.94,44.4979-28.94,22.875,0,36.9674,13.2115,42.68,25.794" transform="translate(-107.963 -694.4325)"/><path class="cls-1" d="M696.91,739.0365c-19.7734,0-35.8539,7.0469-47.782,20.8873l-1.2835,1.51v-17.867H616.3755V900.7216h33.5827l.0378-109.7824c3.4287-10.5688,17.5273-21.3266,37.848-21.3266,21.8055,0,34.1552,10.6948,38.44,20.6977l.0566.2519V900.7216h33.5764V781.6283c-6.3479-21.2014-30.003-42.5918-63.0068-42.5918" transform="translate(-107.963 -694.4325)"/><path class="cls-1" d="M819.3708,798.1766c4.8882-14.3442,22.2584-28.8773,46.0079-28.8773,17.8356,0,40.0186,10.1288,46.0141,28.9395l.0314.189-.0314,47.6877c-5.9955,18.7478-28.1785,28.8766-46.0141,28.8766-23.75,0-41.12-14.5327-46.0079-28.8766l-.0377-.2519Zm46.0079,107.3909c37.1938,0,69.1722-20.5092,79.6219-51.0849V789.4947c-10.4938-30.3242-42.4784-50.7708-79.6219-50.7708-36.829,0-68.8074,20.4466-79.6221,50.7708v64.9879c10.7644,30.5757,42.749,51.0849,79.6221,51.0849" transform="translate(-107.963 -694.4325)"/><path class="cls-1" d="M1458.0769,796.4134l.0377.1881v9.8147h-87.26l.0314-10.0028c4.19-14.0924,20.5095-28.3106,43.5984-28.3106,16.6466,0,37.3888,8.87,43.592,28.3106m-120.1942-6.921v64.9887c10.2421,30.5753,41.4907,51.0848,77.81,51.0848,34.8849,0,63.3591-16.546,76.3442-44.2272l-30.6446-12.1421c-4.6806,10.2548-16.6656,26.6749-45.3976,26.6749-23.9,0-40.78-14.3443-45.1083-28.5626l-.0314-.2515V833.0281h120.232V789.4924c-10.6511-30.8265-40.5911-50.77-76.3-50.77-35.8413,0-66.725,20.3835-76.9042,50.77" transform="translate(-107.963 -694.4325)"/><path class="cls-1" d="M1284.9845,796.4134l.0315.1881v9.8147h-87.26l.0313-10.0028c4.19-14.0924,20.51-28.3106,43.5984-28.3106,16.6466,0,37.3889,8.87,43.5983,28.3106m-120.2-6.921v64.9887c10.242,30.5753,41.4906,51.0848,77.81,51.0848,34.8849,0,63.3591-16.546,76.3442-44.2272l-30.6447-12.1421c-4.6806,10.2548-16.6655,26.6749-45.3975,26.6749-23.9,0-40.78-14.3443-45.1084-28.5626l-.0313-.2515V833.0281h120.2319V789.4924c-10.651-30.8265-40.5911-50.77-76.3-50.77-35.8412,0-66.7249,20.3835-76.9041,50.77" transform="translate(-107.963 -694.4325)"/><polygon class="cls-1" points="1028.75 49.322 991.261 70.776 991.261 49.26 960.163 49.26 960.163 206.352 993.437 206.352 993.437 101.666 1056.715 65.113 1028.75 49.322"/><polygon class="cls-1" points="844.787 77.006 873.663 77.006 873.663 206.355 906.932 206.355 906.346 77.006 944.515 77.006 944.515 49.262 906.34 49.262 906.919 1.826 873.663 20.26 873.663 49.262 844.787 49.262 844.787 77.006"/></svg>