<svg xmlns="http://www.w3.org/2000/svg" xmlns:xlink="http://www.w3.org/1999/xlink" width="744" height="184.306" viewBox="0 0 744 184.306">
  <defs>
    <clipPath id="clip-path">
      <path id="Path_43227" data-name="Path 43227" d="M0,0H744V184.306H0Z" transform="translate(745.571 110.256)" fill="#fff"/>
    </clipPath>
  </defs>
  <g id="Mask_Group_78" data-name="Mask Group 78" transform="translate(-745.571 -110.256)" opacity="0.749" clip-path="url(#clip-path)">
    <g id="Group_48940" data-name="Group 48940" transform="translate(745.571 -48.586)">
      <g id="Group_48938" data-name="Group 48938" transform="translate(0 0)" opacity="0.604">
        <rect id="Rectangle_8457" data-name="Rectangle 8457" width="364.488" height="221.111" transform="translate(380.335 82.208)" fill="#f5e191"/>
        <g id="Group_48863" data-name="Group 48863" opacity="0.05">
          <path id="Path_27432" data-name="Path 27432" d="M-1714.917,2592.811a30.01,30.01,0,0,0,30.254,29.765h55a29.916,29.916,0,0,0-25.183,29.339,30.019,30.019,0,0,0,30.254,29.766h259.06a30.01,30.01,0,0,0,30.254-29.766,30.016,30.016,0,0,0-30.254-29.764h-55a29.909,29.909,0,0,0,25.183-29.34,29.5,29.5,0,0,0-10.373-22.438h23.814a30.017,30.017,0,0,0,30.254-29.765,30.018,30.018,0,0,0-30.254-29.764h-114.129a29.783,29.783,0,0,0,19.276-27.739,30.019,30.019,0,0,0-30.254-29.765h-174.522a30.019,30.019,0,0,0-30.254,29.765,30.008,30.008,0,0,0,30.254,29.765h29.591a29.786,29.786,0,0,0-19.276,27.738,29.5,29.5,0,0,0,10.373,22.439h-23.814A30.007,30.007,0,0,0-1714.917,2592.811Z" transform="translate(1714.917 -2453.34)" fill="#fc0"/>
        </g>
        <g id="Group_48937" data-name="Group 48937" transform="translate(518.638 93.547)" opacity="0.273">
          <path id="Path_27432-2" data-name="Path 27432" d="M-1714.917,2592.811a30.01,30.01,0,0,0,30.254,29.765h55a29.916,29.916,0,0,0-25.183,29.339,30.019,30.019,0,0,0,30.254,29.766h259.06a30.01,30.01,0,0,0,30.254-29.766,30.016,30.016,0,0,0-30.254-29.764h-55a29.909,29.909,0,0,0,25.183-29.34,29.5,29.5,0,0,0-10.373-22.438h23.814a30.017,30.017,0,0,0,30.254-29.765,30.018,30.018,0,0,0-30.254-29.764h-114.129a29.783,29.783,0,0,0,19.276-27.739,30.019,30.019,0,0,0-30.254-29.765h-174.522a30.019,30.019,0,0,0-30.254,29.765,30.008,30.008,0,0,0,30.254,29.765h29.591a29.786,29.786,0,0,0-19.276,27.738,29.5,29.5,0,0,0,10.373,22.439h-23.814A30.007,30.007,0,0,0-1714.917,2592.811Z" transform="translate(1714.917 -2453.34)" fill="#fc0"/>
        </g>
        <g id="Group_48934" data-name="Group 48934" transform="translate(164.235 114.807)">
          <g id="Group_48924" data-name="Group 48924" transform="translate(0 0)">
            <path id="Path_27466" data-name="Path 27466" d="M850.246,3261.12a30.009,30.009,0,0,0,30.254,29.765h55a29.73,29.73,0,0,0,5.071,59.1h259.06a29.769,29.769,0,1,0,0-59.53h-55a29.906,29.906,0,0,0,25.183-29.34,29.5,29.5,0,0,0-10.373-22.437h23.814a29.769,29.769,0,1,0,0-59.529H1069.126a29.7,29.7,0,0,0-10.978-57.5H883.626a29.769,29.769,0,1,0,0,59.53h29.591a29.539,29.539,0,0,0-8.9,50.176H880.5A30.008,30.008,0,0,0,850.246,3261.12Z" transform="translate(-850.246 -3121.65)" fill="#fad955"/>
          </g>
          <g id="Group_48926" data-name="Group 48926" transform="translate(32.486 82.572)" opacity="0.39">
            <rect id="Rectangle_8470" data-name="Rectangle 8470" width="40.703" height="70.599" rx="4" transform="translate(19.687)" fill="#fff" stroke="#767196" stroke-width="1"/>
            <g id="Group_48925" data-name="Group 48925" transform="translate(0 14.555)">
              <ellipse id="Ellipse_189" data-name="Ellipse 189" cx="3.075" cy="3.026" rx="3.075" ry="3.026" transform="translate(38.403 51.496)" fill="#cee4ff"/>
              <path id="Path_27467" data-name="Path 27467" d="M886.7,3209.364l26.2-14.569s4.329-2.017,5.581,1.233a4.456,4.456,0,0,1-1.252,5.155l-16.288,12.551v29.584h-6.721s-7.745-2.242-9.454-4.6-5.012-10.87-3.645-18.265A20.361,20.361,0,0,1,886.7,3209.364Z" transform="translate(-880.795 -3194.176)" fill="#cee4ff"/>
              <rect id="Rectangle_8471" data-name="Rectangle 8471" width="15.263" height="8.068" rx="2.633" transform="translate(51.921 11.713)" fill="#cee4ff"/>
              <rect id="Rectangle_8472" data-name="Rectangle 8472" width="15.263" height="8.068" rx="2.633" transform="translate(51.921 21.463)" fill="#cee4ff"/>
              <rect id="Rectangle_8473" data-name="Rectangle 8473" width="15.263" height="8.068" rx="2.633" transform="translate(51.921 31.212)" fill="#cee4ff"/>
              <rect id="Rectangle_8474" data-name="Rectangle 8474" width="15.263" height="8.068" rx="2.633" transform="translate(51.921 40.962)" fill="#cee4ff"/>
            </g>
            <path id="Path_27468" data-name="Path 27468" d="M886.7,3206.642l26.2-14.568s4.329-2.017,5.581,1.233a4.456,4.456,0,0,1-1.252,5.155l-16.288,12.551V3240.6h-6.721s-7.745-2.241-9.454-4.594-5.012-10.87-3.645-18.267A20.366,20.366,0,0,1,886.7,3206.642Z" transform="translate(-880.795 -3180.756)" fill="#fff"/>
            <rect id="Rectangle_8475" data-name="Rectangle 8475" width="15.263" height="8.068" rx="2.633" transform="translate(50.48 22.412)" fill="#fff"/>
            <rect id="Rectangle_8476" data-name="Rectangle 8476" width="15.263" height="8.068" rx="2.633" transform="translate(50.48 32.162)" fill="#fff"/>
            <rect id="Rectangle_8477" data-name="Rectangle 8477" width="15.263" height="8.068" rx="2.633" transform="translate(50.48 41.911)" fill="#fff"/>
            <rect id="Rectangle_8478" data-name="Rectangle 8478" width="15.263" height="8.068" rx="2.633" transform="translate(50.48 51.661)" fill="#fff"/>
            <ellipse id="Ellipse_190" data-name="Ellipse 190" cx="3.075" cy="3.026" rx="3.075" ry="3.026" transform="translate(36.963 62.194)" fill="none" stroke="#767196" stroke-width="1"/>
            <rect id="Rectangle_8479" data-name="Rectangle 8479" width="10.844" height="1.233" transform="translate(34.511 3.025)" fill="none" stroke="#767196" stroke-width="1"/>
            <path id="Path_27469" data-name="Path 27469" d="M886.7,3206.642l26.2-14.568s4.329-2.017,5.581,1.233a4.456,4.456,0,0,1-1.252,5.155l-16.288,12.551V3240.6h-6.721s-7.745-2.241-9.454-4.594-5.012-10.87-3.645-18.267A20.366,20.366,0,0,1,886.7,3206.642Z" transform="translate(-880.795 -3180.756)" fill="none" stroke="#767196" stroke-width="1"/>
            <rect id="Rectangle_8480" data-name="Rectangle 8480" width="15.263" height="8.068" rx="2.633" transform="translate(50.48 22.412)" fill="none" stroke="#767196" stroke-width="1"/>
            <rect id="Rectangle_8481" data-name="Rectangle 8481" width="15.263" height="8.068" rx="2.633" transform="translate(50.48 32.162)" fill="none" stroke="#767196" stroke-width="1"/>
            <rect id="Rectangle_8482" data-name="Rectangle 8482" width="15.263" height="8.068" rx="2.633" transform="translate(50.48 41.911)" fill="none" stroke="#767196" stroke-width="1"/>
            <rect id="Rectangle_8483" data-name="Rectangle 8483" width="15.263" height="8.068" rx="2.633" transform="translate(50.48 51.661)" fill="none" stroke="#767196" stroke-width="1"/>
          </g>
          <g id="Group_48927" data-name="Group 48927" transform="translate(295.907 79.157)" opacity="0.37">
            <line id="Line_1976" data-name="Line 1976" x2="6.798" y2="12.993" transform="translate(3.204)" fill="none" stroke="#767196" stroke-width="1"/>
            <line id="Line_1977" data-name="Line 1977" y1="6.688" x2="13.206" transform="translate(0 3.152)" fill="none" stroke="#767196" stroke-width="1"/>
          </g>
          <g id="Group_48928" data-name="Group 48928" transform="translate(97.798 45.001)" opacity="0.37">
            <line id="Line_1978" data-name="Line 1978" x2="6.798" y2="12.993" transform="translate(3.204)" fill="none" stroke="#767196" stroke-width="1"/>
            <line id="Line_1979" data-name="Line 1979" y1="6.688" x2="13.206" transform="translate(0 3.152)" fill="none" stroke="#767196" stroke-width="1"/>
          </g>
          <g id="Group_48929" data-name="Group 48929" transform="translate(333.979 194.229)" opacity="0.37">
            <line id="Line_1980" data-name="Line 1980" x2="6.798" y2="12.993" transform="translate(3.204)" fill="none" stroke="#767196" stroke-width="1"/>
            <line id="Line_1981" data-name="Line 1981" y1="6.688" x2="13.206" transform="translate(0 3.152)" fill="none" stroke="#767196" stroke-width="1"/>
          </g>
          <ellipse id="Ellipse_192" data-name="Ellipse 192" cx="8.064" cy="7.934" rx="8.064" ry="7.934" transform="translate(86.428 204.583)" fill="none" stroke="#767196" stroke-width="1" opacity="0.37"/>
          <ellipse id="Ellipse_193" data-name="Ellipse 193" cx="8.064" cy="7.934" rx="8.064" ry="7.934" transform="translate(47.57 13.484)" fill="none" stroke="#767196" stroke-width="1" opacity="0.37"/>
          <ellipse id="Ellipse_194" data-name="Ellipse 194" cx="8.064" cy="7.934" rx="8.064" ry="7.934" transform="translate(197.881 35.631)" fill="none" stroke="#767196" stroke-width="1" opacity="0.37"/>
          <g id="Group_48931" data-name="Group 48931" transform="translate(115.256 55.972)" opacity="0.39">
            <rect id="Rectangle_8484" data-name="Rectangle 8484" width="121.383" height="142.22" rx="12" transform="translate(5.763 14.325)" fill="#d8d5e9"/>
            <path id="Path_27470" data-name="Path 27470" d="M1034.345,3308.465H947.536a17.149,17.149,0,0,1-17.288-17.008v-108.2a17.15,17.15,0,0,1,17.288-17.009h86.809a17.15,17.15,0,0,1,17.288,17.009v108.2A17.15,17.15,0,0,1,1034.345,3308.465Z" transform="translate(-930.248 -3159.008)" fill="#f7f7f9"/>
            <ellipse id="Ellipse_195" data-name="Ellipse 195" cx="15.924" cy="15.666" rx="15.924" ry="15.666" transform="translate(22.315 40.831)" fill="#cee4ff"/>
            <ellipse id="Ellipse_196" data-name="Ellipse 196" cx="15.924" cy="15.666" rx="15.924" ry="15.666" transform="translate(20.657 36.988)" fill="none" stroke="#767196" stroke-width="1"/>
            <path id="Path_27471" data-name="Path 27471" d="M948.576,3211.024c0-6.611,4.555-11.969,10.177-11.969s10.175,5.358,10.175,11.969" transform="translate(-922.171 -3145.314)" fill="#f7f7f9" stroke="#767196" stroke-width="1"/>
            <ellipse id="Ellipse_197" data-name="Ellipse 197" cx="5.242" cy="5.157" rx="5.242" ry="5.157" transform="translate(31.339 44.966)" fill="#f7f7f9" stroke="#767196" stroke-width="1"/>
            <line id="Line_1982" data-name="Line 1982" x2="38.745" transform="translate(66.455 44.966)" fill="none" stroke="#767196" stroke-width="1"/>
            <line id="Line_1983" data-name="Line 1983" x2="24.748" transform="translate(66.455 55.364)" fill="none" stroke="#767196" stroke-width="1"/>
            <line id="Line_1984" data-name="Line 1984" x2="38.745" transform="translate(33.132 93.004)" fill="none" stroke="#767196" stroke-width="1"/>
            <line id="Line_1985" data-name="Line 1985" x2="72.067" transform="translate(33.132 122.402)" fill="none" stroke="#767196" stroke-width="1"/>
            <line id="Line_1986" data-name="Line 1986" x2="24.748" transform="translate(33.132 103.401)" fill="none" stroke="#767196" stroke-width="1"/>
            <ellipse id="Ellipse_198" data-name="Ellipse 198" cx="4.904" cy="4.825" rx="4.904" ry="4.825" transform="translate(12.507 89.747)" fill="none" stroke="#767196" stroke-width="1"/>
            <ellipse id="Ellipse_199" data-name="Ellipse 199" cx="4.904" cy="4.825" rx="4.904" ry="4.825" transform="translate(12.507 117.577)" fill="none" stroke="#767196" stroke-width="1"/>
            <g id="Group_48930" data-name="Group 48930" transform="translate(0 7.238)">
              <path id="Path_27472" data-name="Path 27472" d="M930.248,3207.3V3193.65" transform="translate(-930.248 -3154.808)" fill="#f7f7f9" stroke="#767196" stroke-width="1"/>
              <line id="Line_1987" data-name="Line 1987" y1="1.297" transform="translate(0.001 58.625)" fill="none" stroke="#767196" stroke-width="1"/>
              <path id="Path_27473" data-name="Path 27473" d="M1051.633,3264.085v8.941a17.15,17.15,0,0,1-17.288,17.008H947.536a17.149,17.149,0,0,1-17.288-17.008v-62.62" transform="translate(-930.248 -3147.814)" fill="none" stroke="#767196" stroke-width="1"/>
              <line id="Line_1988" data-name="Line 1988" y2="3.378" transform="translate(121.384 110.661)" fill="none" stroke="#767196" stroke-width="1"/>
              <line id="Line_1989" data-name="Line 1989" y2="5.85" transform="translate(121.384 101.071)" fill="none" stroke="#767196" stroke-width="1"/>
              <path id="Path_27474" data-name="Path 27474" d="M930.248,3196v-12.741a17.15,17.15,0,0,1,17.288-17.009h86.809a17.15,17.15,0,0,1,17.288,17.009v77.608" transform="translate(-930.248 -3166.246)" fill="none" stroke="#767196" stroke-width="1"/>
            </g>
            <rect id="Rectangle_8485" data-name="Rectangle 8485" width="41.197" height="12.304" rx="3.862" transform="translate(45.856 3.257)" fill="#cee4ff"/>
            <rect id="Rectangle_8486" data-name="Rectangle 8486" width="41.197" height="12.304" rx="3.862" transform="translate(43.036)" fill="#fff"/>
            <rect id="Rectangle_8487" data-name="Rectangle 8487" width="41.197" height="12.304" rx="3.862" transform="translate(43.036)" fill="none" stroke="#767196" stroke-width="1"/>
          </g>
          <g id="Group_48936" data-name="Group 48936" transform="translate(257.879 133.233)" opacity="0.39">
            <g id="Group_48935" data-name="Group 48935" transform="translate(0 0)">
              <path id="Path_27475" data-name="Path 27475" d="M1861.388,819.686v46.47l-5.842,4.174-8.277-4.527-9.283,4.539-6.526-4.573-6.77,3.729V819.911a14.052,14.052,0,0,0-.961-2.721c-1.16-2.28-2.318-2.727-2.318-2.727h34.762A5.319,5.319,0,0,1,1861.388,819.686Z" transform="translate(-1799.534 -795.703)" fill="#f7f7f9"/>
              <path id="Path_27476" data-name="Path 27476" d="M1847.955,819.473V801.227h-41.729v50.746a5.182,5.182,0,0,0,5.217,5.132h1.158a5.182,5.182,0,0,0,5.216-5.132" transform="translate(-1806.226 -801.227)" fill="none" stroke="#767196" stroke-width="1"/>
              <path id="Path_27477" data-name="Path 27477" d="M1825.428,869.631l7.164-3.946,6.525,4.573,9.285-4.539,8.277,4.527,5.842-4.173V819.6a5.325,5.325,0,0,0-5.217-5.226H1819" transform="translate(-1800.599 -795.739)" fill="none" stroke="#767196" stroke-width="1"/>
              <path id="Path_27478" data-name="Path 27478" d="M1814.289,847.447V814.376H1827.9V870.17" transform="translate(-1802.673 -795.739)" fill="none" stroke="#767196" stroke-width="1"/>
            </g>
            <line id="Line_1954" data-name="Line 1954" x2="24.748" transform="translate(30.961 34.345)" fill="none" stroke="#767196" stroke-width="1"/>
            <line id="Line_1954-2" data-name="Line 1954" x2="24.748" transform="translate(30.961 48.519)" fill="none" stroke="#767196" stroke-width="1"/>
            <line id="Line_1954-3" data-name="Line 1954" x2="24.748" transform="translate(30.961 40.014)" fill="none" stroke="#767196" stroke-width="1"/>
            <line id="Line_1954-4" data-name="Line 1954" x2="24.748" transform="translate(30.961 52.771)" fill="none" stroke="#767196" stroke-width="1"/>
          </g>
        </g>
        <g id="Group_48868" data-name="Group 48868" transform="translate(581.772 263.68)" opacity="0.21">
          <line id="Line_1965" data-name="Line 1965" x2="6.798" y2="12.993" transform="translate(3.204)" fill="none" stroke="#767196" stroke-width="1"/>
          <line id="Line_1966" data-name="Line 1966" y1="6.688" x2="13.206" transform="translate(0 3.152)" fill="none" stroke="#767196" stroke-width="1"/>
        </g>
        <ellipse id="Ellipse_188" data-name="Ellipse 188" cx="8.064" cy="7.934" rx="8.064" ry="7.934" transform="translate(518.502 250.368)" fill="none" stroke="#767196" stroke-width="1" opacity="0.33"/>
      </g>
      <g id="Group_48867" data-name="Group 48867" transform="translate(132.286 253.759)" opacity="0.47">
        <line id="Line_1965-2" data-name="Line 1965" x2="6.798" y2="12.993" transform="translate(3.204)" fill="none" stroke="#767196" stroke-width="1"/>
        <line id="Line_1966-2" data-name="Line 1966" y1="6.688" x2="13.206" transform="translate(0 3.152)" fill="none" stroke="#767196" stroke-width="1"/>
      </g>
      <ellipse id="Ellipse_187" data-name="Ellipse 187" cx="8.064" cy="7.934" rx="8.064" ry="7.934" transform="translate(79.1 168.16)" fill="none" stroke="#767196" stroke-width="1" opacity="0.34"/>
    </g>
  </g>
</svg>
