<svg xmlns="http://www.w3.org/2000/svg" width="32.525" height="36.047" viewBox="0 0 32.525 36.047"><defs><style>.a{fill:#57606f;}.b{fill:#d1d1d6;}</style></defs><g transform="translate(-167.185 -206.013)"><path class="a" d="M96.929,185.683H87.961a.5.5,0,0,1-.5-.5V150.136a.5.5,0,0,1,.5-.5h26.007a.5.5,0,0,1,.5.5V163.3h-1V150.636H88.461v34.047h8.468Z" transform="translate(79.724 56.377)"/><rect class="a" width="15.066" height="1" transform="translate(173.066 214.874)"/><rect class="a" width="15.066" height="1" transform="translate(173.066 220.039)"/><rect class="a" width="9.865" height="1" transform="translate(173.066 225.205)"/><path class="a" d="M102.4,185.235a.5.5,0,0,1-.5-.566l.807-6.076a.506.506,0,0,1,.15-.295l7.869-7.533a.5.5,0,0,1,.694,0l4.708,4.573a.5.5,0,0,1,.018.7l-7.376,7.936a.5.5,0,0,1-.276.151l-6.008,1.1A.548.548,0,0,1,102.4,185.235Zm1.28-6.336-.694,5.22,5.169-.946,6.93-7.456-4.012-3.9Z" transform="translate(79.724 56.377)"/><path class="b" d="M117.07,167.879l1.806,1.746a2,2,0,0,1,.048,2.828l-3.133,3.241h0l-4.682-4.526h0l3.133-3.241A2,2,0,0,1,117.07,167.879Z" transform="translate(79.724 56.377)"/><path class="a" d="M115.791,176.194a.5.5,0,0,1-.348-.14l-4.682-4.526a.5.5,0,0,1-.011-.707l3.132-3.241a2.5,2.5,0,0,1,3.535-.06l1.807,1.746a2.5,2.5,0,0,1,.059,3.535l-3.133,3.241a.5.5,0,0,1-.351.152Zm-3.975-5.038,3.963,3.831,2.785-2.882a1.5,1.5,0,0,0-.036-2.121l-1.806-1.746h0a1.5,1.5,0,0,0-2.121.037Z" transform="translate(79.724 56.377)"/></g></svg>