<svg xmlns="http://www.w3.org/2000/svg" width="29.865" height="32.047" viewBox="0 0 29.865 32.047">
  <g id="Group_69974" data-name="Group 69974" transform="translate(0.5 0.5)">
    <path id="Path_37661" data-name="Path 37661" d="M3778.51,844.055h-7.7V813.008h22.314v11.663" transform="translate(-3770.815 -813.008)" fill="none" stroke="#fff" stroke-linejoin="round" stroke-width="1"/>
    <line id="Line_2083" data-name="Line 2083" x2="15.066" transform="translate(4.231 7.85)" fill="none" stroke="#fff" stroke-linejoin="round" stroke-width="1"/>
    <line id="Line_2084" data-name="Line 2084" x2="15.066" transform="translate(4.231 12.426)" fill="none" stroke="#fff" stroke-linejoin="round" stroke-width="1"/>
    <line id="Line_2085" data-name="Line 2085" x2="9.865" transform="translate(4.497 17.001)" fill="none" stroke="#fff" stroke-linejoin="round" stroke-width="1"/>
    <path id="Path_37662" data-name="Path 37662" d="M3797.618,839.36l-7.869,7.533-.807,6.076,6.008-1.1,7.376-7.936Z" transform="translate(-3778.196 -822.37)" fill="none" stroke="#fff" stroke-linejoin="round" stroke-width="1"/>
    <path id="Rectangle_9830" data-name="Rectangle 9830" d="M2,0H4.512a2,2,0,0,1,2,2V6.508a0,0,0,0,1,0,0H0a0,0,0,0,1,0,0V2A2,2,0,0,1,2,0Z" transform="matrix(0.719, 0.695, -0.695, 0.719, 23.979, 12.822)" fill="none" stroke="#fff" stroke-linejoin="round" stroke-width="1"/>
  </g>
</svg>
