<svg xmlns="http://www.w3.org/2000/svg" width="52" height="52" viewBox="0 0 52 52"><defs><style>.a{fill:#33c38f;}.b,.c{fill:none;stroke:#fff;stroke-linecap:round;stroke-linejoin:round;}.c{stroke-width:2px;}</style></defs><g transform="translate(-649 -289)"><circle class="a" cx="26" cy="26" r="26" transform="translate(649 289)"/><g transform="translate(216 -60)"><g transform="translate(445.5 359.464)"><path class="b" d="M25.5,16.757l3.257,3.257L35.272,13.5" transform="translate(-5.189 -4.922)"/></g><g transform="translate(13 50)"><path class="c" d="M19.875,29.391v-2.3A4.594,4.594,0,0,0,15.281,22.5H6.094A4.594,4.594,0,0,0,1.5,27.094v2.3" transform="translate(432.5 305.84)"/><path class="c" d="M16.688,9.094A4.594,4.594,0,1,1,12.094,4.5a4.594,4.594,0,0,1,4.594,4.594Z" transform="translate(431.638 308.5)"/></g></g></g></svg>