<?xml version="1.0" encoding="utf-8"?>
<!-- Generator: Adobe Illustrator 26.0.3, SVG Export Plug-In . SVG Version: 6.00 Build 0)  -->
<svg version="1.1" id="Layer_1" xmlns="http://www.w3.org/2000/svg" xmlns:xlink="http://www.w3.org/1999/xlink" x="0px" y="0px"
	 viewBox="0 0 36 36" style="enable-background:new 0 0 36 36;" xml:space="preserve">
<style type="text/css">
	.st0{clip-path:url(#SVGID_00000003806931714915465300000000520652169282408343_);}
	.st1{fill:#FFFFFF;}
	.st2{clip-path:url(#SVGID_00000055677051881154232990000016985393508552313513_);}
</style>
<g id="Group_69554" transform="translate(-376 -198)">
	<g id="Group_69354" transform="translate(399.745 220.506)">
		<g>
			<defs>
				<rect id="SVGID_1_" x="-0.5" y="-0.4" width="6.7" height="9.3"/>
			</defs>
			<clipPath id="SVGID_00000047745631373221680260000017435995970861045897_">
				<use xlink:href="#SVGID_1_"  style="overflow:visible;"/>
			</clipPath>
			
				<g id="Group_69353" transform="translate(0 0)" style="clip-path:url(#SVGID_00000047745631373221680260000017435995970861045897_);">
				<path id="Path_46690" class="st1" d="M5.5,7.6c0-0.4,0-0.7,0-1.1c0-0.5-0.2-1-0.6-1.3L3.9,4.5C3.7,4.3,3.7,4.2,3.9,4l0.9-0.7
					C5.3,3,5.5,2.5,5.5,2c0-0.3,0-0.6,0-1c0,0,0-0.1,0-0.1H5.1c0,0.3,0,0.5,0,0.7c0,0.4-0.2,0.8-0.5,1C4.2,3,3.8,3.3,3.3,3.6
					c-0.3,0.2-0.7,0.2-1,0C1.9,3.3,1.5,3,1.1,2.7C0.9,2.5,0.7,2.3,0.7,2c0-0.1,0-0.3,0-0.4c0-0.2,0-0.4,0-0.7H0.2c0,0.4,0,0.7,0,1.1
					c0,0.5,0.2,1,0.6,1.3L1.8,4C2,4.2,2,4.3,1.8,4.5C1.4,4.7,1.1,5,0.8,5.2C0.4,5.5,0.2,6,0.2,6.5v1.1h0.4c0-0.3,0-0.5,0-0.8
					c0-0.4,0.2-0.7,0.5-1c0.4-0.3,0.8-0.6,1.2-0.9c0.3-0.3,0.7-0.3,1,0c0.3,0.3,0.7,0.5,1,0.8c0.1,0.1,0.1,0.1,0.2,0.2
					c0.3,0.2,0.5,0.6,0.5,1c0,0.2,0,0.5,0,0.7H5.5z M6.2,8.9V8.6C6.2,8.2,6,8,5.6,8H1.1C0.7,8,0.4,8,0,8c-0.2,0-0.4,0.1-0.4,0.3
					c0,0.2,0,0.4,0,0.6H6.2z M-0.5-0.4V0c0,0.4,0.2,0.6,0.5,0.6h5.6c0,0,0.1,0,0.1,0c0.2,0,0.4-0.2,0.4-0.4c0-0.2,0-0.3,0-0.5H-0.5z
					"/>
			</g>
		</g>
	</g>
	<g id="Group_68536" transform="translate(376 198)">
		<g>
			<defs>
				<rect id="SVGID_00000169556747941740993550000003624584224337644165_" x="1.5" y="1.5" width="33" height="33"/>
			</defs>
			<clipPath id="SVGID_00000082363545216280890290000009463398013368613048_">
				<use xlink:href="#SVGID_00000169556747941740993550000003624584224337644165_"  style="overflow:visible;"/>
			</clipPath>
			
				<g id="Group_68535_00000071550459219513950910000000505822612461321344_" style="clip-path:url(#SVGID_00000082363545216280890290000009463398013368613048_);">
				<path id="Path_46629_00000139260878617265492160000004183856426298976435_" class="st1" d="M27.3,1.5c0.4,0.2,0.7,0.5,0.8,1
					c0.8,2.3,1.5,4.6,2.3,6.9c0.1,0.2,0.1,0.4,0.1,0.6c0,2.4,0,4.9,0,7.3c0,0.1,0,0.2,0,0.3c-0.1,0.3-0.3,0.5-0.6,0.4
					c-0.2,0-0.4-0.2-0.4-0.4c0-0.1,0-0.2,0-0.3c0-2.2,0-4.4,0-6.6v-0.4h-9.3v0.3c0,1.2,0,2.4,0,3.6c0,0.5-0.2,0.7-0.7,0.7
					c-2.3,0-4.6,0-6.9,0c-0.5,0-0.7-0.2-0.7-0.7c0-1.2,0-2.4,0-3.6v-0.4H2.6v23.3h19.8c-0.1-0.1-0.2-0.1-0.2-0.2
					c-2.6-1.6-4.2-4.5-3.9-7.5c0.1-2.6,1.5-5.1,3.7-6.5c0.2-0.2,0.6-0.2,0.8,0c0,0,0,0,0,0c0.2,0.3,0.1,0.6-0.2,0.8
					c-3.4,2.2-4.3,6.7-2.1,10.1s6.7,4.3,10.1,2.1c3.4-2.2,4.3-6.7,2.1-10.1c-1.2-1.8-3.1-3-5.2-3.3c-1.1-0.1-2.1,0-3.2,0.3
					c-0.4,0.1-0.6,0-0.8-0.3c-0.1-0.3,0-0.6,0.3-0.7c0,0,0.1,0,0.1,0c4.3-1.5,9.1,0.9,10.5,5.2c0.2,0.6,0.3,1.1,0.4,1.7
					c0,0.1,0,0.1,0.1,0.2v1.4c0,0.1,0,0.2-0.1,0.2c-0.4,3.3-2.8,6.1-6,7c-0.5,0.1-1,0.2-1.5,0.3H2.3c-0.4-0.1-0.6-0.4-0.8-0.8V9.6
					c0-0.1,0.1-0.2,0.1-0.3C2.4,7,3.2,4.8,3.9,2.5C4,2,4.3,1.7,4.7,1.5H27.3z M15.5,9.3V2.6h-2.1c0,0.3,0,0.7-0.1,1
					c0,0.4-0.3,0.6-0.6,0.6c-0.3,0-0.5-0.3-0.5-0.7c0-0.3,0-0.6,0-0.9c-0.1,0-0.1,0-0.2,0c-2.3,0-4.6,0-6.9,0C5,2.5,4.9,2.6,4.9,2.8
					C4.5,4.1,4.1,5.3,3.6,6.6C3.3,7.5,3,8.4,2.7,9.3h9.2c0-0.1,0-0.2,0-0.3c0.1-1.1,0.1-2.2,0.2-3.2c0-0.4,0.2-0.6,0.6-0.6
					s0.5,0.3,0.5,0.6c0,0.5-0.1,1.1-0.1,1.6C13,8,13,8.6,13,9.3L15.5,9.3z M29.3,9.3c0-0.1,0-0.1,0-0.2c-0.7-2.1-1.4-4.2-2.1-6.3
					c-0.1-0.2-0.2-0.2-0.4-0.2c-2.3,0-4.5,0-6.8,0c-0.1,0-0.2,0-0.3,0l0.4,6.7L29.3,9.3z M19.1,10.3h-6.2v3.6h6.2V10.3z M19.1,9.3
					l-0.4-6.7h-2.1v6.7H19.1z"/>
				<path id="Path_46632_00000180341408958120184710000011637054527509643157_" class="st1" d="M1.5,33.9c0.1,0.4,0.4,0.6,0.8,0.8
					H1.5V33.9z"/>
				<path id="Path_46634_00000105395387397592735960000001738902357194652303_" class="st1" d="M7.2,28c-1,0-2,0-3,0
					c-0.4,0-0.6-0.2-0.6-0.5c0-0.3,0.2-0.5,0.6-0.5c2,0,4,0,6,0c0.4,0,0.6,0.2,0.6,0.5c0,0.3-0.2,0.5-0.6,0.5C9.2,28,8.2,28,7.2,28"
					/>
				<path id="Path_46635_00000038408407678476888860000009347371648919326119_" class="st1" d="M7.2,29c1,0,2,0,3,0
					c0.4,0,0.6,0.2,0.6,0.5c0,0.3-0.2,0.5-0.6,0.5c-2,0-4,0-6,0c-0.4,0-0.6-0.2-0.6-0.5c0-0.3,0.2-0.5,0.6-0.5C5.2,29,6.2,29,7.2,29
					"/>
				<path id="Path_46636_00000031172086959454844940000015755343909431284124_" class="st1" d="M7.2,32.1c-1,0-2,0-3,0
					c-0.4,0-0.6-0.2-0.6-0.5c0-0.3,0.2-0.5,0.6-0.5c2,0,4,0,6,0c0.4,0,0.6,0.2,0.6,0.5c0,0.3-0.2,0.5-0.6,0.5
					C9.2,32.1,8.2,32.1,7.2,32.1"/>
			</g>
		</g>
	</g>
</g>
</svg>
