<svg xmlns="http://www.w3.org/2000/svg" width="60" height="60" viewBox="0 0 60 60"><defs><style>.a{fill:#ffa502;}</style></defs><path class="a" d="M30,60A30.008,30.008,0,0,1,18.323,2.358,30.008,30.008,0,0,1,41.677,57.643,29.813,29.813,0,0,1,30,60ZM20.182,43.688a.99.99,0,1,0,0,1.979H40.863a.99.99,0,1,0,0-1.979H38.884a44.667,44.667,0,0,0,.414-6.125c0-2.953-2.906-4.735-5.028-6.036l-.018-.011a7.972,7.972,0,0,1-1.891-1.367,7.821,7.821,0,0,1,1.912-1.384C36.393,27.469,39.3,25.7,39.3,22.776a44.909,44.909,0,0,0-.452-6.394h2.017a.99.99,0,1,0,0-1.979H20.182a.99.99,0,1,0,0,1.979H22.2a44.561,44.561,0,0,0-.453,6.394c0,2.918,2.9,4.692,5.024,5.987a7.969,7.969,0,0,1,1.909,1.379,7.919,7.919,0,0,1-1.9,1.384c-2.122,1.3-5.029,3.084-5.029,6.037a44.731,44.731,0,0,0,.414,6.125Zm17.358,0H23.5a43.93,43.93,0,0,1-.429-6.125c0-2.209,2.437-3.7,4.395-4.9l.009-.005c1.442-.886,2.484-1.527,2.538-2.445.057-.986-1.038-1.654-2.552-2.578-1.956-1.194-4.389-2.68-4.389-4.854a43.1,43.1,0,0,1,.47-6.394H37.5a43.149,43.149,0,0,1,.469,6.394c0,2.173-2.434,3.659-4.389,4.854-1.515.925-2.609,1.594-2.552,2.578.053.918,1.094,1.558,2.536,2.444l.011.007c1.958,1.2,4.394,2.695,4.394,4.9a43.959,43.959,0,0,1-.428,6.125Zm-.274-25.725a36.588,36.588,0,0,1-6.523,2.876,39.25,39.25,0,0,1-7.234.956s-.013.662-.013,1.009c0,2.05,2.3,3.452,4.141,4.579l.23.14c1.294.788,2.229,1.357,2.178,2.236v.768c-.008.132-.013.34-.02.6-.039,1.514-.121,4.663-.887,5.786a6.729,6.729,0,0,1-2.8,1.652c-1.4.58-2.717,1.127-2.716,1.972a17.324,17.324,0,0,0,.242,2.534v.007c.012.082.024.158.034.226H37.147a3.969,3.969,0,0,1,.142-.614,5.375,5.375,0,0,0,.213-1.816c0-.7-1.314-1.351-2.7-2.036-1.544-.761-3.294-1.624-3.59-2.727a18.978,18.978,0,0,1-.216-4.376c.013-.539.024-.964.009-1.211v-.768c-.052-.879.883-1.448,2.177-2.236l.23-.14c1.845-1.127,4.141-2.529,4.141-4.579C37.548,20.868,37.269,17.992,37.266,17.963Z"/></svg>