<svg xmlns="http://www.w3.org/2000/svg" width="22.525" height="21.818" viewBox="0 0 22.525 21.818"><defs><style>.a{fill:none;stroke:#57606f;}</style></defs><g transform="translate(-709.288 -614.662)"><g transform="translate(-3 -3)"><path class="a" d="M715.76,625.9l7.388-4.31.189-.11.108-.063.132.07,7.934,4.247-7.9,4.2-8.279-4.388-2.268-2.663,8.2-4.572,1.993,2.657"/><path class="a" d="M723.5,629.929v8.706l8.224-4.507v-4.2l-5.907,3.25-1.9-2.894"/><path class="a" d="M715.4,625.754l-2.206,2.989,7.9,4.294,2.348-2.894"/><path class="a" d="M715.5,630.309v4.246l7.258,4.208.475.276"/><path class="a" d="M723.653,621.289l2.3-2.823,7.97,4.222-2.254,2.8,2.4,3.107-2.4,1.4"/></g></g></svg>