<svg xmlns="http://www.w3.org/2000/svg" width="52" height="52" viewBox="0 0 52 52"><defs><style>.a{fill:#ed59d3;}.b{fill:none;stroke:#fff;stroke-linecap:round;stroke-linejoin:round;stroke-width:2px;}</style></defs><g transform="translate(-649 -289)"><circle class="a" cx="26" cy="26" r="26" transform="translate(649 289)"/><g transform="translate(661 304)"><path class="b" d="M19.875,29.391v-2.3A4.594,4.594,0,0,0,15.281,22.5H6.094A4.594,4.594,0,0,0,1.5,27.094v2.3" transform="translate(-1.5 -7.16)"/><path class="b" d="M16.688,9.094A4.594,4.594,0,1,1,12.094,4.5a4.594,4.594,0,0,1,4.594,4.594Z" transform="translate(-2.362 -4.5)"/><path class="b" d="M33.445,29.436v-2.3A4.594,4.594,0,0,0,30,22.7" transform="translate(-6.274 -7.205)"/><path class="b" d="M24,4.7a4.594,4.594,0,0,1,0,8.9" transform="translate(-5.269 -4.546)"/></g></g></svg>