<svg xmlns="http://www.w3.org/2000/svg" width="22" height="22" viewBox="0 0 22 22"><defs><style>.a{fill:#999;}</style></defs><path class="a" d="M18.82,22a.859.859,0,0,1,0-1.718,1.461,1.461,0,1,0,0-2.922H3.18a1.461,1.461,0,0,0,0,2.922H14.523a.859.859,0,1,1,0,1.718H3.18a3.18,3.18,0,0,1,0-6.359H18.82a3.18,3.18,0,1,1,0,6.359Zm0-7.82H3.18a3.18,3.18,0,1,1,0-6.359H18.82a3.18,3.18,0,1,1,0,6.359ZM3.18,9.539a1.461,1.461,0,0,0,0,2.921H18.82a1.461,1.461,0,1,0,0-2.921Zm15.64-3.18H3.18A3.18,3.18,0,0,1,3.18,0H18.82a3.18,3.18,0,1,1,0,6.359ZM3.18,1.719a1.461,1.461,0,0,0,0,2.921H18.82a1.461,1.461,0,1,0,0-2.921Z"/></svg>