<svg xmlns="http://www.w3.org/2000/svg" width="32.993" height="36.833" viewBox="0 0 32.993 36.833"><defs><style>.a,.b,.c{fill:none;stroke-miterlimit:10;}.a,.c{stroke:#1c1ec8;}.b{stroke:#759dfd;}.c{stroke-linecap:round;}.d{fill:#1c1ec8;}</style></defs><g transform="translate(-473.187 -368.66)"><path class="a" d="M482.127,379.531V402.3l4.226,2.27,3.733-2.09,3.4,2.422,4.838-2.4,4.312,2.4,3.044-2.211V375.4a2.8,2.8,0,0,0-2.718-2.768h-9.886"/><path class="b" d="M492.4,372.633"/><path class="a" d="M477.838,372.067s4.692-2.907,5.376-2.907h17.1s1.539,0,1.539,1.453a1.566,1.566,0,0,1-1.539,1.625H485.309"/><path class="a" d="M480.007,379.121h2.138s1.326-.042,3.121-2.223,6.67.428,7.44.641,2.052-1.026,2.052-1.924-2.48-3.377-2.48-3.377"/><line class="c" x1="3.46" y1="2.888" transform="translate(477.838 380.468)"/><rect class="a" width="4.151" height="13.549" transform="translate(473.687 370.443)"/><rect class="d" width="6.099" height="6.099" transform="translate(484.541 383.356)"/><line class="a" x2="9.288" transform="translate(493.258 384.372)"/><line class="a" x2="9.288" transform="translate(493.258 386.537)"/><line class="a" x2="9.288" transform="translate(493.258 388.702)"/><line class="a" x2="18.006" transform="translate(484.541 393.033)"/><line class="a" x2="18.006" transform="translate(484.541 395.198)"/><line class="a" x2="18.006" transform="translate(484.541 397.363)"/><line class="a" x2="18.006" transform="translate(484.541 399.528)"/></g></svg>