<svg xmlns="http://www.w3.org/2000/svg" width="30.384" height="35.556" viewBox="0 0 30.384 35.556"><defs><style>.a{fill:#57606f;}</style></defs><path class="a" d="M11.551,56.433V54.322a6.54,6.54,0,0,1,.267.635,9.782,9.782,0,0,1,.338,1.2,8.03,8.03,0,0,1,2.331-.572,9.252,9.252,0,0,0-1.208-3.066,4.235,4.235,0,0,0-1.6-1.492A2.86,2.86,0,0,0,10.46,50.7c-.022,0-.045,0-.068,0H4.6c-.023,0-.045,0-.067,0a2.861,2.861,0,0,0-1.218.319,5.06,5.06,0,0,0-2.284,2.824A19.839,19.839,0,0,0,0,61.049c0,.878.028,1.833.089,2.872a1.2,1.2,0,0,0,1.2,1.129l.071,0a1.2,1.2,0,0,0,1.127-1.267c-.058-1-.085-1.905-.085-2.732-.005-3.629.524-5.668,1.044-6.733V76.8a1.854,1.854,0,0,0,3.707,0V64.117c-.009-.158-.015-.317-.015-.477A8.1,8.1,0,0,1,11.551,56.433Z" transform="translate(0 -43.1)"/><path class="a" d="M52.325,159.092v9.854a1.854,1.854,0,0,0,3.707,0v-5.955A8.146,8.146,0,0,1,52.325,159.092Z" transform="translate(-44.481 -135.242)"/><circle class="a" cx="3.373" cy="3.373" r="3.373" transform="translate(4.124)"/><path class="a" d="M117.225,51.023a2.862,2.862,0,0,0-1.218-.319c-.022,0-.045,0-.068,0h-5.792c-.023,0-.045,0-.068,0a2.861,2.861,0,0,0-1.218.319,5.061,5.061,0,0,0-2.284,2.824,11.79,11.79,0,0,0-.523,1.728,8.033,8.033,0,0,1,2.335.551,8.288,8.288,0,0,1,.6-1.81v2.079a8.09,8.09,0,0,1,4.4,8.447V76.8a1.854,1.854,0,0,0,3.707,0V54.322a6.53,6.53,0,0,1,.267.636,18.536,18.536,0,0,1,.776,6.092c0,.827-.027,1.735-.085,2.732a1.2,1.2,0,0,0,1.127,1.267l.071,0a1.2,1.2,0,0,0,1.2-1.129c.061-1.04.089-1.994.089-2.872-.006-4.525-.729-7.029-1.714-8.535A4.236,4.236,0,0,0,117.225,51.023Z" transform="translate(-90.156 -43.1)"/><path class="a" d="M125.628,163.961v5.917a1.854,1.854,0,0,0,3.707,0v-9.689A8.148,8.148,0,0,1,125.628,163.961Z" transform="translate(-106.795 -136.174)"/><circle class="a" cx="3.373" cy="3.373" r="3.373" transform="translate(19.515)"/><path class="a" d="M59.085,87.02a7.5,7.5,0,1,0,7.5,7.5A7.5,7.5,0,0,0,59.085,87.02Zm0,13.192a5.7,5.7,0,1,1,5.7-5.7A5.7,5.7,0,0,1,59.084,100.212Z" transform="translate(-43.855 -73.975)"/><path class="a" d="M81.242,115.02v2.4H77.794v1.8h3.448v2.4l3.612-3.3Z" transform="translate(-66.132 -97.777)"/></svg>