<svg xmlns="http://www.w3.org/2000/svg" width="36.501" height="34.519" viewBox="0 0 36.501 34.519"><defs><style>.a{fill:#cecece;}.a,.b{stroke:#57606f;stroke-linejoin:round;}.b{fill:none;}</style></defs><g transform="translate(-3720.73 -721.208)"><circle class="a" cx="3.273" cy="3.273" r="3.273" transform="translate(3742.221 748.681)"/><circle class="a" cx="3.273" cy="3.273" r="3.273" transform="translate(3730.809 748.681)"/><path class="a" d="M3738.755,728.468l-1.585-3.237,5.1-2.495,2.806,5.731" transform="translate(-2.989 -0.187)"/><path class="a" d="M3748.6,728.707l-1.058-2.162,5.095-2.495,2.28,4.656" transform="translate(-4.875 -0.426)"/><path class="b" d="M3754.67,742.287h-22.8l-3.273-12.546h29.564Z" transform="translate(-1.43 -1.461)"/><path class="b" d="M3720.73,721.708h1.6a4.07,4.07,0,0,1,3.94,3.048l4.173,16.071"/><path class="b" d="M3754.921,750.5h-21.4a2.5,2.5,0,0,1-2.5-2.5v-.436a2.5,2.5,0,0,1,2.5-2.5h21.4" transform="translate(-1.873 -4.248)"/></g></svg>