<svg xmlns="http://www.w3.org/2000/svg" width="21.413" height="22.198" viewBox="0 0 21.413 22.198"><defs><style>.a{fill:#999;}</style></defs><path class="a" d="M12.3,22.2H9.1a2.118,2.118,0,0,1-2.05-2.13V18.743a.734.734,0,0,0-.365-.622.741.741,0,0,0-.722-.014l-1.155.666a2.1,2.1,0,0,1-2.871-.74l-1.6-2.768a2.106,2.106,0,0,1,.74-2.871l1.162-.689h-.03a.739.739,0,0,0,0-1.213L1.03,9.8A2.1,2.1,0,0,1,.29,6.934l1.62-2.8A2.1,2.1,0,0,1,4.781,3.4l1.132.666a.743.743,0,0,0,.719-.013A.734.734,0,0,0,7,3.433V2.1A2.114,2.114,0,0,1,9.1,0h3.2a2.116,2.116,0,0,1,2.1,2.1V3.426a.739.739,0,0,0,1.094.658l1.148-.658a2.1,2.1,0,0,1,2.871.74l1.613,2.8a2.106,2.106,0,0,1-.74,2.871l-1.184.688a.74.74,0,0,0,0,1.214l1.183.688a2.106,2.106,0,0,1,.74,2.871l-1.6,2.767a2.1,2.1,0,0,1-2.871.741l-1.147-.659a.74.74,0,0,0-1.11.621V20.1A2.114,2.114,0,0,1,12.3,22.2ZM6.256,16.553h.005a2.222,2.222,0,0,1,2.219,2.22V20.1a.626.626,0,0,0,.622.622h3.2a.632.632,0,0,0,.621-.622V18.765a2.181,2.181,0,0,1,1.073-1.909,2.223,2.223,0,0,1,2.22,0l1.147.666a.629.629,0,0,0,.851-.229l1.6-2.768a.632.632,0,0,0-.23-.851L18.4,12.993a2.22,2.22,0,0,1,0-3.788l1.184-.68a.633.633,0,0,0,.23-.851l-1.6-2.767a.629.629,0,0,0-.851-.23l-1.124.666A2.22,2.22,0,0,1,12.92,3.426V2.1A.625.625,0,0,0,12.3,1.48H9.1a.627.627,0,0,0-.622.622V3.433A2.219,2.219,0,0,1,5.2,5.342L4.041,4.676a.628.628,0,0,0-.873.23L1.592,7.673a.632.632,0,0,0,.23.851l1.161.68h.023a2.219,2.219,0,0,1,0,3.788l-1.183.681a.629.629,0,0,0-.252.851L3.19,17.293a.628.628,0,0,0,.851.229l1.125-.673A2.16,2.16,0,0,1,6.256,16.553ZM10.7,15.539a4.44,4.44,0,1,1,4.44-4.44A4.445,4.445,0,0,1,10.7,15.539Zm0-7.4A2.96,2.96,0,1,0,13.66,11.1,2.963,2.963,0,0,0,10.7,8.14Z" transform="translate(-0.001)"/></svg>