<svg xmlns="http://www.w3.org/2000/svg" width="52" height="52" viewBox="0 0 52 52"><defs><style>.a{fill:#ed59d3;}</style></defs><path class="a" d="M26,52A26.007,26.007,0,0,1,15.88,2.043,26.007,26.007,0,0,1,36.121,49.957,25.837,25.837,0,0,1,26,52ZM16.893,38.437a.894.894,0,1,0,0,1.787h18.67a.894.894,0,1,0,0-1.787H33.777a40.331,40.331,0,0,0,.374-5.53c0-2.665-2.624-4.274-4.539-5.449a7.207,7.207,0,0,1-1.723-1.244,7.043,7.043,0,0,1,1.721-1.248c1.916-1.17,4.541-2.773,4.541-5.407a40.317,40.317,0,0,0-.409-5.773h1.822a.894.894,0,1,0,0-1.787H16.893a.894.894,0,1,0,0,1.787h1.822a40.21,40.21,0,0,0-.409,5.773c0,2.634,2.621,4.235,4.536,5.4l.015.009a7.206,7.206,0,0,1,1.709,1.236,7.071,7.071,0,0,1-1.7,1.24l-.016.01c-1.916,1.175-4.54,2.785-4.54,5.449a40.428,40.428,0,0,0,.373,5.53Zm15.671,0H19.893a39.619,39.619,0,0,1-.387-5.53c0-1.992,2.2-3.342,3.966-4.427l.006,0c1.3-.8,2.246-1.378,2.294-2.209.052-.89-.936-1.493-2.3-2.327-1.765-1.078-3.962-2.42-3.962-4.382a39,39,0,0,1,.423-5.773h12.6a39.069,39.069,0,0,1,.423,5.773c0,1.962-2.2,3.3-3.963,4.382-1.367.835-2.355,1.438-2.3,2.327.049.831.991,1.41,2.3,2.21,1.769,1.085,3.97,2.436,3.97,4.429a39.62,39.62,0,0,1-.387,5.529Zm-.248-23.223a33.077,33.077,0,0,1-5.889,2.6,35.458,35.458,0,0,1-6.531.862c0,.008-.011.6-.011.911,0,1.851,2.073,3.117,3.739,4.134l.209.127c1.167.711,2.011,1.225,1.965,2.018v.693c-.007.12-.012.309-.018.549-.036,1.365-.11,4.206-.8,5.22a6.077,6.077,0,0,1-2.528,1.491C21.189,34.339,20,34.833,20,35.6a15.543,15.543,0,0,0,.216,2.275c.012.082.024.157.033.223H32.208a3.578,3.578,0,0,1,.128-.554,4.848,4.848,0,0,0,.192-1.64c0-.634-1.186-1.219-2.442-1.837-1.394-.687-2.975-1.466-3.241-2.462a17.141,17.141,0,0,1-.2-3.948c.012-.488.021-.873.008-1.1v-.693c-.046-.795.8-1.31,1.973-2.023l.2-.122c1.666-1.018,3.739-2.284,3.739-4.135C32.571,17.837,32.319,15.241,32.316,15.215Z"/></svg>