<?xml version="1.0" encoding="utf-8"?>
<!-- Generator: Adobe Illustrator 25.2.3, SVG Export Plug-In . SVG Version: 6.00 Build 0)  -->
<svg version="1.1" id="Layer_1" xmlns="http://www.w3.org/2000/svg" xmlns:xlink="http://www.w3.org/1999/xlink" x="0px" y="0px"
	 viewBox="0 0 779.5 473.4" style="enable-background:new 0 0 779.5 473.4;" xml:space="preserve">
<style type="text/css">
	.st0{fill-rule:evenodd;clip-rule:evenodd;fill:#FEFEFE;}
</style>
<path class="st0" d="M739.9,323.3l-62.8-20.6c-4.3,7.7-5,13.4-10.1,20c-4.6,5.9-9.2,10.8-16,15.2c-13.3,8.6-32.2,12.1-50.9,8.1
	c-32.2-6.9-52.4-33.4-53.3-71.1c-0.9-39.3,17.9-67.3,49.1-75.3c39.8-10.3,69.9,10.7,77.7,42.3l64.9-21.2
	c-6.3-32-31.4-58.5-52.6-71.3c-81.8-49.4-211.6-2.2-211.3,123.3c0.3,123.7,132.2,171.8,211.8,122.6c13-8,24.7-18.9,32.9-29.5
	C726.6,356.2,737.7,338.6,739.9,323.3"/>
<path class="st0" d="M103.9,318.4l-61.8,13c4.5,54.5,64.9,83.9,119.2,82.5c30.3-0.7,57.9-10.7,75.7-25.2
	c40.8-33.3,40.6-102.1-13.4-131c-46.7-25-102.8-13.1-107.9-42.4c-5.6-32.8,57.8-42,79.5-12.5c5,6.8,4.3,10.9,7.7,17.7l58.6-13.4
	c0.2-0.1,0.6-0.3,0.9-0.4c-3.5-52.4-67.8-81-122.4-75.7c-100.8,9.9-124.7,121.7-39.3,157c24.6,10.2,54.8,12.1,78.1,21.4
	c30.5,12.1,21.9,45.5-14,48.8C132.1,361.1,107.6,346.9,103.9,318.4"/>
<path class="st0" d="M381,208l-71.6,0c-1.3,29-0.1,60.8-0.1,90c0,29.1-2,57.5,11.5,79.8c27.9,46,101.6,43,131.5,20.4l0.5-58.7
	c-14.4,6.6-24.2,12.5-44.6,9.8c-17.5-2.3-25.6-11.5-27-29.5C380,304.4,380.9,228.9,381,208"/>
<polygon class="st0" points="381,138.4 381,65.4 309.3,65.3 309.3,138.3 "/>
<polygon class="st0" points="381,208 452.7,208 452.7,138.5 381,138.4 "/>
</svg>
