<svg xmlns="http://www.w3.org/2000/svg" width="51.999" height="51.999" viewBox="0 0 51.999 51.999"><defs><style>.a{fill:#ed59d3;}</style></defs><path class="a" d="M-113,193a25.836,25.836,0,0,1-10.12-2.043,25.914,25.914,0,0,1-8.264-5.572,25.914,25.914,0,0,1-5.572-8.264A25.835,25.835,0,0,1-139,167a25.837,25.837,0,0,1,2.043-10.12,25.914,25.914,0,0,1,5.572-8.264,25.913,25.913,0,0,1,8.264-5.572A25.835,25.835,0,0,1-113,141a25.838,25.838,0,0,1,10.12,2.043,25.913,25.913,0,0,1,8.264,5.572,25.913,25.913,0,0,1,5.572,8.264A25.837,25.837,0,0,1-87,167a25.835,25.835,0,0,1-2.043,10.12,25.913,25.913,0,0,1-5.572,8.264,25.914,25.914,0,0,1-8.264,5.572A25.838,25.838,0,0,1-113,193Zm-7.538-40a2.112,2.112,0,0,0-.913.209,2.114,2.114,0,0,0-1.07,1.206l-6.36,18.346a2.112,2.112,0,0,0,.1,1.613,2.09,2.09,0,0,0,1.213,1.069l8.031,2.757v.019a2.1,2.1,0,0,0,2.1,2.1h11.559a.507.507,0,0,0,.2-.041.524.524,0,0,0,.171-.113l7.881-7.88a.529.529,0,0,0,.113-.171.547.547,0,0,0,.04-.2V158.779a2.1,2.1,0,0,0-2.1-2.1h-6.358a2.614,2.614,0,0,0-2.326-2.086c-.082-.008-.165-.012-.247-.012a2.62,2.62,0,0,0-2.429,1.624l-8.905-3.086A2.1,2.1,0,0,0-120.538,153Zm14.131,26.27h-11.034a1.052,1.052,0,0,1-1.05-1.051V158.779a1.052,1.052,0,0,1,1.05-1.051h6.358a2.635,2.635,0,0,0,2.575,2.1,2.635,2.635,0,0,0,2.574-2.1h6.358a1.052,1.052,0,0,1,1.05,1.051v12.609h-5.779a2.1,2.1,0,0,0-2.1,2.1v5.779Zm-9.457-5.254a.526.526,0,0,0-.526.526.526.526,0,0,0,.526.526h2.1a.526.526,0,0,0,.526-.526.526.526,0,0,0-.526-.526Zm0-4.729a.526.526,0,0,0-.526.526.526.526,0,0,0,.526.526h13.135a.526.526,0,0,0,.526-.526.526.526,0,0,0-.526-.526Zm0-2.627a.526.526,0,0,0-.526.526.526.526,0,0,0,.526.526h13.135a.526.526,0,0,0,.526-.526.526.526,0,0,0-.526-.526Zm0-2.626a.526.526,0,0,0-.526.525.526.526,0,0,0,.526.526h13.135a.526.526,0,0,0,.526-.526.526.526,0,0,0-.526-.525Zm0-2.627a.526.526,0,0,0-.526.526.526.526,0,0,0,.526.525h3.677a.526.526,0,0,0,.526-.525.526.526,0,0,0-.526-.526Zm10.507,17.12v-5.036a1.052,1.052,0,0,1,1.051-1.05h5.036l-6.086,6.085Zm-14.186-1.437h0l-7.692-2.641a1.045,1.045,0,0,1-.607-.535,1.059,1.059,0,0,1-.047-.807l6.364-18.348a1.051,1.051,0,0,1,.534-.6,1.048,1.048,0,0,1,.454-.1,1.057,1.057,0,0,1,.349.059l7.406,2.567h-4.659a2.1,2.1,0,0,0-2.1,2.1v18.308Zm11.034-18.31a1.578,1.578,0,0,1-1.577-1.576,1.579,1.579,0,0,1,1.577-1.577,1.578,1.578,0,0,1,1.576,1.577A1.578,1.578,0,0,1-108.508,158.779Z" transform="translate(139 -141)"/></svg>