<svg xmlns="http://www.w3.org/2000/svg" width="22.333" height="18.783" viewBox="0 0 22.333 18.783"><defs><style>.a{fill:#636366;}</style></defs><g transform="translate(0)"><path class="a" d="M736.494-323.5a.346.346,0,0,0-.349-.083l-21.64,7.009a.349.349,0,0,0-.235.279.347.347,0,0,0,.147.335l5.092,3.493,1.07,6.9a.051.051,0,0,0,.006.022.01.01,0,0,0,0,.008l.008.025a.021.021,0,0,0,.006.011l.008.017s0,.008.006.011l.008.017a.021.021,0,0,1,.005.011c0,.006.008.011.011.017s0,.006.005.008.014.017.019.025l.005.006.017.017,0,0s0,0,.006,0l.017.014s.005.006.008.006l.017.011.008.006a.084.084,0,0,0,.022.011c.005,0,.008.005.014.005l.017.008.014.006c.005,0,.011,0,.014.006s.008,0,.014,0l.017,0c.006,0,.008,0,.014,0a.01.01,0,0,1,.008,0h.086a.1.1,0,0,0,.03-.006l.008,0,.022-.006c.006,0,.008,0,.014,0l.017-.006.014-.006a.045.045,0,0,0,.019-.011.058.058,0,0,0,.014-.008.121.121,0,0,1,.019-.011l.011-.008.017-.014s.005-.006.008-.006l.025-.025h0l3.338-3.645,6.065,4.163a.357.357,0,0,0,.2.061.316.316,0,0,0,.113-.019.34.34,0,0,0,.216-.227l5.476-18.1A.35.35,0,0,0,736.494-323.5Zm-2.539,1.352-14.122,9.064-4.445-3.051Zm-11.116,11.464s0,.006-.006.006l-.011.011c-.005.006-.008.011-.014.017l-.008.011c-.006.005-.008.014-.014.019a.014.014,0,0,0-.005.011.1.1,0,0,0-.011.025s0,0,0,.006l0,.005h0l-1.679,3.742-.882-5.67,13.221-8.483Zm-.727,3.25,1.115-2.484.714.49Zm8.469,1.723-6.959-4.774,11.91-11.589Z" transform="translate(-714.267 323.595)"/></g></svg>