<svg xmlns="http://www.w3.org/2000/svg" width="30.311" height="23.325" viewBox="0 0 30.311 23.325">
  <g id="Group_69519" data-name="Group 69519" transform="translate(0.5 0.5)">
    <g id="Group_69486" data-name="Group 69486">
      <g id="Group_69485" data-name="Group 69485">
        <g id="Group_69484" data-name="Group 69484">
          <g id="Group_69483" data-name="Group 69483">
            <path id="Path_27403" data-name="Path 27403" d="M22.817,29.942V27.461A5.155,5.155,0,0,0,17.488,22.5H6.829A5.155,5.155,0,0,0,1.5,27.461v2.481" transform="translate(-1.5 -7.617)" fill="none" stroke="#000" stroke-linecap="round" stroke-linejoin="round" stroke-width="1"/>
            <path id="Path_27404" data-name="Path 27404" d="M18.159,9.461a5.155,5.155,0,0,1-5.329,4.961A5.155,5.155,0,0,1,7.5,9.461,5.155,5.155,0,0,1,12.829,4.5a5.155,5.155,0,0,1,5.329,4.961Z" transform="translate(-2.171 -4.5)" fill="none" stroke="#000" stroke-linecap="round" stroke-linejoin="round" stroke-width="1"/>
            <path id="Path_27405" data-name="Path 27405" d="M34,29.975V27.495a5.039,5.039,0,0,0-4-4.8" transform="translate(-4.686 -7.651)" fill="none" stroke="#000" stroke-linecap="round" stroke-linejoin="round" stroke-width="1"/>
            <path id="Path_27406" data-name="Path 27406" d="M24,4.7A5.039,5.039,0,0,1,28.007,9.5,5.039,5.039,0,0,1,24,14.307" transform="translate(-4.015 -4.534)" fill="none" stroke="#000" stroke-linecap="round" stroke-linejoin="round" stroke-width="1"/>
          </g>
        </g>
      </g>
    </g>
  </g>
</svg>
