<svg xmlns="http://www.w3.org/2000/svg" width="22.266" height="18.537" viewBox="0 0 22.266 18.537"><defs><style>.a{fill:none;stroke:#67809f;stroke-linecap:round;stroke-linejoin:round;stroke-width:1.5px;}</style></defs><g transform="translate(0.75 0.797)"><path class="a" d="M15.544,27.766V26.011A3.511,3.511,0,0,0,12.033,22.5H5.011A3.511,3.511,0,0,0,1.5,26.011v1.755" transform="translate(-1.5 -10.776)"/><path class="a" d="M14.522,8.011A3.511,3.511,0,1,1,11.011,4.5a3.511,3.511,0,0,1,3.511,3.511Z" transform="translate(-3.573 -4.5)"/><path class="a" d="M32.633,27.847V26.092A3.511,3.511,0,0,0,30,22.7" transform="translate(-11.867 -10.857)"/><path class="a" d="M24,4.7a3.511,3.511,0,0,1,0,6.8" transform="translate(-9.684 -4.581)"/></g></svg>