<svg xmlns="http://www.w3.org/2000/svg" width="22" height="22" viewBox="0 0 22 22"><defs><style>.a{fill:#fff;}.b,.c{stroke:none;}.c{fill:#999;}</style></defs><g class="a"><path class="b" d="M 17.00010108947754 21.24960136413574 C 14.65642070770264 21.24960136413574 12.74970054626465 19.34328079223633 12.74970054626465 17.00010108947754 C 12.74970054626465 14.65642070770264 14.65642070770264 12.74970054626465 17.00010108947754 12.74970054626465 C 19.34328079223633 12.74970054626465 21.24960136413574 14.65642070770264 21.24960136413574 17.00010108947754 C 21.24960136413574 19.34328079223633 19.34328079223633 21.24960136413574 17.00010108947754 21.24960136413574 Z M 9.000000953674316 21.24960136413574 L 0.9999006986618042 21.24960136413574 C 0.8621006608009338 21.24960136413574 0.7500006556510925 21.13750076293945 0.7500006556510925 20.99970054626465 L 0.7500006556510925 12.99960041046143 C 0.7500006556510925 12.86180114746094 0.8621006608009338 12.74970054626465 0.9999006986618042 12.74970054626465 L 9.000000953674316 12.74970054626465 C 9.137800216674805 12.74970054626465 9.249900817871094 12.86180114746094 9.249900817871094 12.99960041046143 L 9.249900817871094 20.99970054626465 C 9.249900817871094 21.13750076293945 9.137800216674805 21.24960136413574 9.000000953674316 21.24960136413574 Z M 20.99970054626465 9.249900817871094 L 12.99960041046143 9.249900817871094 C 12.86180114746094 9.249900817871094 12.74970054626465 9.137800216674805 12.74970054626465 9.000000953674316 L 12.74970054626465 0.9999006986618042 C 12.74970054626465 0.8621006608009338 12.86180114746094 0.7500006556510925 12.99960041046143 0.7500006556510925 L 20.99970054626465 0.7500006556510925 C 21.13750076293945 0.7500006556510925 21.24960136413574 0.8621006608009338 21.24960136413574 0.9999006986618042 L 21.24960136413574 9.000000953674316 C 21.24960136413574 9.137800216674805 21.13750076293945 9.249900817871094 20.99970054626465 9.249900817871094 Z M 9.000000953674316 9.249900817871094 L 0.9999006986618042 9.249900817871094 C 0.8621006608009338 9.249900817871094 0.7500006556510925 9.137800216674805 0.7500006556510925 9.000000953674316 L 0.7500006556510925 0.9999006986618042 C 0.7500006556510925 0.8621006608009338 0.8621006608009338 0.7500006556510925 0.9999006986618042 0.7500006556510925 L 9.000000953674316 0.7500006556510925 C 9.137800216674805 0.7500006556510925 9.249900817871094 0.8621006608009338 9.249900817871094 0.9999006986618042 L 9.249900817871094 9.000000953674316 C 9.249900817871094 9.137800216674805 9.137800216674805 9.249900817871094 9.000000953674316 9.249900817871094 Z"/><path class="c" d="M 17.00010108947754 20.49960136413574 C 18.92973136901855 20.49960136413574 20.49960136413574 18.92973136901855 20.49960136413574 17.00010108947754 C 20.49960136413574 15.06997108459473 18.92973136901855 13.49970054626465 17.00010108947754 13.49970054626465 C 15.06997108459473 13.49970054626465 13.49970054626465 15.06997108459473 13.49970054626465 17.00010108947754 C 13.49970054626465 18.92973136901855 15.06997108459473 20.49960136413574 17.00010108947754 20.49960136413574 M 8.499900817871094 20.49960136413574 L 8.499900817871094 13.49970054626465 L 1.500000715255737 13.49970054626465 L 1.500000715255737 20.49960136413574 L 8.499900817871094 20.49960136413574 M 20.49960136413574 8.499900817871094 L 20.49960136413574 1.500000715255737 L 13.49970054626465 1.500000715255737 L 13.49970054626465 8.499900817871094 L 20.49960136413574 8.499900817871094 M 8.499900817871094 8.499900817871094 L 8.499900817871094 1.500000715255737 L 1.500000715255737 1.500000715255737 L 1.500000715255737 8.499900817871094 L 8.499900817871094 8.499900817871094 M 17.00010108947754 21.99960136413574 C 14.24287033081055 21.99960136413574 11.99970054626465 19.7568302154541 11.99970054626465 17.00010108947754 C 11.99970054626465 14.24287033081055 14.24287033081055 11.99970054626465 17.00010108947754 11.99970054626465 C 19.7568302154541 11.99970054626465 21.99960136413574 14.24287033081055 21.99960136413574 17.00010108947754 C 21.99960136413574 19.7568302154541 19.7568302154541 21.99960136413574 17.00010108947754 21.99960136413574 Z M 9.000000953674316 21.99960136413574 L 0.9999006986618042 21.99960136413574 C 0.448550671339035 21.99960136413574 6.820678777330613e-07 21.55105018615723 6.820678777330613e-07 20.99970054626465 L 6.820678777330613e-07 12.99960041046143 C 6.820678777330613e-07 12.44825077056885 0.448550671339035 11.99970054626465 0.9999006986618042 11.99970054626465 L 9.000000953674316 11.99970054626465 C 9.551350593566895 11.99970054626465 9.999900817871094 12.44825077056885 9.999900817871094 12.99960041046143 L 9.999900817871094 20.99970054626465 C 9.999900817871094 21.55105018615723 9.551350593566895 21.99960136413574 9.000000953674316 21.99960136413574 Z M 20.99970054626465 9.999900817871094 L 12.99960041046143 9.999900817871094 C 12.44825077056885 9.999900817871094 11.99970054626465 9.551350593566895 11.99970054626465 9.000000953674316 L 11.99970054626465 0.9999006986618042 C 11.99970054626465 0.448550671339035 12.44825077056885 6.820678777330613e-07 12.99960041046143 6.820678777330613e-07 L 20.99970054626465 6.820678777330613e-07 C 21.55105018615723 6.820678777330613e-07 21.99960136413574 0.448550671339035 21.99960136413574 0.9999006986618042 L 21.99960136413574 9.000000953674316 C 21.99960136413574 9.551350593566895 21.55105018615723 9.999900817871094 20.99970054626465 9.999900817871094 Z M 9.000000953674316 9.999900817871094 L 0.9999006986618042 9.999900817871094 C 0.448550671339035 9.999900817871094 6.820678777330613e-07 9.551350593566895 6.820678777330613e-07 9.000000953674316 L 6.820678777330613e-07 0.9999006986618042 C 6.820678777330613e-07 0.448550671339035 0.448550671339035 6.820678777330613e-07 0.9999006986618042 6.820678777330613e-07 L 9.000000953674316 6.820678777330613e-07 C 9.551350593566895 6.820678777330613e-07 9.999900817871094 0.448550671339035 9.999900817871094 0.9999006986618042 L 9.999900817871094 9.000000953674316 C 9.999900817871094 9.551350593566895 9.551350593566895 9.999900817871094 9.000000953674316 9.999900817871094 Z"/></g></svg>