<svg xmlns="http://www.w3.org/2000/svg" width="52" height="52" viewBox="0 0 52 52"><defs><style>.a{fill:#566de6;}.b{fill:#fff;}</style></defs><g transform="translate(-649 -289)"><circle class="a" cx="26" cy="26" r="26" transform="translate(649 289)"/><g transform="translate(660.3 301)"><g transform="translate(4.7 1)"><path class="b" d="M21.97,8.141H20.6a5.318,5.318,0,1,0-10.028,0H8.954A2.038,2.038,0,0,0,7.232,9.1c-2.937,4.761-2.076,3.14-2.532,4.153V23.993a2.323,2.323,0,0,0,2.33,2.33H23.894a2.281,2.281,0,0,0,2.279-2.33V13.256c0-.2.152.1-2.532-4.153A1.894,1.894,0,0,0,21.97,8.141ZM15.589,2.013a4.3,4.3,0,1,1,0,8.61h-.051a4.3,4.3,0,0,1-4.3-4.3A4.378,4.378,0,0,1,15.589,2.013Zm8.622,20.98a1.3,1.3,0,0,1-1.266,1.317H8.03a1.308,1.308,0,0,1-1.317-1.317v-8.23H24.16v8.23ZM6.169,12.75,8.144,9.61A1,1,0,0,1,9,9.154h2.127A6.291,6.291,0,0,0,12.5,10.622H11.385a.506.506,0,0,0,0,1.013h8.154a.506.506,0,1,0,0-1.013h-.81A5.378,5.378,0,0,0,20.1,9.154H21.97a1,1,0,0,1,.861.456l1.975,3.14Z" transform="translate(-4.7 -1)"/><path class="b" d="M24.867,10.257A.562.562,0,0,1,24.31,9.7a.4.4,0,0,0-.405-.405A.373.373,0,0,0,23.5,9.7a1.307,1.307,0,0,0,.962,1.266v.253a.4.4,0,0,0,.405.405.373.373,0,0,0,.405-.405v-.253a1.316,1.316,0,0,0-.355-2.583.557.557,0,1,1,.557-.557.4.4,0,0,0,.405.405.373.373,0,0,0,.405-.405,1.307,1.307,0,0,0-.962-1.266V6.205a.4.4,0,0,0-.405-.405.373.373,0,0,0-.405.405v.253a1.316,1.316,0,0,0,.355,2.583.61.61,0,0,1,0,1.215Z" transform="translate(-13.979 -3.369)"/></g></g></g></svg>