<svg xmlns="http://www.w3.org/2000/svg" width="22" height="21.988" viewBox="0 0 22 21.988">
  <g id="Union_3" data-name="Union 3" transform="translate(2985.003 -21903.002)" fill="none">
    <path d="M-2972.43,21924.99v-11H-2963v11Zm-12.564,0v-7.852h9.427v7.852Zm-.009-11V21903h9.427v10.992Zm12.573-3.137V21903H-2963v7.855Z" stroke="none"/>
    <path d="M -2965.002685546875 21922.990234375 L -2965.002685546875 21915.994140625 L -2970.429931640625 21915.994140625 L -2970.429931640625 21922.990234375 L -2965.002685546875 21922.990234375 M -2977.566650390625 21922.990234375 L -2977.566650390625 21919.138671875 L -2982.993896484375 21919.138671875 L -2982.993896484375 21922.990234375 L -2977.566650390625 21922.990234375 M -2977.575439453125 21911.994140625 L -2977.575439453125 21905.001953125 L -2983.002685546875 21905.001953125 L -2983.002685546875 21911.994140625 L -2977.575439453125 21911.994140625 M -2965.002685546875 21908.857421875 L -2965.002685546875 21905.001953125 L -2970.429931640625 21905.001953125 L -2970.429931640625 21908.857421875 L -2965.002685546875 21908.857421875 M -2963.002685546875 21924.990234375 L -2972.429931640625 21924.990234375 L -2972.429931640625 21913.994140625 L -2963.002685546875 21913.994140625 L -2963.002685546875 21924.990234375 Z M -2975.566650390625 21924.990234375 L -2984.993896484375 21924.990234375 L -2984.993896484375 21917.138671875 L -2975.566650390625 21917.138671875 L -2975.566650390625 21924.990234375 Z M -2975.575439453125 21913.994140625 L -2985.002685546875 21913.994140625 L -2985.002685546875 21903.001953125 L -2975.575439453125 21903.001953125 L -2975.575439453125 21913.994140625 Z M -2963.002685546875 21910.857421875 L -2972.429931640625 21910.857421875 L -2972.429931640625 21903.001953125 L -2963.002685546875 21903.001953125 L -2963.002685546875 21910.857421875 Z" stroke="none" fill="#000"/>
  </g>
</svg>
