<svg id="Group_53327" data-name="Group 53327" xmlns="http://www.w3.org/2000/svg" width="38" height="38" viewBox="0 0 38 38">
  <g id="Group_79355" data-name="Group 79355">
    <g id="Rectangle_92" data-name="Rectangle 92" fill="#fff" stroke="#e5e5e5" stroke-width="1">
      <rect width="38" height="38" rx="19" stroke="none"/>
      <rect x="0.5" y="0.5" width="37" height="37" rx="18.5" fill="none"/>
    </g>
    <g id="noun_Call_Center_575208" data-name="noun_Call Center_575208" transform="translate(11.055 9.557)">
      <path id="Path_40455" data-name="Path 40455" d="M35.683,27.32,33.133,26.7c-.435-.1-1.164-.372-1.164-.985V24.7a4.147,4.147,0,0,0,1.07-1.523l.575.119a.671.671,0,0,0,.788-.529l.344-1.75a.66.66,0,0,0-.07-.442l.02-.185.182-1.656a4,4,0,0,0-.2-1.781,3.855,3.855,0,0,0-.963-1.49,4.64,4.64,0,0,0-1.6-.994,5.628,5.628,0,0,0-1.968-.347h-.958a5.63,5.63,0,0,0-1.97.347,4.609,4.609,0,0,0-1.6,1,3.811,3.811,0,0,0-.952,1.49,4,4,0,0,0-.187,1.781l.1.828.094.811a.662.662,0,0,0-.157.568l.344,1.75a.673.673,0,0,0,.636.541,1.619,1.619,0,0,0,.356.459h0a1.609,1.609,0,0,0,.821.389,3.24,3.24,0,0,0,.619.662v1.005c0,.613-.729.881-1.164.985l-2.551.615a2.276,2.276,0,0,0-1.855,2.166v3.762l.153.036a33.755,33.755,0,0,0,7.759.881,33.769,33.769,0,0,0,7.759-.881l.153-.036v-3.79A2.275,2.275,0,0,0,35.683,27.32ZM25.223,17.143a3.219,3.219,0,0,1,.806-1.258,4.012,4.012,0,0,1,1.4-.865,5.041,5.041,0,0,1,1.763-.307h.959a5.042,5.042,0,0,1,1.761.307,4.051,4.051,0,0,1,1.4.866,3.255,3.255,0,0,1,.814,1.26,3.408,3.408,0,0,1,.167,1.519l-.169,1.54-.313-.067,0-.012c.58-1.926.122-4.287-2.5-4.334l-.1-.07A3.712,3.712,0,0,0,26,16.878a2.253,2.253,0,0,0-.348.694,3.694,3.694,0,0,0-.129,2.15l.038.1c0,.052-.012.12-.03.227l-.3.064-.071-.618-.1-.828A3.407,3.407,0,0,1,25.223,17.143Zm.882,6.255h0a1.225,1.225,0,0,1-.2-.235l.272-.056a3.819,3.819,0,0,0,.185.462A1.2,1.2,0,0,1,26.106,23.4Zm1.076.688.878-.05.007.121a.217.217,0,0,0,.228.2l1.263-.072a.217.217,0,0,0,.2-.228l-.033-.586a.217.217,0,0,0-.228-.2l-1.264.072a.217.217,0,0,0-.2.228l0,.075-1.055.06c-.029,0-.057,0-.086,0a3.317,3.317,0,0,1-.361-.778c-.13-.418-.239-.8-.333-1.173l-.011-.043-.008-.063-.28-1.4c.019-.11.034-.2.043-.268.832-1.406,3.752-.737,4.807-2.728a5.154,5.154,0,0,1,2.505,3.762l-.11.617-.008,0-.027.1a9.359,9.359,0,0,1-.388,1.172,3.771,3.771,0,0,1-1.068,1.53,2.85,2.85,0,0,1-4.05.052l-.006-.005A2.761,2.761,0,0,1,27.182,24.087Zm.5,1.66V25.03a3.082,3.082,0,0,0,3.891-.039v.728a1.287,1.287,0,0,0,.855,1.159c-.052.736-1.266,1.328-2.755,1.328s-2.727-.6-2.757-1.348A1.252,1.252,0,0,0,27.681,25.746Z" transform="translate(-21.715 -14.119)" fill="#1c19c8" fill-rule="evenodd"/>
    </g>
  </g>
</svg>
