<?xml version="1.0" standalone="no"?>
<!DOCTYPE svg PUBLIC "-//W3C//DTD SVG 20010904//EN"
 "http://www.w3.org/TR/2001/REC-SVG-20010904/DTD/svg10.dtd">
<svg version="1.0" xmlns="http://www.w3.org/2000/svg"
 width="20.000000pt" height="20.000000pt" viewBox="0 0 20.000000 20.000000"
 preserveAspectRatio="xMidYMid meet">
<metadata>
Created by potrace 1.16, written by Peter Selinger 2001-2019
</metadata>
<g transform="translate(0.000000,20.000000) scale(0.003906,-0.003906)"
fill="#000000" stroke="none">
<path d="M2226 5104 c-736 -94 -1407 -518 -1819 -1149 -211 -324 -344 -689
-393 -1085 -19 -152 -18 -472 1 -630 55 -440 225 -861 496 -1220 91 -121 262
-307 349 -380 l47 -40 44 34 c24 19 231 136 459 261 443 242 480 267 522 359
21 46 23 68 26 242 l3 191 -67 99 c-82 120 -171 304 -214 441 -27 85 -40 109
-76 147 -65 68 -74 111 -74 346 0 220 9 268 60 331 l31 39 -2 317 c-1 356 5
401 66 528 63 131 166 230 311 301 306 150 827 150 1129 0 148 -74 246 -169
310 -301 61 -127 67 -172 66 -528 l-2 -317 31 -39 c51 -63 60 -111 60 -331 0
-221 -9 -270 -61 -333 -17 -21 -52 -48 -78 -61 -42 -22 -48 -29 -70 -93 -54
-156 -179 -383 -281 -508 l-32 -40 4 -191 4 -191 32 -66 c19 -37 49 -80 70
-97 20 -17 240 -133 487 -257 248 -124 471 -241 497 -259 l46 -35 123 118
c386 372 636 823 739 1333 43 214 53 339 47 592 -5 253 -29 422 -91 635 -120
416 -324 766 -631 1082 -411 423 -929 681 -1518 756 -148 19 -500 18 -651 -1z"/>
</g>
</svg>
