<?xml version="1.0" encoding="utf-8"?>
<!-- Generator: Adobe Illustrator 26.0.2, SVG Export Plug-In . SVG Version: 6.00 Build 0)  -->
<svg version="1.1" id="Layer_1" xmlns="http://www.w3.org/2000/svg" xmlns:xlink="http://www.w3.org/1999/xlink" x="0px" y="0px"
	 viewBox="0 0 165 165" style="enable-background:new 0 0 165 165;" xml:space="preserve">
<style type="text/css">
	.st0{fill:#FACED6;stroke:#F16B81;stroke-width:4.3478;stroke-linecap:round;stroke-linejoin:round;}
	.st1{fill:none;stroke:#F16B81;stroke-width:4.3478;stroke-miterlimit:10;}
	.st2{fill:#FACED6;stroke:#F16B81;stroke-width:4.3478;stroke-miterlimit:10;}
	.st3{fill:#F16B81;stroke:#F16B81;stroke-width:4.3478;stroke-miterlimit:10;}
</style>
<g id="Group_49705" transform="translate(-5352.668 -1708.255)">
	<path id="Path_37780" class="st0" d="M5459.67,1831.32v11.03c-0.1,14.8-12.16,26.72-26.96,26.66h-46.39
		c-14.8,0.06-26.85-11.86-26.96-26.66v-103.2c0.11-14.8,12.16-26.72,26.96-26.66h46.39c14.8-0.06,26.85,11.86,26.96,26.66"/>
	<path id="Rectangle_10337" class="st1" d="M5407.17,1847.28h4.35c2.4,0,4.35,1.95,4.35,4.35l0,0c0,2.4-1.95,4.35-4.35,4.35h-4.35
		c-2.4,0-4.35-1.95-4.35-4.35l0,0C5402.82,1849.22,5404.76,1847.28,5407.17,1847.28z"/>
	<rect id="Rectangle_10338" x="5375.32" y="1751.31" class="st1" width="135.65" height="68.3"/>
	<path id="Path_37781" class="st2" d="M5510.95,1770.66v30.62c-10.1,0-18.3,8.18-18.3,18.28c0,0.01,0,0.01,0,0.02h-99.01
		c0-10.1-8.18-18.3-18.28-18.3c-0.01,0-0.01,0-0.02,0v-28.35c10.12-0.01,18.31-8.22,18.3-18.34c0.01-1.1-0.09-2.21-0.28-3.29h99.73
		c-0.04,0.33-0.05,0.67-0.04,1C5493.04,1762.28,5500.99,1770.43,5510.95,1770.66z"/>
	<circle id="Ellipse_339" class="st3" cx="5443.41" cy="1785.57" r="11.77"/>
	<circle id="Ellipse_340" class="st1" cx="5477.53" cy="1785.57" r="5.31"/>
	<circle id="Ellipse_341" class="st1" cx="5409.28" cy="1785.57" r="5.31"/>
</g>
</svg>
