<?xml version="1.0" encoding="utf-8"?>
<!-- Generator: Adobe Illustrator 26.0.2, SVG Export Plug-In . SVG Version: 6.00 Build 0)  -->
<svg version="1.1" xmlns="http://www.w3.org/2000/svg" xmlns:xlink="http://www.w3.org/1999/xlink" x="0px" y="0px"
	 viewBox="0 0 165 165" style="enable-background:new 0 0 165 165;" xml:space="preserve">
<style type="text/css">
	.st0{display:none;}
	.st1{display:inline;}
	.st2{fill:#FACED6;stroke:#F16B81;stroke-width:4.3478;stroke-linecap:round;stroke-linejoin:round;}
	.st3{fill:none;stroke:#F16B81;stroke-width:4.3478;stroke-miterlimit:10;}
	.st4{fill:#FACED6;stroke:#F16B81;stroke-width:4.3478;stroke-miterlimit:10;}
	.st5{fill:#F16B81;stroke:#F16B81;stroke-width:4.3478;stroke-miterlimit:10;}
	.st6{opacity:0.24;}
	.st7{clip-path:url(#SVGID_00000036226530032033893120000010867395310684614572_);}
	.st8{fill:none;stroke:#F16B81;stroke-width:4.3887;stroke-miterlimit:10;}
	.st9{opacity:0.32;fill:#F16B81;enable-background:new    ;}
	.st10{fill:none;stroke:#7D97CD;stroke-width:4.3887;stroke-miterlimit:10;}
	.st11{fill:none;stroke:#F16B81;stroke-width:4.3887;stroke-linecap:round;stroke-miterlimit:10;}
	.st12{fill:#F16B81;}
	.st13{fill:none;stroke:#636466;stroke-width:4.4823;stroke-miterlimit:10;}
	.st14{fill:none;stroke:#636466;stroke-width:4.4823;stroke-linecap:round;stroke-miterlimit:10;}
	.st15{fill:#999999;}
	.st16{fill:none;stroke:#636466;stroke-width:4.3478;stroke-linecap:round;stroke-linejoin:round;}
	.st17{fill:none;stroke:#636466;stroke-width:4.3478;stroke-miterlimit:10;}
	.st18{fill:#D2D2D6;stroke:#636466;stroke-width:4.3478;stroke-miterlimit:10;}
</style>
<g id="Layer_1" class="st0">
	<g id="Group_49705" transform="translate(-5352.668 -1708.255)" class="st1">
		<path id="Path_37780" class="st2" d="M5459.67,1831.32v11.03c-0.1,14.8-12.16,26.72-26.96,26.66h-46.39
			c-14.8,0.06-26.85-11.86-26.96-26.66v-103.2c0.11-14.8,12.16-26.72,26.96-26.66h46.39c14.8-0.06,26.85,11.86,26.96,26.66"/>
		<path id="Rectangle_10337" class="st3" d="M5407.17,1847.28h4.35c2.4,0,4.35,1.95,4.35,4.35l0,0c0,2.4-1.95,4.35-4.35,4.35h-4.35
			c-2.4,0-4.35-1.95-4.35-4.35l0,0C5402.82,1849.22,5404.76,1847.28,5407.17,1847.28z"/>
		<rect id="Rectangle_10338" x="5375.32" y="1751.31" class="st3" width="135.65" height="68.3"/>
		<path id="Path_37781" class="st4" d="M5510.95,1770.66v30.62c-10.1,0-18.3,8.18-18.3,18.28c0,0.01,0,0.01,0,0.02h-99.01
			c0-10.1-8.18-18.3-18.28-18.3c-0.01,0-0.01,0-0.02,0v-28.35c10.12-0.01,18.31-8.22,18.3-18.34c0.01-1.1-0.09-2.21-0.28-3.29h99.73
			c-0.04,0.33-0.05,0.67-0.04,1C5493.04,1762.28,5500.99,1770.43,5510.95,1770.66z"/>
		<circle id="Ellipse_339" class="st5" cx="5443.41" cy="1785.57" r="11.77"/>
		<circle id="Ellipse_340" class="st3" cx="5477.53" cy="1785.57" r="5.31"/>
		<circle id="Ellipse_341" class="st3" cx="5409.28" cy="1785.57" r="5.31"/>
	</g>
</g>
<g id="Layer_2" class="st0">
	<g id="Group_48531" transform="translate(-473.187 -368.66)" class="st1">
		<g id="Group_48533" class="st6">
			<g>
				<defs>
					<path id="SVGID_1_" d="M522.52,415.32v101.73l19.45,9.45l15.48-8.67l14.92,10.63l21.23-10.53l18.92,10.53l13.36-9.7V398.99
						c-0.08-6.59-5.34-11.95-11.93-12.14H569.8l5.56,7.79c1.02,1.33,1.66,2.92,1.85,4.59c-0.1,1.98,0.69,4.85-2.67,6.93
						c-2.6,1.92-6.05,2.25-8.97,0.88c-3.47-1.23-14.76-5.27-16.05-5.37c-2.87-0.76-5.91-0.56-8.66,0.56
						c-4.45,2.95-8.6,6.33-12.38,10.09C526.83,413.88,524.76,414.92,522.52,415.32z"/>
				</defs>
				<clipPath id="SVGID_00000039813604257760444580000010036462018063384196_">
					<use xlink:href="#SVGID_1_"  style="overflow:visible;"/>
				</clipPath>
				<g id="Group_48532" style="clip-path:url(#SVGID_00000039813604257760444580000010036462018063384196_);">
					<g id="Group_48531-2">
						<line id="Line_1662" class="st8" x1="541.97" y1="516.54" x2="541.97" y2="514.77"/>
						<path id="Path_27345" class="st8" d="M553.52,403.43l-2.08,2.08l-72.8,72.79"/>
						<line id="Line_1663" class="st8" x1="605.88" y1="351.06" x2="570.6" y2="386.35"/>
						<line id="Line_1664" class="st8" x1="564.88" y1="407.97" x2="486.6" y2="486.24"/>
						<line id="Line_1665" class="st8" x1="613.84" y1="359.02" x2="577.34" y2="395.51"/>
						<line id="Line_1666" class="st8" x1="621.78" y1="366.97" x2="494.55" y2="494.2"/>
						<line id="Line_1667" class="st8" x1="629.74" y1="374.92" x2="502.51" y2="502.15"/>
						<line id="Line_1668" class="st8" x1="637.69" y1="382.87" x2="510.46" y2="510.1"/>
						<line id="Line_1669" class="st8" x1="645.64" y1="390.82" x2="518.41" y2="518.05"/>
						<line id="Line_1670" class="st8" x1="653.59" y1="398.78" x2="526.36" y2="526.01"/>
						<line id="Line_1671" class="st8" x1="661.54" y1="406.73" x2="534.32" y2="533.96"/>
						<line id="Line_1672" class="st8" x1="669.5" y1="414.68" x2="542.27" y2="541.91"/>
						<line id="Line_1673" class="st8" x1="677.45" y1="422.63" x2="550.22" y2="549.86"/>
						<line id="Line_1674" class="st8" x1="685.4" y1="430.58" x2="558.17" y2="557.81"/>
						<line id="Line_1675" class="st8" x1="693.35" y1="438.53" x2="566.12" y2="565.76"/>
						<line id="Line_1676" class="st8" x1="701.3" y1="446.49" x2="574.07" y2="573.72"/>
					</g>
				</g>
			</g>
		</g>
		<path id="Path_27347" class="st9" d="M580.13,387.14h33.67c6.59,0.19,11.85,5.55,11.92,12.14v119.77l-13.36,9.7l-18.92-10.53
			l-21.23,10.53l-14.92-10.63l-15.48,8.67l-19.31-9.74V415.32c3.52-1.29,6.75-3.28,9.49-5.85c2.48-2.93,5.48-5.38,8.83-7.25
			c4.53-1.14,9.31-0.91,13.71,0.66c3.95,1.84,12.53,4.61,12.53,4.61s5.92,1.44,7.05-0.53c1.13-1.97,4.83-5.27,3.83-7.9
			c-2.8-4.51-5.93-8.81-9.35-12.88L580.13,387.14z"/>
		<path id="Path_27348" class="st8" d="M522.52,417.12v99.93l18.55,9.96l16.38-9.17l14.92,10.63l21.23-10.53l18.92,10.53l13.36-9.7
			V398.99c-0.07-6.59-5.34-11.96-11.93-12.15h-43.39"/>
		<path id="Path_27350" class="st8" d="M503.7,384.36c0,0,20.59-12.76,23.59-12.76h75.05c0,0,6.75,0,6.75,6.38
			c0.14,3.79-2.82,6.98-6.61,7.13c-0.05,0-0.1,0-0.15,0h-65.85"/>
		<path id="Path_27351" class="st8" d="M513.22,415.32h9.38c0,0,5.82-0.18,13.7-9.76c7.88-9.57,29.27,1.88,32.65,2.81
			s9.01-4.5,9.01-8.44s-10.88-14.82-10.88-14.82"/>
		<line id="Line_1677" class="st11" x1="518.89" y1="433.91" x2="503.7" y2="421.23"/>
		<rect id="Rectangle_8257" x="485.48" y="377.24" class="st8" width="18.22" height="59.46"/>
		<rect id="Rectangle_8258" x="533.12" y="433.91" class="st12" width="26.77" height="26.77"/>
		<line id="Line_1678" class="st8" x1="571.37" y1="438.37" x2="612.14" y2="438.37"/>
		<line id="Line_1679" class="st8" x1="571.37" y1="447.87" x2="612.14" y2="447.87"/>
		<line id="Line_1680" class="st8" x1="571.37" y1="457.37" x2="612.14" y2="457.37"/>
		<line id="Line_1681" class="st8" x1="533.12" y1="476.38" x2="612.14" y2="476.38"/>
		<line id="Line_1682" class="st8" x1="533.12" y1="485.88" x2="612.14" y2="485.88"/>
		<line id="Line_1683" class="st8" x1="533.12" y1="495.38" x2="612.14" y2="495.38"/>
		<line id="Line_1684" class="st8" x1="533.12" y1="504.88" x2="612.14" y2="504.88"/>
	</g>
</g>
<g id="Layer_3" class="st0">
	<g id="Group_57307" transform="translate(0.5 0.5)" class="st1">
		<path id="Path_27348_00000103230216874820804250000006641649934933752714_" class="st13" d="M48.84,49.07v99.96l18.55,9.96
			l16.38-9.17l14.92,10.63l21.23-10.55l18.92,10.52l13.36-9.7V30.94c-0.07-6.59-5.34-11.96-11.93-12.15H96.89"/>
		<path id="Path_27350_00000090274123461266889270000013999464689189749904_" class="st13" d="M30.01,16.31
			c0,0,20.59-12.76,23.59-12.76h75.06c0,0,6.75,0,6.75,6.38c0.14,3.79-2.81,6.98-6.61,7.13c-0.05,0-0.1,0-0.15,0H62.8"/>
		<path id="Path_27351_00000077293229499134624380000002011440491746600846_" class="st13" d="M39.53,47.27h9.38
			c0,0,5.83-0.18,13.7-9.76s29.27,1.88,32.65,2.81c3.38,0.94,9-4.48,9-8.44S93.39,17.06,93.39,17.06"/>
		
			<line id="Line_1677_00000183961821120200444950000017480501210009145764_" class="st14" x1="45.19" y1="65.86" x2="30.01" y2="53.18"/>
		
			<rect id="Rectangle_8257_00000009591213005056972450000014854837776495515286_" x="11.8" y="9.18" class="st13" width="18.22" height="59.46"/>
		
			<rect id="Rectangle_8258_00000087376917135430335960000011798175585799618976_" x="59.43" y="65.85" class="st15" width="26.77" height="26.77"/>
		
			<line id="Line_1678_00000043436233110122055190000007185045354208709785_" class="st13" x1="97.69" y1="70.31" x2="138.45" y2="70.31"/>
		
			<line id="Line_1679_00000065064572911035723030000013196978897752989841_" class="st13" x1="97.69" y1="79.82" x2="138.45" y2="79.82"/>
		
			<line id="Line_1680_00000075863743653802076910000000651427769993948054_" class="st13" x1="97.69" y1="89.32" x2="138.45" y2="89.32"/>
		
			<line id="Line_1681_00000097484449027097503030000016461557395910259105_" class="st13" x1="59.43" y1="108.32" x2="138.45" y2="108.32"/>
		
			<line id="Line_1682_00000111906312551361852330000003290351899204962441_" class="st13" x1="59.43" y1="117.83" x2="138.45" y2="117.83"/>
		
			<line id="Line_1683_00000078039782632963638970000004119966713956827819_" class="st13" x1="59.43" y1="127.33" x2="138.45" y2="127.33"/>
		
			<line id="Line_1684_00000082335432037033475360000008733178817180616091_" class="st13" x1="59.43" y1="136.83" x2="138.45" y2="136.83"/>
	</g>
</g>
<g id="Layer_4">
	<g id="Group_49705_00000150075107093436339790000010737344050441181090_" transform="translate(-5352.668 -1708.255)">
		<path id="Path_37780_00000063607335590737400420000002940985932450421948_" class="st16" d="M5459.67,1831.32v11.03
			c-0.1,14.8-12.16,26.72-26.96,26.66h-46.39c-14.8,0.06-26.85-11.86-26.96-26.66v-103.2c0.11-14.8,12.16-26.72,26.96-26.66h46.39
			c14.8-0.06,26.85,11.86,26.96,26.66"/>
		<path id="Rectangle_10337_00000061441811120163435940000005261330849839261071_" class="st17" d="M5407.17,1847.28h4.35
			c2.4,0,4.35,1.95,4.35,4.35l0,0c0,2.4-1.95,4.35-4.35,4.35h-4.35c-2.4,0-4.35-1.95-4.35-4.35l0,0
			C5402.82,1849.22,5404.76,1847.28,5407.17,1847.28z"/>
		
			<rect id="Rectangle_10338_00000127006044146151847490000009542987437584915597_" x="5375.32" y="1751.31" class="st17" width="135.65" height="68.3"/>
		
			<circle id="Ellipse_339_00000046327851229003470190000017345587762244703666_" class="st18" cx="5443.41" cy="1785.57" r="11.77"/>
		<circle id="Ellipse_340_00000078035212780397516590000005625486127310890920_" class="st17" cx="5477.53" cy="1785.57" r="5.31"/>
		<circle id="Ellipse_341_00000083067294127221663260000005114802749955505312_" class="st17" cx="5409.28" cy="1785.57" r="5.31"/>
		<path id="Path_37781_00000072990255918939319780000012058543560220424337_" class="st17" d="M5510.95,1770.66v30.62
			c-10.1,0-18.3,8.18-18.3,18.28c0,0.01,0,0.01,0,0.02h-99.01c0-10.1-8.18-18.3-18.28-18.3c-0.01,0-0.01,0-0.02,0v-28.35
			c10.12-0.01,18.31-8.22,18.3-18.34c0.01-1.1-0.09-2.21-0.28-3.29h99.73c-0.04,0.33-0.05,0.67-0.04,1
			C5493.04,1762.28,5500.99,1770.43,5510.95,1770.66z"/>
	</g>
</g>
</svg>
