<svg xmlns="http://www.w3.org/2000/svg" width="17.507" height="17.507" viewBox="0 0 17.507 17.507"><defs><style>.a{fill:#636366;}</style></defs><path class="a" d="M14.885,4.794A8.678,8.678,0,0,0,1.231,15.263L0,19.757,4.6,18.55A8.649,8.649,0,0,0,8.746,19.6h0a8.759,8.759,0,0,0,8.758-8.676,8.71,8.71,0,0,0-2.622-6.135ZM8.75,18.143a7.2,7.2,0,0,1-3.673-1l-.262-.156L2.087,17.7l.727-2.661-.172-.274a7.225,7.225,0,1,1,13.4-3.834A7.291,7.291,0,0,1,8.75,18.143Zm3.955-5.4c-.215-.109-1.282-.633-1.481-.7s-.344-.109-.488.109-.559.7-.688.852-.254.164-.469.055a5.9,5.9,0,0,1-2.95-2.579c-.223-.383.223-.356.637-1.184a.4.4,0,0,0-.02-.379C7.191,8.8,6.757,7.737,6.577,7.3s-.356-.363-.488-.371-.27-.008-.414-.008a.8.8,0,0,0-.578.27A2.436,2.436,0,0,0,4.338,9a4.247,4.247,0,0,0,.883,2.243,9.687,9.687,0,0,0,3.7,3.275,4.242,4.242,0,0,0,2.6.543,2.22,2.22,0,0,0,1.462-1.032A1.813,1.813,0,0,0,13.115,13C13.064,12.9,12.919,12.848,12.7,12.743Z" transform="translate(0 -2.25)"/></svg>