<svg
  xmlns="http://www.w3.org/2000/svg"
  width="35.897"
  height="37.023"
  viewBox="0 0 35.897 37.023"
><defs><style
    >.a,.b{fill:none;}.a,.b,.c{stroke:#636366;}.a{stroke-linecap:round;stroke-linejoin:round;}.b,.c{stroke-miterlimit:10;}.c{fill:#d1d1d6;}</style></defs><g
    transform="translate(-5352.668 -1708.255)"
  ><path
      id="Acc-Balance"
      class="a"
      d="M5376.259,1736.1v2.54a6.178,6.178,0,0,1-6.207,6.136h-10.677a6.179,6.179,0,0,1-6.207-6.136V1714.89a6.179,6.179,0,0,1,6.207-6.135h10.677a6.178,6.178,0,0,1,6.207,6.135"
      style="fill:#fff;opacity:1"
    /><rect
      class="b"
      width="2"
      height="2"
      rx="1"
      transform="translate(5363.443 1739.494)"
    /><rect
      class="b"
      width="15.718"
      height="31.218"
      transform="translate(5356.847 1733.405) rotate(-90)"
    /><circle
      class="c"
      cx="2.708"
      cy="2.708"
      r="2.708"
      transform="translate(5369.809 1722.865)"
    /><circle
      class="b"
      cx="1.223"
      cy="1.223"
      r="1.223"
      transform="translate(5379.147 1724.349)"
    /><circle
      class="b"
      cx="1.223"
      cy="1.223"
      r="1.223"
      transform="translate(5363.439 1724.349)"
    /><path
      class="b"
      d="M5388.365,1722.881v7.048a4.21,4.21,0,0,0-4.211,4.212h-22.787a4.21,4.21,0,0,0-4.212-4.212v-6.521a4.218,4.218,0,0,0,4.212-4.221,4.149,4.149,0,0,0-.064-.757h22.953a1.923,1.923,0,0,0-.009.231A4.217,4.217,0,0,0,5388.365,1722.881Z"
      transform="translate(-0.304 -0.738)"
    /></g></svg>
