<svg xmlns="http://www.w3.org/2000/svg" width="15.184" height="21.632" viewBox="0 0 15.184 21.632">
    <g transform="translate(-886.364 -516.185)" style="isolation:isolate;opacity:.5">
        <g style="isolation:isolate" style="fill:#fff">
            <path d="M888.573,518.394a7.294,7.294,0,0,1,5.358-2.209,7.379,7.379,0,0,1,5.382,2.209,7.251,7.251,0,0,1,2.235,5.357,10.369,10.369,0,0,1-.787,3.631,21.131,21.131,0,0,1-1.9,3.808q-1.117,1.752-2.234,3.3t-1.879,2.463l-.812.863c-.2-.2-.475-.507-.813-.914s-.939-1.193-1.8-2.361-1.633-2.3-2.31-3.4a23.044,23.044,0,0,1-1.828-3.733,10.26,10.26,0,0,1-.813-3.656A7.3,7.3,0,0,1,888.573,518.394Zm3.453,7.261a2.591,2.591,0,0,0,1.905.787,2.674,2.674,0,0,0,1.929-.787,2.636,2.636,0,0,0,0-3.808,2.678,2.678,0,0,0-1.929-.787,2.693,2.693,0,0,0-1.905,4.6Z"/>
        </g>
    </g>
</svg>
