
<svg xmlns="http://www.w3.org/2000/svg" width="24" height="24" viewBox="0 0 24 24"><defs><style>.a{fill:rgba(255,255,255,0);}.b{fill:#808486;}</style></defs><g transform="translate(-493 -3927)"><rect class="a" width="24" height="24" transform="translate(493 3927)"/><g transform="translate(493.471 3644.513)"><path class="b" d="M8.45,285.489A4.3,4.3,0,0,0,4.462,291.7l3.851,7.753,3.851-7.753a4.3,4.3,0,0,0-3.714-6.211Zm-.187,2.58a1.719,1.719,0,1,1-1.669,1.718A1.719,1.719,0,0,1,8.263,288.069Z" transform="translate(2.927 0)"/><path class="b" d="M3.923,291.782.529,299.2H21.951l-3.394-7.417h-4.5l-.781,1.573h4.271l.854,1.866-5.208-.939-5.216,2.151-3.512-2.054.468-1.023H9.2l-.781-1.573Zm9.324,3,5.4.974.854,1.866H2.979l1.283-2.8,3.678,2.152Z" transform="translate(0 5.288)"/></g></g></svg>