<svg xmlns="http://www.w3.org/2000/svg" width="29.568" height="25.089" viewBox="0 0 29.568 25.089"><defs><style>.annouce{fill:currentColor;}</style></defs><g transform="matrix(0.966, 0.259, -0.259, 0.966, 6.062, -3.207)"><g transform="translate(0.001 3.32)"><path class="annouce" d="M14.068,3.4a1.665,1.665,0,0,0-.921.939A19.613,19.613,0,0,1,2.124,13.158c-.007,0-.012.009-.019.01s-.027,0-.041.007c-.034.013-3.26,1.368-1.579,5.75.449,1.112,1.722,2.922,3.638,2.922a3.329,3.329,0,0,0,.573-.058l.111.286a2.115,2.115,0,0,0,1.967,1.347,2.078,2.078,0,0,0,.386-.036l3.23-.6A2.1,2.1,0,0,0,12.1,20.512a24.377,24.377,0,0,1,7.311.835,2.045,2.045,0,0,0,.3.089c.093.029.157.051.163.053a.435.435,0,0,0,.21.022c.019,0,.039.012.058.012a1.4,1.4,0,0,0,.479-.083c2.026-.738,1.438-5.659-.189-10.139S16.1,2.672,14.068,3.4ZM16.04,15.389c-.318-.69-.625-1.407-.9-2.165-.192-.529-.358-1.038-.508-1.532A2.081,2.081,0,0,1,15,11.657a2.028,2.028,0,0,1,2.032,2.021A2,2,0,0,1,16.04,15.389ZM1.356,18.583c-.848-2.211-.237-3.422.35-4.026A10.726,10.726,0,0,0,4.116,20.9C2.327,20.9,1.4,18.683,1.356,18.583Zm9.663,2.72a1.166,1.166,0,0,1-.8.563l-3.231.6a1.176,1.176,0,0,1-1.31-.728l-.072-.184a25.906,25.906,0,0,1,5.535-.988A1.142,1.142,0,0,1,11.019,21.3Zm-5.856-.6a9.708,9.708,0,0,1-2.5-6.727A20.427,20.427,0,0,0,12.783,6.619a22.556,22.556,0,0,0,1.476,6.926A23.283,23.283,0,0,0,17.3,19.45c.155.2.306.365.457.541A26.758,26.758,0,0,0,5.163,20.7ZM20.3,20.56a.5.5,0,0,1-.2.019c-.082-.028-.223-.073-.424-.133a5.308,5.308,0,0,1-1.629-1.56,17.629,17.629,0,0,1-1.6-2.629A2.955,2.955,0,0,0,15,10.718a3,3,0,0,0-.628.071c-.76-2.866-.8-5.009-.421-5.97l.014-.023c.006-.01.006-.023.012-.034a.807.807,0,0,1,.41-.477.478.478,0,0,1,.17-.029c1.022,0,3.265,2.609,4.993,7.365C21.383,16.661,21.223,20.224,20.3,20.56Z" transform="translate(-0.001 -3.32)"/><path class="annouce" d="M18.676,9.391a.463.463,0,0,0,.337-.144l2.923-3.034a.468.468,0,1,0-.675-.65L18.338,8.6a.468.468,0,0,0,.338.793Z" transform="translate(2.875 -2.988)"/><path class="annouce" d="M24.262,11.853l-4.2-.261a.477.477,0,0,0-.5.439.47.47,0,0,0,.439.5l4.2.261h.03a.469.469,0,0,0,.028-.937Z" transform="translate(3.089 -2.013)"/><path class="annouce" d="M19.868,10.782l3.3-1.266a.468.468,0,1,0-.335-.873l-3.3,1.266a.468.468,0,0,0,.168.906A.507.507,0,0,0,19.868,10.782Z" transform="translate(3.037 -2.484)"/></g></g></svg>