<svg xmlns="http://www.w3.org/2000/svg" width="101.47" height="115.063" viewBox="0 0 101.47 115.063">
    <defs>
        <style>
            .cls-1{fill:none}.cls-2{fill:#8e8e93}.cls-3{fill:#fff}.cls-4{clip-path:url(#clip-path)}
        </style>
        <clipPath id="clip-path">
            <path id="Rectangle_8270" d="M0 0h81.515v67.02H0z" class="cls-1" data-name="Rectangle 8270" transform="translate(653.858 481.8)"/>
        </clipPath>
    </defs>
    <g id="Balance" transform="translate(-713.627 -538.177)">
        <path id="Path_27449" d="M725.245 549.229H634.4a.5.5 0 0 1-.5-.5v-3.654a8.076 8.076 0 0 1 8.067-8.064h26.24a.5.5 0 0 1 0 1H641.97a7.075 7.075 0 0 0-7.067 7.064v3.154h89.842v-3.154a7.046 7.046 0 0 0-6.343-7.028.5.5 0 0 1-.446-.548.509.509 0 0 1 .548-.446 8.044 8.044 0 0 1 7.241 8.022v3.654a.5.5 0 0 1-.5.5z" class="cls-2" data-name="Path 27449" transform="translate(79.724 56.377)"/>
        <path id="Path_27450" d="M717.684 596.862h-75.711a8.076 8.076 0 0 1-8.067-8.066v-40.224a.5.5 0 0 1 .5-.5h90.842a.5.5 0 0 1 .5.5V588.8a8.075 8.075 0 0 1-8.064 8.062zm-82.778-47.79V588.8a7.076 7.076 0 0 0 7.067 7.066h75.71a7.075 7.075 0 0 0 7.065-7.066v-39.728z" class="cls-2" data-name="Path 27450" transform="translate(79.724 56.377)"/>
        <path id="Path_27451" d="M725.947 584.084h-18.291c-3.973 0-7.207-4.063-7.207-9.056v-3.876c0-4.99 3.234-9.049 7.207-9.049h18.285v1h-18.285c-3.423 0-6.207 3.611-6.207 8.049v3.876c0 4.443 2.784 8.056 6.207 8.056h18.291z" class="cls-2" data-name="Path 27451" transform="translate(79.724 56.377)"/>
        <circle id="Ellipse_7" cx="4.276" cy="4.276" r="4.276" class="cls-3" data-name="Ellipse 7" transform="translate(788.544 625.582)"/>
        <path id="Path_27452" d="M713.1 578.257a4.776 4.776 0 1 1 4.775-4.777 4.782 4.782 0 0 1-4.775 4.777zm0-8.552a3.776 3.776 0 1 0 3.775 3.775 3.78 3.78 0 0 0-3.775-3.775z" class="cls-2" data-name="Path 27452" transform="translate(79.724 56.377)"/>
        <g id="Group_49435" class="cls-4" data-name="Group 49435" transform="translate(79.724 56.377)">
            <g id="Group_49359" data-name="Group 49359">
                <g id="Group_49236" data-name="Group 49236">
                    <g id="Group_49189" data-name="Group 49189">
                        <g id="Group_49188" data-name="Group 49188">
                            <g id="Rectangle_9925-2" data-name="Rectangle 9925-2">
                                <path id="Path_27453" d="M695.331 577.68a4.866 4.866 0 0 1-2.312-.584l-31.111-16.772a4.889 4.889 0 0 1-1.984-6.626l27.5-51.011a4.892 4.892 0 0 1 6.626-1.986l31.111 16.772a4.9 4.9 0 0 1 1.985 6.626l-27.5 51.012a4.9 4.9 0 0 1-4.315 2.569zm-3.6-76.564a3.892 3.892 0 0 0-3.431 2.045l-27.5 51.012a3.887 3.887 0 0 0 1.579 5.27l31.11 16.772a3.9 3.9 0 0 0 5.272-1.578l27.5-51.013a3.9 3.9 0 0 0-1.578-5.27l-31.112-16.772a3.873 3.873 0 0 0-1.836-.466zm-31.371 52.82z" class="cls-2" data-name="Path 27453"/>
                            </g>
                            <g id="Ellipse_283" data-name="Ellipse 283">
                                <path id="Path_27454" d="M701.307 526.938a4.633 4.633 0 1 1 4.632-4.633 4.639 4.639 0 0 1-4.632 4.633zm0-8.266a3.633 3.633 0 1 0 3.632 3.633 3.638 3.638 0 0 0-3.632-3.633z" class="cls-2" data-name="Path 27454"/>
                            </g>
                            <g id="Ellipse_284" data-name="Ellipse 284">
                                <path id="Path_27455" d="M691.731 549.318a9.252 9.252 0 1 1 9.252-9.252 9.263 9.263 0 0 1-9.252 9.252zm0-17.5a8.252 8.252 0 1 0 8.252 8.252 8.262 8.262 0 0 0-8.252-8.256z" class="cls-2" data-name="Path 27455"/>
                            </g>
                            <g id="Line_2124" data-name="Line 2124">
                                <path id="Rectangle_8269" d="M0 0h21.872v.999H0z" class="cls-2" data-name="Rectangle 8269" transform="rotate(-16.699 2086.12 -2068.947)"/>
                            </g>
                        </g>
                    </g>
                </g>
            </g>
        </g>
    </g>
</svg>
