<svg xmlns="http://www.w3.org/2000/svg" width="20.762" height="24.366" viewBox="0 0 20.762 24.366">
    <path d="M12.1 23.65a2.417 2.417 0 0 1-3.432 0 2.308 2.308 0 0 1-.715-1.687h4.862a2.308 2.308 0 0 1-.715 1.687zm6.2-6.606l2.459 2.459v1.2H0v-1.2l2.459-2.459v-6.692a7.694 7.694 0 0 1 1.716-4.947 7.733 7.733 0 0 1 4.347-2.774v-.8A1.733 1.733 0 0 1 9.066.514a1.843 1.843 0 0 1 1.316-.515 1.746 1.746 0 0 1 1.287.515 1.781 1.781 0 0 1 .515 1.316v.8a7.747 7.747 0 0 1 4.4 2.774 7.694 7.694 0 0 1 1.716 4.948z"/>
</svg>
