<svg xmlns="http://www.w3.org/2000/svg" id="Broadband_Connection" width="20" height="20" viewBox="0 0 20 20">
    <g id="Group_15680" data-name="Group 15680">
        <path id="Path_9168" d="M34.085 78.7a1.547 1.547 0 0 0 .642-.347 1.287 1.287 0 0 0 0-1.945 1.587 1.587 0 0 0-2.123 0 1.287 1.287 0 0 0 0 1.945 1.547 1.547 0 0 0 .642.347v1.975H27.7v3.015h11.948v-3.015h-5.563zm-4.065 3.86h-.708a.378.378 0 1 1 0-.754h.708a.378.378 0 1 1 0 .754zm2.6 0h-.708a.378.378 0 1 1 0-.754h.708a.378.378 0 1 1 0 .754zm4.065-.754h.708a.378.378 0 1 1 0 .754h-.708a.378.378 0 1 1 0-.754z"  data-name="Path 9168" transform="translate(-23.674 -63.69)"/>
        <path id="Path_9169" d="M19.016 9.122a5.026 5.026 0 0 0 .444-2.079 4.519 4.519 0 0 0-4.333-4.695 3.931 3.931 0 0 0-1.889.471A4.127 4.127 0 0 0 9.841 1a4.36 4.36 0 0 0-4.1 3.184 4.6 4.6 0 0 0-3.6 4.63 5.406 5.406 0 0 0 .048.715A3.046 3.046 0 0 0 1 11.965a2.86 2.86 0 0 0 2.73 2.973h5.048a2.351 2.351 0 0 1 .635-1.884A2.181 2.181 0 0 1 11 12.388a2.247 2.247 0 0 1 1.587.666 2.3 2.3 0 0 1 .635 1.884h5.048A2.86 2.86 0 0 0 21 11.965a2.943 2.943 0 0 0-1.984-2.843zm-5.365 2.615a.416.416 0 0 1-.571 0 2.9 2.9 0 0 0-4.159 0 .377.377 0 0 1-.556 0 .4.4 0 0 1 0-.569 3.676 3.676 0 0 1 5.286 0 .431.431 0 0 1 0 .57zm1.413-1.462a.416.416 0 0 1-.571 0 4.883 4.883 0 0 0-7.016 0 .377.377 0 0 1-.556 0 .4.4 0 0 1 0-.569 5.684 5.684 0 0 1 8.143 0 .4.4 0 0 1-.001.57z"  data-name="Path 9169" transform="translate(-1 -1)"/>
    </g>
</svg>
