<svg xmlns="http://www.w3.org/2000/svg" width="21.589" height="21.77" viewBox="0 0 21.589 21.77">
    <defs>
        <style>
            .cls-1,.cls-2{fill:none;stroke-miterlimit:10}.cls-1{stroke-linecap:round}.cls-2{stroke:#999;stroke-width:2px}.cls-3,.cls-4{stroke:none}.cls-4{fill:#999}
        </style>
    </defs>
    <g id="call-dispute" transform="translate(-670.572 37.866)">
        <g id="Group_48907" data-name="Group 48907" transform="translate(672.571 -35.867)">
            <g id="Group_48906" data-name="Group 48906">
                <g id="Path_27464" class="cls-1" data-name="Path 27464">
                    <path d="M689.893-19.686l-9.148-9.241 1.767-1.781a.739.739 0 0 0 1.015-.033.756.756 0 0 0 0-1.059l-3.809-3.846a.734.734 0 0 0-1.047 0 .749.749 0 0 0 0 1.058l-.031-.031-4.84 4.881.031.036a.729.729 0 0 0-1.046 0 .749.749 0 0 0 0 1.058L676.6-24.8a.74.74 0 0 0 1.05 0 .761.761 0 0 0 0-1.061l.031.033 1.768-1.783 9.143 9.238a.918.918 0 0 0 1.306 0 .937.937 0 0 0-.005-1.313z" class="cls-3" transform="translate(-672.571 35.867)"/>
                    <path d="M689.24-18.097a.916.916 0 0 0 .653-.273.937.937 0 0 0 0-1.316l-9.148-9.242 1.768-1.78a.737.737 0 0 0 1.014-.033.756.756 0 0 0 0-1.06l-3.808-3.846a.733.733 0 0 0-1.047 0 .75.75 0 0 0-.005 1.053l.005.005-.005-.005-.026-.026-4.837 4.882.03.035a.73.73 0 0 0-1.045 0 .75.75 0 0 0 0 1.058l3.806 3.848a.742.742 0 0 0 1.05 0 .761.761 0 0 0 .017-1.043l-.017-.018a.754.754 0 0 1 .017.018l.014.014 1.767-1.782 9.144 9.238c.18.182.416.273.653.273m0 2a2.899 2.899 0 0 1-2.074-.866l-7.44-7.516a2.745 2.745 0 0 1-.649 1.078l-.005.005-.005.005a2.718 2.718 0 0 1-1.946.812 2.727 2.727 0 0 1-1.94-.804l-.004-.004-.004-.004-3.804-3.846a2.751 2.751 0 0 1 1.78-4.682l3.31-3.341a2.736 2.736 0 0 1 .793-1.796 2.715 2.715 0 0 1 1.943-.81c.738 0 1.43.289 1.947.815l3.807 3.843.003.004.004.004c.508.518.788 1.203.788 1.929a2.741 2.741 0 0 1-1.91 2.62l7.48 7.558a2.945 2.945 0 0 1 0 4.13 2.899 2.899 0 0 1-2.074.866z" class="cls-4" transform="translate(-672.571 35.867)"/>
                </g>
            </g>
        </g>
        <path id="Line_1975" d="M0 0h5.76" class="cls-2" data-name="Line 1975" transform="translate(672.576 -17.867)"/>
    </g>
</svg>
