<svg xmlns="http://www.w3.org/2000/svg" width="27" height="17" viewBox="0 0 27 17">
    <path id="Shape" d="M25.392 17H1.607A1.592 1.592 0 0 1 0 15.426v-8.5h27v8.5A1.592 1.592 0 0 1 25.392 17zm-5.142-3.079a2.6 2.6 0 0 0 1.606.56 2.519 2.519 0 1 0 0-5.037 2.605 2.605 0 0 0-1.6.551 2.607 2.607 0 0 0-1.618-.561 2.524 2.524 0 1 0 0 5.048 2.611 2.611 0 0 0 1.606-.56zm1.607-.7a1.278 1.278 0 0 1-.834-.306 2.412 2.412 0 0 0 .191-.953 2.473 2.473 0 0 0-.191-.954 1.312 1.312 0 0 1 .834-.3 1.26 1.26 0 1 1 0 2.519zm-3.215-.011a1.254 1.254 0 1 1 1.286-1.249 1.254 1.254 0 0 1-1.285 1.251zM27 5.667H0V3.778h27v1.888zm0-3.148H0v-.945A1.592 1.592 0 0 1 1.607 0h23.785A1.592 1.592 0 0 1 27 1.574v.944z" />
</svg>
