<svg xmlns="http://www.w3.org/2000/svg" id="payment-method" width="14" height="22" viewBox="0 0 14 22">
    <path id="Shape" d="M13.449 12.242a49.641 49.641 0 0 0-3.573-3.458V1.361A1.37 1.37 0 0 0 8.5 0H1.381A1.37 1.37 0 0 0 0 1.361v13a1.37 1.37 0 0 0 1.381 1.361h3.1l-.128-1.069-.109-.094H2.876a1.367 1.367 0 0 0 .023-.579 1.4 1.4 0 0 0-1.121-1.118 1.42 1.42 0 0 0-.6.018V2.757a1.586 1.586 0 0 0 .255.022A1.389 1.389 0 0 0 2.83 1.4a1.455 1.455 0 0 0-.023-.242h4.248a1.455 1.455 0 0 0-.023.242 1.386 1.386 0 0 0 1.4 1.379 1.586 1.586 0 0 0 .255-.022v12.714a5.152 5.152 0 0 1-1.021-1.446S7.4 11.11 5.9 11.11a1.045 1.045 0 0 0-.118 0s-1.135.094-.2 3.292l.419 3.552a8.022 8.022 0 0 0 1.764 3.26v.4a.389.389 0 0 0 .398.386h4.216a.388.388 0 0 0 .387-.341 65.463 65.463 0 0 1 1.076-7.306 1.458 1.458 0 0 0 .118-.386 1.758 1.758 0 0 0-.511-1.725z" />
    <circle id="Oval" cx="1" cy="1" r="1"  transform="translate(4 2)"/>
    <path id="Shape-2" d="M2.343 6A3.017 3.017 0 0 1 .669 4.946 3.064 3.064 0 0 1 0 3.037 3.021 3.021 0 0 1 3 0a3.023 3.023 0 0 1 3 3.037 3.065 3.065 0 0 1-.949 2.215 2.3 2.3 0 0 0-1.088-.274 2.24 2.24 0 0 0-.244.013 1.735 1.735 0 0 0-1.246.79 2.24 2.24 0 0 0-.13.219zm1.311-3.316a.287.287 0 0 1 .26.179.6.6 0 0 1 .049.348 1.48 1.48 0 0 1-.167.53c-.028.051-.036.082-.026.1s.036.039.1.058c.089.028.183.053.274.077h.012A.378.378 0 0 0 4.245 4c.058 0 .086-.035.127-.114a1.661 1.661 0 0 0 .14-.48c.022-.132.026-.136.167-.136h.189c.085 0 .128-.038.128-.114a2.66 2.66 0 0 0 0-.267c0-.072-.041-.111-.119-.111H4.6a.133.133 0 0 1-.141-.115.917.917 0 0 0-.312-.472A.869.869 0 0 0 3.6 2a.917.917 0 0 0-.79.464 4.27 4.27 0 0 0-.194.411l-.026.061a.972.972 0 0 1-.149.258.259.259 0 0 1-.2.1.245.245 0 0 1-.221-.155.383.383 0 0 1-.035-.158 1.141 1.141 0 0 1 .123-.6c.024-.05.029-.08.019-.1s-.037-.039-.089-.054a9.115 9.115 0 0 0-.326-.094.159.159 0 0 0-.045-.007.113.113 0 0 0-.1.08 1.588 1.588 0 0 0-.114.377c-.027.17-.03.17-.207.17-.127 0-.19 0-.22.035S1 2.878 1 3v.1c0 .113.02.132.141.136H1.3c.158 0 .158 0 .211.148a.835.835 0 0 0 .779.59h.056a.8.8 0 0 0 .705-.435 2.5 2.5 0 0 0 .176-.368c.024-.058.048-.117.075-.176a.75.75 0 0 1 .119-.2.3.3 0 0 1 .233-.111z"  data-name="Shape" transform="translate(2 5)"/>
</svg>
