<svg xmlns="http://www.w3.org/2000/svg" width="28.856" height="23.445" viewBox="0 0 28.856 23.445">
    <g data-name="Charges &amp; Instalment">
        <path d="M23.445 0H1.8A1.806 1.806 0 0 0 0 1.8v16.235a1.805 1.805 0 0 0 1.8 1.8h21.645a1.8 1.8 0 0 0 1.8-1.8V1.8a1.805 1.805 0 0 0-1.8-1.8zM6.312 5.41h-1.8a.9.9 0 1 1 0-1.8h1.8a.9.9 0 1 1 0 1.8zm6.312 3.607a2.7 2.7 0 0 1 .9 5.245v1.068a.9.9 0 0 1-1.8 0v-.9h-.9a.9.9 0 0 1 0-1.8h1.8a.9.9 0 0 0 0-1.8 2.7 2.7 0 0 1-.9-5.245V4.509a.9.9 0 0 1 1.8 0v.9h.9a.9.9 0 0 1 0 1.8h-1.8a.9.9 0 1 0 0 1.8zm8.116 7.214h-1.8a.9.9 0 0 1 0-1.8h1.8a.9.9 0 1 1 0 1.8z" data-name="Path 147"/>
        <path d="M27.052 3.607v16.231a1.8 1.8 0 0 1-1.8 1.8H3.607a1.805 1.805 0 0 0 1.8 1.8h21.645a1.8 1.8 0 0 0 1.8-1.8V5.407a1.805 1.805 0 0 0-1.8-1.8z" data-name="Path 148"/>
    </g>
</svg>
