<svg xmlns="http://www.w3.org/2000/svg" width="28.803" height="23.243" viewBox="0 0 28.803 23.243">
    <path id="Shape" d="M23.63 23.243H0V9.016h18.191l4-9.016 5.883 2.587-1.586 3.576L28.8 7.181l-2.582 5.9-1.832-.795 1.79-4.086-.5-.218L23.63 12.6v10.643zM2 11.006v10.247h19.63v-4.346l-4.916 3.361-.749-5.4H4.667v-1.99h11.81l.831-1.873zM21.626 6.2l-1.25 2.816-.884 1.99-1.559 3.513.317 2.284 1.91-1.303 1.47-3.313 1.408-3.169.815-1.836-2.227-.982zm1.587-3.576l-.78 1.756 2.227.978.779-1.758-2.227-.98z" />
</svg>
