<svg xmlns="http://www.w3.org/2000/svg" id="Contact_preferance" width="20.176" height="35.8" viewBox="0 0 20.176 35.8">
    <path id="Path_158" d="M38.354.8H24.223A3.015 3.015 0 0 0 21.2 3.823v29.754a3.015 3.015 0 0 0 3.023 3.023h14.131a3.015 3.015 0 0 0 3.023-3.023V3.823A3.063 3.063 0 0 0 38.354.8zM24.223 1.965h14.131a1.865 1.865 0 0 1 1.857 1.857V5.5H22.365V3.823a1.865 1.865 0 0 1 1.858-1.858zm15.988 4.7v23.707H22.365V6.664zm-1.857 28.806H24.223a1.865 1.865 0 0 1-1.857-1.857v-2.076h17.845v2.076a1.865 1.865 0 0 1-1.857 1.857z"  data-name="Path 158" transform="translate(-21.2 -.8)"/>
    <ellipse id="Ellipse_6" cx="1.202" cy="1.202"  data-name="Ellipse 6" rx="1.202" ry="1.202" transform="translate(8.813 31.43)"/>
    <path id="Path_161" d="M41.973 7.9a.473.473 0 0 0 0 .947h4.334a.473.473 0 1 0 0-.947z"  data-name="Path 161" transform="translate(-34.107 -5.314)"/>
    <path id="Path_165" d="M39.3 44.7a5.5 5.5 0 1 1 5.5-5.5 5.518 5.518 0 0 1-5.5 5.5zm0-9.833a4.3 4.3 0 1 0 4.3 4.3 4.305 4.305 0 0 0-4.3-4.302z"  data-name="Path 165" transform="translate(-29.211 -21.718)"/>
    <path id="Path_166" d="M50.559 42.95H48.52v-2.44a.521.521 0 0 0-.51-.51.5.5 0 0 0-.51.51v2.914a.521.521 0 0 0 .51.51h2.549a.521.521 0 0 0 .51-.51.544.544 0 0 0-.51-.474z"  data-name="Path 166" transform="translate(-37.922 -25.724)"/>
</svg>
