<svg xmlns="http://www.w3.org/2000/svg" width="25.09" height="28.042" viewBox="0 0 25.09 28.042">
  <defs>
    <style>
      .cls-1 {
        fill: #4a494a;
      }
    </style>
  </defs>
  <g id="noun_contact_1696905" transform="translate(-221 -267)">
    <g id="Group_47275" data-name="Group 47275" transform="translate(218 264)">
      <path id="Path_36943" data-name="Path 36943"  d="M10,14.612c0,2.939,1.275,6.289,4.08,6.612h2.295v-2.2h-2.39a.922.922,0,0,1-.351-.073c-1.594-.705-1.594-3.5-1.594-4.335s.112-3.629,1.594-4.335a.922.922,0,0,1,.351-.073h2.39V8h-2.39C11.275,8.323,10,11.659,10,14.612Z" transform="translate(3.078 2.409)"/>
      <path id="Path_36944" data-name="Path 36944"  d="M27.352,3H5.214a.738.738,0,0,0-.738.738V5.952H6.69a.738.738,0,0,1,0,1.476H3.738a.738.738,0,0,0,0,1.476h.738v2.952H6.69a.738.738,0,0,1,0,1.476H3.738a.738.738,0,1,0,0,1.476h.738v2.952H6.69a.738.738,0,0,1,0,1.476H3.738a.738.738,0,1,0,0,1.476h.738v2.952H6.69a.738.738,0,1,1,0,1.476H3.738a.738.738,0,0,0,0,1.476h.738V30.3a.738.738,0,0,0,.738.738H27.352a.738.738,0,0,0,.738-.738V3.738A.738.738,0,0,0,27.352,3Zm-6.641,9.593a1.476,1.476,0,0,1-1.476,1.476H17.257a5.5,5.5,0,0,0-.605,2.952,5.505,5.505,0,0,0,.605,2.952h1.978a1.476,1.476,0,0,1,1.476,1.476v2.214a1.476,1.476,0,0,1-1.476,1.476H17.021c-3.6-.443-5.166-4.428-5.166-8.117S13.42,9.346,16.932,8.9h2.3a1.476,1.476,0,0,1,1.476,1.476Z" transform="translate(0 0)"/>
    </g>
  </g>
</svg>
