<svg xmlns="http://www.w3.org/2000/svg" width="16" height="16" viewBox="0 0 16 16">
    <path id="Contract" d="M13 5a8 8 0 1 0 8 7.991A7.99 7.99 0 0 0 13 5zm-2.969 13.206v-1.157h5.938v1.157zm1.013-2.047l-1.475-3.132a10.043 10.043 0 0 0 1.724-1.958 6.058 6.058 0 0 0 1.013-3.2c0-.16.462 0 .462 0v5.357a.6.6 0 0 0-.462.552.643.643 0 0 0 .693.57.656.656 0 0 0 .693-.57.6.6 0 0 0-.462-.552V7.865s.462-.16.462 0a6.127 6.127 0 0 0 1.013 3.2 10.043 10.043 0 0 0 1.724 1.958l-1.476 3.132z"  transform="translate(-5 -5)"/>
</svg>
