<svg xmlns="http://www.w3.org/2000/svg" id="Contact_Person" width="31" height="29.189" viewBox="0 0 31 29.189">
    <path id="Path_156" d="M29.055 21.173h-6.143a2.96 2.96 0 0 0-2.945 2.945v6.143a2.96 2.96 0 0 0 2.945 2.945h6.143A2.96 2.96 0 0 0 32 30.261v-6.143a2.9 2.9 0 0 0-2.945-2.945zm.7 3.99c-.158.19-.348.348-.538.538l-.507.507a.634.634 0 0 1-.95 0c-.222-.222-.443-.412-.633-.633-.063-.063-.095-.063-.158-.032a4.48 4.48 0 0 0-.918.57 6.426 6.426 0 0 0-1.457 1.615 2.616 2.616 0 0 0-.222.412.149.149 0 0 0 .032.19l.633.633a.6.6 0 0 1 0 .918l-1.045 1.045a.634.634 0 0 1-.95 0 5.125 5.125 0 0 0-.6-.57 1.209 1.209 0 0 1-.38-1.013 3.851 3.851 0 0 1 .475-1.552 9 9 0 0 1 2.243-2.881 7.927 7.927 0 0 1 2.343-1.393 3.038 3.038 0 0 1 1.3-.222 1.13 1.13 0 0 1 .728.348l.633.633a.642.642 0 0 1-.033.887zM1.792 29.976A.784.784 0 0 1 1 29.185v-1.9a4.08 4.08 0 0 1 1.583-3.261 38.737 38.737 0 0 1 6.555-4.085.26.26 0 0 0 .127-.19v-1.8a6.972 6.972 0 0 1-.855-2.47c-.285-.032-.633-.412-1.045-1.8-.538-1.9.032-2.185.507-2.122a5 5 0 0 1-.127-2.881 5.412 5.412 0 0 1 1.488-2.6 7.654 7.654 0 0 1 1.362-1.14 5.231 5.231 0 0 1 1.33-.665 3.854 3.854 0 0 1 1.2-.222 5.005 5.005 0 0 1 3.04.633 3.919 3.919 0 0 1 1.488 1.362s2.691.19 1.52 5.826c.348.127.6.633.19 2.09-.507 1.837-.982 1.932-1.267 1.742a7.768 7.768 0 0 1-.6 1.963v2.115a.174.174 0 0 0 .127.19c.253.127.918.475 1.8.982a4.745 4.745 0 0 0-1.267 3.23v5.795z"  data-name="Path 156" transform="translate(-1 -4.017)"/>
</svg>
