<svg xmlns="http://www.w3.org/2000/svg" width="25.47" height="25.47" viewBox="0 0 25.47 25.47">
  <defs>
    <style>
      .cls-1 {
        fill: #4a494a;
      }
    </style>
  </defs>
  <g id="noun_586827_cc" transform="translate(-0.07 -1)">
    <g id="Group_191" data-name="Group 191" transform="translate(0.07 1)">
      <g id="Group_190" data-name="Group 190" transform="translate(0 0)">
        <path id="Path_135" data-name="Path 135"  d="M13.737,1A12.735,12.735,0,1,0,26.472,13.735,12.735,12.735,0,0,0,13.737,1Zm5.373,14.136h-4.1v4.285a1.3,1.3,0,0,1-2.6,0V15.136H8.42a1.3,1.3,0,1,1,0-2.6h3.989v-3.8a1.3,1.3,0,1,1,2.6,0v3.8h4.1a1.3,1.3,0,0,1,0,2.6Z" transform="translate(-1.002 -1)"/>
      </g>
    </g>
  </g>
</svg>
