
<svg xmlns="http://www.w3.org/2000/svg" width="48" height="48" viewBox="0 0 48 48"><defs><style>.bioA{fill:#fff;opacity:0;}.bioB{fill:#67809f;}</style></defs><g transform="translate(-152 -744)"><rect class="bioA" width="48" height="48" transform="translate(152 744)"/><g transform="translate(151.195 753)"><g transform="translate(13.805)"><path class="bioB" d="M15.021,16.5a1.215,1.215,0,0,1-1.216-1.216C13.805,6.856,18.768,0,24.868,0,30.357,0,34.954,5.42,35.8,12.889a1.216,1.216,0,1,1-2.416.273C32.69,7.044,29.03,2.431,24.868,2.431c-4.76,0-8.632,5.765-8.632,12.852A1.215,1.215,0,0,1,15.021,16.5Z" transform="translate(-13.805 0)"/><path class="bioB" d="M22.272,48.178a1.216,1.216,0,0,1-.047-2.43,7.938,7.938,0,0,0,5.959-3.794c1.217-1.932.861-6.313.621-7.838a1.216,1.216,0,0,1,2.4-.378c.1.653.949,6.472-.965,9.511a10.382,10.382,0,0,1-7.927,4.928Z" transform="translate(-18.853 -22.77)"/><path class="bioB" d="M30.912,74.977a1.216,1.216,0,0,1-.049-2.431A9.661,9.661,0,0,0,37.915,68.5a4.045,4.045,0,0,1,2.783-1.89,6.251,6.251,0,0,1,4.4,1.415,1.216,1.216,0,0,1-1.539,1.882,3.873,3.873,0,0,0-2.5-.894,1.586,1.586,0,0,0-1.114.82,11.961,11.961,0,0,1-8.99,5.144Z" transform="translate(-24.867 -46.333)"/><path class="bioB" d="M17.179,31.944a1.216,1.216,0,0,1-.233-2.409,5.38,5.38,0,0,0,3.371-2.318,8.466,8.466,0,0,0,.676-4C21,21.3,21.015,19.137,22.815,17a4.524,4.524,0,0,1,4.4-1.745,6.6,6.6,0,0,1,4.62,4.395,39.676,39.676,0,0,1,1.255,4.688,8.023,8.023,0,0,0,.507,1.81,3.875,3.875,0,0,0,2.47,1.5,1.216,1.216,0,0,1-.449,2.39c-.315-.059-3.112-.636-4.2-2.8a9.764,9.764,0,0,1-.711-2.392,37.534,37.534,0,0,0-1.184-4.427,4.2,4.2,0,0,0-2.77-2.774,2.124,2.124,0,0,0-2.086.922c-1.234,1.468-1.242,2.879-1.252,4.666a10.671,10.671,0,0,1-.939,5.09c-1.451,2.862-4.923,3.575-5.07,3.6A1.263,1.263,0,0,1,17.179,31.944Z" transform="translate(-15.308 -10.561)"/><path class="bioB" d="M54.211,87.638a1.216,1.216,0,0,1-.348-2.381,6.835,6.835,0,0,0,3.321-2.473,1.216,1.216,0,1,1,2.026,1.344,9.242,9.242,0,0,1-4.656,3.46A1.216,1.216,0,0,1,54.211,87.638Z" transform="translate(-41.086 -57.247)"/></g></g></g></svg>