
<svg xmlns="http://www.w3.org/2000/svg" width="48" height="48" viewBox="0 0 48 48"><defs><style>.demoA{fill:#fff;opacity:0;}.demoB{fill:#67809f;}</style></defs><g transform="translate(-303 -4430)"><rect class="demoA" width="48" height="48" transform="translate(303 4430)"/><g transform="translate(151 3477)"><g transform="translate(157.05 954.563)"><g transform="translate(3.95 8.438)"><g transform="translate(11.92 0)"><circle class="demoB" cx="3.089" cy="3.089" r="3.089"/></g><g transform="translate(10.131 5.93)"><path class="demoB" d="M32.959,28.67a1.4,1.4,0,0,0,1.4,1.4h6.871a1.4,1.4,0,0,0,1.4-1.4,4.062,4.062,0,0,0,0-1.03,3.61,3.61,0,0,0-2.7-2.077,3.362,3.362,0,0,1-4.275,0,3.612,3.612,0,0,0-2.7,2.077A4.062,4.062,0,0,0,32.959,28.67Z" transform="translate(-32.922 -25.562)"/></g><g transform="translate(23.772 20.685)"><circle class="demoB" cx="3.089" cy="3.089" r="3.089"/></g><g transform="translate(18.793 16.52)"><path class="demoB" d="M62.643,61a3.358,3.358,0,0,1,1.741-1.458,3.61,3.61,0,0,0-.427-3.381,4.07,4.07,0,0,0-.889-.52,1.4,1.4,0,0,0-1.921.5l-3.471,5.93a1.4,1.4,0,0,0,.5,1.921,4.05,4.05,0,0,0,.889.52,3.61,3.61,0,0,0,3.158-1.283A3.352,3.352,0,0,1,62.643,61Z" transform="translate(-57.484 -55.444)"/></g><g transform="translate(0 20.582)"><circle class="demoB" cx="3.089" cy="3.089" r="3.089"/></g><g transform="translate(4.068 16.437)"><path class="demoB" d="M22.574,63.766a1.4,1.4,0,0,0,.515-1.918L19.657,55.9a1.4,1.4,0,0,0-1.918-.515,4.061,4.061,0,0,0-.892.515,3.611,3.611,0,0,0-.45,3.379,3.362,3.362,0,0,1,2.135,3.7,3.611,3.611,0,0,0,3.149,1.3A4.048,4.048,0,0,0,22.574,63.766Z" transform="translate(-16.189 -55.194)"/></g><g transform="translate(23.444 13.887)"><path class="demoB" d="M73.3,50.126a9.5,9.5,0,0,0-.321-1.387l-.952.3a8.5,8.5,0,0,1,.288,1.242Z" transform="translate(-72.025 -48.739)"/></g><g transform="translate(7.751 9.128)"><path class="demoB" d="M26.446,35.895l.732.677a8.606,8.606,0,0,1,.932-.87l-.624-.778A9.577,9.577,0,0,0,26.446,35.895Z" transform="translate(-26.446 -34.924)"/></g><g transform="translate(16.986 25.081)"><path class="demoB" d="M53.252,81.576l.222.972a9.38,9.38,0,0,0,1.361-.421l-.366-.928A8.465,8.465,0,0,1,53.252,81.576Z" transform="translate(-53.252 -81.199)"/></g><g transform="translate(6.096 11.29)"><path class="demoB" d="M22.543,42.863a8.548,8.548,0,0,1,.636-1.105l-.825-.561a9.593,9.593,0,0,0-.71,1.235Z" transform="translate(-21.644 -41.197)"/></g><g transform="translate(5.233 13.945)"><path class="demoB" d="M19.145,50.3l.987.146a8.585,8.585,0,0,1,.28-1.243l-.954-.292A9.5,9.5,0,0,0,19.145,50.3Z" transform="translate(-19.145 -48.907)"/></g><g transform="translate(20.503 9.092)"><path class="demoB" d="M64.391,36.465l.729-.68a9.525,9.525,0,0,0-1.047-.965l-.619.782A8.572,8.572,0,0,1,64.391,36.465Z" transform="translate(-63.454 -34.819)"/></g><g transform="translate(11.409 25.088)"><path class="demoB" d="M38.649,81.593a8.508,8.508,0,0,1-1.22-.374l-.363.928a9.472,9.472,0,0,0,1.363.418Z" transform="translate(-37.066 -81.219)"/></g><g transform="translate(22.299 11.243)"><path class="demoB" d="M68.679,41.624a8.515,8.515,0,0,1,.642,1.1l.9-.436a9.534,9.534,0,0,0-.717-1.23Z" transform="translate(-68.679 -41.059)"/></g><g transform="translate(14.279 25.647)"><path class="demoB" d="M46.752,82.9a8.79,8.79,0,0,1-1.276,0L45.4,83.9c.232.017.468.025.7.025s.483-.009.721-.027Z" transform="translate(-45.404 -82.902)"/></g><g transform="translate(9.846 11.886)"><path class="demoB" d="M42.327,47.4a5.135,5.135,0,0,0-5.13-5.13h0a5.13,5.13,0,0,0,0,10.259h0A5.135,5.135,0,0,0,42.327,47.4Zm-.672,0a4.433,4.433,0,0,1-.238,1.426H39.834a9.693,9.693,0,0,0,0-2.853h1.583A4.44,4.44,0,0,1,41.655,47.4Zm-.549-2.14H39.7a5.634,5.634,0,0,0-.869-2A4.48,4.48,0,0,1,41.106,45.257ZM39.227,47.4a9.046,9.046,0,0,1-.11,1.426H35.278a9.288,9.288,0,0,1,0-2.853h3.839A9.106,9.106,0,0,1,39.227,47.4ZM37.2,42.981c.683,0,1.4.862,1.77,2.276h-3.54C35.8,43.842,36.514,42.981,37.2,42.981Zm-1.63.271a5.634,5.634,0,0,0-.869,2H33.289A4.479,4.479,0,0,1,35.567,43.252ZM32.74,47.4a4.431,4.431,0,0,1,.238-1.427H34.56a9.679,9.679,0,0,0,0,2.853H32.978A4.431,4.431,0,0,1,32.74,47.4Zm.548,2.139H34.7a5.631,5.631,0,0,0,.869,2.006A4.479,4.479,0,0,1,33.288,49.536ZM37.2,51.813c-.683,0-1.4-.863-1.77-2.278h3.54C38.595,50.951,37.88,51.813,37.2,51.813Zm1.63-.271a5.635,5.635,0,0,0,.869-2.006h1.41A4.478,4.478,0,0,1,38.827,51.542Z" transform="translate(-32.068 -42.267)"/></g></g></g></g></g></svg>