
<svg xmlns="http://www.w3.org/2000/svg" width="48" height="48" viewBox="0 0 48 48"><defs><style>.conA{fill:#fff;opacity:0;}.conB{fill:#67809f;fill-rule:evenodd;}</style></defs><g transform="translate(-152 -640)"><rect class="conA" width="48" height="48" transform="translate(152 640)"/><path class="conB" d="M25.923,21.558A8.279,8.279,0,1,1,34.2,13.279,8.279,8.279,0,0,1,25.923,21.558ZM27.347,8.9a.955.955,0,0,0-.955-.955h-.97a.955.955,0,0,0-.955.955v1a.955.955,0,0,0,.955.955h.97a.955.955,0,0,0,.955-.955Zm.03,3.91a.985.985,0,0,0-.985-.985h-.97a.985.985,0,0,0-.985.985v4.823a.985.985,0,0,0,.985.985h.97a.985.985,0,0,0,.985-.985ZM16.828,26.155a3.824,3.824,0,0,0,5.073-.034c2.147-1.78,4.5.628,6.179,1.884s1.675,2.46.575,3.978-3.8,3.3-7.725,1.364-9.425-6.543-13.4-12.038S4.99,12.671,7.136,10.734C9.99,8.16,11.9,12.409,12.372,12.985c.431.526,2.042,2.878.838,4.187s-1.513,3.8-.832,4.483S16.373,25.663,16.828,26.155Z" transform="translate(155.982 643)"/></g></svg>