<svg xmlns="http://www.w3.org/2000/svg" id="Customer_basoc_info" width="28" height="30" viewBox="0 0 28 30">
    <g id="Group_187" data-name="Group 187">
        <path id="Path_124" d="M70.232 69.6a.488.488 0 0 0-.38.152.645.645 0 0 0-.152.494v3.042a.7.7 0 0 0 .152.494.551.551 0 0 0 .761 0 .645.645 0 0 0 .152-.494v-3.08a.606.606 0 0 0-.152-.456.676.676 0 0 0-.381-.152z"  data-name="Path 124" transform="translate(-47.899 -46.483)"/>
        <path id="Path_125" d="M70.232 65.6a.52.52 0 0 0-.532.532.441.441 0 0 0 .152.38.676.676 0 0 0 .38.152.488.488 0 0 0 .38-.152.551.551 0 0 0 0-.761.676.676 0 0 0-.38-.151z"  data-name="Path 125" transform="translate(-47.899 -44.15)"/>
        <path id="Path_126" d="M25.2 19.957a1.6 1.6 0 0 0 .19.646 1.636 1.636 0 0 0 1.1.837 8.973 8.973 0 0 0 .456 1.445 6.217 6.217 0 0 0 1.939 2.662 3.94 3.94 0 0 0 2.7.989 5.58 5.58 0 0 0 2.472-.608 5.224 5.224 0 0 0 1.297-1.028 7.019 7.019 0 0 0 1.673-3.423 1.462 1.462 0 0 0 .646-.228 1.833 1.833 0 0 0 .8-1.331 2.606 2.606 0 0 0-.152-.8 1.37 1.37 0 0 0-.38-.57 1.323 1.323 0 0 0-.57-.266h.038l.3-2.015c.228-3.118-1.939-3.917-1.939-3.917a2.389 2.389 0 0 0-.951-1.673c-1.749-1.027-5.4.342-5.4.342a4.624 4.624 0 0 0-3.461 2.624 7.307 7.307 0 0 0 .076 4.754 1.247 1.247 0 0 0-.3.228 1.971 1.971 0 0 0-.534 1.332z"  data-name="Path 126" transform="translate(-20.835 -10.296)"/>
        <path id="Path_127" d="M33.21 56.663a15.474 15.474 0 0 0-1.407-.8c-.038 0-.038-.038-.076-.038-.114-.038-.228-.114-.342-.152A13.391 13.391 0 0 0 28.3 54.8a5.786 5.786 0 0 1-.8.57 5.58 5.58 0 0 1-2.472.608 3.94 3.94 0 0 1-2.7-.989l-.114-.114a24.062 24.062 0 0 0-2.89.723v-.038a4.174 4.174 0 0 0-.646.266 7.558 7.558 0 0 0-4.183 4.6v4.107s6.921 4.487 17.227 1.635a6.067 6.067 0 0 1 1.483-9.507z"  data-name="Path 127" transform="translate(-14.5 -37.311)"/>
        <path id="Path_128" d="M62.824 59.7a5.324 5.324 0 1 0 5.324 5.324 5.34 5.34 0 0 0-5.324-5.324zm.38 7.454a.645.645 0 0 1-.152.494.551.551 0 0 1-.761 0 .645.645 0 0 1-.152-.494v-3.043a.645.645 0 0 1 .152-.494.551.551 0 0 1 .761 0 .606.606 0 0 1 .152.456zm-.152-4.335a.676.676 0 0 1-.38.152.488.488 0 0 1-.38-.152.441.441 0 0 1-.152-.38.52.52 0 0 1 .532-.532.642.642 0 0 1 .38.114.441.441 0 0 1 .152.38c-.004.227-.038.341-.152.417z"  data-name="Path 128" transform="translate(-40.148 -40.348)"/>
    </g>
</svg>
