
<svg xmlns="http://www.w3.org/2000/svg" width="48" height="48" viewBox="0 0 48 48"><defs><style>.secA{fill:#fff;opacity:0;}.secB{fill:#67809f;}</style></defs><g transform="translate(-152 -640)"><rect class="secA" width="48" height="48" transform="translate(152 640)"/><g transform="translate(159 647.301)"><path class="secB" d="M24.724,1.7H3.963A1.976,1.976,0,0,0,2,3.663V29.331a1.976,1.976,0,0,0,1.963,1.963H24.724a1.976,1.976,0,0,0,1.963-1.963h0V4.092h0V3.663A1.976,1.976,0,0,0,24.724,1.7ZM21.9,23.688a.681.681,0,0,1-.675.675H7.489a.681.681,0,0,1-.675-.675V22.247a1.516,1.516,0,0,1,.552-1.165,25.834,25.834,0,0,1,4.416-2.852c.061-.031.061-.061.061-.123V16.635a3.873,3.873,0,0,1-.429-1.165c-.153,0-.368-.245-.613-1.073-.307-1.043-.031-1.257.245-1.257a.9.9,0,0,1-.061-.276h0a3.4,3.4,0,0,1,0-1.472,3.574,3.574,0,0,1,.859-1.533,5.469,5.469,0,0,1,.8-.675,3.643,3.643,0,0,1,.767-.4h0a2.612,2.612,0,0,1,.705-.123,3.017,3.017,0,0,1,1.779.368,2.228,2.228,0,0,1,.859.8s1.441.092.951,3.005c-.031.092-.031.184-.061.276.276,0,.552.215.245,1.257-.245.828-.46,1.043-.613,1.073a3.6,3.6,0,0,1-.429,1.165v1.472c0,.061.031.092.092.123a24.649,24.649,0,0,1,4.416,2.852,1.516,1.516,0,0,1,.552,1.165v1.472ZM31.44,7.465V9.52a1.976,1.976,0,0,1-1.963,1.963h-.889V5.5h.889A1.957,1.957,0,0,1,31.44,7.465Zm0,16.437v2.055a1.976,1.976,0,0,1-1.963,1.963h-.889V21.94h.889A1.976,1.976,0,0,1,31.44,23.9Zm0-8.219v2.055A1.976,1.976,0,0,1,29.478,19.7h-.889v-5.98h.889A1.976,1.976,0,0,1,31.44,15.684Z" transform="translate(0 0)"/></g></g></svg>