<svg xmlns="http://www.w3.org/2000/svg" id="Demographic_Details" width="32" height="32" data-name="Demographic Details" viewBox="0 0 32 32">
    <defs>
               
        </style>
    </defs>
    <g id="Group_222" data-name="Group 222">
        <path id="Path_155" d="M23.25 7.163a3.582 3.582 0 1 1 3.581-3.582 3.581 3.581 0 0 1-3.581 3.582zm-13.63 3.79l5.83-7.467A9.851 9.851 0 0 0 .352 8.993zm5.1 1.936l2.78-3.458a3.551 3.551 0 0 1 3.047-1.7h5.414A3.552 3.552 0 0 1 29 9.431l2.774 3.458a1.308 1.308 0 0 1 .128 1.214l-2.749 5.336a1.306 1.306 0 0 1-1.7.728h-.008a1.306 1.306 0 0 1-.656-.588V30.39a1.624 1.624 0 0 1-3.248 0v-9.373h-.594v9.373a1.624 1.624 0 0 1-3.248 0V19.577a1.3 1.3 0 0 1-.656.588h-.008a1.307 1.307 0 0 1-1.7-.728L14.593 14.1a1.31 1.31 0 0 1 .129-1.211zm12.08 5.452l2.291-4.567-2.291-2.795v7.362zm-7.091 0v-7.362l-2.291 2.795zM.583 14.924a9.832 9.832 0 0 0 6.2 6.027l2.361-8.919-9.033-1.91a9.8 9.8 0 0 0 .472 4.802zm9.8-3.07l-2.489 9.393a9.87 9.87 0 0 0 8.5-2.286l-2.356-4.571-.025-.054a1.932 1.932 0 0 1 .19-1.795l.015-.022L17 9.054a4.7 4.7 0 0 1 1.8-1.573A9.8 9.8 0 0 0 16.36 4.2z"  data-name="Path 155"/>
    </g>
</svg>
