<svg xmlns="http://www.w3.org/2000/svg" width="32.993" height="36.835" viewBox="0 0 32.993 36.835">
    <defs>
        <style>
            .cls-1,.cls-6{fill:none}.cls-2{opacity:.24}.cls-3{clip-path:url(#clip-path)}.cls-4{fill:#ff6b81}.cls-5{opacity:.32;isolation:isolate}.cls-6{stroke:#759dfd;stroke-miterlimit:10}
        </style>
        <clipPath id="clip-path">
            <path id="Path_27403" d="M414.141 45.084v23.179l4.432 2.153 3.527-1.975 3.4 2.422 4.838-2.4 4.312 2.4 3.044-2.21v-27.29a2.8 2.8 0 0 0-2.718-2.766h-10.062l1.267 1.774a2.111 2.111 0 0 1 .422 1.046c-.022.451.157 1.1-.608 1.579a2 2 0 0 1-2.044.2c-.79-.28-3.363-1.2-3.657-1.224a3.129 3.129 0 0 0-1.974.128 18.429 18.429 0 0 0-2.821 2.3 2.682 2.682 0 0 1-1.358.684z" class="cls-1" data-name="Path 27403"/>
        </clipPath>
    </defs>
    <g id="Doc-Expiring" transform="translate(-603.925 -91)">
        <g id="Group_48533" class="cls-2" data-name="Group 48533" transform="translate(198.724 56.377)">
            <g id="Group_49426" data-name="Group 49426">
                <g id="Group_49425" class="cls-3" data-name="Group 49425">
                    <g id="Group_48532" data-name="Group 48532">
                        <g id="Group_48531-2" data-name="Group 48531-2">
                            <g id="Line_1662" data-name="Line 1662">
                                <path id="Rectangle_8240" d="M0 0h1v.405H0z" class="cls-4" data-name="Rectangle 8240" transform="translate(418.073 67.743)"/>
                            </g>
                            <g id="Path_27345" data-name="Path 27345">
                                <path id="Rectangle_8241" d="M0 0h24.126v1H0z" class="cls-4" data-name="Rectangle 8241" transform="rotate(-45 273.211 -457.879)"/>
                            </g>
                            <g id="Line_1663" data-name="Line 1663">
                                <path id="Rectangle_8242" d="M0 0h11.37v1H0z" class="cls-4" data-name="Rectangle 8242" transform="rotate(-45 258.396 -493.645)"/>
                            </g>
                            <g id="Line_1664" data-name="Line 1664">
                                <path id="Rectangle_8243" d="M0 0h25.224v1H0z" class="cls-4" data-name="Rectangle 8243" transform="rotate(-45 276.303 -459.16)"/>
                            </g>
                            <g id="Line_1665" data-name="Line 1665">
                                <path id="Rectangle_8244" d="M0 0h11.76v1H0z" class="cls-4" data-name="Rectangle 8244" transform="rotate(-45 261.684 -494.455)"/>
                            </g>
                            <g id="Line_1666" data-name="Line 1666">
                                <path id="Rectangle_8245" d="M0 0h40.998v1H0z" class="cls-4" data-name="Rectangle 8245" transform="rotate(-45 279.397 -460.442)"/>
                            </g>
                            <g id="Line_1667" data-name="Line 1667">
                                <path id="Rectangle_8246" d="M0 0h40.998v1H0z" class="cls-4" data-name="Rectangle 8246" transform="rotate(-45 282.49 -461.723)"/>
                            </g>
                            <g id="Line_1668" data-name="Line 1668">
                                <path id="Rectangle_8247" d="M0 0h40.998v1H0z" class="cls-4" data-name="Rectangle 8247" transform="rotate(-45 285.583 -463.004)"/>
                            </g>
                            <g id="Line_1669" data-name="Line 1669">
                                <path id="Rectangle_8248" d="M0 0h40.998v1H0z" class="cls-4" data-name="Rectangle 8248" transform="rotate(-45 288.677 -464.286)"/>
                            </g>
                            <g id="Line_1670" data-name="Line 1670">
                                <path id="Rectangle_8249" d="M0 0h40.998v1H0z" class="cls-4" data-name="Rectangle 8249" transform="rotate(-45 291.77 -465.567)"/>
                            </g>
                            <g id="Line_1671" data-name="Line 1671">
                                <path id="Rectangle_8250" d="M0 0h40.998v1H0z" class="cls-4" data-name="Rectangle 8250" transform="rotate(-45 294.863 -466.848)"/>
                            </g>
                            <g id="Line_1672" data-name="Line 1672">
                                <path id="Rectangle_8251" d="M0 0h40.998v1H0z" class="cls-4" data-name="Rectangle 8251" transform="rotate(-45 297.956 -468.13)"/>
                            </g>
                            <g id="Line_1673" data-name="Line 1673">
                                <path id="Rectangle_8252" d="M0 0h40.998v1H0z" class="cls-4" data-name="Rectangle 8252" transform="rotate(-45 301.048 -469.411)"/>
                            </g>
                            <g id="Line_1674" data-name="Line 1674">
                                <path id="Rectangle_8253" d="M0 0h40.998v1H0z" class="cls-4" data-name="Rectangle 8253" transform="rotate(-45 304.14 -470.692)"/>
                            </g>
                            <g id="Line_1675" data-name="Line 1675">
                                <path id="Rectangle_8254" d="M0 0h40.998v1H0z" class="cls-4" data-name="Rectangle 8254" transform="rotate(-45 307.233 -471.973)"/>
                            </g>
                            <g id="Line_1676" data-name="Line 1676">
                                <path id="Rectangle_8255" d="M0 0h40.998v1H0z" class="cls-4" data-name="Rectangle 8255" transform="rotate(-45 310.327 -473.254)"/>
                            </g>
                        </g>
                    </g>
                </g>
            </g>
        </g>
        <g id="Path_27347" class="cls-5" data-name="Path 27347" transform="translate(198.724 56.377)">
            <path id="Path_27404" d="M427.268 38.663h7.673a2.8 2.8 0 0 1 2.717 2.766v27.29l-3.044 2.21-4.312-2.4-4.838 2.4-3.4-2.422-3.527 1.975-4.4-2.219V45.084a6.36 6.36 0 0 0 2.163-1.332 7.284 7.284 0 0 1 2.012-1.652 5.386 5.386 0 0 1 3.124.15c.9.42 2.854 1.051 2.854 1.051s1.349.329 1.606-.121 1.1-1.2.872-1.8a25.213 25.213 0 0 0-2.13-2.934z" class="cls-4" data-name="Path 27404"/>
        </g>
        <g id="Path_27348" data-name="Path 27348" transform="translate(198.724 56.377)">
            <path id="Path_27405" d="M434.686 71.458l-4.361-2.428-4.871 2.416-3.386-2.412-3.7 2.07-4.731-2.542V45.494h1v22.47l3.721 2 3.77-2.111 3.414 2.432 4.806-2.384 4.263 2.373 2.579-1.874V41.363a2.292 2.292 0 0 0-2.233-2.268h-9.867v-1h9.886a3.293 3.293 0 0 1 3.218 3.262v27.552z" class="cls-4" data-name="Path 27405"/>
        </g>
        <g id="Path_27350" data-name="Path 27350" transform="translate(198.724 56.377)">
            <path id="Path_27407" d="M417.323 38.7v-1h15.005a1.067 1.067 0 0 0 1.04-1.106.973.973 0 0 0-1.04-.972h-17.1a38.686 38.686 0 0 0-5.113 2.832l-.526-.85c1.8-1.114 4.92-2.982 5.639-2.982h17.1a1.946 1.946 0 0 1 2.039 1.953 2.066 2.066 0 0 1-1.987 2.125z" class="cls-4" data-name="Path 27407"/>
        </g>
        <g id="Path_27351" data-name="Path 27351" transform="translate(198.724 56.377)">
            <path id="Path_27408" d="M412.021 45.584v-1h2.138c-.014 0 1.144-.107 2.735-2.041 1.741-2.113 5.673-.467 7.353.236.282.118.493.21.607.241a.951.951 0 0 0 .645-.262 1.867 1.867 0 0 0 .773-1.18 10.058 10.058 0 0 0-2.334-3.023l.708-.707c.789.789 2.626 2.733 2.626 3.73a2.789 2.789 0 0 1-1.168 1.975 1.781 1.781 0 0 1-1.517.431 8.284 8.284 0 0 1-.727-.282c-1.474-.618-4.927-2.065-6.193-.523-1.885 2.289-3.333 2.4-3.492 2.4z" class="cls-4" data-name="Path 27408"/>
        </g>
        <g id="Line_1677" data-name="Line 1677" transform="translate(198.724 56.377)">
            <path id="Path_27409" d="M413.312 49.819a.5.5 0 0 1-.32-.116l-3.46-2.888a.5.5 0 1 1 .64-.768l3.46 2.888a.5.5 0 0 1-.32.884z" class="cls-4" data-name="Path 27409"/>
        </g>
        <g id="Rectangle_8257" data-name="Rectangle 8257" transform="translate(198.724 56.377)">
            <path id="Path_27410" d="M410.352 50.455H405.2V35.906h5.151zm-4.151-1h3.151V36.906H406.2z" class="cls-4" data-name="Path 27410"/>
        </g>
        <g id="Rectangle_8258" data-name="Rectangle 8258" transform="translate(198.724 56.377)">
            <path id="Rectangle_8256" d="M0 0h6.099v6.099H0z" class="cls-4" data-name="Rectangle 8256" transform="translate(416.555 49.319)"/>
        </g>
        <g id="Line_1678" data-name="Line 1678" transform="translate(198.724 56.377)">
            <path id="Rectangle_8257-2" d="M0 0h9.288v1H0z" class="cls-4" data-name="Rectangle 8257" transform="translate(425.272 49.835)"/>
        </g>
        <g id="Line_1679" data-name="Line 1679" transform="translate(198.724 56.377)">
            <path id="Rectangle_8258-2" d="M0 0h9.288v1H0z" class="cls-4" data-name="Rectangle 8258" transform="translate(425.272 52)"/>
        </g>
        <g id="Line_1680" data-name="Line 1680" transform="translate(198.724 56.377)">
            <path id="Rectangle_8259" d="M0 0h9.288v1H0z" class="cls-4" data-name="Rectangle 8259" transform="translate(425.272 54.165)"/>
        </g>
        <g id="Line_1681" data-name="Line 1681" transform="translate(198.724 56.377)">
            <path id="Rectangle_8260" d="M0 0h18.006v1H0z" class="cls-4" data-name="Rectangle 8260" transform="translate(416.555 58.496)"/>
        </g>
        <g id="Line_1682" data-name="Line 1682" transform="translate(198.724 56.377)">
            <path id="Rectangle_8261" d="M0 0h18.006v1H0z" class="cls-4" data-name="Rectangle 8261" transform="translate(416.555 60.661)"/>
        </g>
        <g id="Line_1683" data-name="Line 1683" transform="translate(198.724 56.377)">
            <path id="Rectangle_8262" d="M0 0h18.006v1H0z" class="cls-4" data-name="Rectangle 8262" transform="translate(416.555 62.826)"/>
        </g>
        <g id="Line_1684" data-name="Line 1684" transform="translate(198.724 56.377)">
            <path id="Rectangle_8263" d="M0 0h18.006v1H0z" class="cls-4" data-name="Rectangle 8263" transform="translate(416.555 64.991)"/>
        </g>
    </g>
</svg>
