<svg xmlns="http://www.w3.org/2000/svg" width="27.968" height="31.219" viewBox="0 0 27.968 31.219">
    <defs>
        <style>
            .a{fill:none;stroke-miterlimit:10;stroke:#999}
        </style>
    </defs>
    <g transform="translate(-473.187 -368.66)">
        <path class="a" d="M482.127,378.448v19.2l3.562,1.914,3.147-1.762,2.866,2.042,4.078-2.026,3.635,2.021,2.566-1.864v-23a2.359,2.359,0,0,0-2.291-2.333h-8.333" transform="translate(-1.326 -0.545)"/>
        <path d="M492.4,372.633" transform="translate(-2.939 -0.545)" style="stroke:#759dfd;fill:none;stroke-miterlimit:10"/>
        <path class="a" d="M477.838,371.61s3.955-2.45,4.532-2.45h14.416s1.3,0,1.3,1.225a1.32,1.32,0,0,1-1.3,1.37h-12.65" transform="translate(-0.652)"/>
        <path class="a" d="M480.007,378.04h1.8s1.118-.035,2.631-1.874,5.622.361,6.271.54,1.73-.865,1.73-1.622-2.09-2.847-2.09-2.847" transform="translate(-0.993 -0.483)"/>
        <line x1="2.916" y1="2.434" transform="translate(477.186 378.692)" style="stroke-linecap:round;stroke:#999;fill:none;stroke-miterlimit:10"/>
        <rect class="a" width="3.499" height="11.421" transform="translate(473.687 370.241)"/>
        <rect width="5.141" height="5.141" transform="translate(482.836 381.126)" style="fill:#999"/>
        <line class="a" x2="7.829" transform="translate(490.185 381.983)"/>
        <line class="a" x2="7.829" transform="translate(490.185 383.808)"/>
        <line class="a" x2="7.829" transform="translate(490.185 385.633)"/>
        <line class="a" x2="15.178" transform="translate(482.836 389.283)"/>
        <line class="a" x2="15.178" transform="translate(482.836 391.108)"/>
        <line class="a" x2="15.178" transform="translate(482.836 392.933)"/>
        <line class="a" x2="15.178" transform="translate(482.836 394.759)"/>
    </g>
</svg>
