<svg xmlns="http://www.w3.org/2000/svg" width="28" height="17.661" viewBox="0 0 28 17.661">
    <g id="Documents" transform="translate(-356.111 175.324)">
        <g id="Group_188" data-name="Group 188" transform="translate(356.111 -175.324)">
            <path id="Path_129" d="M15.084 18.337h8.734a4.366 4.366 0 0 0 .582-8.682v-.188a4.573 4.573 0 0 0-4.537-4.609 4.477 4.477 0 0 0-1.178.157A6.955 6.955 0 0 0 5.3 7.244a5.553 5.553 0 0 0 .274 11.093h7.563V10.5L10.8 12.871a.965.965 0 0 1-1.38 0 1 1 0 0 1 0-1.4l4-4.063.69-.7.69.7 4 4.063a1 1 0 0 1 0 1.4.965.965 0 0 1-1.38 0L15.087 10.5v7.837z"  data-name="Path 129" transform="translate(-.111 -.676)"/>
        </g>
    </g>
</svg>
