<svg xmlns="http://www.w3.org/2000/svg" width="24" height="24" viewBox="0 0 24 24"><defs><style>.a{fill:rgba(255,255,255,0);}.b{fill:#67809f;}</style></defs><g transform="translate(-834 -3529)"><rect class="a" width="24" height="24" transform="translate(834 3529)"/><g transform="translate(838 3533)"><path class="b" d="M314.481,314.241a.016.016,0,0,1,0,.009c0-.005,0,.011,0,.031a.924.924,0,0,1-.022.1,1.041,1.041,0,0,1-.033.107l-.011.031c-.02.016-.036.076-.051.1a.891.891,0,0,1-.06.1.126.126,0,0,0-.013.018c.007-.007.011-.009-.009.013l-.007.007a.006.006,0,0,0,0,0v0c-.025.031-.053.06-.08.087s-.051.049-.078.072l-.02.016c-.058.036-.112.074-.174.107-.011.005-.022.009-.031.014-.027.009-.054.022-.08.031a1.437,1.437,0,0,1-.194.049h0a.035.035,0,0,0-.013,0l-.087.005c-.033,0-.065,0-.1,0a.455.455,0,0,1-.049,0c-.009,0-.045-.007-.049-.007h0l-.027-.005c-.033-.007-.065-.015-.1-.024s-.056-.016-.083-.027a.247.247,0,0,1-.033-.013.014.014,0,0,0-.009,0c-.053-.027-.105-.054-.156-.087l-.033-.022v0l-.009-.005c-.025-.016-.018-.018-.007-.011-.02-.018-.053-.038-.062-.047-.045-.043-.087-.089-.129-.136-.005-.009-.014-.02-.02-.029q-.033-.049-.06-.1c-.014-.025-.027-.052-.042-.078a.08.08,0,0,0-.007-.013l-.005-.016a1.162,1.162,0,0,1-.054-.192c0-.005,0-.02-.007-.033a.549.549,0,0,0-.007-.067,1.349,1.349,0,0,1,0-.21.027.027,0,0,1,0-.013v0c.007-.033.013-.065.02-.1.014-.06.043-.118.06-.177.005-.009.009-.02.014-.029a.663.663,0,0,1,.043-.078c.016-.027.034-.054.052-.08h0a.381.381,0,0,1,.027-.034,1.466,1.466,0,0,1,.139-.141l.02-.016a1.076,1.076,0,0,0,.094-.063c.025-.014.051-.031.078-.043l.038-.024h0a.8.8,0,0,1,.177-.056c.029-.007.056-.013.085-.018a.045.045,0,0,1,.014,0h0c.071,0,.139-.005.21,0l.04,0h0l.024,0a.467.467,0,0,0,.049.007,1.442,1.442,0,0,1,.192.054l.016.005h0c.025.014.052.025.08.04a1.006,1.006,0,0,1,.087.053l.033.022h0v0a0,0,0,0,0,0,0c.029.02.027.024.018.018.022.018.053.04.06.045.024.022.045.043.067.065s.042.045.062.069a.125.125,0,0,0,.013.015c.005.009.011.02.016.027q.033.049.06.1c.007.013.022.034.033.054a.083.083,0,0,0,.005.02l.022.06a1.06,1.06,0,0,1,.031.109c.007.033.014.065.02.1a.081.081,0,0,0,0,.014v.024A1.608,1.608,0,0,1,314.481,314.241Z" transform="translate(-307.715 -308.367)"/><path class="b" d="M602.279,601.206a.016.016,0,0,1,0,.009.087.087,0,0,0,0,.033.89.89,0,0,1-.022.1,1.036,1.036,0,0,1-.033.107c0,.011-.007.022-.011.031-.02.016-.036.076-.051.1s-.04.067-.06.1l-.013.016c.007-.007.011-.009-.009.013l-.007.007a.006.006,0,0,0,0,0v0c-.025.031-.053.06-.08.087s-.051.049-.078.072l-.018.016h0c-.058.036-.112.074-.174.107-.011.005-.022.009-.031.015-.027.009-.054.022-.08.031a1.363,1.363,0,0,1-.194.049h0a.035.035,0,0,0-.013,0l-.087.005h-.1a.439.439,0,0,1-.049,0c-.009,0-.045-.007-.049-.007h0c-.013,0-.024-.005-.029-.005-.033-.007-.065-.014-.1-.023a.654.654,0,0,1-.083-.027l-.033-.013a.014.014,0,0,0-.009,0c-.053-.027-.105-.054-.156-.087l-.033-.022v0l-.009-.005c-.025-.016-.016-.018-.005-.011-.02-.018-.053-.038-.062-.047-.045-.043-.087-.089-.129-.136-.007-.009-.013-.018-.02-.029q-.033-.049-.06-.1c-.014-.025-.027-.052-.042-.078l-.007-.013-.005-.016a1.168,1.168,0,0,1-.054-.192c0-.005,0-.02-.007-.033a.548.548,0,0,0-.007-.067,1.345,1.345,0,0,1,0-.21.027.027,0,0,1,0-.013v0c.007-.033.013-.065.02-.1.015-.06.043-.118.06-.177.005-.011.009-.02.014-.029.014-.027.027-.053.043-.078s.033-.053.051-.078h0a.38.38,0,0,1,.029-.036,1.472,1.472,0,0,1,.139-.141.169.169,0,0,0,.02-.018,1.034,1.034,0,0,0,.094-.063.666.666,0,0,1,.078-.043l.04-.023a.8.8,0,0,1,.177-.054c.029-.007.056-.016.085-.022.005,0,.009-.005.014-.005h0c.071,0,.14-.007.21,0l.04,0h0l.009,0c.018,0,.033,0,.036.007a.173.173,0,0,1-.029-.005l.007,0a.429.429,0,0,0,.049.009,1.467,1.467,0,0,1,.192.056l.018.007h0c.025.015.053.025.08.04s.06.034.087.052l.033.022h0v0a0,0,0,0,0,0,0c.027.02.027.024.02.02.022.018.051.038.058.045.024.022.045.044.067.065s.042.045.062.069a.118.118,0,0,0,.013.015.155.155,0,0,0,.016.025q.033.049.06.1c.007.013.022.034.033.054a.083.083,0,0,0,.005.02l.022.06c.013.036.022.071.031.107s.014.065.02.1a.082.082,0,0,0,0,.014V601C602.285,601.065,602.285,601.136,602.279,601.206Z" transform="translate(-590.303 -590.128)"/><path class="b" d="M66.339,55.865A8.293,8.293,0,0,0,65.2,53.6a8.492,8.492,0,0,0-1.748-1.809,8.326,8.326,0,0,0-4.759-1.711,8.442,8.442,0,0,0-2.606.31,8.369,8.369,0,0,0-4.162,2.722,8.422,8.422,0,0,0-1.3,2.171,8.36,8.36,0,0,0,.59,7.489,8.374,8.374,0,0,0,8.84,3.867,8.331,8.331,0,0,0,2.394-.887,8.4,8.4,0,0,0,3.414-3.573,8.255,8.255,0,0,0,.779-2.445,8.552,8.552,0,0,0,.1-1.289v0A8.459,8.459,0,0,0,66.339,55.865ZM54.094,55.41a1.755,1.755,0,0,1,1.543-1.3,1.731,1.731,0,0,1,1.7.974,1.756,1.756,0,0,1-.322,1.961c0,.005-.009.009-.013.014l-.016.016a1.732,1.732,0,0,1-2.887-1.668Zm3.43,4.4L55.88,61.45c-.226.226-.455.455-.681.683a.362.362,0,1,1-.513-.513l.011-.011c.272-.284.556-.556.835-.835l1.713-1.713,1.983-1.983,1.644-1.644.681-.681a.362.362,0,1,1,.513.513l-.011.011c-.272.284-.556.556-.835.835l-1.713,1.713Zm4.7,2.449c0,.005-.009.009-.013.014l-.016.016a1.731,1.731,0,1,1-1.344-2.965,1.731,1.731,0,0,1,1.7.974A1.76,1.76,0,0,1,62.22,62.254Z" transform="translate(-50.009 -50.076)"/></g></g></svg>