<svg xmlns="http://www.w3.org/2000/svg" width="29.958" height="23.445" viewBox="0 0 29.958 23.445">
    <path d="M19.03 9.528a.651.651 0 1 0 1.016-.813 6.382 6.382 0 0 0-5.07-2.2A6.382 6.382 0 0 0 9.909 8.71a.651.651 0 1 0 1.016.814 5.1 5.1 0 0 1 4.051-1.709 5.1 5.1 0 0 1 4.051 1.713z" data-name="Path 36949"/>
    <path d="M7.163 7.815a.651.651 0 0 0 .514-.247 9.313 9.313 0 0 1 7.3-3.66 8.851 8.851 0 0 1 7.3 3.66.651.651 0 1 0 1.022-.808 10.075 10.075 0 0 0-8.321-4.154 10.609 10.609 0 0 0-8.33 4.155.651.651 0 0 0 .514 1.055z" data-name="Path 36950"/>
    <path d="M12.953 10.661a.651.651 0 1 0 1.016.814 1.459 1.459 0 0 1 2.025 0 .651.651 0 1 0 1.016-.814 2.752 2.752 0 0 0-4.057 0z" data-name="Path 36951"/>
    <path d="M28 13.676H1.954A1.954 1.954 0 0 0 0 15.63v4.559a1.954 1.954 0 0 0 1.954 1.954h.651a.651.651 0 0 0 0 1.3h3.908a.651.651 0 0 0 0-1.3h16.932a.651.651 0 1 0 0 1.3h3.908a.651.651 0 1 0 0-1.3H28a1.954 1.954 0 0 0 1.954-1.954V15.63A1.954 1.954 0 0 0 28 13.676zm-12.7 5.21a.977.977 0 1 1 .977-.977.977.977 0 0 1-.977.977zm3.256 0a.977.977 0 1 1 .977-.977.977.977 0 0 1-.977.977zm3.256 0a.977.977 0 1 1 .977-.977.977.977 0 0 1-.972.977zm3.256 0a.977.977 0 1 1 .977-.977.977.977 0 0 1-.972.977z" data-name="Path 36952"/>
    <path d="M5.862 13.025H1.954a1.954 1.954 0 0 1 1.3-1.837V.651a.651.651 0 1 1 1.3 0v10.538a1.954 1.954 0 0 1 1.3 1.837z" data-name="Path 36953"/>
    <path d="M28.005 13.025h-3.908a1.954 1.954 0 0 1 1.3-1.837V.651a.651.651 0 1 1 1.3 0v10.538a1.954 1.954 0 0 1 1.3 1.837z" data-name="Path 36954"/>
</svg>
