<svg xmlns="http://www.w3.org/2000/svg" width="13.5" height="13.5" viewBox="0 0 13.5 13.5">
    <path d="M2.707-7.664A11.03,11.03,0,0,0,7.664-2.707L9.316-4.359a.645.645,0,0,1,.773-.176,8.394,8.394,0,0,0,2.672.422.734.734,0,0,1,.51.211.688.688,0,0,1,.229.527V-.738a.706.706,0,0,1-.229.51.706.706,0,0,1-.51.229A12.549,12.549,0,0,1,6.346-1.705,12.593,12.593,0,0,1,1.705-6.346,12.549,12.549,0,0,1,0-12.762a.706.706,0,0,1,.229-.51.706.706,0,0,1,.51-.229H3.375a.688.688,0,0,1,.527.229.734.734,0,0,1,.211.51,8.394,8.394,0,0,0,.422,2.672.719.719,0,0,1-.176.773Z" transform="translate(0 13.5)" style="fill:#fff;opacity:.5"/>
</svg>
