<svg xmlns="http://www.w3.org/2000/svg" id="Fixed_line" width="24" height="24.009" viewBox="0 0 24 24.009">
    <g id="Group_15575" data-name="Group 15575">
        <path id="Path_8328" d="M69.629 75.849c2.4-.626 6.572-2.5 6.363-6.05-.417-.313-5.112-3.964-5.112-3.964-1.043.1-3.755 3.025-3.86 4.173-1.356-.522-8.762-7.928-9.284-9.18 1.252-.208 4.173-2.921 4.277-3.964 0 0-3.755-4.694-3.964-5.007-3.546-.313-5.528 3.86-6.05 6.259a35.593 35.593 0 0 0 17.63 17.733zm-.313-22.115v9.284a.731.731 0 0 1-1.46 0v-9.283c0-.835 1.46-.835 1.46 0zm-2.5 2.191v4.9a.679.679 0 1 1-1.356 0v-4.9a.679.679 0 1 1 1.353 0zm4.9 0v4.9a.678.678 0 1 1-1.356 0v-4.9a.678.678 0 1 1 1.356 0z"  data-name="Path 8328" transform="translate(-52 -51.84)"/>
    </g>
</svg>
