<svg xmlns="http://www.w3.org/2000/svg" width="36" height="36.68" viewBox="0 0 36 36.68">
    <defs>
        <style>
            .iptv1,.iptv2{stroke:none}.iptv2{fill:#57606f}
        </style>
    </defs>
    <g transform="translate(-892 -896.32)">
        <g transform="translate(892 897)">
            <g transform="translate(-5368.394 -2849.15)" style="fill:none">
                <path class="iptv1" d="M5371.994,2857.151h28.8a3.667,3.667,0,0,1,3.6,3.733v20.532a3.665,3.665,0,0,1-3.6,3.733h-28.8a3.664,3.664,0,0,1-3.6-3.733v-20.532A3.666,3.666,0,0,1,5371.994,2857.151Z"/>
                <path class="iptv2" d="M 5371.9287109375 2858.14990234375 C 5370.560546875 2858.14990234375 5369.4248046875 2859.379638671875 5369.39404296875 2860.89306640625 L 5369.39404296875 2881.406982421875 C 5369.4248046875 2882.92041015625 5370.55859375 2884.150146484375 5371.92529296875 2884.150146484375 C 5371.94140625 2884.150146484375 5371.95751953125 2884.14990234375 5371.9736328125 2884.149658203125 L 5371.98388671875 2884.1494140625 L 5371.994140625 2884.1494140625 L 5400.7939453125 2884.1494140625 L 5400.80419921875 2884.1494140625 L 5400.81494140625 2884.149658203125 C 5400.8310546875 2884.14990234375 5400.8466796875 2884.150146484375 5400.86279296875 2884.150146484375 C 5402.2294921875 2884.150146484375 5403.36328125 2882.92041015625 5403.39404296875 2881.406982421875 L 5403.39404296875 2860.89306640625 C 5403.36328125 2859.379638671875 5402.2275390625 2858.14990234375 5400.859375 2858.14990234375 C 5400.84423828125 2858.14990234375 5400.8291015625 2858.150146484375 5400.8134765625 2858.150390625 L 5400.8037109375 2858.150634765625 L 5400.7939453125 2858.150634765625 L 5371.994140625 2858.150634765625 L 5371.984375 2858.150634765625 L 5371.974609375 2858.150390625 C 5371.958984375 2858.150146484375 5371.94384765625 2858.14990234375 5371.9287109375 2858.14990234375 M 5371.9287109375 2857.14990234375 C 5371.95068359375 2857.14990234375 5371.97216796875 2857.150146484375 5371.994140625 2857.150634765625 L 5400.7939453125 2857.150634765625 C 5400.81591796875 2857.150146484375 5400.83740234375 2857.14990234375 5400.859375 2857.14990234375 C 5402.78125 2857.14990234375 5404.357421875 2858.80712890625 5404.39404296875 2860.8837890625 L 5404.39404296875 2881.416259765625 C 5404.357421875 2883.493408203125 5402.78271484375 2885.150146484375 5400.86279296875 2885.150146484375 C 5400.83984375 2885.150146484375 5400.81689453125 2885.14990234375 5400.7939453125 2885.1494140625 L 5371.994140625 2885.1494140625 C 5371.97119140625 2885.14990234375 5371.94775390625 2885.150146484375 5371.92529296875 2885.150146484375 C 5370.00341796875 2885.150146484375 5368.4306640625 2883.49365234375 5368.39404296875 2881.416259765625 L 5368.39404296875 2860.8837890625 C 5368.4306640625 2858.807373046875 5370.005859375 2857.14990234375 5371.9287109375 2857.14990234375 Z"/>
            </g>
            <path d="M5399.894,2849.651l-13.5,7.5-13.5-7.5" transform="translate(-5368.894 -2849.651)" style="stroke:#57606f;stroke-linecap:round;stroke-linejoin:round;fill:none"/>
        </g>
        <g transform="translate(-4472.911 -1949.31)" style="fill:#d1d1d6">
            <path class="iptv1" d="M 5379.3623046875 2875.94287109375 L 5379.3623046875 2862.86669921875 L 5383.58544921875 2865.550048828125 L 5389.63720703125 2869.404541015625 L 5383.57421875 2873.26123046875 L 5379.3623046875 2875.94287109375 Z"/>
            <path class="iptv2" d="M 5379.8623046875 2863.776611328125 L 5379.8623046875 2875.031982421875 L 5383.30615234375 2872.83935546875 L 5388.7060546875 2869.404296875 L 5383.3173828125 2865.971923828125 L 5379.8623046875 2863.776611328125 M 5378.8623046875 2861.95654296875 L 5383.853515625 2865.1279296875 L 5390.568359375 2869.40478515625 L 5383.8427734375 2873.68310546875 L 5378.8623046875 2876.85400390625 L 5378.8623046875 2861.95654296875 Z"/>
        </g>
    </g>
</svg>
