<svg xmlns="http://www.w3.org/2000/svg" xmlns:xlink="http://www.w3.org/1999/xlink" width="47.641" height="50.81" viewBox="0 0 47.641 50.81">
    <defs>
        <clipPath id="a">
            <path class="a" d="M498.878,878.71l-18.185,10.278a14.438,14.438,0,0,0-3.874,7.827,20.6,20.6,0,0,0,2.53,12.888c1.186,1.66,6.563,3.241,6.563,3.241h4.664V892.072l11.306-8.855a3.172,3.172,0,0,0,.87-3.637C501.882,877.287,498.878,878.71,498.878,878.71Z"/>
        </clipPath>
        <clipPath id="b">
            <path class="a" d="M520.6,892.23a2.633,2.633,0,0,0,2.633-2.634v-.425a2.633,2.633,0,0,0-2.633-2.634h-5.328a2.633,2.633,0,0,0-2.633,2.634v.425a2.633,2.633,0,0,0,2.633,2.634h4.093v1.186h-4.093a2.633,2.633,0,0,0-2.633,2.633v.426a2.633,2.633,0,0,0,2.633,2.633h4.093v1.186h-4.093a2.633,2.633,0,0,0-2.633,2.633v.426a2.633,2.633,0,0,0,2.633,2.634h4.093v1.186h-4.093a2.633,2.633,0,0,0-2.633,2.633v.426a2.633,2.633,0,0,0,2.633,2.633H520.6a2.633,2.633,0,0,0,2.633-2.633v-.426a2.633,2.633,0,0,0-2.633-2.633h-.171v-1.186h.171a2.633,2.633,0,0,0,2.633-2.634v-.426a2.633,2.633,0,0,0-2.633-2.633h-.171v-1.186h.171a2.633,2.633,0,0,0,2.633-2.633v-.426a2.633,2.633,0,0,0-2.633-2.633h-.171V892.23Z"/>
        </clipPath>
        <style>
            .a,.b,.d{fill:none}.b,.d{stroke:#fff}.b{stroke-linecap:round;stroke-linejoin:round}.d{stroke-miterlimit:10}.e{fill:#fff;opacity:.32}
        </style>
    </defs>
    <g transform="translate(-475.792 -870.264)">
        <rect class="b" width="28.253" height="49.81" rx="4" transform="translate(490.963 870.764)"/>
        <circle class="b" cx="2.135" cy="2.135" r="2.135" transform="translate(502.955 914.644)"/>
        <rect width="7.527" height="0.87" transform="translate(501.253 872.899)" style="stroke-miterlimit:10;stroke:#fff"/>
        <path class="d" d="M480.4,889.028l18.184-10.279s3.005-1.423,3.874.87a3.172,3.172,0,0,1-.869,3.637l-11.306,8.855v20.873h-4.665s-5.376-1.582-6.562-3.242a20.591,20.591,0,0,1-2.53-12.887A14.43,14.43,0,0,1,480.4,889.028Z"/>
        <rect class="d" width="10.594" height="5.693" rx="2.633" transform="translate(512.338 886.577)"/>
        <rect class="d" width="10.594" height="5.693" rx="2.633" transform="translate(512.338 893.455)"/>
        <rect class="d" width="10.594" height="5.693" rx="2.633" transform="translate(512.338 900.334)"/>
        <rect class="d" width="10.594" height="5.693" rx="2.633" transform="translate(512.338 907.212)"/>
        <path class="e" d="M480.441,888.909l18.184-10.278s3.005-1.423,3.874.87a3.171,3.171,0,0,1-.869,3.636l-11.306,8.856v20.872h-4.665s-5.376-1.581-6.562-3.241a20.6,20.6,0,0,1-2.53-12.888A14.43,14.43,0,0,1,480.441,888.909Z"/>
        <rect class="e" width="10.594" height="5.693" rx="2.633" transform="translate(512.382 886.458)"/>
        <rect class="e" width="10.594" height="5.693" rx="2.633" transform="translate(512.382 893.337)"/>
        <rect class="e" width="10.594" height="5.693" rx="2.633" transform="translate(512.382 900.215)"/>
        <rect class="e" width="10.594" height="5.693" rx="2.633" transform="translate(512.382 907.094)"/>
        <g style="clip-path:url(#a)">
            <g style="opacity:.31">
                <line class="d" y1="0.539" transform="translate(487.548 916.415)"/>
                <line class="d" x1="38.62" y2="38.62" transform="translate(465.913 864.31)"/>
                <line class="d" x1="38.62" y2="38.62" transform="translate(468.327 866.724)"/>
                <line class="d" x1="38.62" y2="38.62" transform="translate(470.741 869.138)"/>
                <line class="d" x1="38.62" y2="38.62" transform="translate(473.154 871.552)"/>
                <line class="d" x1="38.62" y2="38.62" transform="translate(475.568 873.965)"/>
                <line class="d" x1="38.62" y2="38.62" transform="translate(477.982 876.379)"/>
                <line class="d" x1="38.62" y2="38.62" transform="translate(480.395 878.793)"/>
                <line class="d" x1="38.62" y2="38.62" transform="translate(482.809 881.207)"/>
                <line class="d" x1="38.62" y2="38.62" transform="translate(485.223 883.62)"/>
                <line class="d" x1="38.62" y2="38.62" transform="translate(487.637 886.034)"/>
                <line class="d" x1="38.62" y2="38.62" transform="translate(490.05 888.448)"/>
                <line class="d" x1="38.62" y2="38.62" transform="translate(492.464 890.862)"/>
                <line class="d" x1="38.62" y2="38.62" transform="translate(494.878 893.275)"/>
                <line class="d" x1="38.62" y2="38.62" transform="translate(497.292 895.689)"/>
            </g>
        </g>
        <g style="clip-path:url(#b)">
            <g style="opacity:.34">
                <line class="d" y1="0.539" transform="translate(487.548 916.415)"/>
                <line class="d" x1="38.62" y2="38.62" transform="translate(465.913 864.31)"/>
                <line class="d" x1="38.62" y2="38.62" transform="translate(468.327 866.724)"/>
                <line class="d" x1="38.62" y2="38.62" transform="translate(470.741 869.138)"/>
                <line class="d" x1="38.62" y2="38.62" transform="translate(473.154 871.552)"/>
                <line class="d" x1="38.62" y2="38.62" transform="translate(475.568 873.965)"/>
                <line class="d" x1="38.62" y2="38.62" transform="translate(477.982 876.379)"/>
                <line class="d" x1="38.62" y2="38.62" transform="translate(480.395 878.793)"/>
                <line class="d" x1="38.62" y2="38.62" transform="translate(482.809 881.207)"/>
                <line class="d" x1="38.62" y2="38.62" transform="translate(485.223 883.62)"/>
                <line class="d" x1="38.62" y2="38.62" transform="translate(487.637 886.034)"/>
                <line class="d" x1="38.62" y2="38.62" transform="translate(490.05 888.448)"/>
                <line class="d" x1="38.62" y2="38.62" transform="translate(492.464 890.862)"/>
                <line class="d" x1="38.62" y2="38.62" transform="translate(494.878 893.275)"/>
                <line class="d" x1="38.62" y2="38.62" transform="translate(497.292 895.689)"/>
            </g>
        </g>
    </g>
</svg>
