<svg xmlns="http://www.w3.org/2000/svg" width="22.149" height="24.31" viewBox="0 0 22.149 24.31"><defs><style>.a{fill:#a6a3b4;}</style></defs><g transform="translate(-17.018 -13.8)"><path class="a" d="M38,69.029c.5-.1.873-.6,1.108-1.377v-.067c.235-1.746-.2-3.526-1.41-4.3a18.677,18.677,0,0,0-4.835-2.048.228.228,0,0,0-.269.134l-1.813,5.272a.225.225,0,0,1-.4.034L28.9,64.026a.25.25,0,0,1,.034-.3c1.847-1.712,1.041-3.156-.839-3.324h-.034c-1.88.168-2.653,1.578-.839,3.324a.25.25,0,0,1,.034.3l-1.477,2.653a.225.225,0,0,1-.4-.034L23.56,61.374a.228.228,0,0,0-.269-.134,17.791,17.791,0,0,0-4.8,2.048c-1.209.772-1.645,2.552-1.41,4.3v.034c.235.772.571,1.276,1.108,1.41l.034.034h19.71A.1.1,0,0,1,38,69.029Zm-4.869-2.686,1.78-.94a.407.407,0,0,1,.437.034l1.242.873H33.129Z" transform="translate(0 -30.953)"/><path class="a" d="M33.246,25.653c.1.134.2.3.369.5a.463.463,0,0,1,.1.134h0c.034.034.067.067.067.1a.033.033,0,0,1,.034.034A6.662,6.662,0,0,0,36.1,28.238a3.953,3.953,0,0,0,4.264-.5,7.771,7.771,0,0,0,2.082-2.518,10.992,10.992,0,0,0,1.41-4.567,6.313,6.313,0,0,0-5.977-6.816c-.034,0-.034-.034-.067-.034h0a6.412,6.412,0,0,0-4.1,1.377A6.326,6.326,0,0,0,31.5,20.885a11.2,11.2,0,0,0,1.746,4.768Zm-.235-4.466a.144.144,0,0,1,.134-.134A3.414,3.414,0,0,0,35.9,18.6a.158.158,0,0,1,.269-.034c1.343,1.847,2.821,2.653,6.313,2.518.067,0,.168.067.168.134a7.385,7.385,0,0,1-.873,4.1,5.656,5.656,0,0,1-3.056,2.72,2.311,2.311,0,0,1-1.074.1,4.875,4.875,0,0,1-3.123-1.813A7.233,7.233,0,0,1,33.011,21.187Z" transform="translate(-9.585)"/></g></svg>