<svg xmlns="http://www.w3.org/2000/svg" width="24" height="24" viewBox="0 0 24 24">
    <defs>
              
        </style>
    </defs>
    <g id="NetFlix">
        <path id="Path_9245" d="M31 11.609a2.408 2.408 0 1 0-4.8 0 2.569 2.569 0 0 0 1.92 2.556v5.27h-1.944a8.126 8.126 0 0 0-1.9-4.79.538.538 0 0 0-.133-.327.456.456 0 0 0-.307-.146 6.742 6.742 0 0 0-9.691.026.469.469 0 0 0-.184.12.525.525 0 0 0-.107.181 8.12 8.12 0 0 0-2.026 4.937H9.88v-5.27a2.569 2.569 0 0 0 1.92-2.556A2.514 2.514 0 0 0 9.4 9 2.514 2.514 0 0 0 7 11.609a2.569 2.569 0 0 0 1.92 2.556v5.792a.5.5 0 0 0 .48.522h2.424a8.123 8.123 0 0 0 1.965 4.863.522.522 0 0 0 .12.254.451.451 0 0 0 .246.133 6.894 6.894 0 0 0 4.366 2.028v2.113h-2.929a2.464 2.464 0 0 0-2.352-2.087 2.618 2.618 0 0 0 0 5.217 2.464 2.464 0 0 0 2.352-2.087h6.817A2.463 2.463 0 0 0 24.76 33a2.618 2.618 0 0 0 0-5.217 2.463 2.463 0 0 0-2.351 2.087H19.48v-2.114a6.891 6.891 0 0 0 4.366-2.028.451.451 0 0 0 .246-.133.526.526 0 0 0 .12-.253 8.123 8.123 0 0 0 1.965-4.864H28.6a.5.5 0 0 0 .48-.522v-5.791A2.569 2.569 0 0 0 31 11.609zm-23.04 0a1.508 1.508 0 0 1 1.44-1.566 1.508 1.508 0 0 1 1.44 1.565 1.508 1.508 0 0 1-1.44 1.566 1.508 1.508 0 0 1-1.44-1.565zm16.8 17.217a1.571 1.571 0 1 1-1.44 1.565 1.508 1.508 0 0 1 1.44-1.565zm-1.092-4.384a7.2 7.2 0 0 0-.873-.693 13.024 13.024 0 0 0 .511-3.271h1.91a7.056 7.056 0 0 1-1.548 3.964zm-10.884-3.964h1.91a13.054 13.054 0 0 0 .511 3.271 7.251 7.251 0 0 0-.873.693 7.049 7.049 0 0 1-1.548-3.964zm1.569-5.033a7.188 7.188 0 0 0 .86.694 13.015 13.015 0 0 0-.519 3.3h-1.91a7.051 7.051 0 0 1 1.57-3.994zm10.862 3.99h-1.91a13.08 13.08 0 0 0-.5-3.245 7.184 7.184 0 0 0 .887-.693 7.054 7.054 0 0 1 1.524 3.938zm-5.736-6.18a3.923 3.923 0 0 1 2.114 2.451 5.836 5.836 0 0 1-2.114.573zm-.96 4.062v2.118h-2.866a11.981 11.981 0 0 1 .432-2.79 6.74 6.74 0 0 0 2.435.672zm-2.1-1.651a3.89 3.89 0 0 1 2.1-2.41v3.019a5.858 5.858 0 0 1-2.098-.61zm2.1 4.813v2.116a6.726 6.726 0 0 0-2.441.653 12.011 12.011 0 0 1-.426-2.769zm0 3.159v3.021a3.905 3.905 0 0 1-2.107-2.43 5.834 5.834 0 0 1 2.108-.592zm.96 0a5.837 5.837 0 0 1 2.107.591 3.906 3.906 0 0 1-2.107 2.43zm0-1.042v-2.118h2.867a12.011 12.011 0 0 1-.426 2.769 6.739 6.739 0 0 0-2.44-.653zm0-3.16v-2.114a6.726 6.726 0 0 0 2.447-.634 12.007 12.007 0 0 1 .42 2.747zm2.97-4.228a7.542 7.542 0 0 0-.7-1.329 6.228 6.228 0 0 1 1.258.887 6.494 6.494 0 0 1-.557.441zm-6.878-.054a6.416 6.416 0 0 1-.53-.435 6.238 6.238 0 0 1 1.209-.841 7.511 7.511 0 0 0-.678 1.274zm-.012 9.579a7.507 7.507 0 0 0 .691 1.3 6.216 6.216 0 0 1-1.234-.863 6.409 6.409 0 0 1 .544-.439zm6.879 0a6.236 6.236 0 0 1 .543.441 6.227 6.227 0 0 1-1.234.863 7.516 7.516 0 0 0 .693-1.306zm-9.2 7.225a1.571 1.571 0 0 1 0-3.13 1.571 1.571 0 0 1 0 3.13zM28.6 13.174a1.508 1.508 0 0 1-1.44-1.565 1.445 1.445 0 1 1 2.88 0 1.508 1.508 0 0 1-1.44 1.565z"  data-name="Path 9245" transform="translate(-7 -9)"/>
    </g>
</svg>
