<svg xmlns="http://www.w3.org/2000/svg" width="134.028" height="78.835" viewBox="0 0 134.028 78.835">
  <g id="noDataFound" transform="translate(0 0.66)">
    <path id="Path_40470" data-name="Path 40470" d="M7302.424,2912.047c-.141-.259-.284-.52-.426-.776l-.2-.367c-.06-.111-.121-.222-.181-.331-.027-.051-.055-.1-.081-.148-.146-.266-.289-.529-.43-.786-.065-.118-.129-.235-.192-.351l-1.959-3.585c-.021-.039-.042-.076-.062-.113q-.187-.34-.333-.61c-.03-.056-.058-.106-.086-.157l-.374-.684a4.548,4.548,0,0,1,3.989-6.73H7315.1l-2.766,17.341-7.374,1.68" transform="translate(-7259.242 -2863.234)" fill="#ffe1e5" stroke="#57606f" stroke-linecap="round" stroke-miterlimit="10" stroke-width="1"/>
    <path id="Path_40469" data-name="Path 40469" d="M7308.2,2889.909c2.146,3.927,4.292,7.857,4.325,7.908a9.871,9.871,0,0,0,8.483,4.824h26.92a10.759,10.759,0,0,0,10.082-7.017l11.131-30.06a6.668,6.668,0,0,0,.416-2.075c0-.095.007-.189.007-.284,0-.111,0-.222-.009-.33a6.7,6.7,0,0,0-6.688-6.323h-30.4a6.69,6.69,0,0,0-6.275,4.367l-5.291,14.289-.023.063-5.219,14.1-.014.034A4.106,4.106,0,0,1,7308.2,2889.909Z" transform="translate(-7265.021 -2841.096)" fill="#ffaeba" stroke="#57606f" stroke-width="1"/>
    <ellipse id="Ellipse_343" data-name="Ellipse 343" cx="1.396" cy="1.396" rx="1.396" ry="1.396" transform="translate(0 18.457)" fill="#ff6b81" opacity="0.54"/>
    <ellipse id="Ellipse_344" data-name="Ellipse 344" cx="1.396" cy="1.396" rx="1.396" ry="1.396" transform="translate(119.832 56.767)" fill="#ff6b81" opacity="0.54"/>
    <ellipse id="Ellipse_345" data-name="Ellipse 345" cx="1.396" cy="1.396" rx="1.396" ry="1.396" transform="translate(24.995 55.37)" fill="#57606f" opacity="0.54"/>
    <g id="Group_52984" data-name="Group 52984" transform="translate(112.144 40.484)" opacity="0.54">
      <line id="Line_2618" data-name="Line 2618" x1="2.46" y2="2.46" transform="translate(0 0)" fill="none" stroke="#57606f" stroke-miterlimit="10" stroke-width="1"/>
      <line id="Line_2619" data-name="Line 2619" x2="2.46" y2="2.46" transform="translate(0 0)" fill="none" stroke="#57606f" stroke-miterlimit="10" stroke-width="1"/>
    </g>
    <g id="Group_52985" data-name="Group 52985" transform="translate(131.214 21.415)" opacity="0.54">
      <line id="Line_2620" data-name="Line 2620" x1="2.46" y2="2.46" transform="translate(0 0)" fill="none" stroke="#ff6b81" stroke-miterlimit="10" stroke-width="1"/>
      <line id="Line_2621" data-name="Line 2621" x2="2.46" y2="2.46" transform="translate(0 0)" fill="none" stroke="#ff6b81" stroke-miterlimit="10" stroke-width="1"/>
    </g>
    <g id="Group_52986" data-name="Group 52986" transform="translate(35.318 10.382)" opacity="0.54">
      <line id="Line_2622" data-name="Line 2622" x1="2.46" y2="2.46" transform="translate(0 0)" fill="none" stroke="#ff6b81" stroke-miterlimit="10" stroke-width="1"/>
      <line id="Line_2623" data-name="Line 2623" x2="2.46" y2="2.46" transform="translate(0 0)" fill="none" stroke="#ff6b81" stroke-miterlimit="10" stroke-width="1"/>
    </g>
    <path id="Path_40471" data-name="Path 40471" d="M7372.376,2834.923l-.612.511-.852-.647-1.072,1.056" transform="translate(-7297.665 -2834.787)" fill="none" stroke="#ff6b81" stroke-miterlimit="10" stroke-width="1" opacity="0.54"/>
    <path id="Path_40472" data-name="Path 40472" d="M7292.958,2889.216l-.612.511-.852-.647-1.073,1.056" transform="translate(-7260.615 -2860.115)" fill="none" stroke="#57606f" stroke-miterlimit="10" stroke-width="1" opacity="0.54"/>
    <path id="Path_40473" data-name="Path 40473" d="M7442.3,2937.721l-.613.511-.851-.647-1.072,1.056" transform="translate(-7330.284 -2882.743)" fill="none" stroke="#ff6b81" stroke-miterlimit="10" stroke-width="1" opacity="0.54"/>
    <path id="Path_40474" data-name="Path 40474" d="M7419.276,2971.252a1.973,1.973,0,1,1,1.133,1.787" transform="translate(-7320.727 -2897.527)" fill="none" stroke="#ff6b81" stroke-miterlimit="10" stroke-width="1" opacity="0.54"/>
    <path id="Path_40475" data-name="Path 40475" d="M7263.53,2866.571a1.973,1.973,0,1,1,1.133,1.787" transform="translate(-7248.07 -2848.693)" fill="none" stroke="#ff6b81" stroke-miterlimit="10" stroke-width="1" opacity="0.54"/>
    <path id="Path_40476" data-name="Path 40476" d="M7280.318,2974.954a1.972,1.972,0,1,1,1.133,1.788" transform="translate(-7255.903 -2899.254)" fill="none" stroke="#57606f" stroke-miterlimit="10" stroke-width="1" opacity="0.54"/>
    <g id="Group_52987" data-name="Group 52987" transform="translate(68.935 30.737)">
      <path id="Path_40477" data-name="Path 40477" d="M7385.039,2905.039c0,.589-1.942.931-4.338.931s-4.338-.342-4.338-.931c0-2.4,1.942-3.421,4.338-3.421S7385.039,2902.643,7385.039,2905.039Z" transform="translate(-7370.888 -2896.251)" fill="#ff6b81" opacity="0.54"/>
      <circle id="Ellipse_346" data-name="Ellipse 346" cx="1.248" cy="1.248" r="1.248" transform="translate(16.579 0)" fill="#ff6b81" opacity="0.54"/>
      <circle id="Ellipse_347" data-name="Ellipse 347" cx="1.248" cy="1.248" r="1.248" transform="translate(0 0)" fill="#ff6b81" opacity="0.54"/>
    </g>
  </g>
</svg>
