<svg xmlns="http://www.w3.org/2000/svg" width="26.642" height="24.968" viewBox="0 0 26.642 24.968"><defs><style>.a{fill:#57606f;}</style></defs><g transform="translate(-15.954 -18.139)"><path class="a" d="M35.6,50.514A12.489,12.489,0,0,1,18.2,34.021l-1.8.392a.345.345,0,1,1-.153-.67l2.684-.615a.345.345,0,0,1,.263.047.364.364,0,0,1,.153.212l.611,2.688a.341.341,0,0,1-.259.392h-.074a.345.345,0,0,1-.337-.266l-.415-1.822A11.705,11.705,0,0,0,35.213,49.836Z" transform="translate(0 -9.11)"/><path class="a" d="M53.133,36.577l-2.684.615a.255.255,0,0,1-.078,0,.329.329,0,0,1-.18-.051.341.341,0,0,1-.153-.216l-.615-2.684a.345.345,0,1,1,.67-.153l.431,1.869A11.705,11.705,0,0,0,34.112,20.569l-.392-.674A12.489,12.489,0,0,1,51.229,36.306l1.752-.392a.345.345,0,0,1,.411.259.341.341,0,0,1-.259.4Z" transform="translate(-10.804)"/><path class="a" d="M39.45,40.276a3.605,3.605,0,0,0,.858,2.516,3.645,3.645,0,0,0,2.606,1.05V38.293l-.784-.184a8.139,8.139,0,0,1-1.058-.31,3.558,3.558,0,0,1-.948-.517,2.394,2.394,0,0,1-.682-.831,2.794,2.794,0,0,1-.259-1.274,5.192,5.192,0,0,1,.082-.784,2.422,2.422,0,0,1,.458-1.023,3.182,3.182,0,0,1,1.129-.917,4.906,4.906,0,0,1,2.073-.443V31.2h.533v.815a4.311,4.311,0,0,1,2.763.9,3.589,3.589,0,0,1,1.1,2.763h-.643a3.093,3.093,0,0,0-.948-2.324,3.652,3.652,0,0,0-2.281-.725v5.157l1.3.317a5.463,5.463,0,0,1,1.364.509,3.2,3.2,0,0,1,.882.7,2.292,2.292,0,0,1,.466.85,3.476,3.476,0,0,1,.133.976,3.092,3.092,0,0,1-.357,1.567,3.006,3.006,0,0,1-.94,1.015,3.989,3.989,0,0,1-1.332.564,7.36,7.36,0,0,1-1.517.192v1.462h-.529V44.469a7.222,7.222,0,0,1-1.669-.341,3.527,3.527,0,0,1-1.289-.756,3.409,3.409,0,0,1-.831-1.258,5.008,5.008,0,0,1-.3-1.842Zm3.464-2.629v-5a4.871,4.871,0,0,0-1.43.243,2.884,2.884,0,0,0-.956.541,1.936,1.936,0,0,0-.541.784,2.743,2.743,0,0,0-.165.964,2.206,2.206,0,0,0,.192.976,1.857,1.857,0,0,0,.517.651,2.657,2.657,0,0,0,.784.415,8.449,8.449,0,0,0,.94.274Zm.533,6.2a5.843,5.843,0,0,0,1.348-.149,3.374,3.374,0,0,0,1.117-.474,2.394,2.394,0,0,0,.784-.831,2.516,2.516,0,0,0,.282-1.242,2.1,2.1,0,0,0-.6-1.567,4.1,4.1,0,0,0-1.9-.933l-1.015-.251Z" transform="translate(-13.909 -7.943)"/><path class="a" d="M43.36,45.84h-.831V44.359a7.289,7.289,0,0,1-1.567-.337,3.68,3.68,0,0,1-1.344-.784,3.574,3.574,0,0,1-.87-1.309,5.173,5.173,0,0,1-.31-1.893v-.145h.929v.149a3.484,3.484,0,0,0,.819,2.418,3.421,3.421,0,0,0,2.351.991V38.167l-.67-.157a8.316,8.316,0,0,1-1.074-.313,3.719,3.719,0,0,1-1-.549,2.539,2.539,0,0,1-.725-.882,2.951,2.951,0,0,1-.274-1.34,5.357,5.357,0,0,1,.086-.815,2.579,2.579,0,0,1,.486-1.085,3.339,3.339,0,0,1,1.176-.952,4.894,4.894,0,0,1,1.995-.451V30.8h.819v.819a4.389,4.389,0,0,1,2.712.929,3.75,3.75,0,0,1,1.152,2.872v.161H46.3v-.137A3.006,3.006,0,0,0,45.4,33.23a3.437,3.437,0,0,0-2.038-.69v4.894l1.176.29a5.627,5.627,0,0,1,1.411.521,3.358,3.358,0,0,1,.94.733,2.449,2.449,0,0,1,.478.913,3.648,3.648,0,0,1,.141,1.015,3.249,3.249,0,0,1-.392,1.63,3.166,3.166,0,0,1-.988,1.066,4.158,4.158,0,0,1-1.379.588,7.547,7.547,0,0,1-1.4.192Zm-.533-.294h.239V44.084h.145A7.242,7.242,0,0,0,44.7,43.9a3.86,3.86,0,0,0,1.285-.545,2.876,2.876,0,0,0,.905-.972,2.966,2.966,0,0,0,.337-1.485,3.339,3.339,0,0,0-.129-.933,2.147,2.147,0,0,0-.439-.784,3.06,3.06,0,0,0-.843-.666,5.337,5.337,0,0,0-1.328-.494l-1.411-.345V32.238h.149a3.809,3.809,0,0,1,2.351.756,3.148,3.148,0,0,1,.991,2.289h.341a3.372,3.372,0,0,0-1.038-2.5,4.181,4.181,0,0,0-2.673-.866H43.05V31.1h-.239v.811H42.67a4.8,4.8,0,0,0-2.01.423,3.053,3.053,0,0,0-1.066.866,2.285,2.285,0,0,0-.431.96,5.047,5.047,0,0,0-.082.784,2.669,2.669,0,0,0,.243,1.207,2.261,2.261,0,0,0,.643.784,3.429,3.429,0,0,0,.909.494,8.041,8.041,0,0,0,1.038.3l.9.212v5.808h-.157a3.807,3.807,0,0,1-2.708-1.1,3.7,3.7,0,0,1-.9-2.477h-.341A4.726,4.726,0,0,0,39,41.815a3.276,3.276,0,0,0,.784,1.2,3.386,3.386,0,0,0,1.238.725,7.1,7.1,0,0,0,1.638.333h.133Zm.392-1.8h-.145V37.979l1.2.294a4.264,4.264,0,0,1,1.959.972,2.245,2.245,0,0,1,.654,1.654,2.669,2.669,0,0,1-.3,1.313,2.547,2.547,0,0,1-.811.882,3.527,3.527,0,0,1-1.176.494,6.015,6.015,0,0,1-1.387.153Zm.141-5.388V43.45a5.635,5.635,0,0,0,1.176-.145A3.249,3.249,0,0,0,45.6,42.85a2.253,2.253,0,0,0,.721-.784,2.383,2.383,0,0,0,.266-1.176,1.959,1.959,0,0,0-.556-1.446,3.981,3.981,0,0,0-1.83-.893Zm-.533-.784-.862-.188a8.623,8.623,0,0,1-.956-.27,2.814,2.814,0,0,1-.807-.439,2.006,2.006,0,0,1-.564-.7,2.351,2.351,0,0,1-.2-1.038,2.915,2.915,0,0,1,.176-1.019,2.089,2.089,0,0,1,.58-.843A3.041,3.041,0,0,1,41.2,32.5a5.032,5.032,0,0,1,1.477-.251h.153Zm-.294-5.024a4.538,4.538,0,0,0-1.234.227,2.743,2.743,0,0,0-.909.513,1.8,1.8,0,0,0-.506.725,2.625,2.625,0,0,0-.157.913,2.069,2.069,0,0,0,.176.909,1.72,1.72,0,0,0,.474.6,2.516,2.516,0,0,0,.725.392,8.3,8.3,0,0,0,.925.27l.5.11Z" transform="translate(-13.672 -7.7)"/></g></svg>