<svg xmlns="http://www.w3.org/2000/svg" width="33.793" height="31.704" viewBox="0 0 33.793 31.704">
    <defs>
        <style>
            .noun-event{fill:currentColor}
        </style>
    </defs>
    <g transform="translate(-7.8 -10.4)">
        <g transform="translate(7.8 10.4)">
            <path class="noun-event" d="M12.488,10.4a.4.4,0,0,0-.4.4v1.963h-.681A3.606,3.606,0,0,0,7.8,16.37V32.559a3.606,3.606,0,0,0,3.606,3.606H23.628a9.3,9.3,0,1,0,14.1-10.9V16.411A3.606,3.606,0,0,0,34.126,12.8h-.681v-2a.4.4,0,1,0-.8,0v1.963H28.316V10.8a.4.4,0,1,0-.8,0v1.963H23.187V10.8a.4.4,0,0,0-.8,0v1.963H18.018V10.8a.4.4,0,1,0-.8,0v1.963H12.889V10.8A.4.4,0,0,0,12.488,10.4Zm28.33,22.4A8.495,8.495,0,1,1,32.283,24.3,8.495,8.495,0,0,1,40.818,32.8ZM17.257,13.566v1.563a.4.4,0,1,0,.8,0V13.606h4.328v1.563a.4.4,0,1,0,.8,0V13.606h4.328v1.563a.4.4,0,1,0,.8,0V13.606h4.328v1.563a.4.4,0,1,0,.8,0V13.606h.681a2.8,2.8,0,0,1,2.8,2.8v8.335a9.3,9.3,0,0,0-10.258.641.4.4,0,0,0-.4-.361h-1.4a.4.4,0,1,0,0,.8h1.242a9.3,9.3,0,0,0-2.765,9.5H11.406a2.8,2.8,0,0,1-2.8-2.8V16.411a2.8,2.8,0,0,1,2.8-2.8h.681v1.563a.4.4,0,1,0,.8,0V13.606Z" transform="translate(-7.8 -10.4)"/>
            <path class="noun-event" d="M35.8,36.1h1.4a.4.4,0,0,0,0-.8H35.8a.4.4,0,0,0,0,.8Z" transform="translate(-24.341 -25.323)"/>
            <path class="noun-event" d="M21.8,36.1h1.4a.4.4,0,0,0,0-.8H21.8a.4.4,0,0,0,0,.8Z" transform="translate(-15.95 -25.323)"/>
            <path class="noun-event" d="M49.8,36.1h1.4a.4.4,0,0,0,0-.8H49.8a.4.4,0,0,0,0,.8Z" transform="translate(-32.731 -25.323)"/>
            <path class="noun-event" d="M63.8,36.1h1.4a.4.4,0,0,0,0-.8H63.8a.4.4,0,1,0,0,.8Z" transform="translate(-41.121 -25.323)"/>
            <path class="noun-event" d="M35.8,47.8h1.4a.4.4,0,0,0,0-.8H35.8a.4.4,0,0,0,0,.8Z" transform="translate(-24.341 -32.334)"/>
            <path class="noun-event" d="M21.8,47.8h1.4a.4.4,0,0,0,0-.8H21.8a.4.4,0,0,0,0,.8Z" transform="translate(-15.95 -32.334)"/>
            <path class="noun-event" d="M35.8,59.4h1.4a.4.4,0,1,0,0-.8H35.8a.4.4,0,1,0,0,.8Z" transform="translate(-24.341 -39.286)"/>
            <path class="noun-event" d="M21.8,59.4h1.4a.4.4,0,1,0,0-.8H21.8a.4.4,0,1,0,0,.8Z" transform="translate(-15.95 -39.286)"/>
            <path class="noun-event" d="M67.6,55.2a.4.4,0,1,0-.8,0v4.929a.4.4,0,0,0,.4.4h3.727a.4.4,0,1,0,0-.8H67.6Z" transform="translate(-43.159 -37.009)"/>
        </g>
    </g>
</svg>
