<svg xmlns="http://www.w3.org/2000/svg" width="23.873" height="22.103" viewBox="0 0 23.873 22.103"><defs><style>.a{fill:#57606f;}</style></defs><g transform="translate(-2.999 -4)"><path class="a" d="M5.89,4.885h0A1.766,1.766,0,0,1,7.425,4h7.081L26.35,15.844a1.773,1.773,0,0,1,.007,2.506L20,24.7a1.77,1.77,0,0,1-2.079.309l-.576.576a1.773,1.773,0,0,1-2.506-.007L3,13.737V6.655a1.766,1.766,0,0,1,1.77-1.77H5.89Zm-.235.885H4.777a.9.9,0,0,0-.892.892v6.632l11.6,11.658a.876.876,0,0,0,1.243,0l.515-.519L5.654,12.851V5.77Zm8.409-.885H7.433a.9.9,0,0,0-.892.892v6.632l11.6,11.658a.876.876,0,0,0,1.243,0l6.341-6.384a.88.88,0,0,0-.005-1.245L14.064,4.885Zm-3.541,6.2h0a2.213,2.213,0,1,1,2.213-2.213A2.213,2.213,0,0,1,10.524,11.081Zm0-.885A1.328,1.328,0,1,0,9.2,8.868,1.328,1.328,0,0,0,10.524,10.2Z"/></g></svg>