
<svg xmlns="http://www.w3.org/2000/svg" width="211.095" height="123.617" viewBox="0 0 211.095 123.617"><defs><style>.a{fill:#ffe1e5;stroke-linecap:round;}.a,.b,.f,.i{stroke:#57606f;}.a,.f,.g,.h,.i{stroke-miterlimit:10;}.b{fill:#ffaeba;}.c{fill:#ff6b81;}.c,.d,.e,.h,.i{opacity:0.54;}.d{fill:#57606f;}.f,.g,.h,.i{fill:none;}.g,.h{stroke:#ff6b81;}</style></defs><g transform="translate(-1003.647 -4582.693)"><path class="a" d="M7305.241,2920.486c-.222-.408-.448-.82-.671-1.223l-.316-.579c-.095-.175-.19-.35-.285-.521-.043-.08-.087-.157-.127-.233-.23-.419-.455-.834-.678-1.239l-.3-.553c-1.2-2.2-2.291-4.192-3.088-5.653-.033-.062-.066-.121-.1-.178q-.3-.536-.524-.962c-.047-.088-.091-.168-.135-.248-.375-.685-.589-1.078-.589-1.078a7.17,7.17,0,0,1,6.29-10.61h20.506l-4.361,27.339-11.625,2.648" transform="translate(-6233.516 1739.822)"/><path class="b" d="M7308.2,2909.14c3.384,6.192,6.768,12.387,6.818,12.468a15.562,15.562,0,0,0,13.375,7.6h42.44a16.96,16.96,0,0,0,15.895-11.062l17.548-47.39a10.5,10.5,0,0,0,.656-3.271c.007-.149.011-.3.011-.448,0-.175,0-.35-.015-.521a10.563,10.563,0,0,0-10.545-9.969h-47.932a10.548,10.548,0,0,0-9.893,6.884l-8.34,22.527-.037.1-8.228,22.221-.021.054A6.474,6.474,0,0,1,7308.2,2909.14Z" transform="translate(-6236.477 1751.168)"/><ellipse class="c" cx="2.201" cy="2.201" rx="2.201" ry="2.201" transform="translate(1003.647 4612.451)"/><ellipse class="c" cx="2.201" cy="2.201" rx="2.201" ry="2.201" transform="translate(1192.567 4672.847)"/><ellipse class="d" cx="2.201" cy="2.201" rx="2.201" ry="2.201" transform="translate(1043.052 4670.646)"/><g class="e" transform="translate(1180.446 4647.178)"><line class="f" x1="3.879" y2="3.879" transform="translate(0 0)"/><line class="f" x2="3.879" y2="3.879" transform="translate(0 0)"/></g><g class="e" transform="translate(1210.51 4617.115)"><line class="g" x1="3.879" y2="3.879" transform="translate(0 0)"/><line class="g" x2="3.879" y2="3.879" transform="translate(0 0)"/></g><g class="e" transform="translate(1059.327 4599.72)"><line class="g" x1="3.879" y2="3.879" transform="translate(0 0)"/><line class="g" x2="3.879" y2="3.879" transform="translate(0 0)"/></g><path class="h" d="M7373.838,2835l-.966.805-1.343-1.021-1.69,1.665" transform="translate(-6252.406 1748.566)"/><path class="i" d="M7294.421,2889.294l-.966.806-1.343-1.02-1.691,1.664" transform="translate(-6239.784 1739.937)"/><path class="h" d="M7443.763,2937.8l-.967.805-1.342-1.02-1.69,1.664" transform="translate(-6263.519 1732.229)"/><path class="h" d="M7419.276,2972.391a3.109,3.109,0,1,1,1.786,2.818" transform="translate(-6260.263 1727.192)"/><path class="h" d="M7263.53,2867.71a3.111,3.111,0,1,1,1.786,2.817" transform="translate(-6235.51 1743.828)"/><path class="i" d="M7280.318,2976.092a3.11,3.11,0,1,1,1.786,2.818" transform="translate(-6238.179 1726.604)"/><g transform="translate(1112.325 4631.811)"><path class="c" d="M7390.04,2907.011c0,.928-3.062,1.468-6.838,1.468s-6.839-.539-6.839-1.468c0-3.777,3.062-5.394,6.839-5.394S7390.04,2903.234,7390.04,2907.011Z" transform="translate(-7367.731 -2893.157)"/><circle class="c" cx="1.967" cy="1.967" r="1.967" transform="translate(26.137 0)"/><circle class="c" cx="1.967" cy="1.967" r="1.967" transform="translate(0 0)"/></g></g></svg>