<svg xmlns="http://www.w3.org/2000/svg" width="26.081" height="21.788" viewBox="0 0 26.081 21.788"><defs><style>.a{stroke:#a6a3b4;border:#a6a3b4;fill:#fff}</style></defs><g transform="translate(-4.999 -12.405)"><path class="a" d="M15.07,23.7a1.253,1.253,0,0,0,.475.055l1.559-.133,4.709-.4a1.181,1.181,0,0,0,.907-1.791,1.447,1.447,0,0,0-.9-.559l-4.135-.617L14.7,19.8a.479.479,0,1,1,.142-.948l7.184,1.072a1.936,1.936,0,0,1,.894.369H24.41l-3.356-3.864a4,4,0,0,0-2.791-1.5L10,14.223l.119-.374a.7.7,0,0,0-.455-.881l-1.658-.53a.7.7,0,0,0-.881.455l-2.1,6.555a.7.7,0,0,0,.455.881l1.66.53a.7.7,0,0,0,.881-.452l.058-.191.884,1.269a1.224,1.224,0,0,0,.629.467l.7.223,4.529,1.446Z" transform="translate(0 0)"/><path class="a" d="M45.84,43.344H40.18a2.251,2.251,0,0,1-1.956,2.916l-6.268.536c-.073.005-.13.007-.188.007a2.308,2.308,0,0,1-.707-.11l-3.085-.985v8.9a1.558,1.558,0,0,0,1.558,1.558H45.84A1.558,1.558,0,0,0,47.4,54.608V44.9A1.558,1.558,0,0,0,45.84,43.344ZM33.371,53.172a.09.09,0,0,1-.09.09H30.224a.09.09,0,0,1-.09-.09v-.9a.09.09,0,0,1,.09-.09h3.057a.09.09,0,0,1,.09.09Zm3.956,0a.09.09,0,0,1-.09.09H34.18a.09.09,0,0,1-.09-.09v-.9a.09.09,0,0,1,.09-.09h3.057a.09.09,0,0,1,.09.09Zm3.956,0a.09.09,0,0,1-.09.09H38.137a.09.09,0,0,1-.09-.09v-.9a.09.09,0,0,1,.09-.09h3.057a.09.09,0,0,1,.09.09Zm3.956,0a.09.09,0,0,1-.09.09H42.093a.09.09,0,0,1-.09-.09v-.9a.09.09,0,0,1,.09-.09H45.15a.09.09,0,0,1,.09.09Zm-1.511-4.5a1.614,1.614,0,0,1-1.295-.65,1.619,1.619,0,1,1,0-1.936,1.618,1.618,0,1,1,1.295,2.587Z" transform="translate(-16.319 -21.973)"/></g></svg>