<svg xmlns="http://www.w3.org/2000/svg" width="18" height="14.8" viewBox="0 0 18 14.8"><defs><style>.a{fill:none !important;}.b,.c{stroke:none;}.c{fill:#57606f;}</style></defs><g class="a" transform="translate(-2 -5)"><path class="b" d="M17.4,6H4.6A1.6,1.6,0,0,0,3.008,7.6L3,17.2a1.6,1.6,0,0,0,1.6,1.6H17.4A1.6,1.6,0,0,0,19,17.2V7.6A1.6,1.6,0,0,0,17.4,6Zm0,3.2-6.4,4-6.4-4V7.6l6.4,4,6.4-4Z"/><path class="c" d="M 4.600000381469727 6 C 3.719999313354492 6 3.007999420166016 6.719999313354492 3.007999420166016 7.600000381469727 L 3 17.20000076293945 C 3 18.07999992370605 3.719999313354492 18.79999923706055 4.600000381469727 18.79999923706055 L 17.39999961853027 18.79999923706055 C 18.28000068664551 18.79999923706055 19 18.07999992370605 19 17.20000076293945 L 19 7.600000381469727 C 19 6.719999313354492 18.28000068664551 6 17.39999961853027 6 L 4.600000381469727 6 M 11 11.59999942779541 L 17.39999961853027 7.600000381469727 L 17.39999961853027 9.199999809265137 L 11 13.19999980926514 L 4.600000381469727 9.199999809265137 L 4.600000381469727 7.600000381469727 L 11 11.59999942779541 M 4.600000381469727 5 L 17.39999961853027 5 C 18.83364105224609 5 20 6.166358947753906 20 7.600000381469727 L 20 17.20000076293945 C 20 18.63364028930664 18.83364105224609 19.79999923706055 17.39999961853027 19.79999923706055 L 4.600000381469727 19.79999923706055 C 3.166360855102539 19.79999923706055 2 18.63364028930664 2 17.20000076293945 L 2.007999420166016 7.59916877746582 C 2.007999420166016 6.166358947753906 3.170770645141602 5 4.600000381469727 5 Z"/></g></svg>