<svg xmlns="http://www.w3.org/2000/svg" width="16" height="16" viewBox="0 0 16 16">
    <g transform="translate(-1 -6)">
        <g transform="translate(0 5)">
            <path d="M13.268,15.545a1.19,1.19,0,0,0,.99-.426c.216-.23.389-.4.778-.784.269-.264.281-.276.38-.375.172-.172.172-.245,0-.416l-1.983-1.983c-.089-.089-.147-.114-.2-.114s-.107.026-.2.115l-1.893,1.893-.942-.481-.129-.065a4.875,4.875,0,0,1-.634-.357,13.544,13.544,0,0,1-3.305-3A8.081,8.081,0,0,1,4.949,7.708l-.407-.917.712-.706c.143-.141.255-.251.507-.5l.031-.03c.305-.3.441-.429.59-.578.195-.2.195-.267.015-.455L5.43,3.559c-.095-.095-.107-.107-.342-.347l-.2-.2c-.169-.172-.3-.3-.439-.429-.176-.169-.254-.168-.407-.015L2.79,3.823a1,1,0,0,0-.325.726A4.732,4.732,0,0,0,2.845,6.6a13.931,13.931,0,0,0,2.467,4.108,15.653,15.653,0,0,0,5.138,4.027,7.321,7.321,0,0,0,2.669.8C13.175,15.544,13.224,15.545,13.268,15.545Zm-.145,0h0Zm-.1,1.451a8.707,8.707,0,0,1-3.2-.94A17.125,17.125,0,0,1,4.2,11.646,15.37,15.37,0,0,1,1.478,7.1a6.253,6.253,0,0,1-.463-2.672A2.408,2.408,0,0,1,1.8,2.762L3.018,1.539a1.659,1.659,0,0,1,2.442-.007c.229.212.453.442.67.664.108.111.217.223.329.335l.967.967a1.678,1.678,0,0,1,.007,2.49c-.214.214-.421.415-.628.615-.176.17-.351.341-.527.515a6.693,6.693,0,0,0,.986,1.517,12.078,12.078,0,0,0,2.976,2.7,3.851,3.851,0,0,0,.487.273l.14.071,1.146-1.145a1.657,1.657,0,0,1,2.449,0l1.983,1.983a1.656,1.656,0,0,1,0,2.473c-.13.13-.261.258-.39.384-.258.252-.5.49-.736.741A2.606,2.606,0,0,1,13.268,17C13.189,17,13.108,17,13.025,16.992Z" transform="translate(0 0)" style="fill:#fff"/>
        </g>
    </g>
</svg>
