<svg xmlns="http://www.w3.org/2000/svg" width="32.125" height="32.489" viewBox="0 0 32.125 32.489">
    <defs>
        <style>
            .e{stroke-linecap:round;stroke-miterlimit:10;fill:none;stroke:#fff}
        </style>
    </defs>
    <g transform="translate(0.5 0.509)">
        <path d="M8284.027,2482.107a3.166,3.166,0,0,1,4.3-1.238l12.132,6.713a3.169,3.169,0,0,1,1.238,4.306l-9.559,17.271" transform="translate(-8270.983 -2480.472)" style="stroke-linecap:round;stroke-miterlimit:10;stroke:#57606f;fill:#48fff0"/>
        <path d="M8278.237,2484.991a3.167,3.167,0,0,1,3.965-2.083l13.24,4.122a3.169,3.169,0,0,1,2.083,3.966l-5.868,18.847" transform="translate(-8270.983 -2480.472)" style="fill:#ffba52;stroke-linecap:round;stroke-miterlimit:10;stroke:#57606f"/>
        <rect width="20.201" height="26.075" rx="5.665" transform="translate(0 5.405)" style="fill:#fa3f68;stroke-linecap:round;stroke-miterlimit:10;stroke:#57606f"/>
        <path d="M8281.477,2489.083l1.985,4.022,4.439.645-3.212,3.131.758,4.421-3.971-2.087-3.971,2.087.759-4.421-3.212-3.131,4.438-.645Z" transform="translate(-8270.983 -2480.472)" style="fill:#fff"/>
        <line class="e" x2="11.278" transform="translate(4.568 24.236)"/>
        <line class="e" x2="11.278" transform="translate(4.568 27.376)"/>
    </g>
</svg>
