<svg xmlns="http://www.w3.org/2000/svg" width="22.002" height="24" viewBox="0 0 22.002 24">
    <defs>
              
        </style>
    </defs>
    <g id="Recharge" transform="translate(-4 -2)">
        <path id="Path_36858" d="M17 20.75a.25.25 0 0 1-.25.25H5.25a.25.25 0 0 1-.25-.25V6.25A.25.25 0 0 1 5.25 6h11.5a.25.25 0 0 1 .25.25v.665l1-.36V5a3 3 0 0 0-3-3H7a3 3 0 0 0-3 3v18a3 3 0 0 0 3 3h8a3 3 0 0 0 3-3v-3.55l-1 .36zM9.75 4h2.5a.25.25 0 0 1 0 .5h-2.5a.25.25 0 0 1 0-.5zm2.46 19.56a1.23 1.23 0 0 1-.9.9 1.25 1.25 0 0 1-1.5-1.5 1.23 1.23 0 0 1 .9-.9 1.25 1.25 0 0 1 1.5 1.5z"  data-name="Path 36858"/>
        <path id="Path_36859" d="M31.908 18.153l-2.44-6.665a1.5 1.5 0 0 0-1.945-.905L17 14.393a1.54 1.54 0 0 0-.86.785 1.5 1.5 0 0 0-.05 1.155L18.528 23a1.5 1.5 0 0 0 1.43 1 1.55 1.55 0 0 0 .5-.09L31 20.093a1.54 1.54 0 0 0 .86-.785 1.5 1.5 0 0 0 .048-1.155zm-10 2.27l-1.91.69h-.085a.24.24 0 0 1-.235-.165.25.25 0 0 1 .15-.32l1.91-.69a.25.25 0 1 1 .17.47zm-3.745-1.335l-.5-1.37 11.5-4.165.5 1.375z"  data-name="Path 36859" transform="translate(-5.998 -4.243)"/>
    </g>
</svg>
