<svg xmlns="http://www.w3.org/2000/svg" width="25.801" height="40" viewBox="0 0 25.801 40"><defs><style>.simswapa{fill:#636366;}.simswapb{fill:#d1d1d6;}</style></defs><g transform="translate(0 40) rotate(-90)"><path class="simswapa" d="M36.968,0H3.031A3.035,3.035,0,0,0,0,3.031V22.769A3.035,3.035,0,0,0,3.031,25.8H32.5a.684.684,0,0,0,.482-.2L39.8,18.787A.684.684,0,0,0,40,18.3V3.031A3.035,3.035,0,0,0,36.968,0Zm1.668,18.023-6.414,6.415H3.031a1.67,1.67,0,0,1-1.668-1.669V3.031A1.67,1.67,0,0,1,3.031,1.364H36.968a1.67,1.67,0,0,1,1.668,1.668Z"/><rect class="simswapb" width="6.136" height="4.29" transform="translate(11.58 10.755)"/><path class="simswapb" d="M5.71,2.131V0H0V2.131L2.855,4.987Z" transform="translate(11.808 4.946)"/><rect class="simswapb" width="6.236" height="1.804" transform="translate(4.663 10.755)"/><path class="simswapb" d="M2.515,2.514H9.177V0H0Z" transform="translate(15.485 15.727)"/><rect class="simswapb" width="6.236" height="1.804" transform="translate(4.663 13.241)"/><path class="simswapb" d="M0,0V2.514H6.663L9.177,0Z" transform="translate(4.663 15.727)"/><path class="simswapb" d="M6.663,0H0V2.514H9.177Z" transform="translate(4.663 7.56)"/><rect class="simswapb" width="6.264" height="1.804" transform="translate(18.399 10.755)"/><path class="simswapb" d="M0,2.855V4.987H5.71V2.855L2.855,0Z" transform="translate(11.808 15.868)"/><path class="simswapb" d="M6.429,0H2.238A2.275,2.275,0,0,0,0,1.932H6.429Z" transform="translate(4.697 4.946)"/><path class="simswapb" d="M0,1.932H4.19A2.274,2.274,0,0,0,6.429,0H0Z" transform="translate(18.2 18.923)"/><path class="simswapb" d="M2.238,1.932h4.19V0H0A2.275,2.275,0,0,0,2.238,1.932Z" transform="translate(4.697 18.923)"/><path class="simswapb" d="M4.19,0H0V1.932H6.429A2.275,2.275,0,0,0,4.19,0Z" transform="translate(18.2 4.946)"/><rect class="simswapb" width="6.264" height="1.804" transform="translate(18.399 13.241)"/><path class="simswapb" d="M0,2.514H9.177V0H2.515Z" transform="translate(15.485 7.56)"/></g></svg>