<svg xmlns="http://www.w3.org/2000/svg" width="20" height="15.838" viewBox="0 0 20 15.838">
    <path d="M17.945 3.965v.512a11.327 11.327 0 0 1-.753 4.009 11.9 11.9 0 0 1-2.237 3.653 11.081 11.081 0 0 1-3.653 2.674 12.169 12.169 0 0 1-5 1.025 11.964 11.964 0 0 1-3.333-.468 11.478 11.478 0 0 1-2.968-1.314q.479.045.982.045a8.334 8.334 0 0 0 2.717-.446 8.579 8.579 0 0 0 2.374-1.247 4.164 4.164 0 0 1-2.374-.813 3.861 3.861 0 0 1-1.438-1.971 4.184 4.184 0 0 0 .753.067 4.332 4.332 0 0 0 1.073-.134 4.075 4.075 0 0 1-2.842-2.15 4.087 4.087 0 0 1-.445-1.771v-.067a3.919 3.919 0 0 0 1.872.512 4.067 4.067 0 0 1-1.336-1.437 3.839 3.839 0 0 1-.491-1.9 3.9 3.9 0 0 1 .548-2 11.625 11.625 0 0 0 3.721 2.94 11.788 11.788 0 0 0 4.726 1.247 4.519 4.519 0 0 1-.091-.913 3.825 3.825 0 0 1 .548-2 4.088 4.088 0 0 1 1.5-1.459 4.027 4.027 0 0 1 2.043-.546 4.107 4.107 0 0 1 1.644.335 4.032 4.032 0 0 1 1.347.936 8.094 8.094 0 0 0 2.6-.98 3.842 3.842 0 0 1-.7 1.281 4.184 4.184 0 0 1-1.107.947 8.5 8.5 0 0 0 2.374-.646 8.47 8.47 0 0 1-2.054 2.079z" data-name="Path 419"/>
</svg>
