<svg xmlns="http://www.w3.org/2000/svg" width="22" height="28" viewBox="0 0 22 28">
    <defs>
              
        </style>
    </defs>
    <g id="Unbar_Refill" transform="translate(-14.9 -4.198)">
        <path id="Path_27606" d="M23.65 15.539h-6.562a2.222 2.222 0 0 0-2.188 2.2v12.227a2.249 2.249 0 0 0 2.281 2.234h17.438a2.25 2.25 0 0 0 2.281-2.234V17.74a2.249 2.249 0 0 0-2.281-2.231h-.062v-2.69a8.754 8.754 0 0 0-8.75-8.62 8.5 8.5 0 0 0-8.438 8.401v.275a.7.7 0 0 0 .719.7H20.4a.7.7 0 0 0 .719-.7v-.061a4.866 4.866 0 0 1 4.531-4.886 4.8 4.8 0 0 1 5.156 4.707v2.934H23.65zm3.25 8.65v.825a.343.343 0 0 1-.094.245l-.781.764a.057.057 0 0 0 0 .092l.562.55a.091.091 0 0 1 0 .122l-.625.611a.057.057 0 0 0 0 .092l.531.52a.262.262 0 0 1 .094.183v.214l-.75.7a.153.153 0 0 1-.219 0l-.656-.55a.5.5 0 0 1-.156-.367v-4.031a2.112 2.112 0 0 1-1.062-1.8 2.125 2.125 0 1 1 3.156 1.83z"  data-name="Path 27606"/>
    </g>
</svg>
