<svg xmlns="http://www.w3.org/2000/svg" width="25.986" height="23.858" viewBox="0 0 25.986 23.858">
    <g id="User-Profile" transform="translate(-246.135 -99.746)">
        <path id="Path_27390" fill='#2F3542' d="M179.4 58.667a7.649 7.649 0 1 1 7.649-7.649 7.657 7.657 0 0 1-7.649 7.649zm0-13.3a5.649 5.649 0 1 0 5.649 5.649 5.656 5.656 0 0 0-5.649-5.647z" data-name="Path 27390" transform="translate(79.724 56.377)"/>
        <path id="Path_27391" fill='#2F3542' d="M168.4 67.227l-1.988-.213a13.563 13.563 0 0 1 6.852-10.379l.976 1.745a11.562 11.562 0 0 0-5.84 8.847z" data-name="Path 27391" transform="translate(79.724 56.377)"/>
        <path id="Path_27392" fill='#2F3542' d="M190.409 67.224a11.559 11.559 0 0 0-5.84-8.847l.976-1.745a13.559 13.559 0 0 1 6.855 10.379z" data-name="Path 27392" transform="translate(79.724 56.377)"/>
    </g>
</svg>
