<svg xmlns="http://www.w3.org/2000/svg" id="VIP_and_Titles" width="31.32" height="20.27" viewBox="0 0 31.32 20.27">
    <defs>
               
        </style>
    </defs>
    <g id="Group_561" data-name="Group 561">
        <path id="Path_324" d="M0 109.514v3.625a2.5 2.5 0 0 0 .77 1.834 2.506 2.506 0 0 0 1.834.77l26.112-.014a2.628 2.628 0 0 0 2.6-2.6l-.015-3.611a3.913 3.913 0 0 1 0-7.826v-3.6a2.627 2.627 0 0 0-2.6-2.6l-26.082-.019a2.507 2.507 0 0 0-1.835.77 2.5 2.5 0 0 0-.77 1.834L0 101.687a3.768 3.768 0 0 1 2.762 1.151 3.889 3.889 0 0 1 0 5.524A3.769 3.769 0 0 1 0 109.514zm9.283-5.766l3.833-.88 2.377-3.668a.487.487 0 0 1 .884 0l2.377 3.665 3.834.88a.447.447 0 0 1 .259.8l-2.83 3.26.433 4.07a.5.5 0 0 1-.691.572l-3.823-1.161-3.823 1.161a.5.5 0 0 1-.691-.572l.433-4.07-2.83-3.26a.447.447 0 0 1 .258-.797z"  data-name="Path 324" transform="translate(0 -95.473)"/>
    </g>
</svg>
