
<svg xmlns="http://www.w3.org/2000/svg" width="32.002" height="28" viewBox="0 0 32.002 28"><defs><style>.aWarning{fill:#F66363;}</style></defs><path class="aWarning" d="M29.385,29.99H2.615A2.587,2.587,0,0,1,.343,28.679,2.54,2.54,0,0,1,.356,26.1L13.74,3.278a2.625,2.625,0,0,1,4.519,0L31.644,26.106a2.537,2.537,0,0,1,.014,2.574,2.589,2.589,0,0,1-2.273,1.31Zm-27.3-2.873a.547.547,0,0,0,0,.568.6.6,0,0,0,.537.305h26.77a.6.6,0,0,0,.538-.306.545.545,0,0,0,0-.567L16.534,4.29a.625.625,0,0,0-1.068,0L2.081,27.117ZM16,21a1,1,0,0,1-1-1V12a1,1,0,0,1,2,0v8A1,1,0,0,1,16,21Zm0,4a.99.99,0,1,1,.71-.29A1.033,1.033,0,0,1,16,25Z" transform="translate(0.001 -1.99)"/></svg>