<svg
  xmlns="http://www.w3.org/2000/svg"
  width="36.037"
  height="32.097"
  viewBox="0 0 36.037 32.097"
><defs><style
    >.a,.c{fill:none;}.a,.b{stroke-miterlimit:10;}.b{fill:#d1d1d6;}.c{stroke-linecap:round;stroke-linejoin:round;}.d,.e{stroke:none;}.e{fill:#636366;}</style></defs><g
    transform="translate(1 1)"
  ><g class="a" transform="translate(-5717.804 -1624.557)"><path
        class="d"
        d="M5734.824,1624.557a16.9,16.9,0,0,0-11.163,29.691l2.034-2.323a13.822,13.822,0,0,1,9.129-24.29,13.938,13.938,0,0,1,13.213,9.487l2.932-.969A17.018,17.018,0,0,0,5734.824,1624.557Z"
      /><path
        id="AgeingDetails"
        class="e"
        d="M 5734.82373046875 1624.55712890625 C 5725.4326171875 1624.55712890625 5717.80419921875 1632.15087890625 5717.80419921875 1641.48388671875 C 5717.80419921875 1646.569458007813 5720.0712890625 1651.147216796875 5723.6611328125 1654.248046875 L 5725.69482421875 1651.924560546875 C 5722.75537109375 1649.385498046875 5720.8994140625 1645.646240234375 5720.8994140625 1641.48388671875 C 5720.8994140625 1633.84375 5727.14208984375 1627.634765625 5734.82373046875 1627.634765625 C 5740.9658203125 1627.634765625 5746.1953125 1631.612548828125 5748.037109375 1637.121337890625 L 5750.96875 1636.151977539063 C 5748.7255859375 1629.419677734375 5742.3359375 1624.55712890625 5734.82373046875 1624.55712890625 M 5734.82373046875 1623.55712890625 C 5738.67919921875 1623.55712890625 5742.35791015625 1624.75537109375 5745.4619140625 1627.022338867188 C 5746.95556640625 1628.113159179688 5748.267578125 1629.420288085938 5749.36181640625 1630.907470703125 C 5750.4697265625 1632.413940429688 5751.32958984375 1634.072021484375 5751.91748046875 1635.835815429688 L 5752.234375 1636.786743164063 L 5751.28271484375 1637.101440429688 L 5748.35107421875 1638.07080078125 L 5747.40478515625 1638.383666992188 L 5747.0888671875 1637.4384765625 C 5745.328125 1632.172729492188 5740.3994140625 1628.634765625 5734.82373046875 1628.634765625 C 5727.697265625 1628.634765625 5721.8994140625 1634.398803710938 5721.8994140625 1641.48388671875 C 5721.8994140625 1645.19580078125 5723.52099609375 1648.725463867188 5726.3486328125 1651.167846679688 L 5727.1103515625 1651.825805664063 L 5726.447265625 1652.583129882813 L 5724.41357421875 1654.906616210938 L 5723.75927734375 1655.654174804688 L 5723.00732421875 1655.004760742188 C 5719.0654296875 1651.599609375 5716.80419921875 1646.67138671875 5716.80419921875 1641.48388671875 C 5716.80419921875 1631.598999023438 5724.8876953125 1623.55712890625 5734.82373046875 1623.55712890625 Z"
      /></g><g class="b" transform="translate(-5725.842 -1628.084)"><path
        class="d"
        d="M 5755.74365234375 1656.813598632813 L 5755.3671875 1656.484497070313 L 5753.044921875 1654.455322265625 L 5752.66845703125 1654.12646484375 L 5752.99755859375 1653.75 C 5755.1220703125 1651.31689453125 5756.29248046875 1648.2001953125 5756.29248046875 1644.973999023438 C 5756.29248046875 1643.524536132813 5756.0625 1642.106323242188 5755.6083984375 1640.7587890625 L 5755.44775390625 1640.283081054688 L 5755.92431640625 1640.124633789063 L 5758.84814453125 1639.152709960938 L 5759.3193359375 1638.99609375 L 5759.47900390625 1639.46630859375 C 5760.076171875 1641.222290039063 5760.37890625 1643.075317382813 5760.37890625 1644.973999023438 C 5760.37890625 1649.18701171875 5758.849609375 1653.257934570313 5756.07275390625 1656.43701171875 L 5755.74365234375 1656.813598632813 Z"
      /><path
        class="e"
        d="M 5759.005859375 1639.627197265625 L 5756.08203125 1640.59912109375 C 5756.544921875 1641.972900390625 5756.79248046875 1643.446533203125 5756.79248046875 1644.973999023438 C 5756.79248046875 1648.453979492188 5755.50341796875 1651.640625 5753.3740234375 1654.078857421875 L 5755.6962890625 1656.108032226563 C 5758.3046875 1653.121826171875 5759.87890625 1649.225708007813 5759.87890625 1644.973999023438 C 5759.87890625 1643.10693359375 5759.57763671875 1641.30908203125 5759.005859375 1639.627197265625 M 5759.6328125 1638.364990234375 L 5759.95263671875 1639.305297851563 C 5760.5673828125 1641.11328125 5760.87890625 1643.0205078125 5760.87890625 1644.973999023438 C 5760.87890625 1649.307983398438 5759.3056640625 1653.495727539063 5756.44921875 1656.765869140625 L 5755.79150390625 1657.519165039063 L 5755.0380859375 1656.861083984375 L 5752.7158203125 1654.831909179688 L 5751.96337890625 1654.174072265625 L 5752.62060546875 1653.421020507813 C 5754.666015625 1651.0791015625 5755.79248046875 1648.079223632813 5755.79248046875 1644.973999023438 C 5755.79248046875 1643.578857421875 5755.5712890625 1642.214477539063 5755.13427734375 1640.91845703125 L 5754.81396484375 1639.966918945313 L 5755.7666015625 1639.650146484375 L 5758.6904296875 1638.67822265625 L 5759.6328125 1638.364990234375 Z"
      /></g><g class="c" transform="translate(-5721.756 -1628.61)"><path
        class="d"
        d="M5739.8,1648.7a3.4,3.4,0,0,1-2.141-6.446c1.781-.59,9.206.522,9.206.522S5741.583,1648.11,5739.8,1648.7Z"
      /><path
        class="e"
        d="M 5738.732421875 1648.875244140625 C 5739.0869140625 1648.875244140625 5739.4482421875 1648.819213867188 5739.80322265625 1648.701293945313 C 5741.58349609375 1648.1103515625 5746.8681640625 1642.777221679688 5746.8681640625 1642.777221679688 C 5746.8681640625 1642.777221679688 5742.22998046875 1642.082275390625 5739.40625 1642.082275390625 C 5738.65771484375 1642.082275390625 5738.03564453125 1642.131225585938 5737.66259765625 1642.2548828125 C 5735.8828125 1642.845947265625 5734.91943359375 1644.768676757813 5735.509765625 1646.548461914063 C 5735.9833984375 1647.973510742188 5737.30908203125 1648.875244140625 5738.732421875 1648.875244140625 M 5738.732421875 1649.875244140625 C 5736.8359375 1649.875244140625 5735.15966796875 1648.665161132813 5734.56103515625 1646.863891601563 C 5733.79736328125 1644.562622070313 5735.0478515625 1642.069580078125 5737.34765625 1641.305908203125 C 5737.80810546875 1641.153198242188 5738.4619140625 1641.082275390625 5739.40625 1641.082275390625 C 5742.271484375 1641.082275390625 5746.82373046875 1641.759399414063 5747.01611328125 1641.788208007813 C 5747.388671875 1641.844116210938 5747.6982421875 1642.104614257813 5747.8173828125 1642.462036132813 C 5747.93603515625 1642.819580078125 5747.84375 1643.213500976563 5747.57861328125 1643.481079101563 C 5747.52392578125 1643.536254882813 5746.2216796875 1644.8486328125 5744.6767578125 1646.256713867188 C 5741.76904296875 1648.907592773438 5740.6826171875 1649.463134765625 5740.1181640625 1649.650390625 C 5739.6689453125 1649.799560546875 5739.20263671875 1649.875244140625 5738.732421875 1649.875244140625 Z"
      /></g></g></svg>
