
<svg xmlns="http://www.w3.org/2000/svg" width="35.893" height="35.98" viewBox="0 0 35.893 35.98"><defs><style>.appA,.appD{fill:none;}.appA,.appB,.appC{stroke:currentColor;}.appA,.appB,.appD{stroke-miterlimit:10;}.appB{fill:#ededf5;}.appC{fill:currentColor;stroke-linejoin:round;}.appD{stroke:#fff;stroke-linecap:round;}</style></defs><g transform="translate(0.5 0.5)"><path class="appA" d="M3601.689,916.666H3590.9a8.02,8.02,0,0,1-8.02-8.02V892.818a8.02,8.02,0,0,1,8.02-8.02h18.853a8.021,8.021,0,0,1,8.02,8.02v7.26" transform="translate(-3582.88 -881.685)"/><rect class="appB" width="3.377" height="8.283" rx="1.688" transform="translate(6.964)"/><rect class="appB" width="3.377" height="8.283" rx="1.688" transform="translate(15.758)"/><rect class="appB" width="3.377" height="8.283" rx="1.688" transform="translate(24.551)"/><circle class="appA" cx="1.656" cy="1.656" r="1.656" transform="translate(6.996 12.536)"/><circle class="appA" cx="1.656" cy="1.656" r="1.656" transform="translate(12.777 12.536)"/><circle class="appA" cx="1.656" cy="1.656" r="1.656" transform="translate(18.557 12.536)"/><circle class="appA" cx="1.656" cy="1.656" r="1.656" transform="translate(24.337 12.536)"/><circle class="appA" cx="1.656" cy="1.656" r="1.656" transform="translate(6.996 18.393)"/><circle class="appA" cx="1.656" cy="1.656" r="1.656" transform="translate(12.777 18.393)"/><circle class="appA" cx="1.656" cy="1.656" r="1.656" transform="translate(6.996 24.249)"/><circle class="appA" cx="1.656" cy="1.656" r="1.656" transform="translate(12.777 24.249)"/><circle class="appC" cx="8.248" cy="8.248" r="8.248" transform="translate(18.396 18.396)"/><path class="appD" d="M3616.135,909.3v3.746h5.671" transform="translate(-3589.491 -886.555)"/><path class="appA" d="M3606.145,924.463" transform="translate(-3587.505 -889.571)"/></g></svg>