<svg xmlns="http://www.w3.org/2000/svg" width="25.972" height="28.673" viewBox="0 0 25.972 28.673">
  <path id="Path_45701" data-name="Path 45701" d="M23.862,19.139a1.012,1.012,0,1,0-1.431-1.431L17.08,23.06a4.779,4.779,0,0,0,6.758,6.758L35.923,17.733a6.671,6.671,0,0,0-9.447-9.422L14.416,20.372A8.581,8.581,0,1,0,26.551,32.507L31.9,27.155a1.012,1.012,0,1,0-1.431-1.431L25.12,31.076A6.558,6.558,0,1,1,15.846,21.8L27.907,9.741a4.588,4.588,0,0,1,3.28-1.357,4.649,4.649,0,0,1,3.28,1.357,4.588,4.588,0,0,1,1.357,3.28,4.649,4.649,0,0,1-1.357,3.28L22.383,28.388a2.784,2.784,0,0,1-3.9,0,2.739,2.739,0,0,1,0-3.9l5.377-5.352Z" transform="translate(-11.9 -6.35)" fill="#57606f"/>
</svg>
