<svg xmlns="http://www.w3.org/2000/svg" width="86.832" height="66.142" viewBox="0 0 86.832 66.142">
  <g id="Digital_Trouble_Ticket" data-name="Digital Trouble Ticket" transform="translate(-80.811 -341.734)">
    <path id="Path_43483" data-name="Path 43483" d="M196.961,378.012a11.292,11.292,0,0,1-2.045-6.513,11.406,11.406,0,0,1,10.738-11.384.742.742,0,0,0-.088-1.482A12.885,12.885,0,0,0,195.838,379a2.837,2.837,0,1,0,1.123-.985Z" transform="translate(-64.698 -9.708)" fill="none"/>
    <path id="Path_43484" data-name="Path 43484" d="M228.883,360.728a.742.742,0,1,0-.528-.217A.742.742,0,0,0,228.883,360.728Z" transform="translate(-84.637 -10.059)" fill="none"/>
    <path id="Path_43485" data-name="Path 43485" d="M216.522,415.018a.742.742,0,1,0,.528.217A.742.742,0,0,0,216.522,415.018Z" transform="translate(-77.539 -42.101)" fill="none"/>
    <circle id="Ellipse_2652" data-name="Ellipse 2652" cx="5.543" cy="5.543" r="5.543" transform="translate(136.106 356.043)" fill="none"/>
    <path id="Path_43486" data-name="Path 43486" d="M233.375,361.408a2.817,2.817,0,0,0-3.6.367v0a2.816,2.816,0,0,0,3.229,4.529,11.289,11.289,0,0,1,2.045,6.513A11.405,11.405,0,0,1,224.316,384.2a.742.742,0,1,0,.088,1.482,12.891,12.891,0,0,0,12.133-12.865,12.761,12.761,0,0,0-2.408-7.5A2.816,2.816,0,0,0,233.375,361.408Z" transform="translate(-82.04 -11.024)" fill="none"/>
    <rect id="Rectangle_12320" data-name="Rectangle 12320" width="5.088" height="10.176" transform="translate(96.244 364.629)" fill="none"/>
    <rect id="Rectangle_12321" data-name="Rectangle 12321" width="5.088" height="5.088" transform="translate(96.244 354.454)" fill="none"/>
    <path id="Path_43487" data-name="Path 43487" d="M116.6,341.734v20.351h-5.088V341.734h-30.7v40.7h26.043a7.657,7.657,0,0,1,4.653-4.624v-10.64H116.6v10.64a7.657,7.657,0,0,1,4.653,4.624h46.394v-40.7ZM101.332,374.8H96.244V364.629h5.088Zm0-15.264H96.244v-5.088h5.088Zm42.908-10.357a.743.743,0,1,1-.74.746A.743.743,0,0,1,144.24,349.184Zm-8.751,23.649a2.816,2.816,0,0,1-4.35-3.544,12.885,12.885,0,0,1,9.728-20.364.742.742,0,0,1,.088,1.482,11.406,11.406,0,0,0-10.738,11.384,11.292,11.292,0,0,0,2.045,6.513,2.817,2.817,0,0,1,3.227,4.529Zm.616-11.247a5.543,5.543,0,1,1,5.543,5.543A5.543,5.543,0,0,1,136.106,361.586Zm2.883,12.816a.743.743,0,1,1,.74-.746A.743.743,0,0,1,138.989,374.4Zm3.374.259a.742.742,0,1,1-.088-1.482A11.405,11.405,0,0,0,153.013,361.8a11.289,11.289,0,0,0-2.045-6.513,2.816,2.816,0,0,1-3.229-4.529v0a2.816,2.816,0,0,1,4.35,3.544,12.761,12.761,0,0,1,2.408,7.5A12.891,12.891,0,0,1,142.363,374.662Z" transform="translate(0 0)" fill="#fff"/>
    <path id="Path_43488" data-name="Path 43488" d="M116.6,439.933a2.544,2.544,0,0,0-5.088,0v2.544h-30.7v20.351h30.7v-2.544a2.544,2.544,0,0,1,5.088,0v2.544h51.048V442.477H116.6Zm14.859,7.772.01-.009a6.626,6.626,0,0,1,10.814,2.2h16.694v4.018H142.587a6.625,6.625,0,1,1-11.133-6.2Z" transform="translate(0 -54.953)" fill="#fff"/>
  </g>
</svg>
