<svg xmlns="http://www.w3.org/2000/svg" width="21.198" height="28.769" viewBox="0 0 21.198 28.769">
    <path d="M4.633.242l2.093 1.663L8.88.193a.953.953 0 0 1 1.151.005l2.148 1.706L14.333.192a.953.953 0 0 1 1.151.005l2.148 1.706L19.786.191c.535-.425 1.407-.1 1.405.508v23.372c0 .666-1 .951-1.489.441l-1-.91c-.679-.425-.067-2.092.809-1.335V2.33L18.2 3.371a.953.953 0 0 1-1.151 0l-2.154-1.712-2.148 1.707a.953.953 0 0 1-1.151 0L9.442 1.654 7.294 3.361a.953.953 0 0 1-1.151 0L4.826 2.315v1.67c-.071.913-1.675.833-1.675-.022V.702c0-.655.969-.946 1.471-.459zm1.732 11.773a.712.712 0 1 1 0-1.406h5.305a.712.712 0 1 1 0 1.406zm0 3.378a.712.712 0 1 1 0-1.406h5.305a.712.712 0 1 1 0 1.406zm0 3.378a.712.712 0 1 1 0-1.406h5.305a.712.712 0 1 1 0 1.406zm0 3.378a.712.712 0 1 1 0-1.406h5.305a.712.712 0 1 1 0 1.406zM1.47 4.234l2.094 1.663 2.154-1.711a.953.953 0 0 1 1.151 0l2.148 1.706 2.154-1.711a.953.953 0 0 1 1.151 0l2.148 1.706 2.154-1.711c.535-.425 1.407-.1 1.405.508v23.372c0 .666-1 .951-1.489.441l-2.076-1.9-2.104 1.945a.95.95 0 0 1-1.23 0L9.018 26.61l-2.112 1.932a.95.95 0 0 1-1.23 0L3.564 26.61l-2.112 1.932c-.518.473-1.45.156-1.45-.475V4.695c0-.654.969-.946 1.471-.459zm1.521 3.134L1.674 6.322v19.941l1.274-1.166a.951.951 0 0 1 1.23 0l2.112 1.932 2.112-1.932a.951.951 0 0 1 1.23 0l2.112 1.932 2.112-1.932a.951.951 0 0 1 1.23 0l1.275 1.166V6.322L15.05 7.363a.953.953 0 0 1-1.151 0l-2.154-1.712-2.148 1.707a.953.953 0 0 1-1.151 0L6.29 5.657 4.142 7.364a.953.953 0 0 1-1.152.004z" data-name="Path 36913"/>
</svg>
