<svg xmlns="http://www.w3.org/2000/svg" width="28.856" height="23.445" viewBox="0 0 28.856 23.445">
  <g id="Charges_Instalment" data-name="Charges &amp; Instalment" transform="translate(-44 -593)">
    <path id="Path_147" data-name="Path 147" d="M23.445,48H1.8A1.806,1.806,0,0,0,0,49.8V66.035a1.805,1.805,0,0,0,1.8,1.8H23.445a1.8,1.8,0,0,0,1.8-1.8V49.8A1.805,1.805,0,0,0,23.445,48ZM6.312,53.41h-1.8a.9.9,0,1,1,0-1.8h1.8a.9.9,0,1,1,0,1.8Zm6.312,3.607a2.7,2.7,0,0,1,.9,5.245V63.33a.9.9,0,0,1-1.8,0v-.9h-.9a.9.9,0,0,1,0-1.8h1.8a.9.9,0,0,0,0-1.8,2.7,2.7,0,0,1-.9-5.245V52.509a.9.9,0,0,1,1.8,0v.9h.9a.9.9,0,0,1,0,1.8h-1.8a.9.9,0,1,0,0,1.8Zm8.116,7.214h-1.8a.9.9,0,0,1,0-1.8h1.8a.9.9,0,1,1,0,1.8Z" transform="translate(44 545)"/>
    <path id="Path_148" data-name="Path 148" d="M87.445,112v16.231a1.8,1.8,0,0,1-1.8,1.8H64a1.805,1.805,0,0,0,1.8,1.8H87.445a1.8,1.8,0,0,0,1.8-1.8V113.8A1.805,1.805,0,0,0,87.445,112Z" transform="translate(-16.393 484.607)"/>
  </g>
</svg>
