<svg xmlns="http://www.w3.org/2000/svg" width="22" height="28" viewBox="0 0 22 28">
    <path id="Bill_Payment" d="M31.5 2.5H11.473a1.016 1.016 0 0 0-.973 1.03v25.38a1.378 1.378 0 0 0 .668 1.207 1.233 1.233 0 0 0 1.307-.059l1.725-1.236a1.054 1.054 0 0 1 1.168 0l2.058 1.443a1.249 1.249 0 0 0 1.418 0l2.056-1.443a1.054 1.054 0 0 1 1.168 0l2.058 1.443a1.312 1.312 0 0 0 .7.236 1.325 1.325 0 0 0 .723-.236l2.051-1.443a1.054 1.054 0 0 1 1.168 0l1.752 1.237a1.233 1.233 0 0 0 1.307.059 1.378 1.378 0 0 0 .673-1.208V3.53a1.059 1.059 0 0 0-1-1.03zM15.2 8.006h6.258a.767.767 0 0 1 0 1.531H15.2a.767.767 0 0 1 0-1.531zm0 4.681h6.258a.767.767 0 0 1 0 1.531H15.2a.74.74 0 0 1-.723-.766.759.759 0 0 1 .723-.765zm12.516 10.865H15.2a.74.74 0 0 1-.723-.766.723.723 0 0 1 .723-.766h12.516a.767.767 0 0 1 0 1.531zm0-4.681H15.2a.767.767 0 0 1 0-1.531h12.516a.74.74 0 0 1 .723.766.758.758 0 0 1-.723.764zm.473-5.094a1.858 1.858 0 0 1-1.252.618v.705a.135.135 0 0 1-.139.147h-.7a.135.135 0 0 1-.139-.147v-.736a3.376 3.376 0 0 1-1.78-.913.148.148 0 0 1 0-.206l.584-.736a.164.164 0 0 1 .195-.029 2.665 2.665 0 0 0 .7.471 2.445 2.445 0 0 0 .834.206.849.849 0 0 0 .556-.177.569.569 0 0 0 .223-.442.528.528 0 0 0-.028-.206l-.083-.177c-.028-.059-.083-.088-.139-.147a1.194 1.194 0 0 0-.195-.118 2.8 2.8 0 0 0-.278-.118c-.083-.029-.223-.088-.334-.118s-.223-.059-.306-.088a2.038 2.038 0 0 1-.306-.118 2.8 2.8 0 0 1-.278-.118 1.111 1.111 0 0 1-.25-.147 1.554 1.554 0 0 1-.223-.177c-.056-.059-.139-.118-.195-.177a1.629 1.629 0 0 1-.167-.236 1.078 1.078 0 0 1-.111-.265c-.028-.088-.056-.206-.083-.294a1.515 1.515 0 0 1-.028-.353 1.917 1.917 0 0 1 .445-1.3 1.858 1.858 0 0 1 1.252-.618v-.699a.135.135 0 0 1 .139-.147h.7a.135.135 0 0 1 .139.147v.854a5.92 5.92 0 0 1 .862.294 3.2 3.2 0 0 1 .612.383.151.151 0 0 1 .028.206l-.556.736a.164.164 0 0 1-.195.029 2.238 2.238 0 0 0-1.34-.466 1.048 1.048 0 0 0-.556.147.454.454 0 0 0-.195.412.476.476 0 0 0 .223.412 2.362 2.362 0 0 0 .751.353 2.914 2.914 0 0 1 .389.147 3.015 3.015 0 0 1 .362.147 1.958 1.958 0 0 1 .334.147c.083.059.195.118.278.177a.875.875 0 0 1 .25.206 1.658 1.658 0 0 1 .195.236.943.943 0 0 1 .139.294c.028.088.056.206.083.324a1.914 1.914 0 0 1 .028.412 1.841 1.841 0 0 1-.445 1.263z"  transform="translate(-10.5 -2.5)"/>
</svg>
