<svg xmlns="http://www.w3.org/2000/svg" width="26.936" height="37.209" viewBox="0 0 26.936 37.209">
    <g id="Biometrics" transform="translate(-13.805)">
        <g id="Group_189" data-name="Group 189" transform="translate(13.805)">
            <path id="Path_130" d="M15.293 20.2a1.488 1.488 0 0 1-1.488-1.488C13.805 8.394 19.881 0 27.35 0c6.721 0 12.35 6.637 13.381 15.78a1.488 1.488 0 1 1-2.958.334C36.927 8.625 32.446 2.977 27.35 2.977c-5.828 0-10.569 7.059-10.569 15.736a1.488 1.488 0 0 1-1.488 1.487z"  data-name="Path 130" transform="translate(-13.805)"/>
            <path id="Path_131" d="M22.545 51.649a1.488 1.488 0 0 1-.058-2.976 9.719 9.719 0 0 0 7.3-4.645c1.489-2.365 1.054-7.73.76-9.6a1.488 1.488 0 0 1 2.941-.463c.126.8 1.162 7.924-1.181 11.645a12.712 12.712 0 0 1-9.707 6.038z"  data-name="Path 131" transform="translate(-18.359 -20.54)"/>
            <path id="Path_132" d="M31.185 76.865a1.489 1.489 0 0 1-.06-2.976 11.828 11.828 0 0 0 8.634-4.956 4.953 4.953 0 0 1 3.407-2.314c2.67-.412 5.116 1.512 5.386 1.733a1.488 1.488 0 0 1-1.884 2.3 4.742 4.742 0 0 0-3.057-1.094 1.942 1.942 0 0 0-1.364 1 14.645 14.645 0 0 1-11.006 6.3z"  data-name="Path 132" transform="translate(-23.784 -41.795)"/>
            <path id="Path_133" d="M17.452 35.707a1.489 1.489 0 0 1-.286-2.949c.024-.005 3.014-.642 4.127-2.838a10.366 10.366 0 0 0 .828-4.9c.013-2.339.027-4.991 2.231-7.612a5.539 5.539 0 0 1 5.392-2.137A8.077 8.077 0 0 1 35.4 20.65a48.578 48.578 0 0 1 1.537 5.74 9.823 9.823 0 0 0 .621 2.216c.568 1.136 2.376 1.711 3.025 1.837a1.489 1.489 0 0 1-.55 2.926c-.386-.072-3.81-.779-5.137-3.431a11.954 11.954 0 0 1-.87-2.928 45.955 45.955 0 0 0-1.45-5.421 5.147 5.147 0 0 0-3.391-3.4 2.6 2.6 0 0 0-2.554 1.129c-1.511 1.8-1.521 3.525-1.533 5.713a13.065 13.065 0 0 1-1.149 6.231c-1.776 3.5-6.027 4.378-6.207 4.413a1.547 1.547 0 0 1-.29.032z"  data-name="Path 133" transform="translate(-15.161 -9.526)"/>
            <path id="Path_134" d="M54.484 88.849a1.489 1.489 0 0 1-.426-2.915 8.368 8.368 0 0 0 4.066-3.028 1.489 1.489 0 1 1 2.481 1.645 11.316 11.316 0 0 1-5.7 4.237 1.489 1.489 0 0 1-.421.061z"  data-name="Path 134" transform="translate(-38.413 -51.639)"/>
        </g>
    </g>
</svg>
