<svg xmlns="http://www.w3.org/2000/svg" width="121" height="83.182" viewBox="0 0 121 83.182">
    <defs>
        <style>
            .cls-1{fill:#8e8e93}
        </style>
    </defs>
    <g id="Broadband-allowances" transform="translate(-248.862 -553.867)">
        <path id="Path_27431" d="M283.889 574.659h-108.5a6.256 6.256 0 0 1-6.249-6.249V546.5a6.256 6.256 0 0 1 6.249-6.249h108.5a6.256 6.256 0 0 1 6.249 6.249v21.91a6.256 6.256 0 0 1-6.249 6.249zm-108.5-33.408a5.255 5.255 0 0 0-5.249 5.249v21.91a5.255 5.255 0 0 0 5.249 5.249h108.5a5.254 5.254 0 0 0 5.249-5.249V546.5a5.254 5.254 0 0 0-5.249-5.249z" class="cls-1" data-name="Path 27431" transform="translate(79.724 56.377)"/>
        <path id="Path_27432" d="M197.968 559.959h-4.256a2.785 2.785 0 0 1-2.782-2.782v-1.448a2.785 2.785 0 0 1 2.782-2.783h4.256a2.785 2.785 0 0 1 2.782 2.783v1.448a2.785 2.785 0 0 1-2.782 2.782zm-4.256-6.013a1.784 1.784 0 0 0-1.782 1.783v1.448a1.784 1.784 0 0 0 1.782 1.782h4.256a1.784 1.784 0 0 0 1.782-1.782v-1.448a1.784 1.784 0 0 0-1.782-1.783z" class="cls-1" data-name="Path 27432" transform="translate(79.724 56.377)"/>
        <path id="Path_27433" d="M220.5 559.959h-4.256a2.785 2.785 0 0 1-2.782-2.782v-1.448a2.785 2.785 0 0 1 2.782-2.783h4.256a2.785 2.785 0 0 1 2.782 2.783v1.448a2.785 2.785 0 0 1-2.782 2.782zm-4.256-6.013a1.785 1.785 0 0 0-1.782 1.783v1.448a1.785 1.785 0 0 0 1.782 1.782h4.256a1.784 1.784 0 0 0 1.782-1.782v-1.448a1.784 1.784 0 0 0-1.782-1.783z" class="cls-1" data-name="Path 27433" transform="translate(79.724 56.377)"/>
        <path id="Path_27434" d="M243.032 559.959h-4.256a2.785 2.785 0 0 1-2.782-2.782v-1.448a2.785 2.785 0 0 1 2.782-2.783h4.256a2.785 2.785 0 0 1 2.782 2.783v1.448a2.785 2.785 0 0 1-2.782 2.782zm-4.256-6.013a1.784 1.784 0 0 0-1.782 1.783v1.448a1.784 1.784 0 0 0 1.782 1.782h4.256a1.784 1.784 0 0 0 1.782-1.782v-1.448a1.784 1.784 0 0 0-1.782-1.783z" class="cls-1" data-name="Path 27434" transform="translate(79.724 56.377)"/>
        <path id="Path_27435" d="M265.564 559.959h-4.256a2.785 2.785 0 0 1-2.782-2.782v-1.448a2.785 2.785 0 0 1 2.782-2.783h4.256a2.785 2.785 0 0 1 2.782 2.783v1.448a2.785 2.785 0 0 1-2.782 2.782zm-4.256-6.013a1.785 1.785 0 0 0-1.782 1.783v1.448a1.785 1.785 0 0 0 1.782 1.782h4.256a1.784 1.784 0 0 0 1.782-1.782v-1.448a1.784 1.784 0 0 0-1.782-1.783z" class="cls-1" data-name="Path 27435" transform="translate(79.724 56.377)"/>
        <path id="Path_27436" d="M273.564 580.672h-13.387a2.93 2.93 0 0 1-2.927-2.927v-4.086h19.241v4.086a2.93 2.93 0 0 1-2.927 2.927zm-15.314-6.013v3.086a1.929 1.929 0 0 0 1.927 1.927h13.387a1.929 1.929 0 0 0 1.927-1.927v-3.086z" class="cls-1" data-name="Path 27436" transform="translate(79.724 56.377)"/>
        <path id="Path_27437" d="M200.585 580.672H187.2a2.93 2.93 0 0 1-2.927-2.927v-4.086h19.241v4.086a2.93 2.93 0 0 1-2.929 2.927zm-15.314-6.013v3.086a1.929 1.929 0 0 0 1.927 1.927h13.387a1.929 1.929 0 0 0 1.927-1.927v-3.086z" class="cls-1" data-name="Path 27437" transform="translate(79.724 56.377)"/>
        <path id="Path_27438" d="M193.891 541.252a.5.5 0 0 1-.5-.5V497.99a.5.5 0 0 1 1 0v42.762a.5.5 0 0 1-.5.5z" class="cls-1" data-name="Path 27438" transform="translate(79.724 56.377)"/>
        <path id="Path_27439" d="M265.384 541.252a.5.5 0 0 1-.5-.5V497.99a.5.5 0 0 1 1 0v42.762a.5.5 0 0 1-.5.5z" class="cls-1" data-name="Path 27439" transform="translate(79.724 56.377)"/>
        <path id="Path_27440" d="M223.388 521.867a.5.5 0 0 1-.388-.814 8.928 8.928 0 0 1 12.543-1.328 8.675 8.675 0 0 1 .7.629.5.5 0 1 1-.706.707 8.223 8.223 0 0 0-.621-.559 7.926 7.926 0 0 0-11.137 1.18.5.5 0 0 1-.391.185z" class="cls-1" data-name="Path 27440" transform="translate(79.724 56.377)"/>
        <path id="Path_27441" d="M217.288 516.687a.5.5 0 0 1-.389-.815 17.127 17.127 0 0 1 25.443-1.327.5.5 0 0 1-.708.707 16.127 16.127 0 0 0-23.957 1.249.5.5 0 0 1-.389.186z" class="cls-1" data-name="Path 27441" transform="translate(79.724 56.377)"/>
        <path id="Path_27442" d="M211.283 511.6a.49.49 0 0 1-.314-.112.5.5 0 0 1-.074-.7 25.239 25.239 0 0 1 37.452-1.971.5.5 0 1 1-.707.708 24.238 24.238 0 0 0-35.968 1.892.5.5 0 0 1-.389.183z" class="cls-1" data-name="Path 27442" transform="translate(79.724 56.377)"/>
        <path id="Path_27443" d="M229.638 530.161a3.5 3.5 0 1 1 3.5-3.5 3.506 3.506 0 0 1-3.5 3.5zm0-6a2.5 2.5 0 1 0 2.5 2.5 2.5 2.5 0 0 0-2.5-2.504z" class="cls-1" data-name="Path 27443" transform="translate(79.724 56.377)"/>
    </g>
</svg>
