<svg xmlns="http://www.w3.org/2000/svg" width="31.029" height="28.58" viewBox="0 0 31.029 28.58">
  <g id="noun_listening_140420" transform="translate(-0.6 -1.5)">
    <g id="Group_67966" data-name="Group 67966" transform="translate(0.6 1.5)">
      <path id="Path_46582" data-name="Path 46582" d="M20.2,20.417a2.14,2.14,0,0,0-2.722-.544l-2.314,1.5H14.89l-.136.136c-.272,0-1.361-.272-4.219-4.219-2.45-3.675-2.45-5.172-2.314-5.716a.475.475,0,0,1,.136-.272l2.45-1.633a1.747,1.747,0,0,0,.817-2.586l-3.4-4.9-.136-.136A2.847,2.847,0,0,0,6.452,1.5a5.127,5.127,0,0,0-3.13,1.361V3A20.966,20.966,0,0,0,.6,10.346h0v.136a27.8,27.8,0,0,0,4.355,9.663h0L6.18,21.914h0a26.106,26.106,0,0,0,7.213,7.349V29.4a19.56,19.56,0,0,0,4.9.68,16.753,16.753,0,0,0,2.722-.272l.272-.136c3.13-1.905,2.586-3.947,2.45-4.083Zm.544,8.166a11.985,11.985,0,0,1-2.314.272,15.9,15.9,0,0,1-4.491-.68,30.647,30.647,0,0,1-7.213-7.485l-.408-.544c-1.361-2.314-3.538-5.716-4.355-9.935a14.345,14.345,0,0,1,2.314-6.4C6.316,2.317,7.132,2.861,7.4,3l3.266,4.9c.272.408.136.68-.272.953l-2.314,1.5a4.476,4.476,0,0,0-.817.817c-.544,1.361.272,3.538,2.45,6.941,2.177,3.266,3.811,4.763,5.172,4.763a.98.98,0,0,0,.953-.544l2.177-1.5c.408-.272.68-.136.953.272l3.4,4.9C22.647,26.269,22.647,27.358,20.742,28.583Z" transform="translate(-0.6 -1.5)" fill="#57606f"/>
      <path id="Path_46583" data-name="Path 46583" d="M27.908,1.9H9.671c-.272,0-.544.136-.544.408a.607.607,0,0,0,0,.68l2.041,3.4v7.893a.643.643,0,0,0,.68.68H27.908a.643.643,0,0,0,.68-.68V2.58C28.452,2.308,28.316,1.9,27.908,1.9Zm-.68,11.84H12.393V5.983a.5.5,0,0,0-.136-.408l-1.633-2.45h16.6Z" transform="translate(2.441 -1.356)" fill="#57606f"/>
      <path id="Path_46584" data-name="Path 46584" d="M15.08,6.461h5.988a.643.643,0,0,0,.68-.68.643.643,0,0,0-.68-.68H15.08a.643.643,0,0,0-.68.68A.729.729,0,0,0,15.08,6.461Z" transform="translate(4.381 -0.201)" fill="#57606f"/>
      <path id="Path_46585" data-name="Path 46585" d="M15.08,8.661h5.988a.68.68,0,1,0,0-1.361H15.08a.643.643,0,0,0-.68.68A.729.729,0,0,0,15.08,8.661Z" transform="translate(4.381 0.593)" fill="#57606f"/>
    </g>
  </g>
</svg>
