<svg xmlns="http://www.w3.org/2000/svg" width="28.428" height="31.384" viewBox="0 0 28.428 31.384"><defs><style>.a{fill:#57606f;}</style></defs><path class="a" d="M24.994,20.348a1.107,1.107,0,0,0-1.566-1.566l-5.858,5.858a5.231,5.231,0,0,0,7.4,7.4L38.2,18.809A7.3,7.3,0,0,0,27.855,8.5l-13.2,13.2A9.392,9.392,0,1,0,27.936,34.981l5.858-5.858a1.107,1.107,0,1,0-1.566-1.566l-5.858,5.858A7.178,7.178,0,1,1,16.22,23.264l13.2-13.2a5.022,5.022,0,0,1,3.591-1.485A5.088,5.088,0,0,1,36.6,10.062a5.022,5.022,0,0,1,1.485,3.591A5.088,5.088,0,0,1,36.6,17.243L23.374,30.472a3.048,3.048,0,0,1-4.266,0,3,3,0,0,1,0-4.266l5.885-5.858Z" transform="translate(-11.9 -6.35)"/></svg>