<svg xmlns="http://www.w3.org/2000/svg" width="30" height="31.25" viewBox="0 0 30 31.25">
  <g id="cause" transform="translate(-7 -7)">
    <g id="Group_67964" data-name="Group 67964" transform="translate(7 7)">
      <g id="Group_67963" data-name="Group 67963">
        <path id="Path_46578" data-name="Path 46578" d="M45.375,15.75A4.375,4.375,0,1,0,41,11.375,4.38,4.38,0,0,0,45.375,15.75Zm0-7.5a3.125,3.125,0,1,1-3.125,3.125A3.129,3.129,0,0,1,45.375,8.25Z" transform="translate(-19.75 -7)" fill="#57606f"/>
        <path id="Path_46579" data-name="Path 46579" d="M33.067,23.183a.624.624,0,0,0-.884,0l-2.5,2.5a.625.625,0,1,0,.884.884L32,25.134V30.5H11.375a.625.625,0,0,0-.625.625V35.55a4.375,4.375,0,1,0,1.25,0v-3.8H32.625a.624.624,0,0,0,.625-.625V25.134l1.433,1.433a.625.625,0,1,0,.884-.884ZM14.5,39.875a3.125,3.125,0,1,1-3.125-3.125A3.129,3.129,0,0,1,14.5,39.875Z" transform="translate(-7 -13)" fill="#57606f"/>
        <path id="Path_46580" data-name="Path 46580" d="M33.125,47.5H27.134l1.433-1.433a.625.625,0,1,0-.884-.884l-2.5,2.5a.624.624,0,0,0,0,.884l2.5,2.5a.625.625,0,1,0,.884-.884L27.134,48.75h5.991a.625.625,0,0,0,0-1.25Z" transform="translate(-13.75 -21.25)" fill="#57606f"/>
      </g>
    </g>
  </g>
</svg>
