<svg xmlns="http://www.w3.org/2000/svg" width="24.058" height="24.061" viewBox="0 0 24.058 24.061">
<g transform="translate(0.599 2.599)"><g transform="translate(-0.599 -2.599)">
<g transform="translate(0 0)"
><path d="M25.761,22.447l-1.309,2.182a2.22,2.22,0,0,1-1.31,1.016c-2.643.726-7.26.125-14.246-6.863S1.308,7.178,2.034,4.535A2.224,2.224,0,0,1,3.05,3.223L5.232,1.914a.657.657,0,0,1,.886.2l1.89,2.838L9.595,7.33a.661.661,0,0,1-.143.885L7.5,9.735a1.5,1.5,0,0,0-.4,1.93l.155.282A18.224,18.224,0,0,0,10.979,16.7a18.242,18.242,0,0,0,4.75,3.723l.282.156a1.5,1.5,0,0,0,1.93-.4l1.519-1.953a.661.661,0,0,1,.885-.143l5.217,3.48A.657.657,0,0,1,25.761,22.447Z" transform="translate(-1.798 -1.82)"/></g></g></g></svg>