<svg xmlns="http://www.w3.org/2000/svg" width="29.411" height="30.393" viewBox="0 0 29.411 30.393"><defs><style>.a{fill:#57606f;stroke:#56606f;stroke-width:0.5px;}</style></defs><g transform="translate(-0.531 -0.483)"><g transform="translate(0.781 0.733)"><path class="a" d="M2.253,1.14H18.913a5.005,5.005,0,0,1,4.992,4.992v15.8H1.727V1.14h.526ZM18.913,2.192H2.779V20.881H22.853V6.132a3.953,3.953,0,0,0-3.94-3.94Z" transform="translate(1.64 -1.14)"/><path class="a" d="M29.6,14.294H1.215V4.143H30.126V14.294ZM2.267,13.242H29.074V5.195H2.267Z" transform="translate(-1.215 15.598)"/><path class="a" d="M2.292,2.112H17.039V3.164H2.292Z" transform="translate(4.79 4.279)"/><path class="a" d="M2.292,2.675H17.039V3.726H2.292Z" transform="translate(4.79 7.414)"/><path class="a" d="M2.292,3.237H17.039V4.289H2.292Z" transform="translate(4.79 10.55)"/></g></g></svg>