<svg xmlns="http://www.w3.org/2000/svg" width="30" height="30" viewBox="0 0 30 30"><defs><style>.a{fill:#57606f;}</style></defs><g transform="translate(-1 -1)"><path class="a" d="M14,1H2A1,1,0,0,0,1,2V14a1,1,0,0,0,1,1H14a1,1,0,0,0,1-1V2A1,1,0,0,0,14,1ZM13,13H3V3H13Zm11,2a7,7,0,1,0-7-7,7,7,0,0,0,7,7ZM24,3a5,5,0,1,1-5,5A5,5,0,0,1,24,3ZM14,17H2a1,1,0,0,0-1,1V30a1,1,0,0,0,1,1H14a1,1,0,0,0,1-1V18A1,1,0,0,0,14,17ZM13,29H3V19H13ZM30,17H18a1,1,0,0,0-1,1V30a1,1,0,0,0,1,1H30a1,1,0,0,0,1-1V18A1,1,0,0,0,30,17ZM29,29H19V19H29Z"/></g></svg>