<svg xmlns="http://www.w3.org/2000/svg" width="28.152" height="28.151" viewBox="0 0 28.152 28.151">
  <g id="noun_Telephone_3364298" transform="translate(1.518 -1.06)">
    <g id="Group_67965" data-name="Group 67965" transform="translate(-1.518 1.059)">
      <path id="Path_46581" data-name="Path 46581" d="M15.134,281.126c-5.4,0-10.008,1.488-12.369,2.979a.5.5,0,1,0,.534.85c2.11-1.333,6.622-2.828,11.835-2.824a26.911,26.911,0,0,1,9.437,1.658,12.659,12.659,0,0,1,2.784,1.426,2.347,2.347,0,0,1,.849.935v2.517a.488.488,0,0,1-.5.5H23.68a.488.488,0,0,1-.5-.5v-.506H26.7a.5.5,0,1,0,0-1.005H23.18V286.15a.5.5,0,0,0-.244-.43,9.771,9.771,0,0,0-2-.806,20.213,20.213,0,0,0-5.8-.776,17.6,17.6,0,0,0-5.563.784,7.028,7.028,0,0,0-1.777.828.5.5,0,0,0-.2.4v2.517a.488.488,0,0,1-.5.5H2.569a.491.491,0,0,1-.5-.5v-.506H6.086a.5.5,0,1,0,0-1.005H2.064V286.15a.5.5,0,1,0-1.006,0v2.517a1.517,1.517,0,0,0,1.511,1.506H7.092A1.513,1.513,0,0,0,8.6,288.667v-2.205a4.313,4.313,0,0,1,1.292-.586,16.586,16.586,0,0,1,5.243-.731,19.192,19.192,0,0,1,5.511.734,6.509,6.509,0,0,1,1.529.6v2.183a1.513,1.513,0,0,0,1.506,1.506H27.7a1.513,1.513,0,0,0,1.507-1.506V286.15c0-.712-.531-1.219-1.266-1.752a13.493,13.493,0,0,0-3.013-1.547A27.842,27.842,0,0,0,15.134,281.126ZM26.2,302.817v.932a.5.5,0,1,0,1,0v-1.007a.5.5,0,0,0-.019-.144L24.155,292.52a1.628,1.628,0,0,0-1.481-1.342H18.656v-2.011h1v.5a.5.5,0,1,0,1.005,0v-1.005a.5.5,0,0,0-.5-.506H18.151a.5.5,0,0,0-.5.506v2.512h-7.04v-2.011h1.005v.5a.5.5,0,1,0,1.005,0v-1.005a.5.5,0,0,0-.5-.506H10.11a.5.5,0,0,0-.5.506v2.512H7.593c-.877,0-1.268.641-1.485,1.362L3.091,302.6a.5.5,0,0,0-.022.144v3.013a1.516,1.516,0,0,0,1.506,1.51h.5v1.507a.5.5,0,0,0,.5.5H8.6a.5.5,0,0,0,.5-.5v-1.507H21.168v1.507a.5.5,0,0,0,.5.5h3.017a.5.5,0,0,0,.5-.5v-1.507h.5a1.516,1.516,0,0,0,1.506-1.51.5.5,0,1,0-1,0,.494.494,0,0,1-.5.5H4.576a.491.491,0,0,1-.5-.5v-2.939L7.07,292.83c.112-.375.271-.646.523-.646H22.675c.289,0,.41.415.536.687Zm-11.062-9.627a6.034,6.034,0,0,0-2.5.541.5.5,0,1,0,.416.915,5.033,5.033,0,1,1-1.366.918.5.5,0,1,0-.69-.732,6.033,6.033,0,1,0,4.138-1.642Zm-.009,2.005a.5.5,0,0,0-.493.508v1.006a.5.5,0,0,0,1.005,0V295.7A.5.5,0,0,0,15.126,295.194Zm-2.486,1.031a.5.5,0,0,0-.349.865L13,297.8a.5.5,0,1,0,.708-.709L13,296.378a.5.5,0,0,0-.364-.152Zm4.973,0a.5.5,0,0,0-.346.152l-.712.713a.5.5,0,1,0,.712.709l.713-.709a.5.5,0,0,0-.367-.865Zm-4.992,3.5a.5.5,0,0,0,0-1.007H11.59a.5.5,0,1,0,.026,1.007Zm6.035,0a.5.5,0,0,0,0-1.007H17.624a.5.5,0,1,0,.026,1.007Zm-5.307.768a.5.5,0,0,0-.345.152l-.713.709a.5.5,0,1,0,.713.712l.708-.712A.5.5,0,0,0,13.349,300.494Zm1.777.731a.5.5,0,0,0-.493.512v1.005a.5.5,0,0,0,1.005,0v-1.005A.5.5,0,0,0,15.126,301.224Zm-9.04,6.042H8.1v1.006H6.086Zm16.088,0h2.011v1.006H22.174Z" transform="translate(-1.058 -281.126)" fill="#56606f"/>
    </g>
  </g>
</svg>
