<svg xmlns="http://www.w3.org/2000/svg" width="30.468" height="32.547" viewBox="0 0 30.468 32.547"><defs><style>.a{fill:#fff;}.a,.b{stroke:#57606f;stroke-linejoin:round;stroke-width:1.5px;}.b{fill:none;}</style></defs><g transform="translate(0.75 0.75)"><path class="a" d="M3778.51,844.055h-7.7V813.008h22.314v11.663" transform="translate(-3770.815 -813.008)"/><line class="b" x2="15.066" transform="translate(4.231 7.85)"/><line class="b" x2="15.066" transform="translate(4.231 12.426)"/><line class="b" x2="9.865" transform="translate(4.497 17.001)"/><path class="a" d="M3797.618,839.36l-7.869,7.533-.807,6.076,6.008-1.1,7.376-7.936Z" transform="translate(-3778.196 -822.37)"/><path class="a" d="M2,0H4.512a2,2,0,0,1,2,2V6.508a0,0,0,0,1,0,0H0a0,0,0,0,1,0,0V2A2,2,0,0,1,2,0Z" transform="matrix(0.719, 0.695, -0.695, 0.719, 23.979, 12.822)"/></g></svg>