<svg xmlns="http://www.w3.org/2000/svg" width="30.104" height="19.375" viewBox="0 0 30.104 19.375">
    <path d="M27.593 0H2.511A2.514 2.514 0 0 0 0 2.511v14.354a2.514 2.514 0 0 0 2.511 2.511h25.082a2.514 2.514 0 0 0 2.511-2.511V2.511A2.514 2.514 0 0 0 27.593 0zM2.511 1.764h25.082a.748.748 0 0 1 .747.747v2.31H1.764v-2.31a.748.748 0 0 1 .747-.747zm25.082 15.848H2.511a.748.748 0 0 1-.747-.747V6.585H28.34v10.279a.748.748 0 0 1-.747.748z" data-name="Path 27759"/>
    <path d="M3.525 15.848h7.526v-5.449H3.525zm1.764-3.685h4v1.921h-4z" data-name="Path 27760"/>
    <path d="M17.461 14.083h1.764v1.764h-1.764z" data-name="Rectangle 7696"/>
    <path d="M20.99 14.083h1.764v1.764H20.99z" data-name="Rectangle 7697"/>
    <path d="M24.518 14.083h1.764v1.764h-1.764z" data-name="Rectangle 7698"/>
</svg>
