<svg id="noun_Category_3409253" xmlns="http://www.w3.org/2000/svg" width="27.408" height="27.408" viewBox="0 0 27.408 27.408">
  <g id="Group_67576" data-name="Group 67576" transform="translate(0 0)">
    <path id="Path_46454" data-name="Path 46454" d="M12.877,1H1.914A.914.914,0,0,0,1,1.914V12.877a.914.914,0,0,0,.914.914H12.877a.914.914,0,0,0,.914-.914V1.914A.914.914,0,0,0,12.877,1Zm-.914,10.963H2.827V2.827h9.136Zm10.05,1.827a6.4,6.4,0,1,0-6.4-6.4,6.4,6.4,0,0,0,6.4,6.4Zm0-10.963A4.568,4.568,0,1,1,17.445,7.4,4.568,4.568,0,0,1,22.013,2.827Zm-9.136,12.79H1.914A.914.914,0,0,0,1,16.531V27.494a.914.914,0,0,0,.914.914H12.877a.914.914,0,0,0,.914-.914V16.531A.914.914,0,0,0,12.877,15.618Zm-.914,10.963H2.827V17.445h9.136ZM27.494,15.618H16.531a.914.914,0,0,0-.914.914V27.494a.914.914,0,0,0,.914.914H27.494a.914.914,0,0,0,.914-.914V16.531A.914.914,0,0,0,27.494,15.618Zm-.914,10.963H17.445V17.445h9.136Z" transform="translate(-1 -1)" fill="#57606f"/>
  </g>
</svg>
