<svg xmlns="http://www.w3.org/2000/svg" width="33.596" height="31.558" viewBox="0 0 33.596 31.558"><defs><style>.a{fill:#57606f;stroke:#707070;stroke-width:0.5px;}</style></defs><g transform="translate(-2.234 -5.242)"><g transform="translate(2.485 5.497)"><path class="a" d="M48.128,65.08l.94-4.666a.334.334,0,0,0-.244-.313.3.3,0,0,0-.313.209l-.94,4.7a3.551,3.551,0,0,0-3.8,3.308,3.364,3.364,0,0,0,.557,2.159,3.555,3.555,0,1,0,5.989-3.83A3.479,3.479,0,0,0,48.128,65.08Zm2.159,4.109a3.054,3.054,0,0,1-1.323,1.88,2.99,2.99,0,1,1,.94-4.109A3.231,3.231,0,0,1,50.287,69.188Z" transform="translate(-29.389 -41.086)"/><path class="a" d="M7.819,43.509a3.571,3.571,0,0,0,4.248-2.681l4.109-.07a.279.279,0,1,0,0-.557h0l-4,.07a3.551,3.551,0,0,0-3.308-3.8,3.365,3.365,0,0,0-2.159.557,3.521,3.521,0,0,0-1.079,4.91,3.479,3.479,0,0,0,2.194,1.567ZM5.625,39.4A3.01,3.01,0,0,1,8.55,37.032a4.266,4.266,0,0,1,.662.07,2.978,2.978,0,0,1,.975,5.432,2.966,2.966,0,0,1-4.144-.94A3.039,3.039,0,0,1,5.625,39.4Z" transform="translate(-4.157 -25.679)"/><path class="a" d="M23.372,10.965a2.656,2.656,0,0,0,1.463-.418l.139-.1a.181.181,0,0,0,.07.139l3.621,3.83a.256.256,0,0,0,.209.07.5.5,0,0,0,.209-.07.273.273,0,0,0,0-.383h0L25.427,10.2c-.035-.035-.07-.07-.1-.07a2.727,2.727,0,1,0-4.631-2.472,2.675,2.675,0,0,0,.383,2.054A2.647,2.647,0,0,0,23.372,10.965ZM21.213,7.727a2.009,2.009,0,0,1,.94-1.358,2.05,2.05,0,0,1,1.184-.348,1.185,1.185,0,0,1,.488.07,2.009,2.009,0,0,1,1.358.94A2.193,2.193,0,1,1,21.492,9.4h0A2.151,2.151,0,0,1,21.213,7.727Z" transform="translate(-14.314 -5.497)"/><path class="a" d="M82.219,56.454a2.7,2.7,0,0,0-2.054.383,2.4,2.4,0,0,0-.453.383l-1.776-1.567a.273.273,0,0,0-.383,0,.317.317,0,0,0,0,.418h0l1.776,1.6a2.3,2.3,0,0,0-.418.94,2.747,2.747,0,1,0,3.308-2.159Zm1.532,3.169a2.009,2.009,0,0,1-.94,1.358,2.193,2.193,0,0,1-2.368-3.691,2.327,2.327,0,0,1,1.149-.348,1.185,1.185,0,0,1,.488.07,2.213,2.213,0,0,1,1.671,2.612Z" transform="translate(-51.362 -38.137)"/><path class="a" d="M52.647,19.348c1.915,0,3.447-1.846,3.447-4.074S54.528,11.2,52.647,11.2,49.2,13.046,49.2,15.274,50.732,19.348,52.647,19.348Zm0-7.591c1.6,0,2.89,1.567,2.89,3.517s-1.288,3.517-2.89,3.517-2.89-1.567-2.89-3.517S51.046,11.757,52.647,11.757Z" transform="translate(-32.933 -9.214)"/><path class="a" d="M52.369,38.066a8.894,8.894,0,0,1-2.054-1.079.278.278,0,0,0-.383.07h0a.278.278,0,0,0,.07.383h0a10.319,10.319,0,0,0,2.229,1.149c.383.07,1.045.313,1.149.905a10.167,10.167,0,0,1,.1,2.054c-.035.1-.348.418-1.323.8a13.472,13.472,0,0,1-3.9.662,17.19,17.19,0,0,1-4-.662,2.714,2.714,0,0,1-1.323-.766,10.511,10.511,0,0,1,.1-2.089c.1-.592.766-.836,1.149-.905a11.273,11.273,0,0,0,2.229-1.149.275.275,0,0,0-.313-.453,8.894,8.894,0,0,1-2.054,1.079,1.887,1.887,0,0,0-1.567,1.358,12.705,12.705,0,0,0-.1,2.3c.1.418.7.836,1.671,1.184a17.239,17.239,0,0,0,4.213.731,14.945,14.945,0,0,0,4.109-.7c.975-.348,1.6-.8,1.671-1.184a12.706,12.706,0,0,0-.1-2.3A1.874,1.874,0,0,0,52.369,38.066Z" transform="translate(-28.476 -25.981)"/><path class="a" d="M72.226,16.048a.266.266,0,0,0,.174-.07l5.467-4.736h0a1.842,1.842,0,0,0,1.045.313h.139a1.951,1.951,0,0,0,1.114-3.413,1.832,1.832,0,0,0-1.393-.453A1.938,1.938,0,0,0,77,9.745a1.868,1.868,0,0,0,.453,1.114l-5.432,4.736a.276.276,0,0,0-.035.383h0A.294.294,0,0,0,72.226,16.048Zm6.547-7.8h.139a1.36,1.36,0,1,1-1.428,1.288A1.358,1.358,0,0,1,78.772,8.247Z" transform="translate(-47.741 -6.923)"/><path class="a" d="M16.837,57.817a.276.276,0,0,0-.383-.035L5.833,66.209l-.174-.174a1.877,1.877,0,0,0-1.393-.453,1.947,1.947,0,0,0-1.323.662,1.832,1.832,0,0,0-.453,1.393,1.907,1.907,0,0,0,1.915,1.776h.139a1.938,1.938,0,0,0,1.776-2.054,1.44,1.44,0,0,0-.174-.662L16.8,58.2A.276.276,0,0,0,16.837,57.817ZM5.45,68.4a1.385,1.385,0,0,1-.94.488,1.369,1.369,0,1,1-.348-2.716h.244a1.36,1.36,0,0,1,1.358,1.358,1.337,1.337,0,0,1-.313.871Z" transform="translate(-2.485 -39.534)"/></g></g></svg>