<svg xmlns="http://www.w3.org/2000/svg" width="40" height="40" viewBox="0 0 40 40"><defs><style>.asubprofile{fill:rgba(255,255,255,0);}.bsubprofile,.csubprofile,.esubprofile{fill:none;}.bsubprofile,.csubprofile{stroke:#67809f;stroke-width:2px;}.csubprofile{stroke-linecap:round;}.dsubprofile{stroke:none;}</style></defs><g transform="translate(-1029 -4465)"><rect class="asubprofile" width="40" height="40" transform="translate(1029 4465)"/><g transform="translate(-584 -587)"><g class="bsubprofile" transform="translate(1623.04 5059)"><path class="dsubprofile" d="M2,0h9.92a2,2,0,0,1,2,2V26.68a0,0,0,0,1,0,0H0a0,0,0,0,1,0,0V2A2,2,0,0,1,2,0Z"/><rect class="esubprofile" x="1" y="1" width="11.92" height="24.68" rx="1"/></g><g class="bsubprofile" transform="translate(1635.8 5071.76)"><path class="dsubprofile" d="M0,0H4.96a2,2,0,0,1,2,2V13.92a0,0,0,0,1,0,0H0a0,0,0,0,1,0,0V0A0,0,0,0,1,0,0Z"/><rect class="esubprofile" x="1" y="1" width="4.96" height="11.92" rx="1"/></g><line class="csubprofile" x2="23.5" transform="translate(1621 5085.1)"/><line class="bsubprofile" x2="8.12" transform="translate(1625.94 5067.7)"/><line class="bsubprofile" x2="8.12" transform="translate(1625.94 5064.22)"/><line class="bsubprofile" x2="8.12" transform="translate(1625.94 5071.18)"/><line class="bsubprofile" x2="8.12" transform="translate(1625.94 5074.66)"/><line class="bsubprofile" x2="8.12" transform="translate(1625.94 5078.14)"/><line class="bsubprofile" x2="8.12" transform="translate(1625.94 5081.62)"/></g></g></svg>