<svg xmlns="http://www.w3.org/2000/svg" width="36.5" height="33.468" viewBox="0 0 36.5 33.468">
  <g id="Contact-info" transform="translate(-3689.251 -817.498)">
    <g id="Group_49079" data-name="Group 49079" transform="translate(3689.748 817.997)">
      <circle id="Ellipse_248" data-name="Ellipse 248" cx="5.343" cy="5.343" r="5.343" transform="translate(4.3)" fill="none" stroke="#57606f" stroke-linejoin="round" stroke-width="1"/>
      <path id="Path_37659" data-name="Path 37659" d="M3695.143,828.123a10.08,10.08,0,0,0-5.1,7.725" transform="translate(-3690.042 -817.567)" fill="none" stroke="#57606f" stroke-linejoin="round" stroke-width="1"/>
      <path id="Path_37660" data-name="Path 37660" d="M3708.24,835.848a10.082,10.082,0,0,0-5.1-7.725" transform="translate(-3688.953 -817.567)" fill="none" stroke="#57606f" stroke-linejoin="round" stroke-width="1"/>
    </g>
    <line id="Line_2079" data-name="Line 2079" x2="13.729" transform="translate(3711.522 820.416)" fill="none" stroke="#57606f" stroke-linejoin="round" stroke-width="1"/>
    <line id="Line_2080" data-name="Line 2080" x2="13.729" transform="translate(3711.522 825.538)" fill="none" stroke="#57606f" stroke-linejoin="round" stroke-width="1"/>
    <line id="Line_2081" data-name="Line 2081" x2="13.729" transform="translate(3711.522 830.659)" fill="none" stroke="#57606f" stroke-linejoin="round" stroke-width="1"/>
    <line id="Line_2082" data-name="Line 2082" x2="13.729" transform="translate(3711.522 835.781)" fill="none" stroke="#57606f" stroke-linejoin="round" stroke-width="1"/>
    <rect id="Rectangle_9829" data-name="Rectangle 9829" width="34.998" height="6.963" rx="3.481" transform="translate(3690.253 843.502)" fill="none" stroke="#57606f" stroke-linejoin="round" stroke-width="1"/>
    <path id="Path_37728" data-name="Path 37728" d="M3.481,0H6.517a3.481,3.481,0,0,1,0,6.963H3.481A3.481,3.481,0,0,1,3.481,0Z" transform="translate(3690.253 843.502)" fill="#cecece" stroke="#57606f" stroke-width="1"/>
  </g>
</svg>
