
<svg xmlns="http://www.w3.org/2000/svg" width="48" height="48" viewBox="0 0 48 48"><defs><style>.cusIA{fill:#fff;opacity:0;}.cusIB{fill:none;}.cusIC,.cusID{fill:#67809f;}.cusID{stroke:#fff;}</style></defs><g transform="translate(4 9.001)"><rect class="cusIA" width="48" height="48" transform="translate(-4 -9.001)"/><g transform="translate(6 -0.001)"><path class="cusIB" d="M70.232,69.6a.488.488,0,0,0-.38.152.645.645,0,0,0-.152.494v3.042a.7.7,0,0,0,.152.494.551.551,0,0,0,.761,0,.645.645,0,0,0,.152-.494v-3.08a.606.606,0,0,0-.152-.456A.676.676,0,0,0,70.232,69.6Z" transform="translate(-50.059 -48.665)"/><path class="cusIB" d="M70.232,65.6a.52.52,0,0,0-.532.532.441.441,0,0,0,.152.38.676.676,0,0,0,.38.152.488.488,0,0,0,.38-.152.551.551,0,0,0,0-.761A.676.676,0,0,0,70.232,65.6Z" transform="translate(-50.059 -45.918)"/><path class="cusIC" d="M25.2,19.957a1.6,1.6,0,0,0,.19.646,1.636,1.636,0,0,0,1.1.837,8.973,8.973,0,0,0,.456,1.445,6.217,6.217,0,0,0,1.939,2.662,3.94,3.94,0,0,0,2.7.989,5.58,5.58,0,0,0,2.472-.608A5.224,5.224,0,0,0,35.354,24.9a7.019,7.019,0,0,0,1.673-3.423,1.462,1.462,0,0,0,.646-.228,1.833,1.833,0,0,0,.8-1.331,2.606,2.606,0,0,0-.152-.8,1.37,1.37,0,0,0-.38-.57,1.323,1.323,0,0,0-.57-.266h.038l.3-2.015c.228-3.118-1.939-3.917-1.939-3.917a2.389,2.389,0,0,0-.951-1.673c-1.749-1.027-5.4.342-5.4.342a4.624,4.624,0,0,0-3.461,2.624,7.307,7.307,0,0,0,.076,4.754,1.247,1.247,0,0,0-.3.228A1.971,1.971,0,0,0,25.2,19.957Z" transform="translate(-21.131 -10.296)"/><path class="cusIC" d="M33.21,56.663a15.474,15.474,0,0,0-1.407-.8c-.038,0-.038-.038-.076-.038-.114-.038-.228-.114-.342-.152A13.391,13.391,0,0,0,28.3,54.8a5.786,5.786,0,0,1-.8.57,5.58,5.58,0,0,1-2.472.608,3.94,3.94,0,0,1-2.7-.989l-.114-.114a24.062,24.062,0,0,0-2.89.723v-.038a4.174,4.174,0,0,0-.646.266,7.558,7.558,0,0,0-4.183,4.6v4.107s6.921,4.487,17.227,1.635a6.067,6.067,0,0,1,1.483-9.507Z" transform="translate(-14.5 -39.859)"/><path class="cusID" d="M65.372,59.7a7.872,7.872,0,1,0,7.872,7.872A7.895,7.895,0,0,0,65.372,59.7Zm.562,11.021a.954.954,0,0,1-.225.731.815.815,0,0,1-1.125,0,.954.954,0,0,1-.225-.731v-3.5a.954.954,0,0,1,.225-.731.815.815,0,0,1,1.125,0,.9.9,0,0,1,.225.675Zm-.225-6.41a1,1,0,0,1-.562.225.722.722,0,0,1-.562-.225.652.652,0,0,1-.225-.562.769.769,0,0,1,.787-.787.95.95,0,0,1,.562.169.652.652,0,0,1,.225.562C65.934,64.029,65.878,64.2,65.709,64.311Z" transform="translate(-45.528 -45.444)"/></g></g></svg>