
<svg xmlns="http://www.w3.org/2000/svg" width="48" height="48" viewBox="0 0 48 48"><defs><style>.refA{fill:#fff;opacity:0;}.refB{fill:#67809f;}</style></defs><g transform="translate(-152 -1160)"><rect class="refA" width="48" height="48" transform="translate(152 1160)"/><g transform="translate(163 1169)"><path class="refB" d="M9.746,55.537V53.756a5.52,5.52,0,0,1,.225.536,8.253,8.253,0,0,1,.285,1.008,6.775,6.775,0,0,1,1.967-.483A7.806,7.806,0,0,0,11.2,52.231a3.574,3.574,0,0,0-1.351-1.259A2.413,2.413,0,0,0,8.826,50.7l-.057,0H3.882l-.057,0a2.414,2.414,0,0,0-1.028.269A4.269,4.269,0,0,0,.87,53.355,16.739,16.739,0,0,0,0,59.432c0,.741.024,1.547.075,2.423a1.012,1.012,0,0,0,1.009.953l.06,0A1.012,1.012,0,0,0,2.1,61.737c-.049-.841-.072-1.607-.072-2.305A13.442,13.442,0,0,1,2.9,53.751V72.723a1.564,1.564,0,0,0,3.128,0v-10.7c-.008-.133-.013-.267-.013-.4A6.836,6.836,0,0,1,9.746,55.537Z" transform="translate(0 -44.287)"/><path class="refB" d="M52.325,159.092v8.314a1.564,1.564,0,0,0,3.128,0v-5.024A6.873,6.873,0,0,1,52.325,159.092Z" transform="translate(-45.707 -138.969)"/><ellipse class="refB" cx="2.846" cy="2.846" rx="2.846" ry="2.846" transform="translate(3.479)"/><path class="refB" d="M115.48,50.972a2.415,2.415,0,0,0-1.028-.269l-.057,0h-4.887l-.057,0a2.414,2.414,0,0,0-1.028.269,4.27,4.27,0,0,0-1.927,2.383,9.94,9.94,0,0,0-.441,1.458,6.778,6.778,0,0,1,1.97.465,6.994,6.994,0,0,1,.505-1.527V55.5a6.826,6.826,0,0,1,3.714,7.127V72.723a1.564,1.564,0,0,0,3.128,0V53.756a5.511,5.511,0,0,1,.225.536,15.642,15.642,0,0,1,.655,5.14c0,.7-.022,1.464-.071,2.305a1.012,1.012,0,0,0,.951,1.069l.06,0a1.012,1.012,0,0,0,1.009-.953c.051-.877.075-1.683.075-2.423-.005-3.818-.615-5.931-1.446-7.2A3.574,3.574,0,0,0,115.48,50.972Z" transform="translate(-92.641 -44.287)"/><path class="refB" d="M125.628,163.371v4.992a1.564,1.564,0,0,0,3.128,0v-8.175A6.874,6.874,0,0,1,125.628,163.371Z" transform="translate(-109.738 -139.927)"/><ellipse class="refB" cx="2.846" cy="2.846" rx="2.846" ry="2.846" transform="translate(16.465)"/><path class="refB" d="M57.913,87.02a6.324,6.324,0,1,0,6.324,6.324A6.324,6.324,0,0,0,57.913,87.02Zm0,11.131a4.806,4.806,0,1,1,4.807-4.806A4.812,4.812,0,0,1,57.913,98.151Z" transform="translate(-45.064 -76.013)"/><path class="refB" d="M80.7,115.02v2.024H77.794v1.518H80.7v2.024l3.048-2.783Z" transform="translate(-67.954 -100.472)"/></g></g></svg>