
<svg xmlns="http://www.w3.org/2000/svg" width="48" height="48" viewBox="0 0 48 48"><defs><style>.infoA{fill:#fff;opacity:0;}.infoB{fill:#67809f;fill-rule:evenodd;}</style></defs><g transform="translate(-156 -536)"><rect class="infoA" width="48" height="48" transform="translate(156 536)"/><g transform="translate(152.451 527.999)"><g transform="translate(13.549 18)"><path class="infoB" d="M38.931,43.859a18.777,18.777,0,0,1-7.643-1.672l-.922.923A21.341,21.341,0,0,0,37.384,44.7a.43.43,0,0,1-.027.859H37.33a22.492,22.492,0,0,1-7.718-1.82,1.681,1.681,0,0,1-1.372.072,13.719,13.719,0,0,1-8.079-8.082,1.687,1.687,0,0,1,.019-1.266,22.517,22.517,0,0,1-1.817-7.615.43.43,0,0,1,.856-.077,21.838,21.838,0,0,0,1.565,6.905l1.06-1.061a18.786,18.786,0,0,1-1.57-7.37l-.111-.065a4.076,4.076,0,0,0-3.9-.182,4.42,4.42,0,0,0-2.377,3.251c-1.168,6.1.727,11.618,5.264,16.154a18.507,18.507,0,0,0,12.866,5.727c2.239.017,6.044-.485,7.1-2.777a3.639,3.639,0,0,0-.092-3.322Z" transform="translate(-13.549 -21.756)"/><path class="infoB" d="M53.485,29.983A12.057,12.057,0,0,0,41.456,18l-.01,0-.008,0-.062,0a12.1,12.1,0,0,0-8.516,3.464l0,0h0a.373.373,0,0,0-.04.061.423.423,0,0,0-.052.08.412.412,0,0,0-.015.076.419.419,0,0,0-.016.085.425.425,0,0,0,.014.076.223.223,0,0,0,.061.153.442.442,0,0,0,.047.073l0,0,0,0,3.126,3.108a.43.43,0,0,0,.606-.61l-2.809-2.793a11.229,11.229,0,0,1,7.235-2.912V22.3a.43.43,0,1,0,.86,0V18.872a11.269,11.269,0,0,1,7.155,2.97l-2.3,2.3a.43.43,0,1,0,.609.608l2.3-2.3a11.02,11.02,0,0,1,2.951,6.73H49.615a.43.43,0,1,0,0,.86h3.007A11.041,11.041,0,0,1,50.2,36.859L48.2,34.891a.43.43,0,1,0-.6.614l2.349,2.3s.009.005.012.009,0,.007.008.01a.445.445,0,0,0,.078.046.387.387,0,0,0,.05.029.423.423,0,0,0,.15.028h.006a.422.422,0,0,0,.166-.035.507.507,0,0,0,.051-.034.4.4,0,0,0,.086-.059s0-.009.008-.012.008,0,.01-.008A11.917,11.917,0,0,0,53.485,29.983Z" transform="translate(-24.485 -18)"/><path class="infoB" d="M51.86,33a.43.43,0,0,0-.43.43v3.989a.857.857,0,1,0,1.17,1.17h3.17a.43.43,0,1,0,0-.86H52.6a.859.859,0,0,0-.31-.31V33.43A.43.43,0,0,0,51.86,33Z" transform="translate(-34.898 -26.551)"/></g></g></g></svg>