<svg xmlns="http://www.w3.org/2000/svg" width="19" height="19" viewBox="0 0 19 19">
    <path d="M9.5 19a9.182 9.182 0 0 1-6.719-2.788A9.2 9.2 0 0 1 0 9.5a9.2 9.2 0 0 1 2.781-6.713A9.185 9.185 0 0 1 9.5 0a9.185 9.185 0 0 1 6.719 2.787A9.2 9.2 0 0 1 19 9.5a9.2 9.2 0 0 1-2.781 6.712A9.182 9.182 0 0 1 9.5 19zm0-8.653a9.225 9.225 0 0 0-2.315.333 7.809 7.809 0 0 0-2.313 1.026 2.076 2.076 0 0 0-1.09 1.584A6.807 6.807 0 0 0 9.5 16.368a6.626 6.626 0 0 0 3.248-.824 6.821 6.821 0 0 0 2.426-2.252 1.947 1.947 0 0 0-1.047-1.584 7.789 7.789 0 0 0-2.313-1.026 9.207 9.207 0 0 0-2.314-.334zm0-7.493a2.809 2.809 0 0 0-2.025.826 2.71 2.71 0 0 0-.845 2.007 2.783 2.783 0 0 0 .845 2.029 2.772 2.772 0 0 0 2.025.847 2.7 2.7 0 0 0 2-.848 2.821 2.821 0 0 0 .823-2.029A2.746 2.746 0 0 0 11.5 3.68a2.73 2.73 0 0 0-2-.826z"/>
</svg>
