<svg xmlns="http://www.w3.org/2000/svg" width="22" height="28" viewBox="0 0 22 28">
    <defs>
              
        </style>
    </defs>
    <g id="Damaged_Voucher" transform="translate(-227.768 -220.073)">
        <g id="Group_46828" data-name="Group 46828" transform="translate(227.768 220.073)">
            <g id="Group_46825" data-name="Group 46825">
                <g id="Group_46824" data-name="Group 46824">
                    <path id="Path_36856" d="M120.185 57.692l-3.564-2.292-3.529 2.285a.74.74 0 0 1-.791 0l-3.522-2.278-3.564 2.293a.726.726 0 0 1-.791-.007l-2.724-1.807V83.4h22V55.886l-2.723 1.806a.726.726 0 0 1-.792 0zm-1.711 22.2h-11.548a.695.695 0 1 1 0-1.389h11.549a.695.695 0 1 1 0 1.389zm-5.774-3.126a8.13 8.13 0 1 1 8.341-8.127 8.247 8.247 0 0 1-8.341 8.127z"  data-name="Path 36856" transform="translate(-101.7 -55.4)"/>
                </g>
            </g>
            <g id="Group_46827" data-name="Group 46827" transform="translate(3.78 6.07)">
                <g id="Group_46826" data-name="Group 46826">
                    <path id="Path_36857" d="M166.22 149a7.22 7.22 0 1 0 7.22 7.22 7.227 7.227 0 0 0-7.22-7.22zm2.24 5.6a.744.744 0 0 1 0 1.489h-4.287v.134c0 .1.007.186.015.275h3.841a.744.744 0 0 1 0 1.489h-3.379a3.393 3.393 0 0 0 .551.715 3.522 3.522 0 0 0 3.751.8.742.742 0 0 1 .536 1.384 5 5 0 0 1-5.337-1.131 5.076 5.076 0 0 1-1.151-1.778h-.819a.744.744 0 0 1 0-1.489h.506c-.007-.089-.007-.186-.007-.275v-.134h-.5a.744.744 0 1 1 0-1.489h.759a4.925 4.925 0 0 1 1.2-1.913 5.011 5.011 0 0 1 5.337-1.131.742.742 0 1 1-.536 1.384 3.518 3.518 0 0 0-4.384 1.66l3.9.007z"  data-name="Path 36857" transform="translate(-159 -149)"/>
                </g>
            </g>
        </g>
    </g>
</svg>
