<svg xmlns="http://www.w3.org/2000/svg" xmlns:xlink="http://www.w3.org/1999/xlink" width="55.72" height="63.84" viewBox="0 0 55.72 63.84"><defs><style>.a,.b,.c{fill:none;}.b,.c{stroke:#fff;}.b{stroke-linecap:round;stroke-linejoin:round;}.c{stroke-miterlimit:10;}.d,.f{fill:#fff;}.e{clip-path:url(#a);}.f{opacity:0.31;}.g{opacity:0.24;}.h{clip-path:url(#b);}</style><clipPath id="a"><rect class="a" width="44.581" height="36.653" transform="translate(455.183 969.054)"/></clipPath><clipPath id="b"><rect class="a" width="36.497" height="24.132" rx="4.677" transform="translate(457.193 1010.072) rotate(-61.672)"/></clipPath></defs><g transform="translate(-444.044 -969.054)"><path class="b" d="M490.087,1032.394h-41.4a4.137,4.137,0,0,1-4.138-4.138v-22h49.681v22A4.138,4.138,0,0,1,490.087,1032.394Z"/><path class="b" d="M463.031,1000.546H448.682a4.138,4.138,0,0,0-4.138,4.139v2h49.681v-2a4.138,4.138,0,0,0-3.715-4.117"/><path class="c" d="M494.606,1013.928h-10c-2.017,0-3.667,2.105-3.667,4.677v2.12c0,2.572,1.65,4.677,3.667,4.677h10"/><circle class="d" cx="2.339" cy="2.339" r="2.339" transform="translate(485.242 1017.539)"/><g class="e"><rect class="b" width="36.497" height="24.132" rx="4.677" transform="translate(457.601 1010.619) rotate(-61.672)"/><circle class="c" cx="2.26" cy="2.26" r="2.26" transform="translate(478.872 988.946)"/><circle class="c" cx="4.787" cy="4.787" r="4.787" transform="translate(471.109 996.134)"/><line class="c" y1="3.432" x2="11.459" transform="translate(470.912 982.496)"/><rect class="f" width="36.497" height="24.132" rx="4.677" transform="translate(457.193 1010.072) rotate(-61.672)"/><g class="g"><g class="h"><line class="c" y1="0.539" transform="translate(461.181 1017.276)"/><line class="c" x1="38.62" y2="38.62" transform="translate(439.546 965.172)"/><line class="c" x1="38.62" y2="38.62" transform="translate(441.959 967.586)"/><line class="c" x1="38.62" y2="38.62" transform="translate(444.373 970)"/><line class="c" x1="38.62" y2="38.62" transform="translate(446.787 972.413)"/><line class="c" x1="38.62" y2="38.62" transform="translate(449.201 974.827)"/><line class="c" x1="38.62" y2="38.62" transform="translate(451.614 977.241)"/><line class="c" x1="38.62" y2="38.62" transform="translate(454.028 979.654)"/><line class="c" x1="38.62" y2="38.62" transform="translate(456.442 982.068)"/><line class="c" x1="38.62" y2="38.62" transform="translate(458.855 984.482)"/><line class="c" x1="38.62" y2="38.62" transform="translate(461.269 986.896)"/><line class="c" x1="38.62" y2="38.62" transform="translate(463.683 989.309)"/><line class="c" x1="38.62" y2="38.62" transform="translate(466.097 991.723)"/><line class="c" x1="38.62" y2="38.62" transform="translate(468.51 994.137)"/><line class="c" x1="38.62" y2="38.62" transform="translate(470.924 996.551)"/></g></g></g></g></svg>