<svg
  xmlns="http://www.w3.org/2000/svg"
  width="18.767"
  height="16.422"
  viewBox="0 0 18.767 16.422"
>
  <path
    id="Exoort_Icon"
    d="M1.173,16.421A1.172,1.172,0,0,1,0,15.249V2.346A1.173,1.173,0,0,1,1.173,1.174H5.864V3.519H2.345V14.076H12.9V9.42h2.345v5.828a1.171,1.171,0,0,1-1.173,1.173ZM5.144,9.368A.588.588,0,0,1,4.692,8.8a6.458,6.458,0,0,1,6.451-6.45H12.9V.587a.587.587,0,0,1,.938-.47l4.692,3.519a.586.586,0,0,1,0,.939L13.84,8.094a.586.586,0,0,1-.938-.47V5.864h-2.24a5.25,5.25,0,0,0-4.721,2.92L5.8,9.059a.585.585,0,0,1-.524.324A.57.57,0,0,1,5.144,9.368Z"
    fill="#999"
  />
</svg>
