<svg xmlns="http://www.w3.org/2000/svg" xmlns:xlink="http://www.w3.org/1999/xlink" width="24" height="24" viewBox="0 0 24 24"><defs><style>.a{fill:#67809f;}.b{fill:rgba(255,255,255,0);}.c{clip-path:url(#a);}.d{clip-path:url(#b);}.e{clip-path:url(#c);}.f{clip-path:url(#e);}.g{clip-path:url(#g);}.h{clip-path:url(#i);}.i{clip-path:url(#k);}.j{clip-path:url(#m);}.k{clip-path:url(#o);}.l{clip-path:url(#q);}.m{clip-path:url(#s);}.n{clip-path:url(#u);}</style><clipPath id="a"><path class="a" d="M13802.266-727.342a2.115,2.115,0,0,0-1.48-1.16l-3.254-.7a19.278,19.278,0,0,0-8.219,0l-3.355.717a2.069,2.069,0,0,0-1.4,1.034l-.535.928a2.028,2.028,0,0,0-.02,2.025l.777,1.414a.627.627,0,0,0,.795.274l3.227-1.266a.566.566,0,0,0,.387-.591l-.018-2.342a19.238,19.238,0,0,1,8.494.106h.02l.018,2.215a.613.613,0,0,0,.436.57l3.143,1.1a.638.638,0,0,0,.775-.316l.631-1.35a2.079,2.079,0,0,0,0-1.751Z" transform="translate(-13783.736 729.642)"/></clipPath><clipPath id="b"><path class="a" d="M12519-515.493h1331.118V-1524H12519Z" transform="translate(-12519 1524)"/></clipPath><clipPath id="c"><path class="a" d="M13791.2-720.473a.87.87,0,0,0,.869-.861.87.87,0,0,0-.869-.861.871.871,0,0,0-.877.861A.871.871,0,0,0,13791.2-720.473Z" transform="translate(-13790.32 722.194)"/></clipPath><clipPath id="e"><path class="a" d="M13794.019-720.473a.864.864,0,0,0,.869-.861.864.864,0,0,0-.869-.861.864.864,0,0,0-.868.861A.864.864,0,0,0,13794.019-720.473Z" transform="translate(-13793.15 722.194)"/></clipPath><clipPath id="g"><path class="a" d="M13796.84-720.473a.864.864,0,0,0,.868-.861.864.864,0,0,0-.868-.861.865.865,0,0,0-.87.861A.865.865,0,0,0,13796.84-720.473Z" transform="translate(-13795.97 722.194)"/></clipPath><clipPath id="i"><path class="a" d="M13791.2-717.68a.87.87,0,0,0,.869-.861.87.87,0,0,0-.869-.861.871.871,0,0,0-.877.861A.871.871,0,0,0,13791.2-717.68Z" transform="translate(-13790.32 719.401)"/></clipPath><clipPath id="k"><path class="a" d="M13794.019-717.68a.864.864,0,0,0,.869-.861.864.864,0,0,0-.869-.861.864.864,0,0,0-.868.861A.864.864,0,0,0,13794.019-717.68Z" transform="translate(-13793.15 719.401)"/></clipPath><clipPath id="m"><path class="a" d="M13796.84-717.68a.864.864,0,0,0,.868-.861.864.864,0,0,0-.868-.861.865.865,0,0,0-.87.861A.865.865,0,0,0,13796.84-717.68Z" transform="translate(-13795.97 719.401)"/></clipPath><clipPath id="o"><path class="a" d="M13791.2-715.818a.87.87,0,0,0,.869-.861.87.87,0,0,0-.869-.861.871.871,0,0,0-.877.861A.871.871,0,0,0,13791.2-715.818Z" transform="translate(-13790.32 717.539)"/></clipPath><clipPath id="q"><path class="a" d="M13794.019-715.818a.864.864,0,0,0,.869-.861.864.864,0,0,0-.869-.861.864.864,0,0,0-.868.861A.864.864,0,0,0,13794.019-715.818Z" transform="translate(-13793.15 717.539)"/></clipPath><clipPath id="s"><path class="a" d="M13796.84-715.818a.864.864,0,0,0,.868-.861.864.864,0,0,0-.868-.861.865.865,0,0,0-.87.861A.865.865,0,0,0,13796.84-715.818Z" transform="translate(-13795.97 717.539)"/></clipPath><clipPath id="u"><path class="a" d="M13794.019-713.025a.864.864,0,0,0,.869-.861.864.864,0,0,0-.869-.861.864.864,0,0,0-.868.861A.864.864,0,0,0,13794.019-713.025Z" transform="translate(-13793.15 714.746)"/></clipPath></defs><g transform="translate(-481 -3530)"><rect class="b" width="24" height="24" transform="translate(481 3530)"/><g transform="translate(483 3534)"><g class="c"><g class="d" transform="translate(-1169.108 -734.295)"><path class="a" d="M13778.74-718.513h28.377v-16.129h-28.377Z" transform="translate(-12614.251 1464.315)"/></g></g><g class="e" transform="translate(6.085 6.885)"><g class="d" transform="translate(-1175.193 -741.18)"><path class="a" d="M13785.32-716.229h10.982v-10.965h-10.982Z" transform="translate(-12614.749 1463.752)"/></g></g><g class="f" transform="translate(8.701 6.885)"><g class="d" transform="translate(-1177.809 -741.18)"><path class="a" d="M13788.15-716.229h10.982v-10.965h-10.982Z" transform="translate(-12614.963 1463.752)"/></g></g><g class="g" transform="translate(11.308 6.885)"><g class="d" transform="translate(-1180.416 -741.18)"><path class="a" d="M13790.969-716.229h10.984v-10.965h-10.984Z" transform="translate(-12615.175 1463.752)"/></g></g><g class="h" transform="translate(6.085 9.467)"><g class="d" transform="translate(-1175.193 -743.762)"><path class="a" d="M13785.32-713.436h10.982V-724.4h-10.982Z" transform="translate(-12614.749 1463.541)"/></g></g><g class="i" transform="translate(8.701 9.467)"><g class="d" transform="translate(-1177.809 -743.762)"><path class="a" d="M13788.15-713.436h10.982V-724.4h-10.982Z" transform="translate(-12614.963 1463.541)"/></g></g><g class="j" transform="translate(11.308 9.467)"><g class="d" transform="translate(-1180.416 -743.762)"><path class="a" d="M13790.969-713.436h10.984V-724.4h-10.984Z" transform="translate(-12615.175 1463.541)"/></g></g><g class="k" transform="translate(6.085 11.188)"><g class="d" transform="translate(-1175.193 -745.483)"><path class="a" d="M13785.32-711.574h10.982v-10.965h-10.982Z" transform="translate(-12614.749 1463.4)"/></g></g><g class="l" transform="translate(8.701 11.188)"><g class="d" transform="translate(-1177.809 -745.483)"><path class="a" d="M13788.15-711.574h10.982v-10.965h-10.982Z" transform="translate(-12614.963 1463.4)"/></g></g><g class="m" transform="translate(11.308 11.188)"><g class="d" transform="translate(-1180.416 -745.483)"><path class="a" d="M13790.969-711.574h10.984v-10.965h-10.984Z" transform="translate(-12615.175 1463.4)"/></g></g><g class="n" transform="translate(8.701 13.769)"><g class="d" transform="translate(-1177.809 -748.065)"><path class="a" d="M13788.15-708.781h10.982v-10.965h-10.982Z" transform="translate(-12614.963 1463.189)"/></g></g></g></g></svg>