<svg
  xmlns="http://www.w3.org/2000/svg"
  width="29.001"
  height="29.263"
  viewBox="0 0 29.001 29.263"
><defs><style
    >.freqA{fill:none;stroke:currentColor;stroke-linecap:round;stroke-linejoin:round;}</style></defs><g
    transform="translate(-2.667 -0.793)"
  ><path
      class="freqA"
      d="M28.5,1.5l6,6-6,6"
      transform="translate(-3.332)"
    /><path class="freqA" d="M22.5,7.5h12" transform="translate(-3.332)" /><path
      class="freqA"
      d="M29.668,22.88v4a2.665,2.665,0,0,1-2.9,2.665,26.369,26.369,0,0,1-11.5-4.091,25.983,25.983,0,0,1-7.995-7.995A26.37,26.37,0,0,1,3.179,5.9,2.665,2.665,0,0,1,5.83,3h4a2.665,2.665,0,0,1,2.665,2.292,17.109,17.109,0,0,0,.933,3.744,2.665,2.665,0,0,1-.6,2.812L11.133,13.54a21.319,21.319,0,0,0,7.995,7.995l1.692-1.692a2.665,2.665,0,0,1,2.811-.6,17.109,17.109,0,0,0,3.744.933A2.665,2.665,0,0,1,29.668,22.88Z"
    /></g></svg>
