<svg xmlns="http://www.w3.org/2000/svg" width="35.875" height="37" viewBox="0 0 35.875 37">
  <g id="Group_62413" data-name="Group 62413" transform="translate(-5352.668 -1708.255)">
    <path id="Path_37780" data-name="Path 37780" d="M5376.245,1736.085v2.538a6.174,6.174,0,0,1-6.2,6.132h-10.671a6.175,6.175,0,0,1-6.2-6.132v-23.737a6.175,6.175,0,0,1,6.2-6.131h10.671a6.174,6.174,0,0,1,6.2,6.131" transform="translate(0 0)" fill="none" stroke="#57606f" stroke-linecap="round" stroke-linejoin="round" stroke-width="1"/>
    <rect id="Rectangle_10337" data-name="Rectangle 10337" width="3" height="2" rx="1" transform="translate(5363.168 1739.755)" fill="none" stroke="#57606f" stroke-width="1"/>
    <rect id="Rectangle_10338" data-name="Rectangle 10338" width="15.708" height="31.199" transform="translate(5356.844 1733.39) rotate(-90)" fill="none" stroke="#57606f" stroke-width="1"/>
    <circle id="Ellipse_339" data-name="Ellipse 339" cx="2.706" cy="2.706" r="2.706" transform="translate(5369.798 1722.856)" fill="#d1d1d6" stroke="#57606f" stroke-width="1"/>
    <circle id="Ellipse_340" data-name="Ellipse 340" cx="1.222" cy="1.222" r="1.222" transform="translate(5379.13 1724.34)" fill="none" stroke="#57606f" stroke-width="1"/>
    <circle id="Ellipse_341" data-name="Ellipse 341" cx="1.222" cy="1.222" r="1.222" transform="translate(5363.433 1724.34)" fill="none" stroke="#57606f" stroke-width="1"/>
    <path id="Path_37781" data-name="Path 37781" d="M5388.346,1722.878v7.043a4.207,4.207,0,0,0-4.209,4.209h-22.772a4.207,4.207,0,0,0-4.209-4.209V1723.4a4.215,4.215,0,0,0,4.209-4.218,4.1,4.1,0,0,0-.065-.757h22.939a1.826,1.826,0,0,0-.01.231A4.215,4.215,0,0,0,5388.346,1722.878Z" transform="translate(-0.307 -0.744)" fill="none" stroke="#57606f" stroke-width="1"/>
  </g>
</svg>
