<svg xmlns="http://www.w3.org/2000/svg" id="gsmSim" width="16.127" height="31.452" viewBox="0 0 23.127 31.452" marginTop="8">
    <defs>
        <style>
            .cls-1{fill:#4a494a;fill-rule:evenodd}
        </style>
    </defs>
    <path id="Path_37535" d="M424 58.777A2.775 2.775 0 0 1 426.775 56h11.1a3.462 3.462 0 0 1 2.232.928l6.087 6.087a3.478 3.478 0 0 1 .928 2.237v19.42a2.777 2.777 0 0 1-2.776 2.78h-17.57A2.777 2.777 0 0 1 424 84.675zm1.85 0v25.9a.927.927 0 0 0 .926.927h17.575a.927.927 0 0 0 .926-.93V65.251a1.687 1.687 0 0 0-.386-.928l-6.091-6.087a1.666 1.666 0 0 0-.924-.386h-11.1a.925.925 0 0 0-.926.927zM427.7 70.8a2.774 2.774 0 0 1 2.775-2.775h10.176a2.774 2.774 0 0 1 2.775 2.775v10.177a2.774 2.774 0 0 1-2.775 2.775h-10.176a2.774 2.774 0 0 1-2.775-2.775zm6.475 6.476h3.7a.925.925 0 0 1 .925.925v3.7h1.85a.924.924 0 0 0 .925-.925V74.5h-7.4zm2.775-4.625v-2.775h-2.775v2.775zm0 9.251v-2.775h-2.775V81.9zm-4.625-4.625V74.5h-2.775v2.775zm6.475-4.625h2.775V70.8a.924.924 0 0 0-.925-.925h-1.85zm-6.475 0v-2.776h-1.85a.924.924 0 0 0-.925.925v1.85zm0 6.475h-2.775v1.85a.924.924 0 0 0 .925.925h1.85z" class="cls-1" data-name="Path 37535" transform="translate(-424 -56)"/>
</svg>
