<svg xmlns="http://www.w3.org/2000/svg" width="48" height="48" viewBox="0 0 48 48"><defs><style>.a,.b,.c{fill:none;}.b,.c{stroke:#fdaf00;stroke-linecap:round;stroke-miterlimit:10;stroke-width:2px;}.c{stroke-linejoin:round;}.d{fill:#fff;opacity:0;}.e,.f{stroke:none;}.f{fill:#fdaf00;}</style></defs><g transform="translate(-602 -4563)"><g transform="translate(612 4573)"><g class="a"><path class="e" d="M14.5,0A14.5,14.5,0,1,1,0,14.5,14.5,14.5,0,0,1,14.5,0Z"/><path class="f" d="M 14.50000190734863 2.000001907348633 C 11.1611328125 2.000001907348633 8.022102355957031 3.30023193359375 5.661161422729492 5.661161422729492 C 3.30023193359375 8.022102355957031 2.000001907348633 11.1611328125 2.000001907348633 14.50000190734863 C 2.000001907348633 17.83887100219727 3.30023193359375 20.97790145874023 5.661161422729492 23.33884239196777 C 8.022102355957031 25.69977188110352 11.1611328125 27.00000190734863 14.50000190734863 27.00000190734863 C 17.83887100219727 27.00000190734863 20.97790145874023 25.69977188110352 23.33884239196777 23.33884239196777 C 25.69977188110352 20.97790145874023 27.00000190734863 17.83887100219727 27.00000190734863 14.50000190734863 C 27.00000190734863 11.1611328125 25.69977188110352 8.022102355957031 23.33884239196777 5.661161422729492 C 20.97790145874023 3.30023193359375 17.83887100219727 2.000001907348633 14.50000190734863 2.000001907348633 M 14.50000190734863 1.9073486328125e-06 C 22.50813293457031 1.9073486328125e-06 29.00000190734863 6.491872787475586 29.00000190734863 14.50000190734863 C 29.00000190734863 22.50813293457031 22.50813293457031 29.00000190734863 14.50000190734863 29.00000190734863 C 6.491872787475586 29.00000190734863 1.9073486328125e-06 22.50813293457031 1.9073486328125e-06 14.50000190734863 C 1.9073486328125e-06 6.491872787475586 6.491872787475586 1.9073486328125e-06 14.50000190734863 1.9073486328125e-06 Z"/></g><path class="b" d="M39,21.361a2.361,2.361,0,1,1,4.723,0" transform="translate(-21.004 -12.056)"/><path class="b" d="M14.3,21.361a2.361,2.361,0,1,1,4.723,0" transform="translate(-7.969 -12.056)"/><path class="c" d="M17,37a5.623,5.623,0,0,0,5.8,5.416A5.623,5.623,0,0,0,28.605,37Z" transform="translate(-8.113 -20.359)"/></g><rect class="d" width="48" height="48" transform="translate(602 4563)"/></g></svg>