<svg version="1.0" xmlns="http://www.w3.org/2000/svg"
 width="50.000000pt" height="50.000000pt" viewBox="0 0 50.000000 50.000000"
 preserveAspectRatio="xMidYMid meet">

<g transform="translate(0.000000,50.000000) scale(0.100000,-0.100000)"
fill="currentColor" stroke="none">
<path d="M192 418 c-16 -16 -16 -70 0 -86 7 -7 20 -12 30 -12 11 0 18 -7 18
-20 0 -18 -7 -20 -73 -20 -84 0 -107 -14 -107 -68 0 -24 -4 -32 -18 -32 -27 0
-42 -20 -42 -55 0 -42 16 -55 70 -55 54 0 70 13 70 55 0 35 -15 55 -43 55 -15
0 -18 6 -15 38 l3 37 78 3 77 3 0 -41 c0 -32 -4 -40 -18 -40 -27 0 -42 -20
-42 -55 0 -42 16 -55 70 -55 54 0 70 13 70 55 0 35 -15 55 -42 55 -14 0 -18 8
-18 40 l0 41 78 -3 77 -3 3 -37 c3 -32 0 -38 -15 -38 -28 0 -43 -20 -43 -55 0
-42 16 -55 70 -55 54 0 70 13 70 55 0 35 -15 55 -42 55 -14 0 -18 8 -18 33 0
52 -24 67 -108 67 -65 0 -72 2 -72 20 0 13 7 20 18 20 27 0 42 20 42 55 0 42
-16 55 -70 55 -25 0 -51 -5 -58 -12z m108 -43 l0 -35 -50 0 -50 0 0 35 0 35
50 0 50 0 0 -35z m-180 -250 l0 -35 -50 0 -50 0 0 35 0 35 50 0 50 0 0 -35z
m180 0 l0 -35 -50 0 -50 0 0 35 0 35 50 0 50 0 0 -35z m180 0 l0 -35 -50 0
-50 0 0 35 0 35 50 0 50 0 0 -35z"/>
</g>
</svg>
