
<svg xmlns="http://www.w3.org/2000/svg" width="20" height="20" viewBox="0 0 20 20"><defs><style>.aTrouble{fill:rgba(255,255,255,0);}.bTrouble{fill:#67809f;}</style></defs><g transform="translate(-308 -3938)"><rect class="aTrouble" width="20" height="20" transform="translate(308 3938)"/><g transform="translate(-8287.34 -5953.311)"><path class="bTrouble" d="M20.608,17.075a1.77,1.77,0,0,0-3.065,0l-4.779,8.277A1.77,1.77,0,0,0,14.3,28.007h9.557a1.77,1.77,0,0,0,1.533-2.654Zm-.834,8.815a.7.7,0,1,1-1.4,0V21.828a.7.7,0,1,1,1.4,0Zm-.7-5.846a.7.7,0,1,1,.7-.7A.7.7,0,0,1,19.075,20.045Z" transform="translate(8585.813 9879.12)"/></g></g></svg>