<svg xmlns="http://www.w3.org/2000/svg" width="36.906" height="30.585" viewBox="0 0 36.906 30.585">
  <g id="LeadAssignment" transform="translate(1 1.025)">
    <path id="Path_27403" data-name="Path 27403" d="M25.107,31.352V28.4a5.9,5.9,0,0,0-5.9-5.9H7.4a5.9,5.9,0,0,0-5.9,5.9v2.951" transform="translate(-1.5 -2.792)" fill="none" stroke="#636366" stroke-linecap="round" stroke-linejoin="round" stroke-width="2"/>
    <path id="Path_27404" data-name="Path 27404" d="M19.3,10.4a5.9,5.9,0,1,1-5.9-5.9,5.9,5.9,0,0,1,5.9,5.9Z" transform="translate(-0.899 -4.5)" fill="none" stroke="#636366" stroke-linecap="round" stroke-linejoin="round" stroke-width="2"/>
    <path id="Path_27405" data-name="Path 27405" d="M34.426,31.356V28.4A5.9,5.9,0,0,0,30,22.7" transform="translate(0.48 -2.796)" fill="none" stroke="#636366" stroke-linecap="round" stroke-linejoin="round" stroke-width="2"/>
    <path id="Path_27406" data-name="Path 27406" d="M24,4.7a5.9,5.9,0,0,1,0,11.434" transform="translate(0.064 -4.503)" fill="none" stroke="#636366" stroke-linecap="round" stroke-linejoin="round" stroke-width="2"/>
  </g>
</svg>
