
<svg xmlns="http://www.w3.org/2000/svg" width="24" height="24" viewBox="0 0 24 24"><defs><style>.themea{fill:currentColor;}.themeb{fill:none;stroke:#fff;stroke-linecap:round;stroke-linejoin:round;}</style></defs><g transform="translate(-1011 -3299)"><rect class="themea" width="24" height="24" rx="12" transform="translate(1011 3299)"/><g transform="translate(1013.5 3301.5)"><path class="themeb" d="M17.773,14.136A3.636,3.636,0,1,1,14.136,10.5,3.636,3.636,0,0,1,17.773,14.136Z" transform="translate(-4.636 -4.636)"/><path class="themeb" d="M18,1.5V2.955" transform="translate(-8.5)"/><path class="themeb" d="M18,31.5v1.455" transform="translate(-8.5 -15.455)"/><path class="themeb" d="M6.33,6.33,7.363,7.363" transform="translate(-2.488 -2.488)"/><path class="themeb" d="M27.54,27.54l1.033,1.033" transform="translate(-13.415 -13.415)"/><path class="themeb" d="M1.5,18H2.955" transform="translate(0 -8.5)"/><path class="themeb" d="M31.5,18h1.455" transform="translate(-15.455 -8.5)"/><path class="themeb" d="M6.33,28.573,7.363,27.54" transform="translate(-2.488 -13.415)"/><path class="themeb" d="M27.54,7.363,28.573,6.33" transform="translate(-13.415 -2.488)"/></g></g></svg>