<svg xmlns="http://www.w3.org/2000/svg" width="21.863" height="28" viewBox="0 0 21.863 28">
    <g id="Log_Ticket" transform="rotate(90 10.931 10.932)">
        <path id="Path_27460" d="M0 14.79a.6.6 0 0 1 .538-.643 2.989 2.989 0 0 0 2.692-3.215A2.989 2.989 0 0 0 .538 7.716.6.6 0 0 1 0 7.073V.643A.6.6 0 0 1 .538 0h26.924A.6.6 0 0 1 28 .643v6.43a.6.6 0 0 1-.538.643 2.989 2.989 0 0 0-2.692 3.215 2.989 2.989 0 0 0 2.692 3.215.6.6 0 0 1 .538.644v6.43a.6.6 0 0 1-.538.643H.538A.6.6 0 0 1 0 21.22zm16.692-8.36a.6.6 0 0 0 .538-.643.6.6 0 0 0-.538-.643H8.077a.6.6 0 0 0-.538.643.6.6 0 0 0 .538.643zm0 5.144a.653.653 0 0 0 0-1.286H8.077a.653.653 0 0 0 0 1.286zm-3.231 5.144a.653.653 0 0 0 0-1.286H8.077a.653.653 0 0 0 0 1.286zM21 3.858a.6.6 0 0 0 .538-.643.547.547 0 1 0-1.077 0 .6.6 0 0 0 .539.643zm0 2.572a.6.6 0 0 0 .538-.643.547.547 0 1 0-1.077 0A.6.6 0 0 0 21 6.43zM21 9a.6.6 0 0 0 .538-.643.547.547 0 1 0-1.077 0A.6.6 0 0 0 21 9zm0 2.572a.653.653 0 1 0-.538-.643.6.6 0 0 0 .538.645zm0 2.572a.653.653 0 1 0-.538-.643.6.6 0 0 0 .538.646zm0 2.572a.653.653 0 1 0-.538-.643.6.6 0 0 0 .538.646zm0 2.572a.653.653 0 1 0-.538-.643.6.6 0 0 0 .538.646z"  data-name="Path 27460"/>
    </g>
</svg>
