<svg xmlns="http://www.w3.org/2000/svg" width="26.913" height="27.81" viewBox="0 0 26.913 27.81">
  <g id="noun_log_3599176" transform="translate(0.25 0.25)">
    <g id="Group_67575" data-name="Group 67575" transform="translate(0 0)">
      <path id="Path_46449" data-name="Path 46449" d="M2.207,1.14H17.428A4.573,4.573,0,0,1,21.989,5.7V20.136H1.727v-19h.481ZM17.428,2.1H2.688V19.175h18.34V5.7a3.611,3.611,0,0,0-3.6-3.6Z" transform="translate(1.349 -1.14)" fill="#57606f" stroke="#56606f" stroke-width="0.5"/>
      <path id="Path_46450" data-name="Path 46450" d="M27.148,13.417H1.215V4.143H27.628v9.275ZM2.176,12.456H26.667V5.1H2.176Z" transform="translate(-1.215 13.893)" fill="#57606f" stroke="#56606f" stroke-width="0.5"/>
      <path id="Path_46451" data-name="Path 46451" d="M2.292,2.112H15.765v.961H2.292Z" transform="translate(4.178 3.727)" fill="#57606f" stroke="#56606f" stroke-width="0.5"/>
      <path id="Path_46452" data-name="Path 46452" d="M2.292,2.675H15.765v.961H2.292Z" transform="translate(4.178 6.543)" fill="#57606f" stroke="#56606f" stroke-width="0.5"/>
      <path id="Path_46453" data-name="Path 46453" d="M2.292,3.237H15.765V4.2H2.292Z" transform="translate(4.178 9.359)" fill="#57606f" stroke="#56606f" stroke-width="0.5"/>
    </g>
  </g>
</svg>
