<svg xmlns="http://www.w3.org/2000/svg" width="12.678" height="14.718" viewBox="0 0 12.678 14.718"><defs><style>.amail{isolation:isolate;}.bmail{fill:#57606f;}</style></defs><g class="amail" transform="translate(-8050.55 -2464.113)"><path class="bmail" d="M8063.217,2471.371a5.212,5.212,0,0,1-.938,2.984,2.706,2.706,0,0,1-2.257,1.094,1.772,1.772,0,0,1-1.875-1.313,2.966,2.966,0,0,1-.965.988,2.166,2.166,0,0,1-1.121.325,1.86,1.86,0,0,1-1.68-.907,3.98,3.98,0,0,1-.422-2.507,6.851,6.851,0,0,1,.59-2.3,4.23,4.23,0,0,1,1.219-1.59,2.516,2.516,0,0,1,1.566-.578,3.551,3.551,0,0,1,1.133.168,3.927,3.927,0,0,1,1.125.66l-.406,4.328q-.149,1.8,1,1.805a1.636,1.636,0,0,0,1.429-.875,4.538,4.538,0,0,0,.594-2.281,6.715,6.715,0,0,0-1.129-4.633,4.68,4.68,0,0,0-3.887-1.594,5.081,5.081,0,0,0-2.789.777,5.306,5.306,0,0,0-1.922,2.246,8.72,8.72,0,0,0-.789,3.391,8.065,8.065,0,0,0,.469,3.363,4.478,4.478,0,0,0,1.715,2.18,4.974,4.974,0,0,0,2.785.754,5.973,5.973,0,0,0,1.41-.172,4.386,4.386,0,0,0,1.176-.445l.289.9a4.37,4.37,0,0,1-1.285.5,6.82,6.82,0,0,1-1.621.2,6.205,6.205,0,0,1-3.359-.878,5.344,5.344,0,0,1-2.106-2.532,8.866,8.866,0,0,1-.6-3.863,9.336,9.336,0,0,1,.961-3.863,6.513,6.513,0,0,1,2.351-2.649,6.638,6.638,0,0,1,6.688-.058,5.254,5.254,0,0,1,2.07,2.523A9.062,9.062,0,0,1,8063.217,2471.371Zm-8.016.664a3.037,3.037,0,0,0,.207,1.7,1.06,1.06,0,0,0,1,.593,1.327,1.327,0,0,0,.9-.4,2.918,2.918,0,0,0,.714-1.141l.008-.07.36-3.93a2.015,2.015,0,0,0-.938-.226,1.759,1.759,0,0,0-1.512.93A5.645,5.645,0,0,0,8055.2,2472.035Z"/></g></svg>