<?xml version="1.0" standalone="yes"?>
<svg xmlns="http://www.w3.org/2000/svg" width="2048" height="1168">
<path style="fill:#010101; stroke:none;" d="M0 0L0 1168L2048 1168L2048 0L0 0z"/>
<path style="fill:#2626d0; stroke:none;" d="M1196 279C1208.24 282.364 1227.63 273.315 1240 270.801C1267.94 265.124 1293.67 263.415 1322 264C1325.35 251.481 1329.9 239.288 1334 227C1335.85 221.462 1339.12 214.947 1337.43 209.004C1334.92 200.238 1319.26 193.658 1312 189.053C1288.63 174.22 1264.66 159.75 1242 143.856C1226.09 132.699 1209.32 122.562 1193 112.001C1186.89 108.049 1178.2 104.067 1172.51 111.134C1166.23 118.935 1169 142.151 1169 152C1169 181.426 1168.92 211.643 1166.91 241C1166.22 251.034 1166 260.916 1166 271C1166 274.644 1164.95 280.336 1166.6 283.681C1169.13 288.784 1193.11 282.806 1196 279M986 276L987 276L986 271L1006 278L1005 276L1006 276L1014 279L1012 277L1012 276C1026.32 275.175 1041.79 282.281 1056 284.75C1081 289.094 1105.68 290 1131 290C1131 282.357 1128.51 275.094 1128.28 268C1128.16 264.351 1130.86 260.863 1130.98 257C1132.03 223.592 1134.2 187.167 1130.29 154C1129.1 143.978 1134.86 120.621 1126.77 113.434C1116.07 103.929 1095.8 123.104 1087 128.681C1057.56 147.326 1028.17 166.078 999 185.139C989.792 191.155 970.281 198.259 966.152 209.004C963.682 215.431 967.878 222.96 969.925 229C975.151 244.416 982.259 260.214 986 276z"/>
<path style="fill:#9f646e; stroke:none;" d="M992 189L993 190L992 189M989 191L990 192L989 191z"/>
<path style="fill:#2626d0; stroke:none;" d="M1356 275L1373 283.541L1393 277.884L1434 272C1431.89 266.421 1425.83 263.981 1421 260.95C1410.03 254.067 1399.06 247.177 1388 240.427C1383.22 237.506 1377.59 234.507 1372.02 237.318C1362.71 242.012 1358.21 265.45 1356 275M884 323L879 322L879 323L883 323L883 324L880 324C882.377 327.058 884.064 325.041 885 322L906 330.139L939 347L940 344L967 353C959.39 324.281 949.498 296.158 940.004 268C937.208 259.709 935.211 242.404 925.985 238.897C915.95 235.082 902.619 248.578 895 253.667C887.273 258.828 872.482 265.395 868.434 274.004C865.283 280.705 866.952 290.771 867.003 298C867.041 303.389 865.767 311.065 869.009 315.699C873.005 321.409 879.296 319.244 884 323z"/>
<path style="fill:#9f646e; stroke:none;" d="M981 262L982 263L981 262z"/>
<path style="fill:#3cb6e6; stroke:none;" d="M1130 262C1127.53 266.558 1126.89 269.36 1131 273L1130 262M1196 279C1189.65 284.532 1173.14 286.343 1165 285C1167.85 296.983 1164.18 310.769 1164.18 323C1164.16 360.872 1162.75 399.148 1161.74 437C1161.39 450.022 1160.01 462.938 1160 476C1160 481.029 1158.51 487.155 1160.81 491.826C1163.48 497.261 1171.16 500.438 1176 503.667C1188.72 512.147 1201.89 520.059 1215 527.935C1220.4 531.178 1227.4 533.779 1232.66 528.697C1237.74 523.779 1238.65 514.435 1240.86 508C1246.91 490.385 1252.82 472.733 1258.5 455C1270.88 416.429 1282.68 377.226 1295.7 339C1303.89 314.924 1316.28 289.211 1320 264C1292.25 260.493 1264.13 265.442 1237 271.211C1224.89 273.786 1208.23 281.379 1196 279z"/>
<path style="fill:#9f646e; stroke:none;" d="M1320 264L1319 270L1320 270L1320 264M982 265L983 266L982 265M983 268L984 269L983 268M984.333 270.667L984.667 271.333L984.333 270.667M1318 270L1317 276L1318 276L1318 270z"/>
<path style="fill:#3cb6e6; stroke:none;" d="M986 271C990.362 292.132 998.675 312.57 1005.48 333C1020.82 378.995 1037.19 424.774 1051.81 471C1056.57 486.066 1061.5 501.06 1066.66 516C1069.18 523.318 1070.71 530.966 1080 530.969C1093.15 530.974 1109.18 514.026 1120 507.19C1124.34 504.447 1130.1 501.294 1131.57 495.996C1136.38 478.606 1132 454.078 1132 436C1132 387.367 1129.32 338.604 1131 290C1105.7 290 1080.96 289.078 1056 284.576C1042.11 282.07 1025.94 274.356 1012 276L1012 277L1014 279L1005 276L1006 278L986 271z"/>
<path style="fill:#9f646e; stroke:none;" d="M1434 271L1435 272L1434 271M1420.67 272.333L1421.33 272.667L1420.67 272.333z"/>
<path style="fill:#9c9e7f; stroke:none;" d="M1374 284C1384.8 298.122 1398.61 306.553 1405.55 324C1409.08 332.859 1411.55 343.41 1410.91 353C1410.59 357.771 1407.29 367.394 1410.05 371.646C1412.43 375.298 1419.1 376.68 1423 378L1422 376L1423 376L1432 376L1435 380C1437.9 373.081 1436 362.48 1436 355L1436 298C1436 292.902 1438.65 276.398 1434.4 273.028C1430.88 270.246 1423.01 272.366 1419 272.845C1403.42 274.709 1388.81 278.991 1374 284z"/>
<path style="fill:#9f646e; stroke:none;" d="M985 273L986 274L985 273M1413 273L1414 274L1413 273M1407 274L1408 275L1407 274M1356 275L1347 303L1354 305L1354 306L1351 306L1351 307C1358.14 308.389 1369.43 311.187 1373 318C1377.46 319.36 1383.5 324.523 1385 329L1394 334L1400 341L1407 338L1408 338L1410 340C1404.17 309.946 1384.33 286.799 1356 275M1402 275L1403 276L1402 275M867 276L868 277L867 276M986.333 276.667L986.667 277.333L986.333 276.667M1398 276L1399 277L1398 276z"/>
<path style="fill:#2626d0; stroke:none;" d="M987.333 277.667L987.667 278.333L987.333 277.667M1009 277L1010 278L1009 277z"/>
<path style="fill:#9f646e; stroke:none;" d="M1316.33 277.667L1316.67 278.333L1316.33 277.667M1394 277L1395 278L1394 277M1390 278L1391 279L1390 278M987 279L988 280L987 279z"/>
<path style="fill:#2626d0; stroke:none;" d="M1010.67 279.333L1011.33 279.667L1010.67 279.333z"/>
<path style="fill:#9f646e; stroke:none;" d="M1387 279L1388 280L1387 279M1315 280L1315 283L1316 283L1315 280M988 281L988 284L989 284L988 281M1378 282L1379 283L1378 282M1314.33 283.667L1314.67 284.333L1314.33 283.667M1375 283L1376 284L1375 283M989 284L989 287L990 287L989 284M1165 286L1165 296L1166 296L1165 286M1313 286L1313 289L1314 289L1313 286M990 288L991 289L990 288z"/>
<path style="fill:#9c9e7f; stroke:none;" d="M1312 289L1313 290L1312 289z"/>
<path style="fill:#9f646e; stroke:none;" d="M1463 419L1464 419L1465 413L1473 411L1474 411L1477 411L1478 411C1478.57 413.865 1484.52 413.39 1485 411L1486 411L1487 413L1490 411C1490.59 413.93 1492.5 413.488 1493 411L1494 411C1497.04 413.919 1502.36 412.224 1506 411L1504 413L1504 414L1545 413L1544 415L1553 414L1573 416L1587 415L1623 414L1624 410L1619 411L1620 408L1618 407L1616 408L1614 407C1608.46 397.17 1592.51 390.705 1584.58 381.961C1577.17 373.798 1570.26 365.49 1564.6 356C1560.95 349.879 1558.14 341.644 1553.36 336.39C1543.09 325.096 1523.96 316.851 1511 308.681C1501.98 302.997 1479.79 283.033 1469.21 291.653C1461.49 297.946 1465 316.084 1465 325C1465 356.286 1463 387.711 1463 419z"/>
<path style="fill:#2626d0; stroke:none;" d="M2002 305L1984 314.319L1950 335.424L1935 347L1931 347L1931 349C1939.16 353.954 1927.86 361.396 1927 350C1910.53 358.768 1895 369.597 1879 379.2C1872.91 382.857 1863.89 386.607 1861.66 394.001C1859.52 401.076 1865.2 411.4 1867.59 418C1869.72 423.913 1871.49 437.772 1877.96 440.313C1884.51 442.886 1895.01 440.505 1902 441.17C1922.76 443.146 1944.11 443.876 1965 442.961C1976.27 442.467 1987.69 440.222 1999 441C2001.35 432.505 2012.28 424.132 2017.62 417C2024.79 407.447 2034.96 395.263 2038.5 383.714C2040.55 377.037 2039 367.959 2039 361C2031.88 365.662 2036.74 374.304 2032.46 378.377C2028.35 382.286 2023.43 374.147 2030 372L2031 365L2032 365L2032 368C2043.41 354.244 2039 331.794 2039 315C2039 309.174 2040.63 300.33 2037.82 295.043C2030.71 281.648 2007.22 296.397 2002 305z"/>
<path style="fill:#9f646e; stroke:none;" d="M991 290L991 293L992 293L991 290M1312 290L1313 291L1312 290z"/>
<path style="fill:#9c9e7f; stroke:none;" d="M1311 292L1312 293L1311 292z"/>
<path style="fill:#9f646e; stroke:none;" d="M992 293L992 296L993 296L992 293M1311 293L1312 294L1311 293M1130 295L1130 298L1131 298L1130 295z"/>
<path style="fill:#9c9e7f; stroke:none;" d="M1310.33 295.667L1310.67 296.333L1310.33 295.667z"/>
<path style="fill:#9f646e; stroke:none;" d="M993.333 297.667L993.667 298.333L993.333 297.667M1310 297L1311 298L1310 297z"/>
<path style="fill:#9c9e7f; stroke:none;" d="M1309 298L1310 299L1309 298z"/>
<path style="fill:#9f646e; stroke:none;" d="M1309 299L1310 300L1309 299z"/>
<path style="fill:#9c9e7f; stroke:none;" d="M1347 299L1348 300L1347 299z"/>
<path style="fill:#9f646e; stroke:none;" d="M994.333 300.667L994.667 301.333L994.333 300.667M1130.33 301.667L1130.67 302.333L1130.33 301.667z"/>
<path style="fill:#9c9e7f; stroke:none;" d="M1308.33 301.667L1308.67 302.333L1308.33 301.667z"/>
<path style="fill:#9f646e; stroke:none;" d="M1165 302L1165 305L1166 305L1165 302M995 303L996 304L995 303M1308 303L1309 304L1308 303z"/>
<path style="fill:#9c9e7f; stroke:none;" d="M1346 303L1338 330C1356.78 332.374 1372 338.782 1379 358L1380 358L1380 344L1385 348L1386 339L1388 332L1388 331L1387 328L1385 329C1384.03 324.018 1378.02 318.84 1373 318C1370.71 310.758 1357.82 307.881 1351 307L1351 306L1354 306L1346 303z"/>
<path style="fill:#9f646e; stroke:none;" d="M867.333 304.667L867.667 305.333L867.333 304.667z"/>
<path style="fill:#9c9e7f; stroke:none;" d="M1307 304L1308 305L1307 304z"/>
<path style="fill:#9f646e; stroke:none;" d="M2001 304L2002 305L2001 304M1307 305L1308 306L1307 305M996 306L997 307L996 306M2002 306L2003 307L2002 306z"/>
<path style="fill:#9c9e7f; stroke:none;" d="M1306.33 307.667L1306.67 308.333L1306.33 307.667z"/>
<path style="fill:#9f646e; stroke:none;" d="M997.333 309.667L997.667 310.333L997.333 309.667M1306 309L1307 310L1306 309z"/>
<path style="fill:#9c9e7f; stroke:none;" d="M1305 310L1305 313L1306 313L1305 310z"/>
<path style="fill:#9f646e; stroke:none;" d="M2004 311L2005 312L2004 311M998 312L999 313L998 312M1164 312L1164 320L1165 320L1164 312M867 313L868 367L869 367L872 357L875 360L879 358L880 361L885 361L886 358L891 360L893 356L907 360.917L953 365C963.247 357.079 971.201 364.768 974 375L975 375L968 352L940 344L939 347L906 329.728L885 322L883 324L883 323L879 323L879 322L884 323L867 313z"/>
<path style="fill:#9c9e7f; stroke:none;" d="M1304.33 313.667L1304.67 314.333L1304.33 313.667z"/>
<path style="fill:#9f646e; stroke:none;" d="M869 314L870 315L869 314M873 314L874 315L873 314M999.333 315.667L999.667 316.333L999.333 315.667z"/>
<path style="fill:#9c9e7f; stroke:none;" d="M1303 316L1303 319L1304 319L1303 316z"/>
<path style="fill:#9f646e; stroke:none;" d="M2006 316L2007 317L2006 316M1000 318L1001 319L1000 318z"/>
<path style="fill:#9c9e7f; stroke:none;" d="M1302 319L1302 322L1303 322L1302 319z"/>
<path style="fill:#9f646e; stroke:none;" d="M2007 319L2008 320L2007 319M1001 321L1002 322L1001 321M2008 321L2009 322L2008 321z"/>
<path style="fill:#9c9e7f; stroke:none;" d="M1301 322L1301 325L1302 325L1301 322z"/>
<path style="fill:#9f646e; stroke:none;" d="M1002.33 324.667L1002.67 325.333L1002.33 324.667z"/>
<path style="fill:#9c9e7f; stroke:none;" d="M1535 324L1536 325L1535 324M1300 325L1300 328L1301 328L1300 325M1536.67 325.333L1537.33 325.667L1536.67 325.333M1164.33 326.667L1164.67 327.333L1164.33 326.667M1538 326L1539 327L1538 326z"/>
<path style="fill:#9f646e; stroke:none;" d="M1977 326C1978.1 342.081 1993.13 327.236 1977 326M2010 326L2011 327L2010 326M959.333 327.667L959.667 328.333L959.333 327.667M1003 327L1004 328L1003 327z"/>
<path style="fill:#9c9e7f; stroke:none;" d="M1539.67 327.333L1540.33 327.667L1539.67 327.333z"/>
<path style="fill:#9f646e; stroke:none;" d="M1164 328L1165 329L1164 328z"/>
<path style="fill:#9c9e7f; stroke:none;" d="M1299.33 328.667L1299.67 329.333L1299.33 328.667M1541 328L1542 329L1541 328z"/>
<path style="fill:#9f646e; stroke:none;" d="M2011 328L2012 329L2011 328z"/>
<path style="fill:#9c9e7f; stroke:none;" d="M1164 329L1164 333L1165 333L1164 329M1542.67 329.333L1543.33 329.667L1542.67 329.333M1004 330L1005 331L1004 330M1298 330L1298 334L1299 334L1298 330z"/>
<path style="fill:#9f646e; stroke:none;" d="M1337 330L1337 331L1342 331L1337 330z"/>
<path style="fill:#3cb6e6; stroke:none;" d="M1386.67 330.333L1387.33 330.667L1386.67 330.333z"/>
<path style="fill:#9c9e7f; stroke:none;" d="M1544 330L1545 331L1544 330z"/>
<path style="fill:#2626d0; stroke:none;" d="M1317 390C1323.35 388.171 1329.97 382.572 1336.58 382.167C1339.43 381.991 1342.46 383.918 1345 385C1348.26 386.389 1352.94 387.576 1355.26 390.418C1360.62 396.976 1357 416.762 1357 425L1391 425L1388 398C1381.82 397.715 1382.39 391.545 1387 389C1383.2 369.417 1379.2 343.692 1359 334.324C1354.02 332.015 1342.59 328.462 1337.51 332.028C1333.77 334.651 1332.75 342.901 1331.31 347C1326.3 361.203 1321.19 375.53 1317 390z"/>
<path style="fill:#9f646e; stroke:none;" d="M1349 331L1350 332L1349 331M2012 331L2013 332L2012 331z"/>
<path style="fill:#9c9e7f; stroke:none;" d="M1005 332L1006 333L1005 332z"/>
<path style="fill:#3cb6e6; stroke:none;" d="M1386 332L1386 339C1383.24 341.411 1384.03 344.722 1385 348L1380 344L1379.8 359L1387 389C1381.81 390.724 1381.8 397.276 1387 399L1387 398L1384 398L1384 393L1385 393L1385 396L1386 396L1386 390L1391 425L1357 425L1357 400C1357 396.346 1358.22 391.904 1354 391L1354 390L1356 389L1352 388L1352 389L1354 390L1321 390L1329 386L1329 385C1325.53 385.933 1320.5 387.183 1320 391L1317 390L1316 391L1316 425C1300.97 425 1300.59 437.277 1296.5 450C1288.3 475.448 1278.87 500.507 1270.81 526C1268.07 534.658 1258.87 550.178 1264.74 558.907C1271.4 568.815 1289.14 575.426 1299 582C1329.05 602.023 1360.35 620.334 1391 639.425C1400.05 645.059 1423.03 666.997 1433.61 655.772C1438.41 650.676 1437 642.403 1437 636L1437 587C1437 541.304 1436 495.63 1436 450C1436 427.424 1440.23 399.957 1435 378L1433 380L1432 376L1422 376L1423 378L1410.68 371.61L1408 338L1407 338L1400 341L1394 334L1386 332M1408 332L1409 333L1408 332z"/>
<path style="fill:#9c9e7f; stroke:none;" d="M1547 332L1548 333L1547 332z"/>
<path style="fill:#9f646e; stroke:none;" d="M1005 333L1006 334L1005 333z"/>
<path style="fill:#3cb6e6; stroke:none;" d="M1384.67 333.333L1385.33 333.667L1384.67 333.333M1392 333L1393 334L1392 333z"/>
<path style="fill:#9c9e7f; stroke:none;" d="M1549 333L1550 334L1549 333M1297 334L1294 345L1295 345L1297 334z"/>
<path style="fill:#9f646e; stroke:none;" d="M1359 334L1360 335L1359 334M1006 336L1007 337L1006 336M1391 336L1392 337L1391 336M2014 336L2015 337L2014 336M962 337L963 338L962 337M1364 337L1365 338L1364 337z"/>
<path style="fill:#3cb6e6; stroke:none;" d="M1409 337L1410 338L1409 337z"/>
<path style="fill:#2626d0; stroke:none;" d="M1554 337C1566.45 366.912 1596.81 406.905 1631 413C1632.26 405.685 1638.17 397.621 1635.26 390.001C1632.33 382.355 1621.46 378.263 1615 374.139C1596.41 362.267 1575.02 343.654 1554 337z"/>
<path style="fill:#9c9e7f; stroke:none;" d="M1007 339L1008 340L1007 339z"/>
<path style="fill:#9f646e; stroke:none;" d="M2015 339L2016 340L2015 339M2035 340L2036 341L2035 340M1402 341L1403 342L1402 341M2016 341L2017 342L2016 341M934 342L934 343L939 343L934 342M964 342L965 343L964 342z"/>
<path style="fill:#9c9e7f; stroke:none;" d="M1008 342L1009 343L1008 342M1131 342L1131 345L1132 345L1131 342z"/>
<path style="fill:#9f646e; stroke:none;" d="M938 344L939 345L938 344M2017 344L2018 345L2017 344M964 345L966 347L966 345L964 345z"/>
<path style="fill:#9c9e7f; stroke:none;" d="M1009 345L1010 346L1009 345z"/>
<path style="fill:#9f646e; stroke:none;" d="M1131.33 345.667L1131.67 346.333L1131.33 345.667M1372 345L1373 346L1372 345M1934.33 345.667L1934.67 346.333L1934.33 345.667z"/>
<path style="fill:#2626d0; stroke:none;" d="M940 346L941 347L940 346z"/>
<path style="fill:#9f646e; stroke:none;" d="M2018 346L2019 347L2018 346z"/>
<path style="fill:#9c9e7f; stroke:none;" d="M1010 347L1011 348L1010 347M1131 347L1131 373L1132 373L1131 347z"/>
<path style="fill:#9f646e; stroke:none;" d="M2034 347L2035 348L2034 347M966 348L966 352L967 352L966 348z"/>
<path style="fill:#3cb6e6; stroke:none;" d="M1374 348L1375 349L1374 348z"/>
<path style="fill:#9f646e; stroke:none;" d="M1929.31 349.241C1924.98 351.272 1928.07 359.37 1932.84 356.914C1937.47 354.533 1933.82 347.128 1929.31 349.241M2019 348L2020 349L2019 348M1375 350L1376 351L1375 350z"/>
<path style="fill:#3cb6e6; stroke:none;" d="M1379 350L1380 351L1379 350z"/>
<path style="fill:#9c9e7f; stroke:none;" d="M1011 351L1012 352L1011 351z"/>
<path style="fill:#9f646e; stroke:none;" d="M2020 351L2021 352L2020 351z"/>
<path style="fill:#9c9e7f; stroke:none;" d="M1163 352L1163 360L1164 360L1163 352z"/>
<path style="fill:#9f646e; stroke:none;" d="M1376 352L1377 353L1376 352z"/>
<path style="fill:#9c9e7f; stroke:none;" d="M1012.33 353.667L1012.67 354.333L1012.33 353.667z"/>
<path style="fill:#9f646e; stroke:none;" d="M2021.33 353.667L2021.67 354.333L2021.33 353.667M2033.33 353.667L2033.67 354.333L2033.33 353.667M1377 354L1378 355L1377 354z"/>
<path style="fill:#3cb6e6; stroke:none;" d="M869 355L869 358L871 356L872 356L874 358L869 355M1378.33 355.667L1378.67 356.333L1378.33 355.667M875 356L876 357L875 356M892 356L891 360L886 358L885 361L880 361L879 358L875 360L872 357C867.933 360.869 868.275 368.614 868.039 374C867.409 388.398 869.023 402.64 869 417C868.908 474.248 869.908 531.715 870 589L870 637C870 643.075 868.602 651.536 875.044 654.972C886.89 661.291 906.889 642.428 916 636.355C941.599 619.29 967.983 603.111 994 586.681C1005.73 579.271 1020.97 572.571 1030.77 562.671C1040.14 553.209 1026.77 530.395 1023.59 520C1010.53 477.416 995.74 435.082 981.139 393C978.204 384.541 975.832 371.315 970.006 364.43C966.182 359.911 956.582 360.816 953 365L902 359.028L892 356z"/>
<path style="fill:#9c9e7f; stroke:none;" d="M1013.33 356.667L1013.67 357.333L1013.33 356.667z"/>
<path style="fill:#9f646e; stroke:none;" d="M2022 356L2023 357L2022 356M2030 357L2030 360L2031 360L2030 357M2038 357L2033 368L2032 368L2032 365L2031 365L2030 372C2024.46 373.067 2024.98 380.762 2030.91 379.623C2032.41 379.334 2033.62 378.357 2034.04 376.856C2034.71 374.463 2033.03 372.159 2033.63 369.714C2034.7 365.312 2039.6 361.617 2038 357M2023.33 358.667L2023.67 359.333L2023.33 358.667M1379 359L1380 360L1379 359z"/>
<path style="fill:#9c9e7f; stroke:none;" d="M1014 360L1015 361L1014 360z"/>
<path style="fill:#9f646e; stroke:none;" d="M2032.33 360.667L2032.67 361.333L2032.33 360.667M2024 361L2025 362L2024 361z"/>
<path style="fill:#3cb6e6; stroke:none;" d="M939 362L940 363L939 362M945 362L946 363L945 362M952 362L953 363L952 362z"/>
<path style="fill:#9c9e7f; stroke:none;" d="M1015.33 362.667L1015.67 363.333L1015.33 362.667z"/>
<path style="fill:#9f646e; stroke:none;" d="M2025.33 363.667L2025.67 364.333L2025.33 363.667z"/>
<path style="fill:#9c9e7f; stroke:none;" d="M1016 366L1017 367L1016 366z"/>
<path style="fill:#9f646e; stroke:none;" d="M2026 366L2027 367L2026 366z"/>
<path style="fill:#9c9e7f; stroke:none;" d="M868 367L869 368L868 367z"/>
<path style="fill:#9f646e; stroke:none;" d="M868.333 368.667L868.667 369.333L868.333 368.667z"/>
<path style="fill:#9c9e7f; stroke:none;" d="M1163 368L1164 369L1163 368z"/>
<path style="fill:#9f646e; stroke:none;" d="M2027.33 368.667L2027.67 369.333L2027.33 368.667z"/>
<path style="fill:#9c9e7f; stroke:none;" d="M1017 369L1018 370L1017 369M1018 371L1019 372L1018 371z"/>
<path style="fill:#9f646e; stroke:none;" d="M1964.33 372.667L1964.67 373.333L1964.33 372.667z"/>
<path style="fill:#9c9e7f; stroke:none;" d="M1968 372C1963.66 380.642 1965.69 387.43 1969 396L1970 396L1970 372L1968 372M1972 372L1972 396L1973 396C1975.76 387.833 1979.62 378.698 1972 372z"/>
<path style="fill:#9f646e; stroke:none;" d="M1973 372L1974 373L1973 372M1977.33 372.667L1977.67 373.333L1977.33 372.667M1962 373L1959 377L1962 373z"/>
<path style="fill:#9c9e7f; stroke:none;" d="M1963 373C1955.4 381.549 1959.36 386.72 1965 395L1966 395L1963 373z"/>
<path style="fill:#9f646e; stroke:none;" d="M1974 373L1975 374L1974 373z"/>
<path style="fill:#9c9e7f; stroke:none;" d="M1978 373L1976 394C1983.81 388.232 1986.5 379.42 1978 373M1019.33 374.667L1019.67 375.333L1019.33 374.667z"/>
<path style="fill:#9f646e; stroke:none;" d="M1966 374L1967 375L1966 374M1980 374L1981 375L1980 374M1963 375L1964 376L1963 375M1975 375L1976 376L1975 375M1981 375L1982 376L1981 375M975.333 376.667L975.667 377.333L975.333 376.667M1978 376L1979 377L1978 376z"/>
<path style="fill:#9c9e7f; stroke:none;" d="M1429 377L1430 378L1429 377z"/>
<path style="fill:#9f646e; stroke:none;" d="M1965.33 377.667L1965.67 378.333L1965.33 377.667M976 378L976 381L977 381L976 378z"/>
<path style="fill:#9c9e7f; stroke:none;" d="M1020 378L1021 379L1020 378z"/>
<path style="fill:#9f646e; stroke:none;" d="M1958 378L1959 379L1958 378M1976.33 378.667L1976.67 379.333L1976.33 378.667M1983 379L1984 380L1983 379z"/>
<path style="fill:#9c9e7f; stroke:none;" d="M1021 380L1022 381L1021 380z"/>
<path style="fill:#9f646e; stroke:none;" d="M977.333 381.667L977.667 382.333L977.333 381.667M1336 381L1337 382L1336 381M1962.33 381.667L1962.67 382.333L1962.33 381.667z"/>
<path style="fill:#3cb6e6; stroke:none;" d="M1334 382L1335 383L1334 382z"/>
<path style="fill:#9c9e7f; stroke:none;" d="M1321 390C1330.21 391.74 1344.9 392.597 1354 390C1343.32 381.375 1331.52 381.284 1321 390z"/>
<path style="fill:#3cb6e6; stroke:none;" d="M1338.67 382.333L1339.33 382.667L1338.67 382.333M1332 383L1333 384L1332 383M1341 383L1342 384L1341 383z"/>
<path style="fill:#9f646e; stroke:none;" d="M978.333 384.667L978.667 385.333L978.333 384.667z"/>
<path style="fill:#9c9e7f; stroke:none;" d="M1022 384L1023 385L1022 384z"/>
<path style="fill:#3cb6e6; stroke:none;" d="M1330 384L1331 385L1330 384M1342.67 384.333L1343.33 384.667L1342.67 384.333z"/>
<path style="fill:#9f646e; stroke:none;" d="M1976.33 384.667L1976.67 385.333L1976.33 384.667M1983 384L1984 385L1983 384z"/>
<path style="fill:#3cb6e6; stroke:none;" d="M1345.67 385.333L1346.33 385.667L1345.67 385.333z"/>
<path style="fill:#9f646e; stroke:none;" d="M1958 385L1959 386L1958 385M2037 385L2038 389L2039 389L2037 385z"/>
<path style="fill:#9c9e7f; stroke:none;" d="M1023 386L1024 387L1023 386z"/>
<path style="fill:#3cb6e6; stroke:none;" d="M1347.67 386.333L1348.33 386.667L1347.67 386.333z"/>
<path style="fill:#9f646e; stroke:none;" d="M1965 386L1966 387L1965 386z"/>
<path style="fill:#9c9e7f; stroke:none;" d="M2037 386L2001 438C2006.9 435.209 2016.67 428.73 2020 423L2027 422L2030 417L2031 417L2032 419L2036 414L2037 414L2038 427L2039 427C2039 415.798 2042.83 395.739 2037 386z"/>
<path style="fill:#9f646e; stroke:none;" d="M979.333 387.667L979.667 388.333L979.333 387.667z"/>
<path style="fill:#3cb6e6; stroke:none;" d="M1350 387L1351 388L1350 387z"/>
<path style="fill:#9f646e; stroke:none;" d="M1959 387L1960 388L1959 387M1978 387L1979 388L1978 387M2036 387L2037 388L2036 387M1963 388L1964 389L1963 388M1981 388L1982 389L1981 388M1966 389L1967 390L1966 389M2035 389L2036 390L2035 389z"/>
<path style="fill:#9c9e7f; stroke:none;" d="M1318.67 390.333L1319.33 390.667L1318.67 390.333M1354.67 390.333L1355.33 390.667L1354.67 390.333M1384 390L1385 391L1384 390M1386 390L1386 396L1385 396L1385 393L1384 393L1384 398L1388 398L1386 390z"/>
<path style="fill:#9f646e; stroke:none;" d="M1964 390L1965 391L1964 390M1977 390L1978 391L1977 390M980 391L981 392L980 391M1974 391L1975 392L1974 391M2034 391L2035 392L2034 391z"/>
<path style="fill:#2626d0; stroke:none;" d="M1316 392L1305 425L1316 425C1316.76 415.404 1319.8 401.062 1316 392z"/>
<path style="fill:#9c9e7f; stroke:none;" d="M1322 392L1318 394L1318 395L1322 392M1324 392L1324 396L1325 396L1327 396L1328 393L1324 392M1329 392L1330 396L1339 393L1339 392L1335 395L1334 395L1333 395L1329 392M1341 392L1337 395L1337 396L1341 394L1347 394L1349 396L1349 392L1341 392M1350 392L1350 396L1354 393L1350 392M1355 392L1355 396L1356 396L1355 392M1385 392L1386 393L1385 392z"/>
<path style="fill:#9f646e; stroke:none;" d="M1963 392L1964 393L1963 392M1976 392L1977 393L1976 392M2033 392L2034 393L2033 392M981 393L982 394L981 393z"/>
<path style="fill:#9c9e7f; stroke:none;" d="M1025 393L1026 394L1025 393M1162 393L1162 400L1163 400L1162 393z"/>
<path style="fill:#9f646e; stroke:none;" d="M1964 393L1965 394L1964 393M1977 393L1978 394L1977 393M1968 394L1969 395L1968 394M1976 394L1977 395L1976 394M2032 394L2033 395L2032 394z"/>
<path style="fill:#9c9e7f; stroke:none;" d="M1026 395L1027 396L1026 395M1322 395L1323 396L1322 395M1328 395L1329 396L1328 395z"/>
<path style="fill:#9f646e; stroke:none;" d="M1966 395L1967 396L1966 395M1975 395L1976 396L1975 395M2031 396L2032 397L2031 396M982 397L983 398L982 397z"/>
<path style="fill:#9c9e7f; stroke:none;" d="M983 399L984 400L983 399M1027 399L1028 400L1027 399z"/>
<path style="fill:#3cb6e6; stroke:none;" d="M1967.33 399.667L1967.67 400.333L1967.33 399.667z"/>
<path style="fill:#9c9e7f; stroke:none;" d="M1968 399L1968 402L1974 402L1974 399L1968 399z"/>
<path style="fill:#9f646e; stroke:none;" d="M1974.33 399.667L1974.67 400.333L1974.33 399.667M2029 399L2030 400L2029 399M983 400L984 401L983 400z"/>
<path style="fill:#9c9e7f; stroke:none;" d="M868 401L868 426L869 426L868 401M1028.33 401.667L1028.67 402.333L1028.33 401.667z"/>
<path style="fill:#9f646e; stroke:none;" d="M1967 401L1968 402L1967 401M984 402L985 403L984 402M2027 402L2028 403L2027 402z"/>
<path style="fill:#9c9e7f; stroke:none;" d="M1029 404L1030 405L1029 404z"/>
<path style="fill:#9f646e; stroke:none;" d="M1967 404L1968 405L1967 404z"/>
<path style="fill:#9c9e7f; stroke:none;" d="M1968 404L1968 409C1971.86 408.7 1973.35 407.911 1974 404L1968 404z"/>
<path style="fill:#9f646e; stroke:none;" d="M2026 404L2027 405L2026 404z"/>
<path style="fill:#3cb6e6; stroke:none;" d="M1967.33 405.667L1967.67 406.333L1967.33 405.667z"/>
<path style="fill:#9f646e; stroke:none;" d="M1974.33 405.667L1974.67 406.333L1974.33 405.667z"/>
<path style="fill:#3cb6e6; stroke:none;" d="M1998 405L1999 406L1998 405z"/>
<path style="fill:#9f646e; stroke:none;" d="M1999 405L1999 410L2000 410L1999 405z"/>
<path style="fill:#9c9e7f; stroke:none;" d="M2000 405L2000 410L2001 410L2000 405z"/>
<path style="fill:#9f646e; stroke:none;" d="M2001 405L2000 415L2001 415L2001 405z"/>
<path style="fill:#9c9e7f; stroke:none;" d="M2002 405L2002 410L2003 410L2002 405z"/>
<path style="fill:#9f646e; stroke:none;" d="M2003 405L2003 407L2005 405L2003 405M2025 405L2026 406L2025 405z"/>
<path style="fill:#9c9e7f; stroke:none;" d="M985 406L986 407L985 406z"/>
<path style="fill:#3cb6e6; stroke:none;" d="M1614 406L1615 407L1614 406z"/>
<path style="fill:#9c9e7f; stroke:none;" d="M1998 406L1998 410L1999 410L1998 406M2004 406L2004 409L2005 409L2004 406z"/>
<path style="fill:#3cb6e6; stroke:none;" d="M1611 407L1612 408L1611 407M1616 407L1617 408L1616 407z"/>
<path style="fill:#9f646e; stroke:none;" d="M1967 407L1968 408L1967 407M1997 407L1998 408L1997 407z"/>
<path style="fill:#2626d0; stroke:none;" d="M2003 407L2004 408L2003 407z"/>
<path style="fill:#9f646e; stroke:none;" d="M2024 407L2025 408L2024 407M986 408L987 409L986 408z"/>
<path style="fill:#3cb6e6; stroke:none;" d="M1614.67 408.333L1615.33 408.667L1614.67 408.333M1618 408L1619 409L1618 408M1973 408L1974 409L1973 408z"/>
<path style="fill:#9f646e; stroke:none;" d="M2003.33 408.667L2003.67 409.333L2003.33 408.667M2023 408L2024 409L2023 408z"/>
<path style="fill:#3cb6e6; stroke:none;" d="M1617 409L1618 410L1617 409M1620 409L1619 411L1621 411L1620 409M2004 409L2005 410L2004 409z"/>
<path style="fill:#9c9e7f; stroke:none;" d="M1031 410L1032 411L1031 410z"/>
<path style="fill:#2626d0; stroke:none;" d="M1655 439L1689 441L1688 443L1728 451L1739 455C1735.69 448.077 1727.24 444.214 1721 440.139C1709.2 432.43 1697.97 424.064 1686 416.576C1679.96 412.794 1673.45 407.732 1666.09 411.573C1658.95 415.301 1657.08 431.678 1655 439z"/>
<path style="fill:#9f646e; stroke:none;" d="M1956 410L1957 411L1956 410z"/>
<path style="fill:#3cb6e6; stroke:none;" d="M1955 411L1955 413L1958 414L1957 417L1958 417L1959 410L1955 411z"/>
<path style="fill:#9f646e; stroke:none;" d="M1959 410L1960 411L1959 410z"/>
<path style="fill:#3cb6e6; stroke:none;" d="M1999.67 410.333L2000.33 410.667L1999.67 410.333M2002.67 410.333L2003.33 410.667L2002.67 410.333M1473 411L1465 413C1462.16 474.593 1460.3 536.874 1460 599C1459.92 616.276 1459 633.649 1459 651C1459 658.004 1457.44 667.166 1459.43 673.91C1461.06 679.417 1468.5 682.621 1473 685.424C1483.81 692.155 1494.39 699.294 1505 706.333C1509.94 709.611 1515.72 714.237 1522 713.851C1529.36 713.398 1531.33 706.834 1533.44 701C1538.45 687.096 1542.77 672.943 1547.69 659C1561.25 620.546 1573.94 581.706 1586.74 543C1593.74 521.861 1602.98 500.7 1608 479L1525 479L1525 478C1545.36 473.175 1564.36 461.253 1584 454.053C1596.86 449.337 1605.28 444.819 1617 453C1616.56 448.297 1624.64 435.233 1619 434L1619 433L1623 433L1629 413L1622 411L1623 414L1585 414.999L1573 416L1553 414L1544 415L1545 413L1504 414L1504 413L1506 411L1494 411L1493 411L1490 411L1486 411L1485 411L1478 411L1477 411L1476 413L1473 411M1510 411L1511 412L1510 411M1513 411L1514 412L1513 411z"/>
<path style="fill:#9f646e; stroke:none;" d="M1625 411L1626 412L1625 411z"/>
<path style="fill:#9c9e7f; stroke:none;" d="M1958.33 411.667L1958.67 412.333L1958.33 411.667z"/>
<path style="fill:#9f646e; stroke:none;" d="M1960.33 411.667L1960.67 412.333L1960.33 411.667M2021 411L2022 412L2021 411z"/>
<path style="fill:#9c9e7f; stroke:none;" d="M987 412L988 413L987 412z"/>
<path style="fill:#3cb6e6; stroke:none;" d="M1508 412L1509 413L1508 412z"/>
<path style="fill:#9f646e; stroke:none;" d="M1627 412L1628 413L1627 412z"/>
<path style="fill:#9c9e7f; stroke:none;" d="M1032 413L1033 414L1032 413z"/>
<path style="fill:#9f646e; stroke:none;" d="M1629 413L1626 424L1627 424L1629 413z"/>
<path style="fill:#3cb6e6; stroke:none;" d="M2001 413L2000 416L2001 413z"/>
<path style="fill:#9c9e7f; stroke:none;" d="M988.333 414.667L988.667 415.333L988.333 414.667z"/>
<path style="fill:#9f646e; stroke:none;" d="M2019 414L2020 415L2019 414z"/>
<path style="fill:#3cb6e6; stroke:none;" d="M2036 414L2032 419L2030 417L2027 422L2025 420L2020 423L1999 441L1931 442.999L1877 441C1895.89 511.677 1923.99 580.864 1947.92 650C1953.68 666.646 1959.05 683.485 1965.19 700C1967.33 705.75 1968.32 714.14 1975.04 716.347C1981.65 718.518 1987.62 714.748 1993 711.424C2003.01 705.238 2012.97 698.958 2023 692.811C2027.87 689.825 2034.9 687.016 2036.57 680.996C2038.39 674.402 2037 665.814 2037 659L2037 615C2037 570.038 2038 525.028 2038 480C2014.31 481.276 1987.12 475.825 1964 481C1977.1 467.724 2001.4 459.193 2018 450.756C2023.88 447.767 2035.75 444.591 2038 438L2007 439L2007 438L2038 431L2036 414z"/>
<path style="fill:#9f646e; stroke:none;" d="M1467 415L1468 416L1467 415M1469 415L1470 416L1469 415M1471 415L1472 416L1471 415M1473 415L1473 416L1476 416L1473 415M1482 415L1483 416L1482 415M1484 415L1485 416L1484 415M1538 415L1538 416L1541 416L1538 415M1613 415L1613 416L1616 416L1613 415M1958.33 415.667L1958.67 416.333L1958.33 415.667z"/>
<path style="fill:#9c9e7f; stroke:none;" d="M2001 415L2002 416L2001 415z"/>
<path style="fill:#9f646e; stroke:none;" d="M2018 415L2019 416L2018 415M1609 416L1610 417L1609 416M1611 416L1612 417L1611 416z"/>
<path style="fill:#9c9e7f; stroke:none;" d="M989 417L990 418L989 417M1033 417L1034 418L1033 417z"/>
<path style="fill:#9f646e; stroke:none;" d="M1470 417L1471 418L1470 417M1474 417L1475 418L1474 417z"/>
<path style="fill:#2626d0; stroke:none;" d="M1770 461L1770 462L1768 473L1768.84 501.015L1771.32 512.397L1798 514L1865 509C1864.01 487.438 1852.51 462.373 1845.57 442C1843.4 435.631 1842.09 424.522 1836 421L1837 419C1819.94 411.769 1796.37 435.558 1783 444.884C1779.28 447.478 1763.87 455.389 1770 461z"/>
<path style="fill:#3cb6e6; stroke:none;" d="M2016 418L2017 419L2016 418z"/>
<path style="fill:#9c9e7f; stroke:none;" d="M1034 419L1035 420L1034 419M1161 419L1161 427L1162 427L1161 419z"/>
<path style="fill:#9f646e; stroke:none;" d="M1821 419L1822 420L1821 419M2015 419L2016 420L2015 419M1822 420L1825 423L1822 420M1836 420L1837 421L1836 420z"/>
<path style="fill:#9c9e7f; stroke:none;" d="M990 421L991 422L990 421z"/>
<path style="fill:#9f646e; stroke:none;" d="M1835 422L1836 423L1835 422z"/>
<path style="fill:#3cb6e6; stroke:none;" d="M2013 422L2014 423L2013 422M2021 422L2022 423L2021 422z"/>
<path style="fill:#9c9e7f; stroke:none;" d="M991 423L992 424L991 423z"/>
<path style="fill:#9f646e; stroke:none;" d="M1463 423L1463 434L1464 434L1463 423M1659 423L1658 429L1659 429L1659 423z"/>
<path style="fill:#3cb6e6; stroke:none;" d="M2012 423L2013 424L2012 423z"/>
<path style="fill:#9f646e; stroke:none;" d="M1625 424L1623 433L1624 433L1625 424M1835 424C1833.35 424.125 1831.51 424.032 1829.91 424.483C1813.72 429.041 1839.41 445.561 1837.03 429.024C1836.77 427.165 1835.84 425.632 1835 424z"/>
<path style="fill:#3cb6e6; stroke:none;" d="M2011 424L2012 425L2011 424z"/>
<path style="fill:#9c9e7f; stroke:none;" d="M1036 425L1037 426L1036 425z"/>
<path style="fill:#9f646e; stroke:none;" d="M1815 425L1816 426L1815 425M1818 426L1819 427L1818 426M1821 427L1822 428L1821 427z"/>
<path style="fill:#3cb6e6; stroke:none;" d="M2009 427L2010 428L2009 427z"/>
<path style="fill:#9c9e7f; stroke:none;" d="M1037 428L1038 429L1037 428z"/>
<path style="fill:#3cb6e6; stroke:none;" d="M2008 428L2009 429L2008 428z"/>
<path style="fill:#9f646e; stroke:none;" d="M1657.33 429.667L1657.67 430.333L1657.33 429.667z"/>
<path style="fill:#3cb6e6; stroke:none;" d="M2007 429L2008 430L2007 429M2011 429L2012 430L2011 429z"/>
<path style="fill:#9c9e7f; stroke:none;" d="M993 430L994 431L993 430z"/>
<path style="fill:#9f646e; stroke:none;" d="M1706.67 430.333L1707.33 430.667L1706.67 430.333z"/>
<path style="fill:#3cb6e6; stroke:none;" d="M2006 430L2007 431L2006 430z"/>
<path style="fill:#9f646e; stroke:none;" d="M1708 431L1709 432L1708 431z"/>
<path style="fill:#3cb6e6; stroke:none;" d="M2005 431L2006 432L2005 431z"/>
<path style="fill:#2626d0; stroke:none;" d="M2007 438L2007 439C2016.47 439 2037.85 443.785 2038 431L2007 438z"/>
<path style="fill:#9c9e7f; stroke:none;" d="M994 432L995 433L994 432M1038 432L1039 433L1038 432z"/>
<path style="fill:#9f646e; stroke:none;" d="M1709 432L1712 434L1709 432z"/>
<path style="fill:#3cb6e6; stroke:none;" d="M2004 432L2005 433L2004 432z"/>
<path style="fill:#9c9e7f; stroke:none;" d="M1161 433L1161 440L1162 440L1161 433z"/>
<path style="fill:#2626d0; stroke:none;" d="M1619 433L1619 434L1622 434L1619 433z"/>
<path style="fill:#9f646e; stroke:none;" d="M1622 433L1620 441L1621 441L1622 433M1656 433L1657 434L1656 433z"/>
<path style="fill:#9c9e7f; stroke:none;" d="M1039 434L1040 435L1039 434z"/>
<path style="fill:#2626d0; stroke:none;" d="M1617 434L1618 435L1617 434z"/>
<path style="fill:#9f646e; stroke:none;" d="M1712 434L1713 435L1712 434z"/>
<path style="fill:#3cb6e6; stroke:none;" d="M2003 434L2004 435L2003 434z"/>
<path style="fill:#9c9e7f; stroke:none;" d="M1335 435L1336 436L1335 435M1337 435L1338 436L1337 435z"/>
<path style="fill:#9f646e; stroke:none;" d="M1463 435L1463 438L1464 438L1463 435M1655 435L1655 438L1656 438L1655 435M1714 435L1715 436L1714 435z"/>
<path style="fill:#3cb6e6; stroke:none;" d="M2002 435L2003 436L2002 435z"/>
<path style="fill:#9c9e7f; stroke:none;" d="M995 436L996 437L995 436z"/>
<path style="fill:#9f646e; stroke:none;" d="M1715 436L1716 437L1715 436z"/>
<path style="fill:#3cb6e6; stroke:none;" d="M2001 436L2002 437L2001 436z"/>
<path style="fill:#9c9e7f; stroke:none;" d="M1040 437L1041 438L1040 437z"/>
<path style="fill:#9f646e; stroke:none;" d="M1717 437L1718 438L1717 437z"/>
<path style="fill:#9c9e7f; stroke:none;" d="M996 438L997 439L996 438M1325 440L1325 441L1348 441L1348 440L1346 438L1334 438L1325 440z"/>
<path style="fill:#9f646e; stroke:none;" d="M1718 438L1721 440L1718 438z"/>
<path style="fill:#9c9e7f; stroke:none;" d="M1041 439L1042 440L1041 439z"/>
<path style="fill:#9f646e; stroke:none;" d="M1643 476L1646 475L1651 481C1652.37 478.265 1664.44 483.23 1664 485L1666 483L1679 489L1717 495L1717 496L1714 496L1714 497L1741 502C1740.09 484.321 1749.5 452.52 1729 445L1739 455L1728 451L1688 443L1689 441C1679.74 440.263 1664.26 435.266 1655.42 439.603C1652.37 441.101 1651.79 446.099 1650.83 449C1647.99 457.601 1643.58 466.932 1643 476M1875 439L1876 440L1875 439z"/>
<path style="fill:#3cb6e6; stroke:none;" d="M1877.67 439.333L1878.33 439.667L1877.67 439.333z"/>
<path style="fill:#9c9e7f; stroke:none;" d="M1349 440L1350 441L1349 440z"/>
<path style="fill:#9f646e; stroke:none;" d="M1721.67 440.333L1722.33 440.667L1721.67 440.333M1876 440L1876 443L1877 443L1876 440z"/>
<path style="fill:#2626d0; stroke:none;" d="M2000 440L2001 441L2000 440M2002.67 440.333L2003.33 440.667L2002.67 440.333M2005 440L2006 441L2005 440M2007 440L2008 441L2007 440M2009.67 440.333L2010.33 440.667L2009.67 440.333M2012 440L2013 441L2012 440M2014 440L2015 441L2014 440M2016 440L2017 441L2016 440M2019 440L2019 441L2022 441L2019 440M2023 440L2024 441L2023 440z"/>
<path style="fill:#9f646e; stroke:none;" d="M1436 441L1436 482L1437 482C1437 470.304 1440.51 451.75 1436 441z"/>
<path style="fill:#9c9e7f; stroke:none;" d="M1620 441L1621 442L1620 441z"/>
<path style="fill:#9f646e; stroke:none;" d="M1723 441L1726 443L1723 441M1788 441L1789 442L1788 441M1809 441L1810 442L1809 441z"/>
<path style="fill:#2626d0; stroke:none;" d="M1964 481L2038 480L2038 441L1985 467.745L1964 481z"/>
<path style="fill:#9c9e7f; stroke:none;" d="M997 442L998 443L997 442z"/>
<path style="fill:#9f646e; stroke:none;" d="M1619.33 442.667L1619.67 443.333L1619.33 442.667M1807 442L1808 443L1807 442z"/>
<path style="fill:#9c9e7f; stroke:none;" d="M1042 443L1043 444L1042 443z"/>
<path style="fill:#9f646e; stroke:none;" d="M1462 443L1462 459L1463 459L1462 443M1726 443L1729 445L1726 443M1805 443L1806 444L1805 443M1877 443L1878 449L1879 449L1877 443z"/>
<path style="fill:#9c9e7f; stroke:none;" d="M1619 444L1617 451L1618 451L1619 444z"/>
<path style="fill:#9f646e; stroke:none;" d="M1803 444L1804 445L1803 444z"/>
<path style="fill:#9c9e7f; stroke:none;" d="M998 445L999 446L998 445z"/>
<path style="fill:#9f646e; stroke:none;" d="M1782 445L1783 446L1782 445M1801 445L1802 446L1801 445z"/>
<path style="fill:#9c9e7f; stroke:none;" d="M1043 446L1044 447L1043 446z"/>
<path style="fill:#2626d0; stroke:none;" d="M1525 478C1530.25 480.826 1539.06 479 1545 479C1558.98 479 1573.03 478.59 1587 479.035C1592.41 479.208 1601.62 480.766 1606.61 478.397C1613.27 475.227 1618.3 454.047 1612.94 449.163C1606.88 443.647 1595.6 449.798 1589 452C1567.12 459.3 1546.83 470.616 1525 478z"/>
<path style="fill:#9f646e; stroke:none;" d="M1799 446L1800 447L1799 446z"/>
<path style="fill:#9c9e7f; stroke:none;" d="M903.129 447.971C898.659 449.086 900.395 456.211 904.871 455.168C909.327 454.131 907.698 446.831 903.129 447.971M999 447L1000 448L999 447z"/>
<path style="fill:#9f646e; stroke:none;" d="M1779 447L1780 448L1779 447M1797 447L1798 448L1797 447M1795 448L1796 449L1795 448M1776 449L1777 450L1776 449M1793 449L1794 450L1793 449M1847 449L1848 450L1847 449M1879 449L1879 452L1880 452L1879 449M1774 450L1775 451L1774 450M1791 450L1792 451L1791 450z"/>
<path style="fill:#9c9e7f; stroke:none;" d="M1000 451L1001 452L1000 451M1616 451L1617 452L1616 451z"/>
<path style="fill:#9f646e; stroke:none;" d="M1773 451L1774 452L1773 451M1789 451L1790 452L1789 451M1848 451L1849 452L1848 451z"/>
<path style="fill:#9c9e7f; stroke:none;" d="M1045 452L1046 453L1045 452z"/>
<path style="fill:#9f646e; stroke:none;" d="M1787 452L1788 453L1787 452M1880.33 452.667L1880.67 453.333L1880.33 452.667z"/>
<path style="fill:#9c9e7f; stroke:none;" d="M1001 453L1002 454L1001 453M1649 453L1650 454L1649 453z"/>
<path style="fill:#9f646e; stroke:none;" d="M1770 453L1771 454L1770 453M1785 453L1786 454L1785 453M1769 454L1770 455L1769 454M1770 460L1770 461L1784 455L1770 460M1881 455L1881 458L1882 458L1881 455M1768 456L1769 457L1768 456z"/>
<path style="fill:#9c9e7f; stroke:none;" d="M1648 457L1649 458L1648 457z"/>
<path style="fill:#9f646e; stroke:none;" d="M1850 457L1851 458L1850 457z"/>
<path style="fill:#9c9e7f; stroke:none;" d="M1047 458L1048 459L1047 458z"/>
<path style="fill:#9f646e; stroke:none;" d="M1882 458L1882 461L1883 461L1882 458z"/>
<path style="fill:#9c9e7f; stroke:none;" d="M1003 460L1004 461L1003 460z"/>
<path style="fill:#9f646e; stroke:none;" d="M1767 460L1767 469L1768 469L1770 461L1767 460z"/>
<path style="fill:#9c9e7f; stroke:none;" d="M1048 461L1049 462L1048 461M1883 461L1884 462L1883 461M1004.33 462.667L1004.67 463.333L1004.33 462.667z"/>
<path style="fill:#9f646e; stroke:none;" d="M1883 462L1884 463L1883 462z"/>
<path style="fill:#9c9e7f; stroke:none;" d="M1049 463L1050 464L1049 463z"/>
<path style="fill:#9f646e; stroke:none;" d="M1852 464L1853 465L1852 464z"/>
<path style="fill:#9c9e7f; stroke:none;" d="M1884.33 464.667L1884.67 465.333L1884.33 464.667z"/>
<path style="fill:#9f646e; stroke:none;" d="M1462 465L1462 475L1463 475L1462 465z"/>
<path style="fill:#9c9e7f; stroke:none;" d="M1005 466L1006 467L1005 466z"/>
<path style="fill:#9f646e; stroke:none;" d="M1853 466L1854 467L1853 466M1884 466L1885 467L1884 466z"/>
<path style="fill:#9c9e7f; stroke:none;" d="M1885 467L1886 468L1885 467M1006.33 468.667L1006.67 469.333L1006.33 468.667z"/>
<path style="fill:#9f646e; stroke:none;" d="M1885 468L1886 469L1885 468z"/>
<path style="fill:#9c9e7f; stroke:none;" d="M1051.33 469.667L1051.67 470.333L1051.33 469.667M1644 469L1645 470L1644 469z"/>
<path style="fill:#9f646e; stroke:none;" d="M1854 470L1855 471L1854 470z"/>
<path style="fill:#9c9e7f; stroke:none;" d="M1886.33 470.667L1886.67 471.333L1886.33 470.667M1007 471L1008 472L1007 471M919.299 473.89C915.865 474.988 917.163 481.097 920.91 480.168C925 479.154 923.335 472.601 919.299 473.89z"/>
<path style="fill:#9f646e; stroke:none;" d="M1855.33 473.667L1855.67 474.333L1855.33 473.667z"/>
<path style="fill:#9c9e7f; stroke:none;" d="M1887.33 473.667L1887.67 474.333L1887.33 473.667M1008 475L1009 476L1008 475z"/>
<path style="fill:#2626d0; stroke:none;" d="M1642 475C1634.78 502.02 1624.24 528.329 1615.81 555C1613.22 563.193 1605.54 576.404 1606.81 585C1609.51 603.183 1627.38 603 1641 603L1637 589L1638 589C1640.73 598.984 1643.52 602.999 1654 603L1650 581L1651 581L1656 603L1739 603L1740 519C1702.76 515.958 1673.8 490.819 1642 475z"/>
<path style="fill:#9c9e7f; stroke:none;" d="M1644.67 475.333L1645.33 475.667L1644.67 475.333z"/>
<path style="fill:#9f646e; stroke:none;" d="M1887 475L1888 476L1887 475z"/>
<path style="fill:#9c9e7f; stroke:none;" d="M1053 476L1054 477L1053 476M1646 476L1646 477L1649 478L1646 476z"/>
<path style="fill:#9f646e; stroke:none;" d="M1856 476L1857 477L1856 476z"/>
<path style="fill:#9c9e7f; stroke:none;" d="M1888 476L1889 477L1888 476M1650 477L1651 478L1650 477M1054 478L1055 479L1054 478M1651 479C1655.21 485.934 1666.01 490.429 1673 494.231C1693.44 505.354 1716.67 515.987 1740 519C1740.8 514.697 1742.47 507.555 1740.4 503.433C1737.51 497.7 1719.61 496.401 1714 497L1714 496L1717 496L1717 495L1679 489C1678.17 485.123 1667.21 483.284 1664 485L1651 479z"/>
<path style="fill:#9f646e; stroke:none;" d="M1857 479L1858 480L1857 479z"/>
<path style="fill:#9c9e7f; stroke:none;" d="M1889.33 479.667L1889.67 480.333L1889.33 479.667z"/>
<path style="fill:#9f646e; stroke:none;" d="M1652 481L1653 482L1652 481M1653 482L1654 483L1653 482M1858.33 482.667L1858.67 483.333L1858.33 482.667z"/>
<path style="fill:#9c9e7f; stroke:none;" d="M1890.33 482.667L1890.67 483.333L1890.33 482.667z"/>
<path style="fill:#9f646e; stroke:none;" d="M1655 483L1656 484L1655 483M1656 484L1657 485L1656 484z"/>
<path style="fill:#9c9e7f; stroke:none;" d="M1891 484L1891 487L1892 487L1891 484z"/>
<path style="fill:#9f646e; stroke:none;" d="M1658 485L1659 486L1658 485M1859.33 485.667L1859.67 486.333L1859.33 485.667z"/>
<path style="fill:#9c9e7f; stroke:none;" d="M984.603 487.046C981.448 489.437 985.214 494.365 988.397 491.954C991.553 489.563 987.785 484.635 984.603 487.046z"/>
<path style="fill:#9f646e; stroke:none;" d="M1659 486L1660 487L1659 486z"/>
<path style="fill:#9c9e7f; stroke:none;" d="M888.603 488.046C885.425 490.455 889.18 495.24 892.397 492.802C895.549 490.414 891.712 485.691 888.603 488.046z"/>
<path style="fill:#9f646e; stroke:none;" d="M1661 487L1662 488L1661 487z"/>
<path style="fill:#9c9e7f; stroke:none;" d="M1680 487L1681 488L1680 487M1892 487L1892 490L1893 490L1892 487z"/>
<path style="fill:#9f646e; stroke:none;" d="M1663 488L1664 489L1663 488M1664 489L1665 490L1664 489M1860 489L1861 490L1860 489M1666 490L1667 491L1666 490z"/>
<path style="fill:#9c9e7f; stroke:none;" d="M1893.33 490.667L1893.67 491.333L1893.33 490.667z"/>
<path style="fill:#9f646e; stroke:none;" d="M1668 491L1669 492L1668 491z"/>
<path style="fill:#9c9e7f; stroke:none;" d="M1740 491L1741 492L1740 491z"/>
<path style="fill:#9f646e; stroke:none;" d="M1861 491L1861 494L1862 494L1861 491M1669 492L1670 493L1669 492M1671 493L1672 494L1671 493z"/>
<path style="fill:#9c9e7f; stroke:none;" d="M1894.33 493.667L1894.67 494.333L1894.33 493.667z"/>
<path style="fill:#9f646e; stroke:none;" d="M1673 494L1674 495L1673 494M1862 494L1862 497L1863 497L1862 494M1675 495L1676 496L1675 495M1768 495L1769 496L1768 495M1677 496L1678 497L1677 496z"/>
<path style="fill:#9c9e7f; stroke:none;" d="M1895.33 496.667L1895.67 497.333L1895.33 496.667z"/>
<path style="fill:#9f646e; stroke:none;" d="M1678 497L1679 498L1678 497M1863 497L1864 504L1865 504L1863 497M1680 498L1681 499L1680 498z"/>
<path style="fill:#9c9e7f; stroke:none;" d="M1740 498L1741 499L1740 498z"/>
<path style="fill:#9f646e; stroke:none;" d="M1768 498C1768 503.699 1765.41 517.834 1769.03 522.397C1771.75 525.829 1782.06 524 1786 524C1803.45 524 1819.89 522.284 1837 518.801C1845.07 517.157 1868.26 514.872 1866 504L1865 504L1865 509C1841.53 510.008 1818.76 514 1795 514C1789.32 514 1774.85 515.648 1770.6 511.397C1767.45 508.241 1769.65 501.921 1768 498M1682 499L1683 500L1682 499z"/>
<path style="fill:#9c9e7f; stroke:none;" d="M1896.33 499.667L1896.67 500.333L1896.33 499.667M1864 500L1865 501L1864 500z"/>
<path style="fill:#9f646e; stroke:none;" d="M1687 501L1688 502L1687 501M1689 502L1690 503L1689 502z"/>
<path style="fill:#9c9e7f; stroke:none;" d="M1897.33 502.667L1897.67 503.333L1897.33 502.667z"/>
<path style="fill:#9f646e; stroke:none;" d="M1691 503L1692 504L1691 503M1693 504L1694 505L1693 504z"/>
<path style="fill:#9c9e7f; stroke:none;" d="M1898 504L1898 507L1899 507L1898 504z"/>
<path style="fill:#9f646e; stroke:none;" d="M1698 506L1699 507L1698 506M1700 507L1701 508L1700 507M1703 508L1704 509L1703 508M1706 509L1707 510L1706 509M1708 510L1709 511L1708 510z"/>
<path style="fill:#2626d0; stroke:none;" d="M1768 523L1769 606L1899 606L1868 510C1836.29 517.335 1801.14 530.891 1768 523z"/>
<path style="fill:#9f646e; stroke:none;" d="M1711 511L1712 512L1711 511M1714 512L1715 513L1714 512M1717 513L1718 514L1717 513z"/>
<path style="fill:#9c9e7f; stroke:none;" d="M1008.32 515.086C1005.03 517.103 1008.37 521.985 1011.4 519.914C1014.27 517.949 1011.48 513.149 1008.32 515.086z"/>
<path style="fill:#9f646e; stroke:none;" d="M1720 514L1721 515L1720 514M1645 515L1646 516L1645 515M1724 515L1725 516L1724 515M1727.67 516.333L1728.33 516.667L1727.67 516.333M1740.33 516.667L1740.67 517.333L1740.33 516.667M1731 517L1732 518L1731 517M1735.67 518.333L1736.33 518.667L1735.67 518.333M1688 534L1688 536L1693 536L1693 534L1688 534z"/>
<path style="fill:#9c9e7f; stroke:none;" d="M1690.67 535.333L1691.33 535.667L1690.67 535.333z"/>
<path style="fill:#2626d0; stroke:none;" d="M27 548L27 567L67 567L67 661L88 661L88 567L127 567L127 548L27 548M494 574L479 574L479 591L494 591L494 661L514 661L513 591L534 591L534 574L513 574L514 548C498.125 551.632 494 559.069 494 574z"/>
<path style="fill:#3cb6e6; stroke:none;" d="M1650.67 552.333L1651.33 552.667L1650.67 552.333M1646 566L1647 567L1646 566M1710.67 567.333L1711.33 567.667L1710.67 567.333M1647 569L1647 572L1648 572L1647 569z"/>
<path style="fill:#2626d0; stroke:none;" d="M200 638L182 631C170.082 648.448 135.08 651.806 135 624L199 624C199 606.138 200.868 591.115 184.576 579.468C163.89 564.68 120.452 570.837 115.329 600C112.475 616.244 112.611 638.913 125.04 650.907C145.545 670.692 189.503 666.67 200 638M291 638L273 631C270.584 634.86 267.886 638.368 263.996 640.867C231.983 661.428 211.771 605.023 241 591.905C248.696 588.451 258.267 589.504 264.996 594.557C267.981 596.798 270.436 601.179 274.09 602.303C279.129 603.854 286.308 598.598 291 597C284.067 561.15 214.908 564.125 208.34 599C204.901 617.258 205.563 641.703 221.039 653.765C240.799 669.164 283.823 666.395 291 638M318 581L318 574L299 574L299 661L319 661L319 619C319 613.324 317.548 605.2 320.179 600.004C326.99 586.55 351.01 586.55 357.821 600.004C360.452 605.2 359 613.324 359 619L359 661L378 661L378 615C378 607.844 379.433 598.856 377.147 592C368.709 566.701 335.401 569.149 318 581M423 572.439C409.672 574.521 393.67 583.048 389.638 597C387.71 603.674 389 612.099 389 619C389 625.673 387.732 633.814 390.674 640C398.95 657.405 420.817 665.175 439 662.572C453.798 660.453 470.826 652.781 475.362 637C477.282 630.318 476 621.908 476 615C476 607.074 477.023 599.05 472.731 592C462.482 575.163 441.624 569.53 423 572.439M680 638C675.666 635.97 668.014 631.028 663.104 631.979C658.345 632.901 653.9 640.845 649 643.175C634.502 650.071 614.858 640.542 614 624L679 624C679 606.351 680.947 591.346 665 579.613C644.118 564.248 599.514 571.156 595.21 601C592.974 616.502 592.386 638.305 604.04 649.96C624.25 670.171 669.603 667.761 680 638M773 638L754 631C743.806 650.958 707.287 649.744 707 624L772 624C772 607.995 774.038 592.683 759.985 581.529C740.192 565.817 693.714 568.309 688.263 599C685.827 612.719 685.19 635.972 694.329 646.999C714.414 671.236 760.056 667.992 773 638z"/>
<path style="fill:#3cb6e6; stroke:none;" d="M1648 573L1648 576L1649 576L1648 573z"/>
<path style="fill:#2626d0; stroke:none;" d="M543 574L543 661L562 661L562 621C562 616.42 560.475 608.395 563.028 604.39C567.824 596.869 587.703 588.141 596 585C586.978 568.984 572.169 577.609 561 585L561 574L543 574z"/>
<path style="fill:#3cb6e6; stroke:none;" d="M1649 577L1649 581L1650 581L1649 577M1633 580L1634 581L1633 580M1650 581L1654 603C1643.58 602.992 1641.54 598.135 1638 589L1637 589L1641 603L1620.17 601.972L1607 586L1606 586L1616 603L1600 602C1590.92 633.994 1579.33 665.39 1569 697C1565.8 706.797 1555.72 724.778 1558.8 734.96C1561.98 745.461 1581.49 752.521 1590 758.414C1621.86 780.462 1655.61 799.913 1688 821.169C1696.92 827.022 1719.08 847.582 1729.87 838.566C1735.02 834.257 1734 826.998 1734 821C1734 806.284 1735 791.673 1735 777C1735 719.115 1736.52 660.811 1739 603L1656 603L1650 581M1634 582L1636 589L1637 589L1634 582z"/>
<path style="fill:#2626d0; stroke:none;" d="M1605 587C1601.09 600.778 1601.17 603 1616 603L1605 587z"/>
<path style="fill:#010101; stroke:none;" d="M135 608L180 608C178.85 583.247 135.597 582.604 135 608M614 608L660 608C659.39 582.642 616.536 583.242 614 608M707 608L753 608C751.648 582.992 708.304 582.922 707 608M425 590.613C394.288 598.737 405.532 652.815 439 644.239C470.964 636.049 459.785 581.411 425 590.613z"/>
<path style="fill:#3cb6e6; stroke:none;" d="M1711 597L1712 600C1720.76 596.98 1719.57 592.776 1711 597M1769 606C1769 663.705 1770 721.352 1770 779C1770 793.663 1769.44 808.414 1770.83 823C1771.33 828.211 1769.62 834.606 1774.15 838.427C1784.93 847.533 1805.96 828.206 1815 822.576C1845.68 803.471 1877.28 785.001 1907 764.435C1916.45 757.897 1932.69 752.537 1939.26 742.896C1943.06 737.312 1940.13 729.664 1938.14 724C1933.39 710.431 1929.11 696.674 1924.67 683C1918.7 664.641 1912.38 646.39 1906.5 628C1904.82 622.736 1903.14 610.329 1898.49 607.028C1891.91 602.361 1872.01 606 1864 606L1769 606z"/>
<path style="fill:#9c9e7f; stroke:none;" d="M1585 647L1586 648L1585 647z"/>
<path style="fill:#2626d0; stroke:none;" d="M1359 845L1303 845C1300.99 854.712 1297.28 865.255 1289.49 871.906C1279.83 880.142 1264.05 878.493 1258.98 866C1252.57 850.19 1262.9 826.3 1265 810L1331 810L1355.4 808.972L1358.46 797L1365 761L1274 761L1283 706C1268.2 710.23 1254.23 717.756 1240 723.548C1234.78 725.672 1225.68 727.254 1221.94 731.699C1219.44 734.663 1219.68 740.344 1218.88 744C1216.45 755.145 1214.47 766.709 1212.87 778C1208.97 805.455 1202.68 832.549 1198.73 860C1196.09 878.303 1196.83 897.961 1211.75 911.239C1225.57 923.526 1245.28 926 1263 926C1281.03 926 1298.59 924.451 1315 916.191C1340.79 903.212 1356.77 873.174 1359 845M969 863L912 863C908.921 878.913 886.769 884.622 876.394 871.957C870.122 864.3 873.927 855.784 874 847L931 847L962 847C965.307 847 971.498 848.166 974.262 845.972C978.217 842.833 978.455 829.807 979.13 825C982.773 799.087 978.975 774.602 953 762.792C918.279 747.006 859.134 755.522 835.609 787C822.704 804.268 820.135 825.353 816.754 846C813.694 864.682 808.299 886.878 819.387 904C831.12 922.115 856.097 926 876 926C917.99 926 964.919 912.963 969 863M1429 871L1372 871C1370.98 883.97 1369.95 897.032 1378.9 907.83C1388.06 918.87 1402.51 922.332 1416 924.424C1448.09 929.401 1502.18 929.951 1522.3 898.999C1533.57 881.668 1534.43 854.039 1517 840.529C1506.37 832.29 1492.02 829.804 1479 828C1469.73 826.716 1444.25 826.689 1441.19 815.282C1439.86 810.307 1445.13 805.677 1449 803.684C1460.21 797.917 1487.22 799.172 1480 817L1518 817C1522.95 817 1530.24 818.334 1534.87 816.397C1546.87 811.375 1542.42 784.929 1536.95 777C1525.85 760.922 1504.97 758.228 1487 756.911C1449.34 754.151 1388.32 760.92 1383.17 809C1379.34 844.801 1403.68 858.69 1436 861.83C1444.71 862.676 1466.15 861.65 1471.3 870.108C1474.64 875.587 1467.43 880.049 1463 881.152C1452.39 883.794 1432.59 883.766 1429 871M90 778L93 761L39 761L18.7145 876L11 922L69 922C69.4552 900.063 76.5033 876.581 80.5401 855C82.666 843.635 82.4408 828.658 87.3943 818.174C93.1358 806.021 115.598 801.539 124.431 812.185C131.2 820.343 126.312 832.779 125.001 842C121.197 868.754 115.947 895.445 111 922L169 922C172.105 897.958 177.082 873.831 181.54 850C183.277 840.717 183.142 828.74 187.224 820.174C193.505 806.991 219.412 799.31 227.91 814.005C232.465 821.879 228.668 832.721 227.285 841C223.904 861.243 214.465 889.747 225.199 908.999C237.04 930.237 284.805 933.96 300.436 914.674C306.481 907.215 303.994 884.464 304 875C298.551 875.938 292.627 879.497 287.005 877.397C280.223 874.864 280.775 868.798 281.715 863C283.496 852.015 285.579 841.007 287.13 830C291.093 801.887 297.549 767.293 262 758.749C256.182 757.351 249.961 757.002 244 757C234.717 756.996 225.839 757.325 217 760.544C204.172 765.216 196.944 774.399 187 783C184.535 769.178 172.524 762.318 160 759.015C134.183 752.205 108.642 759.371 90 778M406 757.424C374.192 761.603 345.808 772.754 333.461 805C328.202 818.732 327.263 833.718 324.336 848C320.297 867.701 315.253 892.34 330.21 908.96C347.301 927.951 384.551 928.594 408 925.714C417.419 924.557 427.005 923.017 436 919.921C474.358 906.721 480.391 871.301 486.285 836C489.413 817.272 494.763 795.802 482.387 779C466.209 757.036 430.976 754.143 406 757.424M583 777L585 761L547 761L532.603 762.028L529.661 772L524.551 802L503 922L545 922C548.944 922 557.131 923.54 560.397 920.972C565.123 917.258 565.247 898.881 566.134 893C568.811 875.262 573.107 857.747 575.728 840C576.827 832.561 577.024 820.974 582.279 815.185C592.514 803.909 618.669 801.067 620.366 821C621.17 830.448 617.83 840.75 616.286 850C612.279 873.992 607.053 897.86 604 922L646 922C649.858 922 658.207 923.566 661.062 920.397C665.337 915.65 665.037 902.195 666.081 896C669.114 878.001 671.98 859.885 675.551 842C676.9 835.245 676.678 826.079 679.988 820C683.326 813.872 690.476 809.392 697 807.44C707.816 804.203 720.586 807.298 722.667 820C723.798 826.902 721.083 835.213 719.804 842C716.041 861.968 707.536 888.782 717.374 908C727.24 927.271 756.401 929.471 775 924.14C781.089 922.394 789.363 919.765 793.397 914.536C795.993 911.169 794.866 905.966 795.039 902C795.433 893.003 796.291 883.978 797 875C789.744 876.072 774.905 882.544 773.514 869.996C772.898 864.437 775.225 858.456 775.999 853C779.367 829.258 790.274 797.878 778.865 775C766.351 749.907 720.299 753.318 700 765.229C693.099 769.279 684.798 775.229 682 783L680 783C672.663 752.126 624.929 751.979 602 763.11C594.847 766.582 588.814 771.645 583 777M1071 778L1074 761L1020 761L992 922L1050 922C1054.15 899.735 1057.98 877.329 1061.71 855C1063.66 843.37 1064.25 830.152 1068.15 819.001C1072.22 807.336 1094.66 800.111 1101.31 813.015C1105.33 820.816 1101.63 830.956 1100.29 839C1096.86 859.527 1086.93 886.982 1096.55 907C1107.82 930.435 1156.71 934.336 1173.4 914.251C1175.99 911.135 1174.99 905.77 1175 902C1175.01 892.999 1176 884.047 1176 875C1168.94 876.633 1156.04 881.995 1153.47 870.996C1151.83 863.965 1155.52 853.993 1156.75 847C1160.1 827.87 1166.49 806.536 1163.7 787C1157.19 741.441 1093.54 754.238 1071 778z"/>
<path style="fill:#010101; stroke:none;" d="M878 826L909 826C912.073 826 917.694 827.047 920.258 824.972C926.649 819.802 919.353 806.746 913.96 804.05C897.384 795.765 882.381 811.508 878 826M408 804.441C387.778 807.6 385.154 828.378 382.576 845C381.675 850.807 379.522 857.098 380.189 863C381.526 874.823 392.022 880.395 403 878.696C425.605 875.197 432.249 837.875 429.867 819C428.5 808.162 418.022 802.875 408 804.441z"/>
</svg>
