<svg xmlns="http://www.w3.org/2000/svg" width="38" height="38" viewBox="0 0 38 38">
    <!-- <defs>
        <style>
            .cls-1{fill:#4a494a}
        </style>
    </defs> -->
    <path id="MoreAction" d="M683.087 364.609a19 19 0 1 0 19 19 19 19 0 0 0-19-19zm.113 8a1.614 1.614 0 1 1-1.614 1.614 1.614 1.614 0 0 1 1.614-1.612zm-9.495 12.723a1.614 1.614 0 1 1 1.614-1.614 1.615 1.615 0 0 1-1.614 1.616zm4.663 4.668a1.614 1.614 0 1 1 1.614-1.614 1.614 1.614 0 0 1-1.614 1.614zm.266-9.592a1.614 1.614 0 1 1 1.614-1.614 1.614 1.614 0 0 1-1.614 1.606zm4.4 14.255a1.614 1.614 0 1 1 1.614-1.614 1.615 1.615 0 0 1-1.617 1.611zm.266-9.592a1.614 1.614 0 1 1 1.614-1.614 1.615 1.615 0 0 1-1.614 1.611zm4.566-7.794a1.614 1.614 0 1 1-1.614 1.614 1.613 1.613 0 0 1 1.611-1.617zm.1 12.457a1.614 1.614 0 1 1 1.614-1.614 1.614 1.614 0 0 1-1.62 1.611zm4.566-4.566a1.614 1.614 0 1 1 1.614-1.614 1.615 1.615 0 0 1-1.62 1.611z" transform="translate(-664.087 -364.609)"/>
</svg>
