<svg xmlns="http://www.w3.org/2000/svg" width="16.88" height="16.88" viewBox="0 0 16.88 16.88">
<defs><style>.movableIconColor{fill:#999;}</style></defs><g transform="translate(0 0)"><g transform="translate(0 0)"
><path class="movableIconColor" d="M-3064.157-367.946c-.881-.881-1.6-1.609-1.6-1.618a6.627,6.627,0,0,1,.559-.559c.01,0,.51.492,1.111,1.093s1.1,1.093,1.106,1.093.012-1.449.012-3.219v-3.219h-3.219c-1.771,0-3.22.006-3.22.013s.5.511,1.106,1.119l1.106,1.106-.289.288-.288.288-1.614-1.614L-3071-374.79l1.623-1.622,1.622-1.622.289.288.289.288-1.115,1.115c-.613.613-1.115,1.121-1.115,1.128s1.448.013,3.22.013h3.219v-3.228c0-1.775-.005-3.228-.012-3.228s-.511.5-1.119,1.106l-1.106,1.106-.284-.284-.284-.284,1.606-1.605c.883-.883,1.613-1.606,1.623-1.606s.741.724,1.626,1.61l1.61,1.61-.284.284c-.156.156-.288.284-.294.284s-.509-.5-1.119-1.11-1.115-1.11-1.122-1.11-.013,1.452-.013,3.228v3.228h3.228c2.575,0,3.225,0,3.219-.022s-.5-.517-1.111-1.123l-1.1-1.1.289-.289.289-.289,1.605,1.605c.883.883,1.605,1.613,1.605,1.623s-.72.738-1.6,1.618l-1.6,1.6-.284-.284-.285-.284,1.1-1.1c.606-.606,1.1-1.108,1.1-1.115s-1.452-.013-3.228-.013h-3.228v3.219c0,1.771.006,3.219.013,3.219s.512-.5,1.123-1.11l1.111-1.11.28.28a3.58,3.58,0,0,1,.28.3c0,.01-.724.742-1.61,1.627l-1.61,1.609Z" 
transform="translate(3071.001 383.225)"/></g></g></svg>