<svg xmlns="http://www.w3.org/2000/svg" width="65.919" height="32.96" viewBox="0 0 65.919 32.96">
  <g id="MTN_Logo" transform="translate(0 0)">
    <path id="Path_46755" data-name="Path 46755" d="M352.96,320c-18.2,0-32.96,7.378-32.96,16.48s14.757,16.48,32.96,16.48,32.96-7.378,32.96-16.48S371.163,320,352.96,320Zm0,30.358c-16.766,0-30.358-6.213-30.358-13.878S336.194,322.6,352.96,322.6s30.358,6.213,30.358,13.878S369.726,350.358,352.96,350.358ZM348.8,333.589v-2.6h9.3v2.6h-3.348v8.385h-2.6v-8.385Zm20.522-2.6v10.987h-2.6L362,335.433v6.54h-2.6V330.986H362l4.719,6.54v-6.54Zm-32.808,10.987V330.986h2.6l2.891,4.446,2.891-4.446h2.6v10.987h-2.6v-6.214l-1.973,3.033h-1.834l-1.973-3.033v6.214Z" transform="translate(-320 -320)"/>
  </g>
</svg>
