<?xml version="1.0" encoding="utf-8"?>
<!-- Generator: Adobe Illustrator 26.0.2, SVG Export Plug-In . SVG Version: 6.00 Build 0)  -->
<svg version="1.1" xmlns="http://www.w3.org/2000/svg" xmlns:xlink="http://www.w3.org/1999/xlink" x="0px" y="0px"
	 viewBox="0 0 35 35" style="enable-background:new 0 0 35 35;" xml:space="preserve">
<style type="text/css">
	.st0{display:none;}
	.st1{display:inline;fill:#00A99D;}
	.st2{display:inline;fill:#E5E5E5;}
	.st3{display:inline;}
	.st4{fill:#E5E5E5;}
	.st5{fill:#E5E5E5;stroke:#E5E5E5;stroke-width:1.0859;stroke-miterlimit:10;}
	.st6{fill:#E5E5E5;stroke:#E5E5E5;stroke-miterlimit:10;}
	.st7{clip-path:url(#SVGID_00000070837013069010169610000000320573209092860858_);}
	.st8{fill:#707070;}
	.st9{clip-path:url(#SVGID_00000043459034257092915810000004648719317443392677_);}
	.st10{clip-path:url(#SVGID_00000017482371367306921330000002136592363603487620_);}
	.st11{fill:#FFFFFF;}
	.st12{clip-path:url(#SVGID_00000089550658008974575510000016947273247195856022_);}
	.st13{clip-path:url(#SVGID_00000096779578310842771450000005583110304901699510_);}
	.st14{clip-path:url(#SVGID_00000151515803533600730350000009504128684461208730_);}
	.st15{clip-path:url(#SVGID_00000174591142488199268460000017365992447260755391_);}
	.st16{clip-path:url(#SVGID_00000101822806737200076120000003764797310609981839_);}
	.st17{clip-path:url(#SVGID_00000031889800563827950160000006514308472981720976_);}
	.st18{clip-path:url(#SVGID_00000036252919000580533600000000610866697446581680_);}
	.st19{fill:#707070;stroke:#707070;stroke-width:1.1122;stroke-miterlimit:10;}
	.st20{fill:#CECECE;stroke:#57606F;stroke-width:0.9166;stroke-linejoin:round;}
	.st21{fill:none;stroke:#57606F;stroke-width:0.9166;stroke-linejoin:round;}
	.st22{fill:#FFFFFF;stroke:#57606F;stroke-linejoin:round;}
	.st23{fill:none;stroke:#57606F;stroke-linejoin:round;}
	.st24{fill:#FFFFFF;stroke:#57606F;stroke-width:1;stroke-linejoin:round;stroke-miterlimit:4;}
</style>
<g id="Layer_8" class="st0">
	<rect x="-2" class="st1" width="39" height="36"/>
</g>
<g id="Layer_1" class="st0">
	<path id="Path_43500" class="st2" d="M33.59,17.11c0.59-0.64,0.54-1.64-0.1-2.22c-0.01-0.01-0.02-0.02-0.03-0.03L18.71,1.96
		c-0.7-0.59-1.72-0.57-2.4,0.03L1.51,15.55c-0.64,0.58-0.69,1.57-0.11,2.21c0.01,0.01,0.02,0.03,0.04,0.04l0.37,0.39
		c0.58,0.64,1.55,0.71,2.22,0.17l1.11-0.99v14.5c0,0.89,0.72,1.61,1.61,1.61h5.77c0.89,0,1.61-0.72,1.61-1.61V21.72h7.36v10.15
		c-0.05,0.84,0.59,1.56,1.43,1.61c0.03,0,0.05,0,0.08,0h6.11c0.89,0,1.61-0.72,1.61-1.61c0,0,0,0,0-0.01v-14.3l0.68,0.6
		c0.38,0.33,1.17,0.06,1.76-0.59L33.59,17.11z"/>
</g>
<g id="Layer_2" class="st0">
	<g id="Group_34945" class="st3">
		<path id="ic_playlist_add_check_24px" class="st4" d="M26.42,20.54H8.58v2.95h17.84V20.54z M26.42,14.64H8.58v2.95h17.84V14.64z
			 M8.58,29.39h11.89v-2.95H8.58V29.39z"/>
		<path id="ic_content_paste_24px" class="st4" d="M27.88,4.15h-6.2c-0.81-2.31-3.34-3.53-5.65-2.72c-1.27,0.45-2.27,1.45-2.72,2.72
			h-6.2c-1.64,0-2.96,1.33-2.97,2.97v23.73c0,1.64,1.33,2.96,2.97,2.97h20.76c1.64,0,2.96-1.33,2.97-2.97V7.12
			C30.84,5.48,29.52,4.16,27.88,4.15z M17.5,4.15c0.82,0,1.48,0.66,1.48,1.48s-0.66,1.48-1.48,1.48c-0.82,0-1.48-0.66-1.48-1.48
			c0,0,0,0,0,0C16.02,4.82,16.68,4.16,17.5,4.15L17.5,4.15z M27.88,30.85H7.12V7.12h2.97v4.45h14.83V7.12h2.97V30.85z"/>
	</g>
</g>
<g id="Layer_3" class="st0">
	<path id="Union_3" class="st2" d="M19.85,33.91V17.49h14.08v16.42H19.85z M1.09,33.91V22.19h14.07v11.72H1.09z M1.08,17.49V1.09
		h14.07V17.5L1.08,17.49z M19.85,12.81V1.09h14.08v11.73L19.85,12.81z"/>
</g>
<g id="Layer_4" class="st0">
	<g id="Group_69301" transform="translate(-220.017 -103.047)" class="st3">
		<path id="Path_43729" class="st5" d="M237.47,133.35c-3.89,0-7.79,0-11.68,0c-0.8,0.04-1.58-0.22-2.2-0.72
			c-0.76-0.58-1.2-1.47-1.19-2.43c0.02-6.44,0.03-12.87-0.01-19.31c0.05-1.27,0.83-2.41,2-2.91c0.38-0.14,0.77-0.22,1.18-0.24
			c2.32-0.02,4.63-0.02,6.95-0.01c1.01,0,1.97,0.49,2.57,1.3c0.86,1.06,1.73,2.12,2.59,3.19c0.12,0.17,0.31,0.26,0.52,0.25
			c3.68-0.01,7.36-0.01,11.03-0.01c1.21-0.05,2.36,0.56,2.98,1.6c0.3,0.47,0.45,1.01,0.45,1.57c0,4.83,0.01,9.66,0,14.49
			c-0.03,1.8-1.51,3.23-3.31,3.2c-0.02,0-0.04,0-0.06,0c-2.61,0.01-5.21,0-7.81,0L237.47,133.35z M238.39,131.99
			c3.61,0,7.22,0,10.82,0c1.06,0.08,1.99-0.71,2.07-1.77c0.01-0.1,0.01-0.2,0-0.29c0-4.68,0-9.36,0-14.04
			c0.08-1.04-0.7-1.95-1.74-2.03c-0.1-0.01-0.19-0.01-0.29,0c-6.69,0-13.39,0-20.08,0c-0.23,0-0.45,0.03-0.67,0.09
			c-0.87,0.24-1.45,1.06-1.37,1.97c0,5.24,0,10.49,0,15.73c0,0.35,0,0.35,0.35,0.35H238.39z M236.08,112.49
			c-0.02-0.04-0.04-0.09-0.07-0.13c-0.69-0.85-1.37-1.71-2.06-2.55c-0.37-0.47-0.94-0.73-1.53-0.7h-0.06c-2.21,0-4.42,0-6.62,0
			c-0.65-0.03-1.28,0.27-1.66,0.79c-0.26,0.39-0.39,0.85-0.36,1.31c0,6.19,0,12.38,0,18.57c0,0.1,0,0.2,0,0.3
			c-0.01,0.97,0.72,1.79,1.68,1.89c0.37,0.05,0.37,0.05,0.37-0.33c0-5.19,0-10.39,0-15.58c0-0.17,0-0.34,0.01-0.5
			c0.01-0.52,0.16-1.02,0.43-1.45c0.61-1.04,1.74-1.65,2.94-1.61c2.18,0,4.36,0,6.54,0L236.08,112.49z"/>
		<path id="Path_43730" class="st5" d="M239.65,120.25v0.31c0,2.22,0,4.43,0,6.65c0,0.13,0,0.26-0.02,0.38
			c-0.06,0.31-0.33,0.54-0.65,0.54c-0.32,0-0.59-0.23-0.65-0.54c-0.03-0.15-0.04-0.29-0.04-0.44c0-2.18,0-4.35,0-6.53v-0.35
			l-0.09-0.06c-0.06,0.09-0.12,0.17-0.18,0.25c-0.78,0.85-1.56,1.7-2.36,2.53c-0.16,0.16-0.36,0.26-0.57,0.31
			c-0.24,0.04-0.49-0.09-0.59-0.31c-0.13-0.2-0.13-0.47,0-0.67c0.06-0.1,0.13-0.19,0.22-0.28c1.21-1.3,2.43-2.61,3.65-3.91
			c0.46-0.49,0.82-0.49,1.27-0.01c1.23,1.32,2.46,2.64,3.68,3.96c0.3,0.23,0.36,0.65,0.15,0.95c-0.2,0.29-0.59,0.37-0.89,0.18
			c-0.11-0.08-0.22-0.17-0.31-0.27c-0.78-0.83-1.56-1.67-2.34-2.5c-0.07-0.08-0.14-0.16-0.21-0.23L239.65,120.25z"/>
	</g>
</g>
<g id="Layer_5" class="st0">
	<g id="Group_69312" transform="translate(0 0)" class="st3">
		<g>
			<defs>
				<rect id="SVGID_1_" x="1.22" y="2.03" width="32.55" height="30.95"/>
			</defs>
			<clipPath id="SVGID_00000149358444199979494480000002630438658807646628_">
				<use xlink:href="#SVGID_1_"  style="overflow:visible;"/>
			</clipPath>
			
				<g id="Group_68540" transform="translate(0 0)" style="clip-path:url(#SVGID_00000149358444199979494480000002630438658807646628_);">
				<path id="Path_46638" class="st8" d="M1.22,17.86c0.19-0.31,0.55-0.49,0.91-0.44c0.74,0.02,1.48,0.01,2.23,0.01H4.7
					c-0.05-0.56-0.1-1.09-0.13-1.61c-0.09-2.08,0.31-4.15,1.18-6.05c0.1-0.34,0.46-0.53,0.8-0.43c0.34,0.1,0.53,0.46,0.43,0.8
					c-0.02,0.06-0.04,0.11-0.07,0.16c-0.74,1.6-1.11,3.35-1.08,5.12c0.01,0.6,0.11,1.2,0.15,1.8c0.01,0.18,0.09,0.24,0.26,0.23
					c0.87-0.08,1.13,0.22,1.07,1.12c-0.01,0.11,0,0.23,0,0.37h1.41v-0.35c0-1.92,0-3.84,0-5.75c0-0.59,0.21-0.8,0.8-0.81
					c1.49,0,2.99,0,4.48,0h0.38v-0.37c0-1.02,0-2.03,0-3.05c-0.06-0.36,0.19-0.69,0.55-0.75c0.06-0.01,0.13-0.01,0.19,0
					c1.83,0,3.67,0.01,5.5,0.03c0.48,0,0.7,0.24,0.7,0.75c0,2.08,0,4.15,0,6.23v0.41c0.14,0.01,0.26,0.02,0.38,0.02
					c1.47,0,2.95,0,4.42,0c0.67,0,0.87,0.2,0.87,0.88c0,2.12,0,4.24,0,6.36v0.4c0.07-0.05,0.13-0.1,0.18-0.16
					c2.06-2.55,2.97-5.83,2.51-9.08c-0.03-0.28-0.09-0.56-0.14-0.85c-0.1-0.35,0.1-0.71,0.45-0.8c0.01,0,0.02,0,0.03-0.01
					c0.34-0.08,0.68,0.13,0.76,0.47c0.01,0.03,0.01,0.06,0.01,0.09c0.84,3.95-0.18,8.07-2.78,11.16c-0.12,0.19-0.27,0.35-0.45,0.49
					c-0.75,0.5-0.56,1.23-0.55,1.96c1.01-0.23,1.98-0.45,2.96-0.68c0.66-0.21,1.37-0.2,2.03,0.02c0.87,0.33,1.52,1.07,1.72,1.98
					c0.02,0.07,0.05,0.14,0.07,0.2v0.82c-0.02,0.02-0.04,0.05-0.05,0.08c-0.2,1.12-1.06,2-2.18,2.22c-2.46,0.62-4.92,1.25-7.38,1.88
					c-1.59,0.42-3.27,0.32-4.8-0.29c-2.82-1.11-5.64-2.2-8.44-3.32c-0.77-0.35-1.61-0.51-2.46-0.47c-0.37,0.03-0.75,0.01-1.15,0.01
					c0,0.16,0,0.28,0,0.4c0,0.63-0.21,0.84-0.84,0.84c-1.47,0-2.95-0.01-4.42,0.01c-0.34,0.04-0.67-0.14-0.83-0.45V17.86z
					 M7.33,27.37c0.78,0,1.53-0.01,2.29,0.01c0.23,0,0.46,0.05,0.68,0.13c3.17,1.24,6.34,2.48,9.51,3.72
					c1.17,0.49,2.47,0.61,3.71,0.32c2.62-0.64,5.23-1.31,7.84-1.99c0.79-0.17,1.29-0.95,1.13-1.74c-0.01-0.03-0.01-0.06-0.02-0.09
					c-0.2-0.8-1-1.28-1.8-1.09c-0.02,0-0.03,0.01-0.05,0.01c-1.94,0.44-3.88,0.87-5.81,1.33c-1.58,0.44-3.26,0.38-4.81-0.17
					c-2.09-0.79-4.17-1.59-6.25-2.39c-0.44-0.17-0.62-0.49-0.48-0.86c0.13-0.37,0.49-0.49,0.93-0.33l0.15,0.06
					c1.32,0.51,2.65,1.01,3.97,1.52c0.45,0.19,0.96,0.16,1.38-0.07c0.59-0.29,0.94-0.92,0.88-1.57c-0.02-0.62-0.42-1.17-1.01-1.38
					c-2.01-0.84-4.02-1.67-6.04-2.5c-0.17-0.07-0.36-0.11-0.55-0.11c-1.76-0.01-3.52,0-5.28,0H7.33V27.37z M20.03,21.64V9.13h-4.36
					c-0.01,0.07-0.01,0.12-0.01,0.17c0,3.43,0,6.87-0.01,10.3c-0.01,0.16,0.09,0.31,0.25,0.34c0.89,0.37,1.78,0.73,2.67,1.1
					L20.03,21.64 M25.7,26.48v-9.92h-4.35c-0.01,0.06-0.02,0.11-0.02,0.17c0,1.92,0,3.84,0,5.75c0.01,0.12,0.05,0.24,0.12,0.35
					c0.49,0.82,0.53,1.83,0.11,2.68c-0.17,0.35-0.25,0.74-0.23,1.12c0,0.21,0.07,0.28,0.28,0.32C22.98,27.09,24.37,26.93,25.7,26.48
					 M2.52,28.58h3.5v-9.87h-3.5V28.58z M10.01,18.94c0.89,0,1.76,0.01,2.62-0.01c0.54-0.04,1.08,0.06,1.57,0.3
					c0.05,0.02,0.1,0.03,0.16,0.04v-5.97h-4.35V18.94z"/>
				<path id="Path_46639" class="st8" d="M17.75,2.03c1.58,0,3.15,0.28,4.63,0.82c0.46,0.17,0.65,0.49,0.51,0.87
					c-0.14,0.34-0.53,0.5-0.87,0.36C22,4.07,21.98,4.06,21.96,4.05C19.32,3.07,16.43,3.05,13.78,4c-1.4,0.49-2.7,1.25-3.82,2.23
					c-0.44,0.38-0.8,0.42-1.08,0.11c-0.28-0.31-0.2-0.69,0.26-1.07C11.53,3.18,14.58,2.03,17.75,2.03"/>
				<path id="Path_46640" class="st8" d="M30.08,4.66c-0.06,0.14-0.13,0.28-0.22,0.41c-1.7,1.97-3.41,3.94-5.12,5.9
					c-0.19,0.3-0.58,0.39-0.88,0.2c-0.3-0.19-0.39-0.58-0.2-0.88c0.03-0.05,0.07-0.1,0.12-0.14c1.71-1.98,3.42-3.95,5.14-5.93
					c0.17-0.23,0.47-0.32,0.74-0.22C29.92,4.1,30.1,4.37,30.08,4.66"/>
				<path id="Path_46641" class="st8" d="M28.49,8.37c0.88,0.01,1.59,0.72,1.58,1.6c0.01,0.88-0.69,1.6-1.57,1.62
					c-0.88,0.01-1.6-0.69-1.62-1.57c0-0.02,0-0.05,0-0.07c0-0.87,0.71-1.58,1.59-1.58C28.48,8.37,28.48,8.37,28.49,8.37
					 M28.84,10.04l0-0.14c-0.12-0.09-0.23-0.22-0.37-0.25c-0.13-0.04-0.27,0.04-0.31,0.17c-0.01,0.04-0.01,0.08,0,0.12
					c0.04,0.15,0.15,0.26,0.29,0.31C28.58,10.28,28.71,10.12,28.84,10.04"/>
				<path id="Path_46642" class="st8" d="M26.53,5.35c0.01,0.88-0.7,1.6-1.58,1.6c-0.88,0.01-1.6-0.7-1.6-1.58l0,0
					c-0.01-0.88,0.7-1.6,1.58-1.6S26.53,4.47,26.53,5.35 M25,4.98l-0.14,0.01c-0.08,0.13-0.23,0.26-0.22,0.38
					c0.05,0.14,0.17,0.25,0.32,0.29c0.13,0.03,0.27-0.06,0.29-0.19c0.01-0.04,0.01-0.08,0-0.12C25.22,5.21,25.08,5.1,25,4.98"/>
				<path id="Path_46643" class="st8" d="M7.69,7.17c0.34,0,0.62,0.28,0.62,0.62c0,0,0,0,0,0.01c0,0.35-0.27,0.63-0.62,0.64
					c-0.35,0-0.63-0.28-0.63-0.63c0-0.01,0-0.01,0-0.02c0-0.34,0.27-0.61,0.61-0.61C7.68,7.18,7.68,7.18,7.69,7.17"/>
			</g>
		</g>
	</g>
</g>
<g id="Layer_6" class="st0">
	<g id="Group_69346" transform="translate(0 0)" class="st3">
		<g>
			<defs>
				<rect id="SVGID_00000031888954008561549880000010286912036292650385_" x="1.15" y="6.17" width="32.69" height="22.66"/>
			</defs>
			<clipPath id="SVGID_00000035529136519527483240000014794704112645493668_">
				<use xlink:href="#SVGID_00000031888954008561549880000010286912036292650385_"  style="overflow:visible;"/>
			</clipPath>
			
				<g id="Group_69345" transform="translate(0 0)" style="clip-path:url(#SVGID_00000035529136519527483240000014794704112645493668_);">
				<path id="Path_46681" class="st11" d="M14.63,17.2c0.57,0.29,1.15,0.55,1.69,0.87c0.46,0.27,0.61,0.86,0.34,1.31
					c-0.08,0.13-0.18,0.24-0.3,0.32c-0.33,0.23-0.78,0.22-1.11-0.01c-0.83-0.5-1.73-0.85-2.68-1.03c-4.33-0.82-8.51,2.03-9.33,6.36
					C3.15,25.5,3.1,25.98,3.1,26.46c0.02,0.5-0.34,0.93-0.83,1c-0.5,0.08-0.98-0.25-1.08-0.74c-0.04-0.27-0.04-0.54-0.01-0.81
					c0.15-2.51,1.26-4.87,3.1-6.59c0.85-0.81,1.83-1.46,2.91-1.92c0.06-0.02,0.11-0.05,0.16-0.07c0.01-0.01,0.02-0.02,0.03-0.03
					c-2.76-1.97-3.39-5.8-1.42-8.56s5.8-3.39,8.56-1.42s3.39,5.8,1.42,8.56C15.57,16.38,15.13,16.83,14.63,17.2 M6.76,12.28
					c-0.01,2.32,1.86,4.2,4.18,4.21s4.2-1.86,4.21-4.18c0.01-2.32-1.86-4.2-4.18-4.21c0,0,0,0,0,0c-2.3-0.02-4.18,1.83-4.2,4.13
					C6.76,12.25,6.76,12.27,6.76,12.28"/>
				<path id="Path_46682" class="st11" d="M27.67,18.46c0.57,0.29,1.15,0.55,1.69,0.87c0.46,0.27,0.61,0.86,0.34,1.31
					c-0.08,0.13-0.18,0.24-0.3,0.32c-0.33,0.23-0.78,0.22-1.11-0.01c-0.83-0.5-1.73-0.85-2.68-1.03c-4.33-0.82-8.51,2.03-9.33,6.37
					c-0.09,0.48-0.14,0.96-0.14,1.44c0.02,0.5-0.34,0.93-0.83,1c-0.5,0.08-0.98-0.25-1.08-0.74c-0.04-0.27-0.04-0.54-0.01-0.81
					c0.15-2.51,1.26-4.87,3.1-6.59c0.85-0.81,1.83-1.46,2.91-1.92c0.06-0.02,0.11-0.05,0.16-0.07c0.01-0.01,0.02-0.02,0.03-0.03
					c-2.76-1.97-3.39-5.8-1.42-8.56s5.8-3.39,8.56-1.42s3.39,5.8,1.42,8.56C28.61,17.64,28.17,18.09,27.67,18.46 M19.8,13.54
					c-0.01,2.32,1.86,4.2,4.18,4.21s4.2-1.86,4.21-4.18c0.01-2.32-1.86-4.2-4.18-4.21c0,0,0,0,0,0c-2.3-0.02-4.18,1.83-4.2,4.13
					C19.8,13.51,19.8,13.52,19.8,13.54"/>
				<path id="Path_46683" class="st11" d="M19.78,9.26c2.43-2.36,6.32-2.3,8.68,0.13s2.3,6.32-0.13,8.68
					c-0.22,0.21-0.45,0.41-0.7,0.59c0.01,0.01,0.02,0.02,0.03,0.03c0.05,0.03,0.11,0.05,0.16,0.07c1.08,0.46,2.07,1.11,2.91,1.92
					c1.84,1.72,2.94,4.08,3.1,6.59c0.03,0.27,0.03,0.54-0.01,0.81c-0.1,0.5-0.58,0.83-1.08,0.74c-0.49-0.07-0.85-0.5-0.83-1
					c-0.03-4.41-3.62-7.97-8.03-7.94c-0.48,0-0.96,0.05-1.44,0.14c-0.95,0.18-1.86,0.53-2.68,1.03c-0.33,0.23-0.77,0.24-1.11,0.01
					c-0.44-0.29-0.57-0.88-0.28-1.32c0.08-0.12,0.19-0.23,0.32-0.3c0.54-0.32,1.12-0.58,1.69-0.87c-2.71-2.04-3.25-5.88-1.21-8.59
					C19.34,9.72,19.55,9.48,19.78,9.26 M24.03,9.47c-2.32,0.01-4.19,1.89-4.18,4.2s1.89,4.19,4.2,4.18c2.32-0.01,4.19-1.89,4.18-4.2
					c0,0,0,0,0,0c0-2.31-1.88-4.18-4.19-4.18C24.04,9.47,24.04,9.47,24.03,9.47"/>
			</g>
		</g>
	</g>
</g>
<g id="Layer_7" class="st0">
	<g id="Group_69351" transform="translate(-846.767 -249.529)" class="st3">
		<g>
			<defs>
				<rect id="SVGID_00000182509102844714780100000012366391420074444939_" x="847.77" y="252.78" width="32.2" height="29.83"/>
			</defs>
			<clipPath id="SVGID_00000037661630548203116080000003948658128980067209_">
				<use xlink:href="#SVGID_00000182509102844714780100000012366391420074444939_"  style="overflow:visible;"/>
			</clipPath>
			
				<g id="Group_69347" transform="translate(846.767 249.529)" style="clip-path:url(#SVGID_00000037661630548203116080000003948658128980067209_);">
				<path id="Path_46684" class="st11" d="M19.32,18.25c0.78,0.39,1.56,0.74,2.3,1.18c0.62,0.36,0.83,1.16,0.46,1.78
					c-0.1,0.17-0.24,0.32-0.41,0.43c-0.46,0.31-1.06,0.31-1.51-0.01c-1.12-0.68-2.36-1.15-3.65-1.4C10.62,19.12,4.94,23,3.83,28.89
					c-0.12,0.64-0.18,1.29-0.19,1.95c0.03,0.68-0.46,1.26-1.13,1.36c-0.68,0.11-1.33-0.33-1.47-1.01c-0.05-0.37-0.06-0.74-0.02-1.1
					c0.21-3.42,1.71-6.62,4.21-8.96c1.15-1.1,2.49-1.99,3.96-2.61c0.08-0.03,0.15-0.07,0.22-0.11c0.02-0.01,0.03-0.02,0.04-0.04
					c-3.75-2.68-4.62-7.89-1.94-11.64s7.89-4.62,11.64-1.94s4.62,7.89,1.94,11.64C20.6,17.12,20,17.74,19.32,18.25 M8.62,11.56
					c-0.01,3.15,2.53,5.71,5.68,5.72c3.15,0.01,5.71-2.53,5.72-5.68s-2.53-5.71-5.68-5.72c0,0,0,0,0,0
					c-3.13-0.03-5.69,2.49-5.72,5.62C8.62,11.52,8.62,11.54,8.62,11.56"/>
			</g>
		</g>
		<g id="Group_69350" transform="translate(4.927 6.182)">
			<path id="Path_46687" class="st11" d="M869.89,271.47h-3.22c-0.28,0.06-0.55-0.11-0.61-0.39c-0.06-0.28,0.11-0.55,0.39-0.61
				c0.07-0.02,0.15-0.02,0.22,0h3.22c0.28-0.06,0.55,0.11,0.61,0.39c0.06,0.28-0.11,0.55-0.39,0.61
				C870.05,271.48,869.97,271.48,869.89,271.47"/>
			<path id="Path_46688" class="st11" d="M869.48,270.66l-0.06-3.23c-0.03-0.3,0.18-0.58,0.49-0.61c0.31,0.03,0.54,0.29,0.52,0.6
				l0.06,3.23c0.03,0.3-0.18,0.58-0.49,0.62C869.69,271.23,869.46,270.96,869.48,270.66"/>
		</g>
		<path id="Path_46689" class="st11" d="M874.42,282.62c-3.51,0-6.35-2.84-6.35-6.35c0-3.51,2.84-6.35,6.35-6.35
			c3.51,0,6.35,2.84,6.35,6.35C880.76,279.77,877.92,282.61,874.42,282.62 M874.42,271.68c-2.54,0-4.59,2.06-4.59,4.59
			c0,2.54,2.06,4.59,4.59,4.59s4.59-2.06,4.59-4.59l0,0C879.01,273.73,876.95,271.68,874.42,271.68"/>
	</g>
</g>
<g id="Layer_9" class="st0">
	<g id="Group_69349" transform="translate(-618.565 -261)" class="st3">
		<g id="Group_69348" transform="translate(618.565 261)">
			<g>
				<defs>
					<rect id="SVGID_00000094590403551065273810000013930898782568869514_" x="1.06" y="2.27" width="32.87" height="30.46"/>
				</defs>
				<clipPath id="SVGID_00000147903225377736397220000016367511344678755203_">
					<use xlink:href="#SVGID_00000094590403551065273810000013930898782568869514_"  style="overflow:visible;"/>
				</clipPath>
				
					<g id="Group_69347_00000067958290136747565300000014169606117006085255_" transform="translate(0 0)" style="clip-path:url(#SVGID_00000147903225377736397220000016367511344678755203_);">
					<path id="Path_46684_00000088823917570103017020000011843407979531100807_" class="st11" d="M19.77,17.58
						c0.79,0.4,1.59,0.76,2.35,1.2c0.63,0.37,0.84,1.19,0.47,1.82c-0.1,0.18-0.25,0.33-0.42,0.44c-0.47,0.32-1.08,0.31-1.54-0.01
						c-1.15-0.69-2.41-1.18-3.72-1.43c-6.02-1.14-11.82,2.82-12.95,8.84c-0.12,0.66-0.19,1.32-0.19,1.99
						c0.03,0.69-0.47,1.29-1.16,1.39c-0.7,0.12-1.36-0.34-1.5-1.03c-0.05-0.37-0.06-0.75-0.02-1.13c0.21-3.49,1.75-6.76,4.3-9.15
						c1.17-1.13,2.54-2.03,4.04-2.66c0.08-0.03,0.15-0.07,0.23-0.11c0.02-0.01,0.03-0.02,0.04-0.04C5.88,14.97,4.99,9.65,7.72,5.82
						s8.05-4.71,11.88-1.98s4.71,8.05,1.98,11.88C21.08,16.43,20.47,17.06,19.77,17.58 M8.85,10.75c-0.01,3.21,2.58,5.83,5.8,5.84
						s5.83-2.58,5.84-5.8s-2.58-5.83-5.8-5.84c0,0,0,0,0,0c-3.2-0.03-5.81,2.54-5.84,5.74C8.85,10.71,8.85,10.73,8.85,10.75"/>
					<path id="Path_46685" class="st11" d="M30.18,27.46h-5.45c-0.56-0.02-1.01-0.49-0.99-1.05c0.02-0.54,0.45-0.98,0.99-0.99h5.45
						c0.56,0.02,1.01,0.49,0.99,1.05C31.16,27.01,30.72,27.45,30.18,27.46"/>
					<path id="Path_46686" class="st11" d="M27.46,32.73c-3.58,0-6.48-2.9-6.48-6.48s2.9-6.48,6.48-6.48c3.58,0,6.48,2.9,6.48,6.48
						C33.93,29.83,31.03,32.73,27.46,32.73 M27.46,21.56c-2.59,0-4.69,2.1-4.69,4.69s2.1,4.69,4.69,4.69c2.59,0,4.69-2.1,4.69-4.69
						l0,0C32.14,23.66,30.04,21.56,27.46,21.56"/>
				</g>
			</g>
		</g>
	</g>
</g>
<g id="Layer_10" class="st0">
	<g class="st3">
		<g id="Group_69355" transform="translate(-378.767 -248)">
			<g id="Group_69352" transform="translate(-239.797 -13)">
				<g id="Group_69348_00000057846799685308238780000005409154110468630433_" transform="translate(618.565 261)">
					<g>
						<defs>
							<rect id="SVGID_00000000218982487422967200000008255862065454719165_" x="0.8" y="2.03" width="33.39" height="30.94"/>
						</defs>
						<clipPath id="SVGID_00000102528281368077083660000006323035669850282926_">
							<use xlink:href="#SVGID_00000000218982487422967200000008255862065454719165_"  style="overflow:visible;"/>
						</clipPath>
						
							<g id="Group_69347_00000033367356583112711510000016885013951591253891_" transform="translate(0 0)" style="clip-path:url(#SVGID_00000102528281368077083660000006323035669850282926_);">
							<path id="Path_46684_00000147915223550740228950000002155396254311133835_" class="st11" d="M19.81,17.59
								c0.8,0.41,1.62,0.77,2.39,1.22c0.64,0.38,0.86,1.21,0.48,1.85c-0.11,0.18-0.25,0.33-0.43,0.45c-0.47,0.32-1.1,0.32-1.56-0.01
								c-1.17-0.7-2.45-1.2-3.78-1.45c-6.11-1.15-12,2.87-13.16,8.98c-0.13,0.67-0.19,1.34-0.2,2.02c0.03,0.7-0.48,1.31-1.17,1.41
								C1.66,32.16,0.99,31.7,0.85,31c-0.05-0.38-0.06-0.76-0.02-1.14c0.21-3.54,1.78-6.87,4.37-9.3c1.19-1.14,2.58-2.06,4.11-2.7
								c0.08-0.03,0.16-0.07,0.23-0.11c0.02-0.01,0.03-0.02,0.04-0.04C5.69,14.93,4.79,9.53,7.57,5.64s8.18-4.79,12.07-2.01
								s4.79,8.18,2.01,12.07C21.13,16.42,20.51,17.05,19.81,17.59 M8.71,10.65c-0.01,3.26,2.62,5.92,5.89,5.93
								c3.26,0.01,5.92-2.62,5.93-5.89s-2.62-5.92-5.89-5.93c0,0,0,0,0,0c-3.25-0.03-5.9,2.58-5.93,5.83
								C8.71,10.61,8.71,10.63,8.71,10.65"/>
						</g>
					</g>
				</g>
			</g>
		</g>
		<g>
			<path class="st11" d="M32.83,32.08c-3.01,0-6.01,0-9.02,0c-0.02-0.01-0.04-0.02-0.06-0.03c-0.18-0.09-0.26-0.26-0.22-0.44
				c0.04-0.17,0.19-0.29,0.38-0.29c0.08,0,0.16,0,0.24,0c0.17,0,0.34,0,0.51,0c0-0.06,0-0.1,0-0.14c0-0.69,0-1.37,0-2.06
				c0-0.45,0.17-0.82,0.51-1.11c0.54-0.47,1.08-0.94,1.62-1.41c0.32-0.28,0.32-0.67,0-0.94c-0.54-0.47-1.09-0.95-1.63-1.42
				c-0.34-0.29-0.51-0.66-0.5-1.1c0-0.69,0-1.38,0-2.07c0-0.04,0-0.08,0-0.11c-0.02-0.01-0.02-0.01-0.02-0.01c-0.25,0-0.5,0-0.74,0
				c-0.27-0.01-0.45-0.27-0.36-0.52c0.05-0.13,0.15-0.19,0.26-0.25c3.01,0,6.01,0,9.02,0c0.01,0.01,0.02,0.02,0.04,0.02
				c0.19,0.09,0.28,0.26,0.24,0.45c-0.04,0.17-0.2,0.29-0.4,0.29c-0.1,0-0.2,0-0.3,0c-0.15,0-0.29,0-0.44,0c0,0.66-0.01,1.31,0,1.96
				c0.01,0.49-0.17,0.88-0.54,1.19c-0.6,0.52-1.2,1.04-1.79,1.57c-0.32,0.28-0.32,0.66,0,0.94c0.6,0.53,1.2,1.06,1.8,1.58
				c0.36,0.31,0.54,0.69,0.53,1.17c-0.01,0.61,0,1.23,0,1.84c0,0.04,0,0.08,0,0.13c0.26,0,0.52,0,0.77,0c0.3,0,0.49,0.32,0.33,0.57
				C33.01,31.97,32.91,32.02,32.83,32.08z M25.45,31.31c1.93,0,3.84,0,5.76,0c0-0.63-0.01-1.26,0-1.88c0.01-0.31-0.1-0.53-0.33-0.73
				c-0.6-0.51-1.19-1.03-1.78-1.55c-0.37-0.33-0.52-0.74-0.45-1.23c0.05-0.36,0.25-0.64,0.52-0.88c0.6-0.52,1.19-1.04,1.79-1.56
				c0.17-0.15,0.25-0.32,0.25-0.55c0-0.62,0-1.24,0-1.86c0-0.04,0-0.08,0-0.12c-1.93,0-3.84,0-5.76,0c0,0.05,0,0.08,0,0.12
				c0,0.68,0,1.37,0,2.05c0,0.23,0.08,0.41,0.25,0.56c0.54,0.46,1.08,0.93,1.62,1.4c0.68,0.6,0.68,1.52,0,2.11
				c-0.54,0.47-1.09,0.95-1.63,1.42c-0.14,0.12-0.23,0.26-0.23,0.44C25.44,29.79,25.45,30.54,25.45,31.31z"/>
			<path class="st11" d="M28.24,26.13c0.01,0.07,0.01,0.13,0.02,0.2c0.05,0.41,0.26,0.74,0.56,1.01c0.58,0.51,1.16,1.02,1.74,1.52
				c0.18,0.15,0.26,0.32,0.25,0.55c-0.01,0.43,0,0.86,0,1.29c0,0.19-0.05,0.24-0.23,0.24c-1.51,0-3.01,0-4.52,0
				c-0.19,0-0.23-0.05-0.24-0.23c0-0.53,0-1.05,0-1.58c0-0.16,0.05-0.27,0.17-0.38c0.54-0.47,1.08-0.94,1.62-1.41
				c0.34-0.3,0.54-0.66,0.57-1.12c0-0.03,0.01-0.06,0.02-0.09C28.22,26.12,28.23,26.12,28.24,26.13z"/>
		</g>
	</g>
</g>
<g id="Layer_11" class="st0">
	<g id="Group_69344" transform="translate(0 0)" class="st3">
		<g>
			<defs>
				<rect id="SVGID_00000041980938227604863790000014882791569903093433_" x="1.79" y="1.23" width="31.42" height="32.54"/>
			</defs>
			<clipPath id="SVGID_00000125580345682438111540000004280461726498201773_">
				<use xlink:href="#SVGID_00000041980938227604863790000014882791569903093433_"  style="overflow:visible;"/>
			</clipPath>
			
				<g id="Group_69344-2" transform="translate(0 0)" style="clip-path:url(#SVGID_00000125580345682438111540000004280461726498201773_);">
				<path id="Path_46679" class="st11" d="M22.38,18.09c0.87,0.44,1.75,0.84,2.58,1.32c0.7,0.41,0.93,1.31,0.52,2
					c-0.11,0.19-0.27,0.36-0.46,0.48c-0.51,0.35-1.19,0.34-1.69-0.02c-1.26-0.76-2.65-1.3-4.1-1.57c-6.62-1.25-13,3.1-14.25,9.72
					c-0.14,0.72-0.21,1.46-0.21,2.2c0.03,0.76-0.52,1.42-1.27,1.53c-0.77,0.13-1.5-0.37-1.65-1.13c-0.06-0.41-0.06-0.83-0.02-1.24
					c0.23-3.84,1.93-7.44,4.74-10.07c1.29-1.24,2.8-2.23,4.45-2.93c0.08-0.04,0.17-0.08,0.25-0.12c0.02-0.01,0.03-0.03,0.05-0.04
					C7.08,15.21,6.11,9.36,9.12,5.15s8.86-5.19,13.07-2.18s5.19,8.86,2.18,13.07C23.81,16.82,23.14,17.51,22.38,18.09 M10.35,10.57
					c-0.02,3.54,2.84,6.42,6.38,6.43c3.54,0.02,6.42-2.84,6.43-6.38s-2.84-6.42-6.38-6.43c0,0-0.01,0-0.01,0
					c-3.52-0.03-6.39,2.8-6.42,6.32C10.35,10.52,10.35,10.54,10.35,10.57"/>
				<path id="Path_46680" class="st11" d="M25.39,30.18c0.27-0.4,0.52-0.77,0.76-1.14c1.42-2.14,2.85-4.27,4.28-6.41
					c0.41-0.71,1.32-0.95,2.03-0.53c0.71,0.41,0.95,1.32,0.53,2.03c-0.03,0.05-0.06,0.1-0.1,0.14c-0.9,1.35-1.8,2.7-2.7,4.05
					l-2.99,4.49c-0.34,0.78-1.24,1.13-2.02,0.8c-0.17-0.07-0.33-0.18-0.46-0.31c-1.36-0.91-2.72-1.81-4.09-2.72
					c-0.69-0.45-0.88-1.37-0.43-2.06c0.45-0.69,1.37-0.88,2.06-0.43l0,0C23.3,28.78,24.32,29.47,25.39,30.18"/>
			</g>
		</g>
	</g>
	<g id="Group_69309" transform="translate(-220.017 -103.047)" class="st3">
		<path id="Path_43729_00000013892485272345521910000001031873678464075650_" class="st19" d="M237.47,133.67
			c-3.99,0-7.98,0-11.97,0c-0.82,0.04-1.62-0.23-2.25-0.74c-0.77-0.59-1.23-1.51-1.22-2.48c0.02-6.59,0.03-13.19-0.01-19.78
			c0.05-1.31,0.85-2.46,2.05-2.98c0.39-0.14,0.79-0.23,1.21-0.24c2.37-0.02,4.75-0.02,7.12-0.01c1.04,0,2.01,0.5,2.63,1.33
			c0.88,1.09,1.77,2.18,2.65,3.27c0.12,0.17,0.32,0.27,0.53,0.26c3.77-0.01,7.53-0.01,11.3-0.01c1.24-0.06,2.41,0.58,3.05,1.64
			c0.3,0.48,0.46,1.04,0.46,1.61c0,4.95,0.01,9.9,0,14.84c-0.03,1.84-1.55,3.31-3.39,3.28c-0.02,0-0.04,0-0.06,0
			c-2.67,0.01-5.33,0-8,0L237.47,133.67z M238.41,132.27c3.7,0,7.39,0,11.09,0c1.09,0.09,2.04-0.73,2.12-1.81
			c0.01-0.1,0.01-0.2,0-0.3c0-4.8,0-9.59,0-14.39c0.08-1.07-0.72-2-1.79-2.08c-0.1-0.01-0.2-0.01-0.3,0c-6.86,0-13.71,0-20.57,0
			c-0.23,0-0.46,0.03-0.69,0.09c-0.89,0.24-1.49,1.09-1.4,2.01c0,5.37,0,10.74,0,16.11c0,0.36,0,0.36,0.36,0.36H238.41z
			 M236.04,112.29c-0.02-0.05-0.04-0.09-0.07-0.13c-0.7-0.87-1.4-1.75-2.11-2.61c-0.38-0.48-0.96-0.75-1.57-0.72h-0.06
			c-2.26,0-4.52,0-6.78,0c-0.67-0.03-1.31,0.27-1.7,0.81c-0.27,0.39-0.4,0.87-0.37,1.34c0,6.34,0,12.68,0,19.02c0,0.1,0,0.2,0,0.3
			c-0.01,0.99,0.73,1.83,1.72,1.94c0.38,0.06,0.38,0.06,0.38-0.33c0-5.32,0-10.64,0-15.96c0-0.17,0-0.34,0.01-0.51
			c0.01-0.53,0.16-1.04,0.44-1.49c0.63-1.06,1.78-1.7,3.01-1.65c2.23,0,4.46,0,6.69,0L236.04,112.29z"/>
		<path id="Path_43730_00000107563626642970838800000001478669946025534347_" class="st19" d="M239.7,120.24v0.32
			c0,2.27,0,4.54,0,6.81c0,0.13,0,0.26-0.02,0.39c-0.06,0.32-0.34,0.55-0.67,0.56c-0.33,0-0.61-0.23-0.67-0.55
			c-0.03-0.15-0.04-0.3-0.04-0.45c0-2.23,0-4.46,0-6.69v-0.35l-0.09-0.06c-0.06,0.09-0.12,0.18-0.19,0.26
			c-0.8,0.87-1.6,1.74-2.41,2.59c-0.16,0.16-0.37,0.27-0.59,0.32c-0.25,0.04-0.5-0.09-0.6-0.32c-0.13-0.21-0.13-0.48,0-0.69
			c0.06-0.1,0.14-0.2,0.22-0.28c1.24-1.33,2.49-2.67,3.74-4c0.47-0.5,0.84-0.5,1.3-0.01c1.26,1.35,2.52,2.7,3.77,4.06
			c0.31,0.23,0.37,0.66,0.15,0.98c-0.2,0.3-0.6,0.38-0.91,0.19c-0.12-0.08-0.22-0.17-0.32-0.28c-0.8-0.85-1.6-1.71-2.4-2.56
			c-0.07-0.08-0.14-0.16-0.21-0.24L239.7,120.24z"/>
	</g>
</g>
<g id="Layer_12" class="st0">
	<g id="Group_69328" transform="translate(0 0.5)" class="st3">
		<circle id="Ellipse_249" class="st20" cx="23.7" cy="29.36" r="3"/>
		<circle id="Ellipse_250" class="st20" cx="13.24" cy="29.36" r="3"/>
		<path id="Path_37664" class="st20" d="M14.78,7.66L13.33,4.7L18,2.41l2.57,5.25"/>
		<path id="Path_37665" class="st20" d="M22.08,7.66l-0.97-1.98l4.67-2.29l2.09,4.27"/>
		<path id="Path_37663" class="st21" d="M30.8,19.16H9.9l-3-11.5H34L30.8,19.16z"/>
		<path id="Path_37666" class="st21" d="M1,1.64h1.47c1.7,0,3.18,1.15,3.61,2.79L9.9,19.16"/>
		<path id="Path_37667" class="st21" d="M30.62,24.14H11.01c-1.27,0-2.29-1.03-2.29-2.29v-0.4c0-1.27,1.03-2.29,2.29-2.29h19.62"/>
	</g>
</g>
<g id="Layer_13">
	<g id="Group_56803" transform="translate(0.5 0.5)">
		<path id="Path_37661" class="st22" d="M10.78,32.52h-7.7V1.48h22.31v11.66"/>
		<line id="Line_2083" class="st23" x1="7.32" y1="9.33" x2="22.38" y2="9.33"/>
		<line id="Line_2084" class="st23" x1="7.32" y1="13.9" x2="22.38" y2="13.9"/>
		<line id="Line_2085" class="st23" x1="7.58" y1="18.48" x2="17.45" y2="18.48"/>
		<path id="Path_37662" class="st22" d="M22.51,18.47L14.64,26l-0.81,6.08l6.01-1.1l7.38-7.94L22.51,18.47z"/>
		<path id="Rectangle_9830" class="st24" d="M28.5,15.69l1.81,1.75c0.79,0.77,0.82,2.03,0.05,2.83l-3.13,3.24l0,0l-4.68-4.53l0,0
			l3.13-3.24C26.44,14.94,27.71,14.92,28.5,15.69z"/>
	</g>
</g>
</svg>
