<svg xmlns="http://www.w3.org/2000/svg" id="MyT" width="24" height="24" viewBox="0 0 24 24">
    <defs>
              
        </style>
    </defs>
    <g id="Group_15680" data-name="Group 15680">
        <path id="Path_9168" d="M35.006 79.462a1.721 1.721 0 0 0 .734-.445 1.785 1.785 0 0 0 0-2.5 1.673 1.673 0 0 0-2.429 0 1.785 1.785 0 0 0 0 2.5 1.721 1.721 0 0 0 .734.445V82H27.7v3.869h13.671V82h-6.365zm-4.651 4.952h-.81a.484.484 0 0 1 0-.967h.81a.484.484 0 0 1 0 .967zm2.975 0h-.81a.484.484 0 0 1 0-.967h.81a.484.484 0 0 1 0 .967zm4.651-.967h.81a.484.484 0 0 1 0 .967h-.81a.484.484 0 0 1 0-.967z"  data-name="Path 9168" transform="translate(-22.535 -61.865)"/>
        <path id="Path_9169" d="M22.619 10.454a5.7 5.7 0 0 0 .533-2.42 5.33 5.33 0 0 0-5.2-5.465 4.834 4.834 0 0 0-2.267.548A5 5 0 0 0 11.61 1 5.208 5.208 0 0 0 6.7 4.706 5.392 5.392 0 0 0 2.371 10.1a6.107 6.107 0 0 0 .057.832A3.509 3.509 0 0 0 1 13.763a3.373 3.373 0 0 0 3.276 3.46h6.057a2.685 2.685 0 0 1 .767-2.193 2.658 2.658 0 0 1 1.9-.775 2.738 2.738 0 0 1 1.9.775 2.625 2.625 0 0 1 .762 2.193h6.057A3.373 3.373 0 0 0 25 13.763a3.434 3.434 0 0 0-2.381-3.309zM16.181 13.5a.51.51 0 0 1-.686 0 3.559 3.559 0 0 0-4.99 0 .463.463 0 0 1-.667 0 .455.455 0 0 1 0-.662 4.507 4.507 0 0 1 6.343 0 .49.49 0 0 1 0 .662zm1.7-1.7a.51.51 0 0 1-.686 0 5.986 5.986 0 0 0-8.419 0 .463.463 0 0 1-.667 0 .455.455 0 0 1 0-.662 6.969 6.969 0 0 1 9.771 0 .455.455 0 0 1-.004.662z"  data-name="Path 9169" transform="translate(-1 -1)"/>
    </g>
</svg>
