<svg xmlns="http://www.w3.org/2000/svg" width="22" height="26" viewBox="0 0 22 26">
    <defs>
              
        </style>
    </defs>
    <g id="New_Customer" transform="translate(150 1)">
        <g id="noun_mobile_data_1453852" data-name="noun_mobile data_1453852" transform="translate(-150 -1)">
            <path id="Path_27470" d="M19.411 13.8v.007c-.026 0-.05-.007-.076-.007-6.841 0-12.407-5.1-12.407-11.36 0-.024-.006-.046-.008-.069h1.994c0 .023-.008.046-.008.069 0 5.266 4.678 9.55 10.429 9.55a1.244 1.244 0 0 0 1.295-1.19 1.244 1.244 0 0 0-1.295-1.185c-4.323 0-7.84-3.221-7.84-7.179 0-.024-.006-.046-.008-.069h1.993c0 .023-.008.046-.008.069a5.637 5.637 0 0 0 5.862 5.368 1.244 1.244 0 0 0 1.296-1.182 1.244 1.244 0 0 0-1.295-1.185 3.147 3.147 0 0 1-3.273-3c0-.024-.006-.046-.008-.069h.008V0H3.578A3.441 3.441 0 0 0 0 3.277v19.446A3.441 3.441 0 0 0 3.578 26h14.844A3.441 3.441 0 0 0 22 22.723V13.8zm-.989 9.828H3.578a.951.951 0 0 1-.989-.906V3.277a.951.951 0 0 1 .989-.906h.768c0 .023-.008.046-.008.069 0 7.572 6.727 13.732 15 13.732.026 0 .05-.006.076-.007v6.558a.951.951 0 0 1-.992.906z"  data-name="Path 27470"/>
            <circle id="Ellipse_1123" cx="1.133" cy="1.133" r="1.133"  data-name="Ellipse 1123" transform="translate(18.664 1.07)"/>
            <circle id="Ellipse_1124" cx="1.322" cy="1.322" r="1.322"  data-name="Ellipse 1124" transform="translate(9.678 19.405)"/>
        </g>
    </g>
</svg>
