<svg xmlns="http://www.w3.org/2000/svg" width="389" height="286.57" viewBox="0 0 389 286.57"><defs><style>.a{opacity:0.501;}.b{fill:#57606f;}.c,.d{fill:none;stroke:#57606f;}.c{stroke-linecap:round;stroke-width:4px;}.d{stroke-width:2px;}</style></defs><g class="a" transform="translate(-1239 -541.5)"><g transform="translate(1330.588 635.929)"><path class="b" d="M175.287,62.132c-6.386-3.193-13.229-6.386-20.3-9.808-7.3-3.421-14.369-6.615-20.756-9.58-7.755-3.421-15.054-6.615-21.668-9.58-1.14,3.877-2.509,8.667-2.737,9.808a41.61,41.61,0,0,1-1.6,5.7c-.912,3.649-1.6,6.843-2.281,9.352-.456,2.053-.684,3.649-.912,5.018-.456-2.509-1.369-6.615-2.737-11.632-1.369-4.79-2.965-10.264-4.79-16.65-.912-3.193-2.053-6.615-3.193-10.036-.456-1.825-1.14-3.649-1.6-5.474-.912-2.965-2.053-6.158-2.965-9.352C83.14,12.637,76.07,15.6,69,18.567c-5.93,2.509-12.317,5.246-18.7,7.983s-12.773,5.7-18.7,8.211c-7.527,3.421-14.6,6.615-21.44,9.58,2.053,2.737,3.877,5.7,5.93,8.439,1.14,1.6,2.281,3.193,3.421,4.562,2.281,2.965,4.334,5.7,6.158,8.439,3.877,5.246,7.527,10.036,10.492,13.685,5.018,6.386,8.667,10.492,9.808,11.176a73.624,73.624,0,0,0-8.9.912c-2.965.456-6.615,1.14-10.72,1.825-2.053.456-4.334.684-6.615,1.14C16.083,95.2,12.206,95.889,8.1,96.8c5.93,3.421,12.317,7.3,19.159,11.4,5.474,3.193,11.4,6.615,17.335,10.036.456.228.684.456,1.14.684-.228,1.825-.456,4.562-.684,8.667-.228,3.421-.456,7.755-.684,12.545,0,2.509-.228,5.018-.228,7.983a29.082,29.082,0,0,1-.228,4.334,57.669,57.669,0,0,1-.228,6.158c7.983,4.562,16.878,9.58,26.914,15.282s20.984,11.632,32.844,18.247c22.581-14.141,37.634-23.265,63.408-39.459v-7.3c0-19.615-.228-38.547-.228-56.337a41.7,41.7,0,0,0,5.7-2.281q3.763-1.711,8.9-4.106l2.737-1.369,1.369-.684c.684-.228,1.369-.684,2.053-.912,3.421-1.825,7.071-3.649,10.948-5.7C191.482,70.343,183.727,66.465,175.287,62.132Zm-71.619,54.285c-3.877-1.825-7.527-3.649-10.948-5.246-3.649-1.825-7.3-3.421-10.72-5.018-6.843-3.193-13-6.158-18.247-8.439-8.439-3.877-14.369-6.158-16.422-6.843,2.053-.228,7.3-2.053,15.738-5.018,5.246-1.825,11.4-4.106,18.7-6.843,6.843-2.509,14.6-5.474,23.037-8.9-.456,3.193-.684,10.72-.684,19.615,0,11.861.456,21.44.912,21.44s.912-9.58.912-21.44c0-8.667-.228-16.422-.684-19.615h0l1.6.684c1.14.456,2.053.912,3.193,1.369,2.281.912,4.334,1.825,6.615,2.965,4.562,2.053,9.123,3.877,14.141,6.158,8.667,3.649,17.563,7.527,27.142,11.632-2.737.912-7.983,2.965-14.826,5.93-5.246,2.281-11.4,5.018-18.247,7.983-3.421,1.6-7.071,3.193-10.72,4.79C110.967,113.223,107.318,114.82,103.668,116.416ZM39.576,77.186c-2.509-4.106-5.474-9.123-9.123-14.6-1.825-2.737-3.649-5.7-5.7-8.9-.912-1.6-2.053-3.193-3.193-4.79l-.456-.684-.228-.228h0v-.456h.456a32.314,32.314,0,0,0,4.106-1.825c2.965-1.14,5.93-2.509,8.9-3.649,6.158-2.509,12.317-5.246,18.931-7.983q9.58-4.106,18.475-8.211c2.965-1.369,5.93-2.737,8.667-3.877a32.313,32.313,0,0,1,4.106-1.825h.228l.228-.228.228.228h0v.228l.456,1.369c.684,1.825,1.369,3.649,2.053,5.246,1.369,3.421,2.509,6.843,3.649,9.808,2.281,6.158,4.562,11.632,6.386,16.194,2.053,5.246,3.877,9.123,5.018,11.4-4.106,1.825-8.211,3.649-12.089,5.246-4.106,1.825-7.755,3.421-11.4,5.018-7.071,3.193-13.229,5.93-18.247,8.211-9.352,4.334-14.6,7.071-15.282,7.983C46.875,89.958,44.366,84.94,39.576,77.186ZM29.312,105.012c-2.737-1.6-5.474-3.193-7.983-4.562A12.732,12.732,0,0,1,19.5,99.31l-.912-.456h-.228c-.228,0-.456-.228-.684-.228l.456-.228h.684c.684-.228,1.14-.228,1.825-.456,2.281-.456,4.562-.912,6.615-1.369,4.106-.912,7.527-1.825,10.492-2.509,5.93-1.369,9.123-2.509,9.123-2.737-.228.456,5.93,4.106,15.966,9.352,5.018,2.737,11.176,5.7,17.791,9.123,3.421,1.6,6.843,3.421,10.72,5.246,3.193,1.6,6.615,3.193,10.036,4.79-.912.684-1.825,1.369-2.965,2.281-2.281,1.6-4.79,3.649-7.755,6.158-2.737,2.281-5.7,4.562-9.123,7.3l-.684-.456h0l-.228-.228-.456-.228c-.684-.456-1.369-.684-2.053-1.14a39.676,39.676,0,0,1-4.106-2.509c-2.737-1.6-5.7-3.421-8.667-5.018-5.93-3.421-12.317-7.3-18.931-10.948C40.716,111.4,34.786,108.205,29.312,105.012ZM60.1,161.35c-2.281-1.14-4.334-2.281-6.386-3.193-1.14-.456-2.053-1.14-2.965-1.6l-.912-.456-.456-.228-.456-.228c-.228-5.7-.456-10.948-.456-15.282-.228-5.018-.456-9.123-.684-12.545s-.456-6.158-.684-7.983c5.7,3.193,11.4,6.386,16.65,9.58,6.386,3.649,12.317,6.843,17.791,10.036,2.053-1.825,4.106-3.649,5.93-5.246,1.6-1.369,3.193-2.737,4.562-4.106,2.737-2.509,5.246-4.79,7.3-6.615a35.139,35.139,0,0,1,3.193-2.965c.228,0,.456.228.684.228h0c-.684,4.562-1.369,17.335-1.369,32.388,0,13.457.456,25.09,1.14,30.564-10.264-5.474-20.072-10.492-28.967-15.054C69,165.911,64.437,163.4,60.1,161.35Zm99.218-13.229Zm0-2.965v2.965c-16.422,10.264-40.827,26-54.741,34.9.684-5.7,1.14-17.106,1.14-30.336,0-14.826-.456-27.6-1.369-32.16,4.106-1.825,7.983-3.649,11.861-5.474,3.649-1.825,7.3-3.421,10.72-5.018,6.843-3.193,12.773-6.158,18.019-8.667,7.3-3.649,12.545-6.386,14.826-7.983h0C159.321,109.8,159.321,127.137,159.321,145.155Zm24.405-70.023h0l-.684.456a4.772,4.772,0,0,0-1.369.912c-.912.456-1.6,1.14-2.509,1.6q-4.79,3.079-8.211,5.474c-2.509,1.825-4.562,3.193-5.474,4.334-10.948-4.562-21.668-8.667-31.7-12.773-9.352-3.877-18.247-7.3-26.686-10.72.684-1.14,1.369-2.965,2.281-5.018,1.14-2.509,2.281-5.474,3.649-8.9.684-1.825,1.369-3.649,2.053-5.7.912-2.737.912-2.281,1.14-2.737a2.392,2.392,0,0,1,.912.684,39.636,39.636,0,0,1,4.334,2.281c2.965,1.6,6.158,2.965,9.352,4.562,6.386,3.193,13.457,6.615,20.756,10.036,7.071,3.421,14.141,6.615,20.528,9.58,3.193,1.369,6.386,2.965,9.352,4.106l1.14.456.456.228h.456c.228,0,.684.228.912.228C184.411,74.449,184.183,74.677,183.727,75.133Z" transform="translate(0 0)"/></g><line class="c" x2="134" transform="translate(1241 793.5)"/><line class="c" x2="134" transform="translate(1492 788.5)"/><line class="d" x1="61" y1="61" transform="translate(1285.5 606.5)"/><line class="d" y1="96" transform="translate(1418.5 541.5)"/><line class="d" y1="70" x2="70" transform="translate(1483.5 589.5)"/></g></svg>