<svg xmlns="http://www.w3.org/2000/svg" width="13.659" height="15.521" viewBox="0 0 13.659 15.521">
    <defs>
        <style>
            .a{fill:#57606f;fill-rule:evenodd}
        </style>
    </defs>
    <g transform="translate(-599 -159)">
        <g transform="translate(599 159)">
            <g transform="translate(0 0)">
                <path class="a" d="M12.45,3.725a3.725,3.725,0,1,0-7.45,0V5.9a.31.31,0,0,0,.621,0V3.725a3.1,3.1,0,0,1,6.209,0V5.9a.31.31,0,1,0,.621,0Z" transform="translate(-1.896)"/>
                <path class="a" d="M11.656,7.621a.31.31,0,1,0,0-.621H7.31a.31.31,0,0,0,0,.621Z" transform="translate(-2.654 -2.654)"/>
                <path class="a" d="M.53,8.772a.31.31,0,0,1-.439-.439L1.325,7.1A.31.31,0,0,1,1.53,7h.643a.31.31,0,0,1,0,.621H1.681Z" transform="translate(0 -2.654)"/>
                <path class="a" d="M.53.091A.31.31,0,0,0,.091.53L1.325,1.763a.31.31,0,0,0,.206.1h.643a.31.31,0,1,0,0-.621H1.681Z" transform="translate(13.659 6.209) rotate(180)"/>
                <path class="a" d="M0,9.31v9.313a.31.31,0,0,0,.31.31H13.348a.31.31,0,0,0,.31-.31V9.31a.31.31,0,0,0-.31-.31H.31A.31.31,0,0,0,0,9.31Zm7.14,1.863a.31.31,0,0,0-.621,0V15.39L5.186,14.058a.31.31,0,0,0-.439.439L6.61,16.359a.31.31,0,0,0,.439,0L8.912,14.5a.31.31,0,1,0-.439-.439L7.14,15.39V11.173Z" transform="translate(0 -3.412)"/>
            </g>
        </g>
    </g>
</svg>
