<svg xmlns="http://www.w3.org/2000/svg" width="16" height="20" viewBox="0 0 16 20">
    <path id="Offers" d="M15.312 7.826H9.138a.962.962 0 0 0-1.029.87V19.13a.962.962 0 0 0 1.029.87h6.174a.962.962 0 0 0 1.029-.87V8.7a.962.962 0 0 0-1.029-.874zm-3.087 5.217a1.924 1.924 0 0 1-2.058-1.743 1.924 1.924 0 0 1 2.058-1.739 1.924 1.924 0 0 1 2.058 1.739 1.924 1.924 0 0 1-2.058 1.743zM7.132 5.261l1.451 1.226a5.683 5.683 0 0 1 3.642-1.27 5.683 5.683 0 0 1 3.642 1.27l1.451-1.226a7.89 7.89 0 0 0-5.093-1.783 7.89 7.89 0 0 0-5.093 1.783zM12.225 0A12.4 12.4 0 0 0 4.22 2.8l1.451 1.226a10.2 10.2 0 0 1 6.554-2.287 10.1 10.1 0 0 1 6.544 2.3l1.451-1.23A12.311 12.311 0 0 0 12.225 0z"  transform="translate(-4.22)"/>
</svg>
