<?xml version="1.0" encoding="utf-8"?>
<!-- Generator: Adobe Illustrator 26.0.3, SVG Export Plug-In . SVG Version: 6.00 Build 0)  -->
<svg version="1.1" id="Layer_1" xmlns="http://www.w3.org/2000/svg" xmlns:xlink="http://www.w3.org/1999/xlink" x="0px" y="0px"
	 viewBox="0 0 36 36" style="enable-background:new 0 0 36 36;" xml:space="preserve">
<style type="text/css">
	.st0{clip-path:url(#SVGID_00000178919135035141412930000007389122816332165256_);}
	.st1{fill:#FFFFFF;}
</style>
<g>
	<g>
		<defs>
			<rect id="SVGID_1_" x="1.5" y="1.5" width="33" height="33"/>
		</defs>
		<clipPath id="SVGID_00000064345609585231710700000003714865179447345558_">
			<use xlink:href="#SVGID_1_"  style="overflow:visible;"/>
		</clipPath>
		<g id="Group_68535" style="clip-path:url(#SVGID_00000064345609585231710700000003714865179447345558_);">
			<path id="Path_46629" class="st1" d="M27.3,1.5c0.4,0.2,0.7,0.5,0.8,1c0.8,2.3,1.5,4.6,2.3,6.9c0.1,0.2,0.1,0.4,0.1,0.6
				c0,2.4,0,4.9,0,7.3c0,0.1,0,0.2,0,0.3c-0.1,0.3-0.3,0.5-0.6,0.4c-0.2,0-0.4-0.2-0.4-0.4c0-0.1,0-0.2,0-0.3c0-2.2,0-4.4,0-6.6
				v-0.4h-9.3v0.3c0,1.2,0,2.4,0,3.6c0,0.5-0.2,0.7-0.7,0.7c-2.3,0-4.6,0-6.9,0c-0.5,0-0.7-0.2-0.7-0.7c0-1.2,0-2.4,0-3.6v-0.4H2.6
				v23.3h19.8c-0.1-0.1-0.2-0.1-0.2-0.2c-2.6-1.6-4.2-4.5-3.9-7.5c0.1-2.6,1.5-5.1,3.7-6.5c0.2-0.2,0.6-0.2,0.8,0c0,0,0,0,0,0
				c0.2,0.3,0.1,0.6-0.2,0.8c-3.4,2.2-4.3,6.7-2.1,10.1s6.7,4.3,10.1,2.1c3.4-2.2,4.3-6.7,2.1-10.1c-1.2-1.8-3.1-3-5.2-3.3
				c-1.1-0.1-2.1,0-3.2,0.3c-0.4,0.1-0.6,0-0.8-0.3c-0.1-0.3,0-0.6,0.3-0.7c0,0,0.1,0,0.1,0c4.3-1.5,9.1,0.9,10.5,5.2
				c0.2,0.6,0.3,1.1,0.4,1.7c0,0.1,0,0.1,0.1,0.2v1.4c0,0.1,0,0.2-0.1,0.2c-0.4,3.3-2.8,6.1-6,7c-0.5,0.1-1,0.2-1.5,0.3H2.3
				c-0.4-0.1-0.6-0.4-0.8-0.8V9.6c0-0.1,0.1-0.2,0.1-0.3C2.4,7,3.2,4.8,3.9,2.5C4,2,4.3,1.7,4.7,1.5H27.3z M15.5,9.3V2.6h-2.1
				c0,0.3,0,0.7-0.1,1c0,0.4-0.3,0.6-0.6,0.6c-0.3,0-0.5-0.3-0.5-0.7c0-0.3,0-0.6,0-0.9c-0.1,0-0.1,0-0.2,0c-2.3,0-4.6,0-6.9,0
				C5,2.5,4.9,2.6,4.9,2.8C4.5,4.1,4.1,5.3,3.6,6.6C3.3,7.5,3,8.4,2.7,9.3h9.2c0-0.1,0-0.2,0-0.3c0.1-1.1,0.1-2.2,0.2-3.2
				c0-0.4,0.2-0.6,0.6-0.6s0.5,0.3,0.5,0.6c0,0.5-0.1,1.1-0.1,1.6C13,8,13,8.6,13,9.3L15.5,9.3z M29.3,9.3c0-0.1,0-0.1,0-0.2
				c-0.7-2.1-1.4-4.2-2.1-6.3c-0.1-0.2-0.2-0.2-0.4-0.2c-2.3,0-4.5,0-6.8,0c-0.1,0-0.2,0-0.3,0l0.4,6.7L29.3,9.3z M19.1,10.3h-6.2
				v3.6h6.2V10.3z M19.1,9.3l-0.4-6.7h-2.1v6.7H19.1z"/>
			<path id="Path_46632" class="st1" d="M1.5,33.9c0.1,0.4,0.4,0.6,0.8,0.8H1.5V33.9z"/>
			<path id="Path_46633" class="st1" d="M25.2,25.8l2.5-3.5c0.4-0.5,0.6-0.5,1.1-0.2c0.7,0.5,1.5,1.1,2.2,1.6
				c0.4,0.3,0.4,0.5,0.2,0.9c-1.6,2.2-3.1,4.4-4.7,6.5c-0.3,0.4-0.5,0.4-0.9,0.1c-1.4-1-2.8-2.1-4.2-3.1c-0.4-0.3-0.4-0.5-0.1-0.9
				c0.6-0.8,1.1-1.5,1.7-2.3c0.3-0.4,0.5-0.4,0.9-0.1C24.3,25.2,24.7,25.5,25.2,25.8 M30.1,24.3l-1.7-1.2c-0.1,0.1-0.1,0.1-0.1,0.1
				c-0.8,1.2-1.6,2.3-2.5,3.5c-0.3,0.4-0.6,0.5-1,0.1s-0.8-0.6-1.3-1l-1.2,1.7l3.5,2.7L30.1,24.3"/>
			<path id="Path_46634" class="st1" d="M7.2,28c-1,0-2,0-3,0c-0.4,0-0.6-0.2-0.6-0.5c0-0.3,0.2-0.5,0.6-0.5c2,0,4,0,6,0
				c0.4,0,0.6,0.2,0.6,0.5c0,0.3-0.2,0.5-0.6,0.5C9.2,28,8.2,28,7.2,28"/>
			<path id="Path_46635" class="st1" d="M7.2,29c1,0,2,0,3,0c0.4,0,0.6,0.2,0.6,0.5c0,0.3-0.2,0.5-0.6,0.5c-2,0-4,0-6,0
				c-0.4,0-0.6-0.2-0.6-0.5c0-0.3,0.2-0.5,0.6-0.5C5.2,29,6.2,29,7.2,29"/>
			<path id="Path_46636" class="st1" d="M7.2,32.1c-1,0-2,0-3,0c-0.4,0-0.6-0.2-0.6-0.5c0-0.3,0.2-0.5,0.6-0.5c2,0,4,0,6,0
				c0.4,0,0.6,0.2,0.6,0.5c0,0.3-0.2,0.5-0.6,0.5C9.2,32.1,8.2,32.1,7.2,32.1"/>
		</g>
	</g>
</g>
</svg>
