<svg xmlns="http://www.w3.org/2000/svg" width="26.5" height="37" viewBox="0 0 26.5 37">
    <defs>
        <style>
            .c{fill:none}.b,.c{stroke:#636366;stroke-miterlimit:10}.b{fill:#d1d1d6}.c{stroke-linecap:round}.d{fill:#636366}
        </style>
    </defs>
    <g transform="translate(-5922.738 -2897.1)">
        <path d="M5927.02,2897.6h12.932l8.786,9.857v22.367a3.777,3.777,0,0,1-3.777,3.776h-17.946a3.778,3.778,0,0,1-3.777-3.776v-28.447a3.778,3.778,0,0,1,3.778-3.777Z" style="stroke:#636366;stroke-miterlimit:10;fill:none"/>
        <path class="b" d="M5932.322,2915.6a3.671,3.671,0,1,1,3.672,3.673A3.671,3.671,0,0,1,5932.322,2915.6Z"/>
        <path class="c" d="M5932.321,2924.409a9.546,9.546,0,0,1,0-17.618"/>
        <path class="c" d="M5940.3,2907.086a9.544,9.544,0,0,1,.3,16.869"/>
        <circle class="b" cx="1.847" cy="1.847" r="1.847" transform="translate(5936.736 2904.569)"/>
        <circle class="b" cx="1.847" cy="1.847" r="1.847" transform="translate(5932.322 2923.201)"/>
        <circle class="d" cx="0.513" cy="0.513" r="0.513" transform="translate(5934.198 2905.617)"/>
        <circle class="d" cx="0.507" cy="0.507" r="0.507" transform="translate(5937.797 2924.345)"/>
    </g>
</svg>
