<svg xmlns="http://www.w3.org/2000/svg" xmlns:xlink="http://www.w3.org/1999/xlink" width="35.591" height="33.838" viewBox="0 0 35.591 33.838">
  <defs>
    <clipPath id="clip-path">
      <rect id="Rectangle_13381" data-name="Rectangle 13381" width="35.591" height="33.838" transform="translate(0 0)" fill="#fff"/>
    </clipPath>
  </defs>
  <g id="Group_69976" data-name="Group 69976" transform="translate(-149 -526)">
    <g id="Group_69977" data-name="Group 69977">
      <g id="Group_69976-2" data-name="Group 69976">
        <g id="Group_69648" data-name="Group 69648" transform="translate(149 526)">
          <g id="Group_69648-2" data-name="Group 69648" clip-path="url(#clip-path)">
            <path id="Path_46760" data-name="Path 46760" d="M0,17.313a1,1,0,0,1,1-.476c.81.022,1.622.006,2.433.006H3.8c-.05-.616-.113-1.19-.139-1.765A14.273,14.273,0,0,1,4.954,8.467a.7.7,0,0,1,1.342.4.681.681,0,0,1-.078.174,12.908,12.908,0,0,0-1.179,5.593c.011.658.115,1.313.163,1.97.015.2.1.264.284.247.948-.089,1.238.24,1.173,1.227-.008.125,0,.25,0,.4H8.2V11.8c0-.645.233-.88.876-.881H14.39V7.184a.718.718,0,0,1,.6-.821.755.755,0,0,1,.207,0q3.006,0,6.012.03c.527,0,.762.265.763.816v7.26c.151.009.284.022.416.022h4.831c.735,0,.946.215.946.957v7.387a1.744,1.744,0,0,0,.2-.174,12.926,12.926,0,0,0,2.746-9.926c-.037-.31-.1-.616-.158-.924a.712.712,0,0,1,.487-.88l.028-.007a.692.692,0,0,1,.835.511.68.68,0,0,1,.016.1,14.311,14.311,0,0,1-3.045,12.207,2.532,2.532,0,0,1-.488.54c-.817.544-.615,1.347-.6,2.148,1.1-.253,2.168-.49,3.234-.747a3.524,3.524,0,0,1,2.217.023,3.01,3.01,0,0,1,1.881,2.164c.02.076.05.149.075.223v.9a.333.333,0,0,0-.053.086A3.01,3.01,0,0,1,33.155,31.5q-4.036,1.025-8.069,2.054a8.386,8.386,0,0,1-5.248-.315c-3.078-1.209-6.165-2.4-9.233-3.633A5.762,5.762,0,0,0,7.916,29.1c-.409.035-.824.006-1.259.006v.432c0,.688-.23.914-.921.914-1.61,0-3.221-.01-4.831.008a.9.9,0,0,1-.9-.493Zm6.673,10.4c.856,0,1.676-.011,2.5.007a2.219,2.219,0,0,1,.739.142q5.2,2.026,10.4,4.071a6.619,6.619,0,0,0,4.053.354c2.865-.7,5.72-1.435,8.575-2.172a1.6,1.6,0,0,0,1.231-1.9c-.007-.032-.014-.064-.023-.095a1.622,1.622,0,0,0-1.963-1.189l-.054.014c-2.12.482-4.244.948-6.356,1.459a8.728,8.728,0,0,1-5.259-.181c-2.283-.859-4.557-1.74-6.834-2.616-.482-.185-.673-.539-.528-.94s.536-.532,1.013-.358l.162.061,4.34,1.664a1.719,1.719,0,0,0,1.509-.08,1.739,1.739,0,0,0,.959-1.718,1.655,1.655,0,0,0-1.1-1.508q-3.3-1.37-6.6-2.729a1.647,1.647,0,0,0-.6-.121c-1.923-.009-3.846,0-5.768,0h-.4Zm13.891-6.266V7.767H15.8c-.007.074-.016.13-.016.187q0,5.629-.007,11.259a.349.349,0,0,0,.274.371l2.919,1.2,1.6.656m6.186,5.3V15.9H22a1.683,1.683,0,0,0-.022.186v6.291a.856.856,0,0,0,.126.383,3.023,3.023,0,0,1,.115,2.929,2.633,2.633,0,0,0-.253,1.229c0,.232.072.309.305.349a10.984,10.984,0,0,0,4.477-.523m-25.333,2.3H5.239V18.25H1.415ZM9.609,18.49c.975,0,1.922.016,2.868-.006a3.277,3.277,0,0,1,1.712.323.646.646,0,0,0,.174.039V12.321H9.609Z" fill="#fff"/>
            <path id="Path_46761" data-name="Path 46761" d="M18.07,0a14.674,14.674,0,0,1,5.067.9c.5.188.707.54.553.952a.725.725,0,0,1-.948.39c-.024-.01-.047-.022-.07-.034a13.016,13.016,0,0,0-8.944-.045A12.811,12.811,0,0,0,9.556,4.6c-.481.415-.879.457-1.182.12s-.216-.749.281-1.175A14.356,14.356,0,0,1,18.07,0" fill="#fff"/>
            <path id="Path_46762" data-name="Path 46762" d="M31.555,2.878a2.027,2.027,0,0,1-.242.443q-2.794,3.236-5.6,6.456a.7.7,0,0,1-1.182-.75.679.679,0,0,1,.128-.15q2.8-3.244,5.619-6.481a.681.681,0,0,1,.806-.24.746.746,0,0,1,.471.722" fill="#fff"/>
            <path id="Path_46763" data-name="Path 46763" d="M29.812,6.942a1.76,1.76,0,1,1-1.756,1.8c0-.026,0-.052,0-.078a1.728,1.728,0,0,1,1.734-1.722h.021M30.2,8.768l0-.149c-.131-.1-.251-.24-.4-.271a.27.27,0,0,0-.334.185.28.28,0,0,0,0,.132.51.51,0,0,0,.32.344c.123.017.272-.154.41-.242" fill="#fff"/>
            <path id="Path_46764" data-name="Path 46764" d="M27.673,3.634A1.741,1.741,0,1,1,25.922,1.9a1.74,1.74,0,0,1,1.751,1.731m-1.682-.4-.149.006c-.086.139-.254.289-.236.413a.5.5,0,0,0,.346.317.271.271,0,0,0,.321-.209.281.281,0,0,0-.005-.132c-.032-.145-.18-.264-.277-.4" fill="#fff"/>
            <path id="Path_46765" data-name="Path 46765" d="M7.067,5.63a.679.679,0,0,1,.681.679v.006a.7.7,0,0,1-.678.7.692.692,0,0,1-.694-.69V6.3a.67.67,0,0,1,.671-.671h.02" fill="#fff"/>
          </g>
        </g>
      </g>
    </g>
  </g>
</svg>
