<svg id="building_1183253" xmlns="http://www.w3.org/2000/svg" width="38.919" height="35.253" viewBox="0 0 38.919 35.253">
  <path id="Path_42423" data-name="Path 42423" d="M38.926,38.877H37.413V22.917a2.1,2.1,0,0,0-2.1-2.1h-5.56V7.711a2.1,2.1,0,0,0-2.1-2.1H13.283a2.1,2.1,0,0,0-2.1,2.1V20.816H5.623a2.1,2.1,0,0,0-2.1,2.1V38.877H1.993a.993.993,0,1,0,0,1.986H38.926a.993.993,0,0,0,0-1.986ZM13.164,7.711a.115.115,0,0,1,.115-.115H27.635a.115.115,0,0,1,.115.115V38.877H13.168Z" transform="translate(-1 -5.61)" fill="#67809f"/>
  <path id="Path_42424" data-name="Path 42424" d="M38.493,79.046h7.943a.993.993,0,0,0,0-1.986H38.493a.993.993,0,0,0,0,1.986Z" transform="translate(-23.005 -48.685)" fill="#67809f"/>
  <path id="Path_42425" data-name="Path 42425" d="M38.493,67.146h7.943a.993.993,0,1,0,0-1.986H38.493a.993.993,0,1,0,0,1.986Z" transform="translate(-23.005 -41.511)" fill="#67809f"/>
  <path id="Path_42426" data-name="Path 42426" d="M38.493,55.246h7.943a.993.993,0,0,0,0-1.986H38.493a.993.993,0,0,0,0,1.986Z" transform="translate(-23.005 -34.337)" fill="#67809f"/>
  <path id="Path_42427" data-name="Path 42427" d="M38.493,43.356h7.943a.993.993,0,0,0,0-1.986H38.493a.993.993,0,0,0,0,1.986Z" transform="translate(-23.005 -27.169)" fill="#67809f"/>
  <path id="Path_42428" data-name="Path 42428" d="M38.493,31.456h7.943a.993.993,0,0,0,0-1.986H38.493a.993.993,0,1,0,0,1.986Z" transform="translate(-23.005 -19.995)" fill="#67809f"/>
  <path id="Path_42429" data-name="Path 42429" d="M38.493,19.556h7.943a.993.993,0,0,0,0-1.986H38.493a.993.993,0,0,0,0,1.986Z" transform="translate(-23.005 -12.82)" fill="#67809f"/>
</svg>
