<svg xmlns="http://www.w3.org/2000/svg" width="17.011" height="17" viewBox="0 0 17.011 17">
    <g id="phone" transform="translate(0 -.188)">
        <g id="Group_34156" data-name="Group 34156" transform="translate(0 .188)">
            <path id="Path_27330" d="M17 13.6a.822.822 0 0 1-.252.72l-2.4 2.377a1.348 1.348 0 0 1-.423.306 1.749 1.749 0 0 1-.513.162q-.018 0-.108.009t-.234.009a8.3 8.3 0 0 1-1.108-.117 8.411 8.411 0 0 1-1.873-.576 15.72 15.72 0 0 1-2.512-1.378A18.73 18.73 0 0 1 4.6 12.6a19.733 19.733 0 0 1-2.089-2.377 16.936 16.936 0 0 1-1.333-2.1 11.3 11.3 0 0 1-.761-1.749 9.268 9.268 0 0 1-.342-1.351A4.46 4.46 0 0 1 0 4.132q.018-.324.018-.36a1.75 1.75 0 0 1 .162-.513 1.349 1.349 0 0 1 .306-.423l2.4-2.4a.793.793 0 0 1 .575-.248.672.672 0 0 1 .414.135 1.252 1.252 0 0 1 .306.333l1.927 3.656a.876.876 0 0 1 .09.63 1.122 1.122 0 0 1-.306.576l-.883.882a.3.3 0 0 0-.063.117.444.444 0 0 0-.027.135 3.252 3.252 0 0 0 .324.864 7.935 7.935 0 0 0 .667 1.055A11.7 11.7 0 0 0 7.188 10a11.928 11.928 0 0 0 1.441 1.29 8.32 8.32 0 0 0 1.053.675 2.8 2.8 0 0 0 .648.261l.225.045a.429.429 0 0 0 .117-.027.3.3 0 0 0 .117-.063l1.026-1.044a1.1 1.1 0 0 1 .756-.288.941.941 0 0 1 .486.108h.018l3.475 2.053a.906.906 0 0 1 .45.59z"  data-name="Path 27330" transform="translate(0 -.188)"/>
        </g>
    </g>
</svg>
