<svg xmlns="http://www.w3.org/2000/svg" width="16.68" height="15" viewBox="0 0 16.68 15">
    <defs>
        <style>
            .print-1{fill:#107bb4}
        </style>
    </defs>
    <path id="Path_29" d="M14.18 7.18a2.435 2.435 0 0 1 1.758.723 2.384 2.384 0 0 1 .742 1.777v5h-3.36V18h-10v-3.32H0v-5A2.416 2.416 0 0 1 .723 7.9 2.416 2.416 0 0 1 2.5 7.18zm-2.5 9.141V12.18H5v4.14zm1.895-6.074a.8.8 0 1 0-.254-.586.8.8 0 0 0 .253.585zM13.32 3v3.32h-10V3z"  data-name="Path 29" transform="translate(0 -3)"/>
</svg>
