<svg xmlns="http://www.w3.org/2000/svg" width="24" height="24" viewBox="0 0 24 24">
    <defs>
              
        </style>
    </defs>
    <g id="Profile" transform="translate(1388 207)">
        <g id="Group_34169" data-name="Group 34169" transform="translate(-1388 -207)">
            <g id="noun_customer_1510424">
                <path id="Path_27345" d="M36 5.728c0 3.159 2.379 7.594 5.329 7.594s5.329-4.434 5.329-7.594a5.343 5.343 0 1 0-10.658 0z"  data-name="Path 27345" transform="translate(-29.329)"/>
                <path id="Path_27346" d="M22.535 84.277a1.424 1.424 0 0 0 1.443-1.523c-.131-1.941-.506-5.177-1.518-6.147C21.5 75.694 15.825 74 15.825 74l-3.843 2.855L8.139 74S2.46 75.694 1.5 76.607c-1.008.971-1.383 4.187-1.515 6.148a1.424 1.424 0 0 0 1.443 1.523z"  data-name="Path 27346" transform="translate(.018 -60.277)"/>
            </g>
        </g>
    </g>
</svg>
