<svg xmlns="http://www.w3.org/2000/svg" width="26" height="26" viewBox="0 0 26 26"><defs><style>.a{fill:#1c1ec8;}</style></defs><path class="a" d="M1.523,1.523h4.57V0H0V6.094H1.523Zm0,0"/><path class="a" d="M392,0V1.523h4.57v4.57h1.523V0Zm0,0" transform="translate(-372.094)"/><path class="a" d="M396.57,396.57H392v1.523h6.094V392H396.57Zm0,0" transform="translate(-372.094 -372.094)"/><path class="a" d="M1.523,392H0v6.094H6.094V396.57H1.523Zm0,0" transform="translate(0 -372.094)"/><path class="a" d="M61,60v7.617h7.617v-4.57h1.523V61.523H68.617V60Zm6.094,6.094h-4.57v-4.57h4.57Zm0,0" transform="translate(-57.902 -56.953)"/><path class="a" d="M280.141,279.141v-7.617h-3.047V270H275.57v1.523H271v1.523h1.523v1.523H271v1.523h1.523v3.047Zm-6.094-6.094h4.57v4.57h-4.57Zm0,0" transform="translate(-257.238 -256.289)"/><path class="a" d="M65.57,241.523h3.047V240H61v1.523h3.047v1.523H62.523v1.523h1.523v3.047H62.523v1.523h1.523v1.523h7.617v-1.523H70.141v-1.523H68.617v1.523H65.57v-1.523h1.523v-1.523H65.57Zm0,0" transform="translate(-57.902 -227.813)"/><path class="a" d="M121,120h1.523v1.523H121Zm0,0" transform="translate(-114.855 -113.906)"/><path class="a" d="M361,120h1.523v1.523H361Zm0,0" transform="translate(-342.668 -113.906)"/><path class="a" d="M305.57,67.617h3.047V60H301v7.617h3.047v1.523h1.523Zm-3.047-1.523v-4.57h4.57v4.57Zm0,0" transform="translate(-285.715 -56.953)"/><path class="a" d="M394.047,241.523V240H391v1.523Zm0,0" transform="translate(-371.145 -227.813)"/><path class="a" d="M361,360h1.523v1.523H361Zm0,0" transform="translate(-342.668 -341.719)"/><path class="a" d="M241,330h1.523v1.523H241Zm0,0" transform="translate(-228.762 -313.242)"/><path class="a" d="M181,303.047h1.523V300H181Zm0,0" transform="translate(-171.809 -284.766)"/><path class="a" d="M211,270h1.523v1.523H211Zm0,0" transform="translate(-200.285 -256.289)"/><path class="a" d="M62.523,330H61v3.047h1.523Zm0,0" transform="translate(-57.902 -313.242)"/><path class="a" d="M61,420h1.523v1.523H61Zm0,0" transform="translate(-57.902 -398.672)"/><path class="a" d="M241,60h1.523v1.523H241Zm0,0" transform="translate(-228.762 -56.953)"/><path class="a" d="M241,123.047h1.523V120H241Zm0,0" transform="translate(-228.762 -113.906)"/><path class="a" d="M242.523,211.523V210H241v3.047h6.094v-1.523Zm0,0" transform="translate(-228.762 -199.336)"/></svg>