<?xml version="1.0" standalone="no"?>
<!DOCTYPE svg PUBLIC "-//W3C//DTD SVG 20010904//EN"
 "http://www.w3.org/TR/2001/REC-SVG-20010904/DTD/svg10.dtd">
<svg version="1.0" xmlns="http://www.w3.org/2000/svg"
 width="512.000000pt" height="512.000000pt" viewBox="0 0 512.000000 512.000000"
 preserveAspectRatio="xMidYMid meet">

<g transform="translate(0.000000,512.000000) scale(0.100000,-0.100000)"
fill="#000000" stroke="none">
<path d="M2321 5110 c-497 -48 -990 -251 -1376 -565 -114 -92 -294 -274 -384
-387 -229 -287 -417 -675 -495 -1023 -49 -218 -60 -325 -60 -575 0 -250 11
-357 60 -575 79 -355 272 -749 509 -1040 92 -114 274 -294 387 -384 287 -229
675 -417 1023 -495 218 -49 325 -60 575 -60 250 0 357 11 575 60 261 58 603
204 828 353 389 259 688 599 893 1016 125 255 196 484 241 775 24 161 24 539
0 700 -45 291 -116 520 -241 775 -134 272 -283 480 -498 692 -211 209 -404
346 -673 478 -252 124 -486 197 -765 240 -126 19 -468 27 -599 15z m539 -476
c441 -63 858 -273 1179 -595 323 -322 527 -728 596 -1184 23 -148 23 -441 1
-590 -129 -850 -747 -1533 -1575 -1740 -315 -79 -687 -79 -1002 0 -753 188
-1346 781 -1534 1534 -79 316 -79 686 0 1002 204 814 879 1436 1705 1569 191
31 427 33 630 4z"/>
<path d="M2390 4086 c-163 -29 -316 -96 -448 -196 -229 -173 -381 -450 -399
-727 l-6 -93 255 0 256 0 7 47 c10 66 39 135 85 203 156 230 476 288 711 129
173 -117 261 -353 199 -533 -26 -77 -91 -172 -155 -226 -97 -82 -185 -116
-336 -129 -106 -10 -141 -24 -193 -77 -58 -60 -61 -78 -61 -399 l0 -290 255 0
255 0 3 146 3 147 47 13 c116 32 266 117 379 216 129 113 255 319 303 498 28
102 38 313 20 422 -34 212 -136 412 -289 564 -138 136 -286 220 -481 270 -99
26 -308 33 -410 15z"/>
<path d="M2305 1527 c-3 -7 -4 -123 -3 -257 l3 -245 255 0 255 0 0 255 0 255
-253 3 c-198 2 -254 0 -257 -11z"/>
</g>
</svg>
