<svg xmlns="http://www.w3.org/2000/svg" width="49.998" height="34.347" viewBox="0 0 49.998 34.347">
  <g id="Group_60383" data-name="Group 60383" transform="translate(-143.612 -233.653)">
    <g id="noun_Customer_Satisfaction_66932" data-name="noun_Customer Satisfaction_66932" transform="translate(143.393 225.207)">
      <g id="Group_67492" data-name="Group 67492">
        <path id="Path_43783" data-name="Path 43783" d="M41.223,19.672a1.143,1.143,0,1,1-1.142,1.144A1.144,1.144,0,0,1,41.223,19.672Z" fill="#556070"/>
        <path id="Path_43784" data-name="Path 43784" d="M44.547,19.672a1.143,1.143,0,1,1-1.141,1.144A1.144,1.144,0,0,1,44.547,19.672Z" fill="#556070"/>
        <path id="Path_43785" data-name="Path 43785" d="M5.887,19.672a1.143,1.143,0,1,1-1.143,1.144A1.144,1.144,0,0,1,5.887,19.672Z" fill="#556070"/>
        <path id="Path_43786" data-name="Path 43786" d="M9.212,19.672a1.143,1.143,0,1,1-1.141,1.144A1.144,1.144,0,0,1,9.212,19.672Z" fill="#556070"/>
        <path id="Path_43787" data-name="Path 43787" d="M23.436,13.18a1.143,1.143,0,1,1-1.142,1.144A1.144,1.144,0,0,1,23.436,13.18Z" fill="#556070"/>
        <path id="Path_43788" data-name="Path 43788" d="M26.759,13.18a1.143,1.143,0,1,1-1.139,1.144A1.144,1.144,0,0,1,26.759,13.18Z" fill="#556070"/>
        <path id="Path_43789" data-name="Path 43789" d="M27.911,39.1l-2.606-6.553-2.4,6.387h0a2.716,2.716,0,1,0,5,.166Z" fill="#556070"/>
        <path id="Path_43790" data-name="Path 43790" d="M25.349,27.024A13.075,13.075,0,0,0,12.3,40.094a.9.9,0,0,0,1.8,0,11.236,11.236,0,0,1,.563-3.5l2.728,1.03a8.366,8.366,0,0,1,.314-.84l-2.733-1.036a11.331,11.331,0,0,1,3.144-4.271L19.9,33.79a8.244,8.244,0,0,1,.706-.555l-1.778-2.309a11.17,11.17,0,0,1,6.1-2.084v2.922c.142,0,.283-.021.426-.021s.315.016.473.023V28.844a11.181,11.181,0,0,1,6.031,2.062l-1.779,2.308a8.262,8.262,0,0,1,.711.554l1.783-2.318a11.325,11.325,0,0,1,3.164,4.27L33,36.756a8.53,8.53,0,0,1,.319.839l2.726-1.032a11.194,11.194,0,0,1,.574,3.531.9.9,0,0,0,1.8,0A13.082,13.082,0,0,0,25.349,27.024Z" fill="#556070"/>
      </g>
      <g id="Group_67493" data-name="Group 67493">
        <path id="Path_43791" data-name="Path 43791" d="M42.884,30.352a7.331,7.331,0,1,1,7.333-7.33,7.338,7.338,0,0,1-7.333,7.33Zm0-12.9a5.571,5.571,0,1,0,5.572,5.573,5.576,5.576,0,0,0-5.572-5.573Z" fill="#556070"/>
        <path id="Path_43792" data-name="Path 43792" d="M42.885,26.857a3.839,3.839,0,0,1-3.834-3.836h1.512a2.323,2.323,0,0,0,4.646,0h1.514a3.84,3.84,0,0,1-3.838,3.836Z" fill="#556070"/>
        <path id="Path_43793" data-name="Path 43793" d="M7.55,30.352a7.33,7.33,0,1,1,7.331-7.33,7.34,7.34,0,0,1-7.331,7.33Zm0-12.9a5.571,5.571,0,1,0,5.571,5.573A5.577,5.577,0,0,0,7.55,17.449Z" fill="#556070"/>
        <path id="Path_43794" data-name="Path 43794" d="M11.385,26.19H9.874c0-.885-1.064-1.631-2.322-1.631s-2.325.746-2.325,1.631H3.714c0-1.734,1.721-3.145,3.837-3.145s3.834,1.411,3.834,3.145Z" fill="#556070"/>
        <path id="Path_43795" data-name="Path 43795" d="M25.163,23.108a7.331,7.331,0,1,1,7.332-7.331,7.338,7.338,0,0,1-7.332,7.331Zm0-12.9a5.572,5.572,0,1,0,5.571,5.572,5.577,5.577,0,0,0-5.571-5.572Z" fill="#556070"/>
        <path id="Path_43796" data-name="Path 43796" d="M26.876,18.7h-3.63V17.191h3.63Z" fill="#556070"/>
      </g>
    </g>
  </g>
</svg>
