<svg xmlns="http://www.w3.org/2000/svg" id="Referral" width="25.68" height="30.052" viewBox="0 0 25.68 30.052">
    <defs>
               
        </style>
    </defs>
    <g id="Group_566" data-name="Group 566">
        <path id="Path_326" d="M9.763 55.545v-1.784a5.53 5.53 0 0 1 .226.537 8.267 8.267 0 0 1 .286 1.01 6.786 6.786 0 0 1 1.97-.483 7.82 7.82 0 0 0-1.021-2.591 3.58 3.58 0 0 0-1.354-1.261 2.417 2.417 0 0 0-1.029-.27H3.827a2.418 2.418 0 0 0-1.03.27A4.276 4.276 0 0 0 .871 53.36 16.767 16.767 0 0 0 0 59.447c0 .742.024 1.549.075 2.428a1.014 1.014 0 0 0 1.011.954h.06a1.013 1.013 0 0 0 .954-1.073 39.905 39.905 0 0 1-.072-2.309 13.465 13.465 0 0 1 .882-5.691v19a1.567 1.567 0 0 0 3.133 0V62.04a6.733 6.733 0 0 1-.013-.4 6.847 6.847 0 0 1 3.733-6.095z"  data-name="Path 326" transform="translate(0 -44.276)"/>
        <path id="Path_327" d="M52.325 159.092v8.328a1.567 1.567 0 0 0 3.133 0v-5.033a6.884 6.884 0 0 1-3.133-3.295z"  data-name="Path 327" transform="translate(-45.695 -138.935)"/>
        <ellipse id="Ellipse_9" cx="2.851" cy="2.851"  data-name="Ellipse 9" rx="2.851" ry="2.851" transform="translate(3.485)"/>
        <path id="Path_328" d="M115.5 50.973a2.419 2.419 0 0 0-1.03-.27H109.456a2.418 2.418 0 0 0-1.03.27 4.277 4.277 0 0 0-1.93 2.387 9.958 9.958 0 0 0-.442 1.461 6.789 6.789 0 0 1 1.974.465 7.006 7.006 0 0 1 .506-1.53v1.757a6.838 6.838 0 0 1 3.72 7.139v10.11a1.567 1.567 0 0 0 3.133 0v-19a5.521 5.521 0 0 1 .226.537 15.669 15.669 0 0 1 .656 5.149c0 .7-.022 1.466-.072 2.309a1.013 1.013 0 0 0 .953 1.071h.06a1.014 1.014 0 0 0 1.011-.954c.051-.879.075-1.685.075-2.427-.005-3.824-.616-5.941-1.449-7.214a3.58 3.58 0 0 0-1.347-1.26z"  data-name="Path 328" transform="translate(-92.618 -44.276)"/>
        <path id="Path_329" d="M125.628 163.376v5a1.567 1.567 0 0 0 3.133 0v-8.189a6.886 6.886 0 0 1-3.133 3.189z"  data-name="Path 329" transform="translate(-109.711 -139.892)"/>
        <ellipse id="Ellipse_10" cx="2.851" cy="2.851"  data-name="Ellipse 10" rx="2.851" ry="2.851" transform="translate(16.493)"/>
        <path id="Path_330" d="M57.924 87.02a6.335 6.335 0 1 0 6.335 6.335 6.335 6.335 0 0 0-6.335-6.335zm0 11.15a4.815 4.815 0 1 1 4.815-4.814 4.82 4.82 0 0 1-4.815 4.814z"  data-name="Path 330" transform="translate(-45.053 -75.994)"/>
        <path id="Path_331" d="M80.708 115.02v2.027h-2.914v1.52h2.914v2.027l3.053-2.787z"  data-name="Path 331" transform="translate(-67.937 -100.447)"/>
    </g>
</svg>
