<svg xmlns="http://www.w3.org/2000/svg" width="15.765" height="18.426" viewBox="0 0 15.765 18.426">
<defs><style>.refreshIcon{fill:#999999;}</style></defs>
<path class="refreshIcon" d="M7331.971,3081.133a.611.611,0,0,0-.611.558,6.666,6.666,0,1,1-6.816-7.18.161.161,0,0,1,.168.154v2.075a.657.657,0,0,0,1.01.555l3.95-2.763a.657.657,0,0,0,0-1.113l-3.946-2.726a.658.658,0,0,0-.907.2.665.665,0,0,0-.1.355v1.876a.161.161,0,0,1-.158.164h0a7.968,7.968,0,0,0-7.094,4.74,7.571,7.571,0,0,0-.643,3.11,7.9,7.9,0,0,0,15.763.657.611.611,0,0,0-.557-.659.5.5,0,0,0-.054,0Z" transform="translate(-7316.819 -3070.59)"/>
</svg>