<svg xmlns="http://www.w3.org/2000/svg" id="Relationship_Manager" width="30.6" height="30.633" data-name="Relationship Manager" viewBox="0 0 30.6 30.633">
    <defs>
               
        </style>
    </defs>
    <path id="Path_157" d="M97.086 91.389a6.14 6.14 0 0 0-3.733-4.052l-5.465-2.05a11.7 11.7 0 0 0 3.766-8.455c0-4.591-3.431-8.332-7.654-8.332s-7.654 3.741-7.654 8.332a11.69 11.69 0 0 0 3.766 8.455l-5.465 2.05a6.105 6.105 0 0 0-3.733 4.052L68.7 99.133h30.6zm-11.558 1.617L84 96.069l-1.528-3.063 1.021-2.034-1.021-1.013L84 88.432l1.528 1.528-1.021 1.013zM84 85.328c-2.753 0-5.081-3.153-5.849-6.347l1.258-1.274.057-2.712a7.761 7.761 0 0 0 6.061-1.871 5.818 5.818 0 0 0 3.071 1.34l-.008 3.292 1.266 1.217c-.767 3.201-3.095 6.355-5.856 6.355zm10.709 7.679h-4.591v-1.528h4.591z"  data-name="Path 157" transform="translate(-68.7 -68.5)"/>
</svg>
