<svg xmlns="http://www.w3.org/2000/svg" xmlns:xlink="http://www.w3.org/1999/xlink" width="49.094" height="48.693" viewBox="0 0 49.094 48.693">
    <defs>
        <clipPath id="a">
            <path d="M138.147,631.342c-.644-1.488-2.1-1.353-3.2-.974l-7.647,2.118c-.02.085-.04.165-.065.25a4.017,4.017,0,0,1-4.97,2.767c-.01-.005-.02-.005-.03-.01l-9.142-2.9a1.019,1.019,0,0,1,.615-1.943l9.126,2.892a1.98,1.98,0,0,0,2.443-1.368,2.287,2.287,0,0,0-1.664-2.7l-8.1-2.747a1,1,0,0,1-.539-.43,5.884,5.884,0,0,0-4.991-2.342c-2.018,0-3.891,1.618-4.855,3.2v1.4h-2.038v-.782h-1.823v5.4H99.23v-5.4H95.209v10.8H99.23v-4.966h2.038v3.067h1.823v-7.061h2.038v5.748a9.139,9.139,0,0,1,4.736,1.608A58.906,58.906,0,0,0,115.784,640a6.574,6.574,0,0,0,5.07-.085.177.177,0,0,0,.045-.02.456.456,0,0,1,.045-.015l15.68-5.614C137.078,634.05,138.817,633.086,138.147,631.342Z" style="fill:none"/>
        </clipPath>
        <style>
            .b,.e{fill:none;stroke:#fff}.b{stroke-miterlimit:10}.d{fill:#fff}.e{stroke-linejoin:round}
        </style>
    </defs>
    <g transform="translate(-94.854 -592.305)">
        <rect class="b" width="4.021" height="10.805" transform="translate(95.354 627.776)"/>
        <rect class="b" width="1.823" height="8.906" transform="translate(101.414 627.776)"/>
        <path class="b" d="M136.77,634.265l-15.68,5.614a.456.456,0,0,0-.045.015.178.178,0,0,1-.045.02,6.574,6.574,0,0,1-5.07.085,59.07,59.07,0,0,1-5.92-3.022,9.132,9.132,0,0,0-4.735-1.608v-8.208c.964-1.583,2.837-3.2,4.855-3.2a5.881,5.881,0,0,1,4.99,2.342,1,1,0,0,0,.54.43l8.1,2.747a2.286,2.286,0,0,1,1.663,2.7,1.978,1.978,0,0,1-2.442,1.368l-9.126-2.892a1.019,1.019,0,1,0-.615,1.943l9.141,2.9c.01.005.02.005.03.01a4.018,4.018,0,0,0,1.109.155,4.03,4.03,0,0,0,3.862-2.922c.025-.085.045-.165.065-.25l7.647-2.118c1.1-.379,2.558-.514,3.2.974C138.962,633.086,137.224,634.05,136.77,634.265Z"/>
        <g style="opacity:.24">
            <rect class="d" width="4.021" height="10.805" transform="translate(95.209 627.824)"/>
            <rect class="d" width="1.823" height="8.906" transform="translate(101.268 627.824)"/>
            <path class="d" d="M136.624,634.312l-15.68,5.615a.471.471,0,0,0-.045.015.177.177,0,0,1-.045.02,6.579,6.579,0,0,1-5.07.085,58.91,58.91,0,0,1-5.919-3.022,9.148,9.148,0,0,0-4.736-1.609v-8.207c.964-1.583,2.837-3.2,4.855-3.2a5.884,5.884,0,0,1,4.991,2.343,1,1,0,0,0,.539.43l8.1,2.747a2.286,2.286,0,0,1,1.664,2.7,1.98,1.98,0,0,1-2.443,1.369l-9.126-2.892a1.019,1.019,0,1,0-.615,1.943l9.142,2.9c.01.005.02.005.03.01a4.008,4.008,0,0,0,1.109.155,4.031,4.031,0,0,0,3.861-2.922c.025-.085.045-.165.065-.25l7.647-2.118c1.1-.38,2.558-.514,3.2.974C138.817,633.133,137.078,634.1,136.624,634.312Z"/>
        </g>
        <path class="e" d="M116.414,607.55a3.772,3.772,0,1,1-5.12-4.306,4.515,4.515,0,0,0,3.052,3.607.071.071,0,0,1,.03.01Z"/>
        <path class="e" d="M119.077,618.335l-2.323,2.323-2.323-2.323A4.444,4.444,0,0,1,119.077,618.335Z"/>
        <path class="e" d="M125.485,611.926l-1.149,1.144a4.427,4.427,0,0,1-.649-2.118A7.882,7.882,0,0,0,125.485,611.926Z"/>
        <rect class="e" width="4.021" height="10.81" transform="translate(139.427 595.832)"/>
        <rect class="e" width="1.823" height="8.911" transform="translate(135.566 597.73)"/>
        <path class="e" d="M133.528,599.048v8.208c-.964,1.583-2.838,3.2-4.856,3.2a7.117,7.117,0,0,1-1.064-.075H127.6a5.833,5.833,0,0,1-3.776-2.068c-.02-.03-.105-.145-.12-.165a1.037,1.037,0,0,0-.559-.465l-8.1-2.752a2.281,2.281,0,0,1-1.663-2.693v-.005a1.989,1.989,0,0,1,2.438-1.368l9.131,2.892a1.019,1.019,0,1,0,.614-1.943l-7.258-2.3-.065-.065h0l-3.756-3.761,3.232-1.154.035-.015a.017.017,0,0,1,.01-.005l.04-.015a6.617,6.617,0,0,1,5.075-.09,59.283,59.283,0,0,1,5.914,3.022A9.175,9.175,0,0,0,133.528,599.048Z"/>
        <path class="e" d="M111.034,595.127a4.445,4.445,0,0,1-4.645,0l2.323-2.322Z"/>
        <path class="e" d="M101.783,602.71a4.425,4.425,0,0,1-.654,2.323l-2.323-2.323,2.323-2.323A4.425,4.425,0,0,1,101.783,602.71Z"/>
        <path class="e" d="M122.868,614.539l-2.323,2.327a6.481,6.481,0,0,0-7.583,0L102.6,606.5a6.483,6.483,0,0,0,0-7.582l2.323-2.323a6.484,6.484,0,0,0,7.583,0l2.2,2.2a4.035,4.035,0,0,0-3.032,2.223,5.8,5.8,0,1,0,6.678,7.188l3.437,1.169A6.506,6.506,0,0,0,122.868,614.539Z"/>
        <g style="clip-path:url(#a)">
            <g style="opacity:.54">
                <line class="b" y1="0.539" transform="translate(99.769 651.927)"/>
                <line class="b" x1="38.62" y2="38.62" transform="translate(78.134 599.822)"/>
                <line class="b" x1="38.62" y2="38.62" transform="translate(80.548 602.236)"/>
                <line class="b" x1="38.62" y2="38.62" transform="translate(82.962 604.65)"/>
                <line class="b" x1="38.62" y2="38.62" transform="translate(85.375 607.063)"/>
                <line class="b" x1="38.62" y2="38.62" transform="translate(87.789 609.477)"/>
                <line class="b" x1="38.62" y2="38.62" transform="translate(90.203 611.891)"/>
                <line class="b" x1="38.62" y2="38.62" transform="translate(92.616 614.305)"/>
                <line class="b" x1="38.62" y2="38.62" transform="translate(95.03 616.718)"/>
                <line class="b" x1="38.62" y2="38.62" transform="translate(97.444 619.132)"/>
                <line class="b" x1="38.62" y2="38.62" transform="translate(99.858 621.546)"/>
                <line class="b" x1="38.62" y2="38.62" transform="translate(102.271 623.96)"/>
                <line class="b" x1="38.62" y2="38.62" transform="translate(104.685 626.373)"/>
                <line class="b" x1="38.62" y2="38.62" transform="translate(107.099 628.787)"/>
                <line class="b" x1="38.62" y2="38.62" transform="translate(109.513 631.201)"/>
            </g>
        </g>
    </g>
</svg>
