<svg xmlns="http://www.w3.org/2000/svg" width="18" height="20" viewBox="0 0 18 20">
    <g id="Requests" transform="translate(-19 -235)">
        <g id="Group_34945" data-name="Group 34945" transform="translate(19 235)">
            <path id="ic_playlist_add_check_24px" d="M15.28 9.147H2v1.573h13.28zm0-3.147H2v1.573h13.28zM2 13.867h8.853v-1.573H2z"  transform="translate(.36 3.773)"/>
            <path id="ic_content_paste_24px" d="M19 1.818h-4.18a3.1 3.1 0 0 0-5.64 0H5a1.921 1.921 0 0 0-2 1.818v14.546A1.921 1.921 0 0 0 5 20h14a1.921 1.921 0 0 0 2-1.818V3.636a1.921 1.921 0 0 0-2-1.818zm-7 0a.961.961 0 0 1 1 .909 1 1 0 0 1-2 0 .961.961 0 0 1 1-.909zm7 16.364H5V3.636h2v2.728h10V3.636h2z"  transform="translate(-3)"/>
        </g>
    </g>
</svg>
