<?xml version="1.0" encoding="utf-8"?>
<!-- Generator: Adobe Illustrator 26.0.2, SVG Export Plug-In . SVG Version: 6.00 Build 0)  -->
<svg version="1.1" id="Layer_1" xmlns="http://www.w3.org/2000/svg" xmlns:xlink="http://www.w3.org/1999/xlink" x="0px" y="0px"
	 viewBox="0 0 35 35" style="enable-background:new 0 0 35 35;" xml:space="preserve">
<style type="text/css">
	.st0{fill:#FFFFFF;}
</style>
<g>
	<path class="st0" d="M22.09,20.55c0.36-0.62,0.16-1.42-0.46-1.78c-0.74-0.43-1.52-0.79-2.3-1.18l0,0c0.68-0.51,1.28-1.12,1.77-1.82
		c2.68-3.75,1.81-8.96-1.94-11.64S10.2,2.32,7.52,6.07c-2.68,3.75-1.81,8.96,1.94,11.64c-0.01,0.02-0.03,0.03-0.04,0.04
		c-0.07,0.04-0.15,0.07-0.22,0.11c-1.47,0.62-2.81,1.5-3.96,2.61c-2.5,2.34-4,5.55-4.21,8.96c-0.04,0.37-0.04,0.74,0.02,1.1
		c0.14,0.68,0.79,1.12,1.47,1.01c0.67-0.1,1.16-0.68,1.13-1.36c0-0.65,0.07-1.3,0.19-1.95c1.11-5.89,6.79-9.77,12.69-8.66
		c1.29,0.25,2.52,0.72,3.65,1.4c0.45,0.32,1.05,0.32,1.51,0.01C21.84,20.87,21.98,20.72,22.09,20.55z M14.3,16.62
		c-3.15-0.01-5.69-2.57-5.68-5.72c0-0.02,0-0.04,0-0.06c0.03-3.13,2.59-5.65,5.72-5.62c0,0,0,0,0,0c3.15,0.01,5.69,2.57,5.68,5.72
		S17.45,16.63,14.3,16.62z"/>
	<path class="st0" d="M28.63,26.77c0.01-0.04,0.02-0.09,0.01-0.13l-0.06-3.23c0.02-0.31-0.21-0.57-0.52-0.6
		c-0.3,0.04-0.52,0.31-0.49,0.61l0.06,3.04h-2.81c-0.07-0.02-0.15-0.02-0.22,0c-0.28,0.06-0.45,0.34-0.39,0.61
		c0.06,0.28,0.34,0.45,0.61,0.39h3.22c0.07,0.02,0.15,0.02,0.22,0c0.28-0.06,0.45-0.34,0.39-0.61
		C28.66,26.81,28.64,26.79,28.63,26.77z"/>
	<path class="st0" d="M27.65,19.73c-3.51,0-6.35,2.84-6.35,6.35s2.84,6.35,6.35,6.35c3.5,0,6.34-2.84,6.35-6.35
		C34,22.57,31.16,19.73,27.65,19.73z M27.65,30.67c-2.54,0-4.59-2.06-4.59-4.59s2.06-4.59,4.59-4.59c2.53,0,4.59,2.06,4.59,4.59
		C32.24,28.61,30.19,30.67,27.65,30.67z"/>
</g>
</svg>
