<svg xmlns="http://www.w3.org/2000/svg" width="29.347" height="28.587" viewBox="0 0 29.347 28.587">
  <g id="noun_Reason_2068979" transform="translate(-9 -10.062)">
    <g id="Group_67791" data-name="Group 67791" transform="translate(9 10.062)">
      <path id="Path_46541" data-name="Path 46541" d="M41.73,67.563a3.168,3.168,0,0,1-.419.151.358.358,0,0,0,.1.7.353.353,0,0,0,.1-.014,3.864,3.864,0,0,0,.513-.186.358.358,0,1,0-.29-.654Z" transform="translate(-29.58 -46.964)" fill="#57606f"/>
      <path id="Path_46542" data-name="Path 46542" d="M31.4,57.429a2.7,2.7,0,0,1-.435-.191,3.184,3.184,0,0,1-1.307-1.3,3.348,3.348,0,0,1-.2-.463,3.131,3.131,0,0,1,.755-3.259.358.358,0,0,0-.506-.506,3.843,3.843,0,0,0-.925,4,4.074,4.074,0,0,0,.248.563,3.9,3.9,0,0,0,1.6,1.591,3.375,3.375,0,0,0,.544.239.353.353,0,0,0,.116.019.358.358,0,0,0,.116-.7Z" transform="translate(-21.562 -36.739)" fill="#57606f"/>
      <path id="Path_46543" data-name="Path 46543" d="M35.583,27.438V14.687l1.461-1.461A1.854,1.854,0,1,0,34.422,10.6L22.236,22.79a5.686,5.686,0,0,0-.55-.231,5.517,5.517,0,0,0-7.089,6.8l-5,5a2.034,2.034,0,0,0,0,2.876l.815.815a2.034,2.034,0,0,0,2.873,0l5-5a5.551,5.551,0,0,0,1.6.243,5.526,5.526,0,0,0,5.2-7.328,4.979,4.979,0,0,0-.231-.553L34.867,15.4V27.437a3.119,3.119,0,0,0,0,6.2v2.646a1.652,1.652,0,0,1-3.3,0V34.874a.358.358,0,0,0-.716,0v1.407a2.368,2.368,0,0,0,4.735,0V33.636a3.119,3.119,0,0,0,0-6.2ZM23.271,31.164a4.759,4.759,0,0,1-5.413.962c-.047-.022-.093-.045-.14-.069q-.158-.079-.309-.17c-.032-.019-.066-.037-.1-.057-.128-.081-.251-.17-.371-.264l-.1-.079c-.123-.1-.244-.206-.358-.321s-.222-.238-.324-.362l-.071-.089c-.1-.125-.19-.253-.274-.386-.011-.017-.02-.035-.03-.052-.07-.113-.133-.23-.193-.349-.026-.051-.051-.1-.074-.153-.064-.14-.126-.282-.177-.429h0a4.811,4.811,0,0,1,4.525-6.38,4.843,4.843,0,0,1,1.585.268,4.935,4.935,0,0,1,.691.3,4.826,4.826,0,0,1,1.97,1.972,4.3,4.3,0,0,1,.3.685A4.77,4.77,0,0,1,23.271,31.164Z" transform="translate(-9 -10.062)" fill="#57606f"/>
    </g>
  </g>
</svg>
