<svg xmlns="http://www.w3.org/2000/svg" id="round-done-button" width="50.883" height="48.677" viewBox="0 0 50.883 48.677">
    <defs>
        <style>
        </style>
    </defs>
    <g id="Group_100" data-name="Group 100">
        <path id="Path_736" d="M25.441 0C11.412 0 0 10.918 0 24.339s11.412 24.338 25.441 24.338 25.442-10.918 25.442-24.338S39.47 0 25.441 0zm0 45.485c-12.188 0-22.1-9.486-22.1-21.147s9.916-21.146 22.1-21.146 22.1 9.486 22.1 21.146-9.912 21.147-22.1 21.147z"  data-name="Path 736"/>
        <path id="Path_737" d="M121.437 131.056l-10.017 10.016-4.049-4.048a1.274 1.274 0 0 0-1.8 1.8l4.95 4.949a1.274 1.274 0 0 0 1.8 0l10.913-10.913a1.274 1.274 0 1 0-1.8-1.8z"  data-name="Path 737" transform="translate(-88.859 -113.15)"/>
    </g>
</svg>
