<svg xmlns="http://www.w3.org/2000/svg" width="24" height="24" viewBox="0 0 24 24"><defs><style>.roundedphonea{fill:rgba(255,255,255,0);}.roundedphoneb{fill:#9b9b9b;}</style></defs><g transform="translate(-1049 -3529)"><rect class="roundedphonea" width="24" height="24" transform="translate(1049 3529)"/><g transform="translate(1052 3533)"><path class="roundedphoneb" d="M8.369,17a.85.85,0,0,1-.236-.031,3.77,3.77,0,0,0-.8-.088,2.411,2.411,0,0,1-.4-.038.659.659,0,0,0-.365-.1.676.676,0,0,1-.214-.039c-.014-.041-.123-.076-.3-.1-.119-.014-.185-.03-.2-.049-.025-.045-.087-.07-.212-.087a.306.306,0,0,1-.159-.058.376.376,0,0,0-.226-.078.192.192,0,0,1-.11-.057.263.263,0,0,0-.148-.069.18.18,0,0,1-.116-.052.377.377,0,0,0-.207-.092.162.162,0,0,1-.076-.049.292.292,0,0,0-.124-.069.3.3,0,0,1-.123-.068.317.317,0,0,0-.13-.069.148.148,0,0,1-.1-.067.147.147,0,0,0-.1-.066.3.3,0,0,1-.125-.07.293.293,0,0,0-.112-.067.107.107,0,0,1-.077-.056.139.139,0,0,0-.076-.065.392.392,0,0,1-.112-.078.3.3,0,0,0-.112-.072A.134.134,0,0,1,3.33,15.2a.1.1,0,0,0-.072-.058.142.142,0,0,1-.087-.068c-.018-.032-.043-.057-.059-.057a.2.2,0,0,1-.085-.063,2.042,2.042,0,0,0-.153-.14c-.051-.043-.128-.109-.171-.149a.42.42,0,0,0-.109-.083.121.121,0,0,1-.056-.059.137.137,0,0,0-.071-.067c-.027-.011-.049-.027-.049-.036a2.209,2.209,0,0,0-.272-.34c-.026-.03-.074-.082-.108-.116a.369.369,0,0,1-.073-.1.075.075,0,0,0-.049-.045.153.153,0,0,1-.067-.086c-.017-.045-.042-.076-.06-.076s-.044-.033-.062-.077a.317.317,0,0,0-.073-.112.352.352,0,0,1-.074-.1.17.17,0,0,0-.072-.084.113.113,0,0,1-.058-.078.362.362,0,0,0-.066-.117.363.363,0,0,1-.071-.128.133.133,0,0,0-.067-.094c-.033-.013-.048-.037-.058-.1a.225.225,0,0,0-.068-.132.261.261,0,0,1-.069-.116A.325.325,0,0,0,.986,12.4a.347.347,0,0,1-.067-.132.417.417,0,0,0-.067-.14.37.37,0,0,1-.067-.147.267.267,0,0,0-.07-.137.165.165,0,0,1-.058-.125A.325.325,0,0,0,.577,11.5a.364.364,0,0,1-.056-.174c-.015-.106-.03-.145-.067-.176s-.05-.067-.059-.165c-.023-.225-.034-.27-.078-.323S.269,10.572.252,10.4a.7.7,0,0,0-.1-.354,3.017,3.017,0,0,1-.043-.436,4.251,4.251,0,0,0-.089-.795,2.074,2.074,0,0,1,.016-.726,5.358,5.358,0,0,0,.084-.858.8.8,0,0,1,.04-.3.813.813,0,0,0,.095-.388c.01-.131.021-.176.05-.2.045-.041.068-.126.086-.316.011-.119.021-.15.06-.184s.052-.07.067-.177A.3.3,0,0,1,.59,5.482a.255.255,0,0,0,.064-.165.238.238,0,0,1,.065-.166.252.252,0,0,0,.066-.133.269.269,0,0,1,.067-.138A.263.263,0,0,0,.92,4.747.36.36,0,0,1,.987,4.6a.374.374,0,0,0,.067-.13.261.261,0,0,1,.069-.114.225.225,0,0,0,.068-.132c.009-.058.024-.085.057-.1a.137.137,0,0,0,.067-.09A.479.479,0,0,1,1.394,3.9a.333.333,0,0,0,.066-.119.09.09,0,0,1,.049-.067.178.178,0,0,0,.075-.085.55.55,0,0,1,.088-.121.236.236,0,0,0,.061-.1.1.1,0,0,1,.059-.075.111.111,0,0,0,.059-.067.187.187,0,0,1,.068-.089c.032-.024.056-.051.056-.065a.214.214,0,0,1,.063-.083c.037-.035.106-.109.15-.161s.115-.134.149-.17a.4.4,0,0,0,.073-.1.121.121,0,0,1,.059-.056.161.161,0,0,0,.07-.07A.115.115,0,0,1,2.6,2.413.479.479,0,0,0,2.7,2.33c.041-.039.116-.1.17-.15a1.881,1.881,0,0,0,.156-.141.228.228,0,0,1,.084-.063c.012,0,.036-.023.054-.049a.247.247,0,0,1,.1-.076.144.144,0,0,0,.075-.065.091.091,0,0,1,.06-.05.363.363,0,0,0,.111-.067.716.716,0,0,1,.129-.088.162.162,0,0,0,.075-.07c.005-.023.037-.045.078-.056a.375.375,0,0,0,.119-.066.4.4,0,0,1,.124-.071.157.157,0,0,0,.1-.07A.075.075,0,0,1,4.185,1.2a.3.3,0,0,0,.186-.094.221.221,0,0,1,.107-.058A.311.311,0,0,0,4.61.979.15.15,0,0,1,4.692.93.4.4,0,0,0,4.9.838.256.256,0,0,1,5.016.787.254.254,0,0,0,5.15.722.256.256,0,0,1,5.318.654.275.275,0,0,0,5.482.591.324.324,0,0,1,5.668.524c.1-.016.146-.033.177-.068s.07-.05.217-.066A.476.476,0,0,0,6.355.3.889.889,0,0,1,6.6.253.731.731,0,0,0,6.889.186.648.648,0,0,1,7.211.128a5.92,5.92,0,0,0,.9-.09A2.015,2.015,0,0,1,8.536,0a1.327,1.327,0,0,1,.312.027,3.843,3.843,0,0,0,.795.091c.338.019.414.029.451.058a.881.881,0,0,0,.4.086c.087.007.15.02.15.03,0,.037.127.079.3.1.134.015.183.029.2.056s.106.068.241.086A.232.232,0,0,1,11.5.575a.325.325,0,0,0,.22.084.138.138,0,0,1,.113.048.283.283,0,0,0,.191.087.231.231,0,0,1,.105.058.329.329,0,0,0,.142.07.24.24,0,0,1,.12.059.292.292,0,0,0,.122.067.385.385,0,0,1,.127.066.28.28,0,0,0,.174.088.077.077,0,0,1,.063.049.143.143,0,0,0,.1.07.307.307,0,0,1,.123.069.283.283,0,0,0,.111.066.114.114,0,0,1,.079.058.142.142,0,0,0,.077.067.437.437,0,0,1,.114.077.468.468,0,0,0,.116.077.148.148,0,0,1,.079.067.086.086,0,0,0,.07.051.1.1,0,0,1,.076.058.1.1,0,0,0,.051.058.376.376,0,0,1,.093.068c.106.1.28.26.351.319a3.175,3.175,0,0,1,.325.327c.063.075.226.253.319.35a.358.358,0,0,1,.068.092.106.106,0,0,0,.058.052.1.1,0,0,1,.058.077.1.1,0,0,0,.059.077.129.129,0,0,1,.066.073.6.6,0,0,0,.09.139.357.357,0,0,1,.07.112c0,.015.022.038.049.05a.137.137,0,0,1,.067.087.226.226,0,0,0,.066.1.258.258,0,0,1,.069.125c.016.065.035.094.07.107s.048.031.048.047a.312.312,0,0,0,.1.2c.023.007.041.039.049.089a.33.33,0,0,0,.07.142.266.266,0,0,1,.057.091.376.376,0,0,0,.092.2.18.18,0,0,1,.052.116.258.258,0,0,0,.07.148.194.194,0,0,1,.057.11.372.372,0,0,0,.078.226.319.319,0,0,1,.057.159c.018.126.043.187.087.212.019.011.035.077.049.2.02.173.059.293.1.293a.371.371,0,0,1,.03.15.865.865,0,0,0,.087.4c.03.039.039.108.058.438a3.966,3.966,0,0,0,.089.806,1.935,1.935,0,0,1,0,.672,2.644,2.644,0,0,0-.087.652c-.017.279-.024.322-.066.383s-.058.114-.08.334c-.007.07-.02.122-.03.122-.038,0-.077.1-.1.24-.017.124-.03.16-.07.194a.189.189,0,0,0-.059.139.251.251,0,0,1-.055.145.32.32,0,0,0-.085.2.134.134,0,0,1-.041.081.3.3,0,0,0-.094.181.076.076,0,0,1-.039.059.242.242,0,0,0-.1.182.058.058,0,0,1-.041.061.16.16,0,0,0-.07.084.614.614,0,0,1-.1.143.253.253,0,0,0-.066.111.085.085,0,0,1-.052.063.127.127,0,0,0-.064.074.132.132,0,0,1-.062.073.135.135,0,0,0-.066.068,3.455,3.455,0,0,1-.473.479c-.011,0-.03.022-.042.049a.233.233,0,0,1-.086.086c-.035.02-.065.051-.065.068s-.024.035-.058.042a.185.185,0,0,0-.1.058.332.332,0,0,1-.127.077.191.191,0,0,0-.111.076.127.127,0,0,1-.071.058.255.255,0,0,0-.1.067.229.229,0,0,1-.13.068.189.189,0,0,0-.116.058.3.3,0,0,1-.15.076.309.309,0,0,0-.144.07c-.023.03-.066.045-.175.06a.322.322,0,0,0-.2.068c-.045.043-.077.051-.264.066-.222.018-.3.038-.36.093a5.12,5.12,0,0,1-.793.036,2.858,2.858,0,0,1-.54-.025.876.876,0,0,0-.4-.1.712.712,0,0,1-.216-.04c-.013-.04-.118-.076-.254-.089-.116-.011-.147-.021-.194-.068a.259.259,0,0,0-.157-.068.314.314,0,0,1-.156-.06.388.388,0,0,0-.236-.083.1.1,0,0,1-.085-.049.215.215,0,0,0-.112-.071.413.413,0,0,1-.139-.077.2.2,0,0,0-.1-.055.207.207,0,0,1-.1-.058.369.369,0,0,0-.144-.081.158.158,0,0,1-.1-.066c-.014-.029-.05-.05-.116-.068s-.1-.039-.116-.068a.166.166,0,0,0-.087-.065.127.127,0,0,1-.076-.058.162.162,0,0,0-.075-.07.587.587,0,0,1-.122-.087.271.271,0,0,0-.111-.067.1.1,0,0,1-.067-.051.146.146,0,0,0-.076-.066.236.236,0,0,1-.1-.076c-.018-.027-.043-.049-.055-.049a.248.248,0,0,1-.085-.063c-.06-.061-.116-.11-.31-.276-.053-.045-.128-.113-.167-.15a.291.291,0,0,0-.1-.073c-.014,0-.035-.026-.046-.057a.107.107,0,0,0-.067-.069.115.115,0,0,1-.067-.068.112.112,0,0,0-.068-.068.108.108,0,0,1-.068-.068.108.108,0,0,0-.068-.068.112.112,0,0,1-.068-.068.108.108,0,0,0-.07-.068.083.083,0,0,1-.06-.06.1.1,0,0,0-.068-.067.1.1,0,0,1-.068-.068.1.1,0,0,0-.068-.068.1.1,0,0,1-.068-.068.11.11,0,0,0-.06-.067.128.128,0,0,1-.066-.065.137.137,0,0,0-.076-.067.082.082,0,0,1-.064-.065.1.1,0,0,0-.06-.07c-.026-.013-.053-.033-.053-.043s-.436-.522-.512-.591a.476.476,0,0,1-.076-.092c-.019-.03-.047-.053-.063-.053s-.04-.028-.05-.059a.138.138,0,0,0-.068-.077A.129.129,0,0,1,5.328,9.6a.15.15,0,0,0-.067-.071.153.153,0,0,1-.067-.076.1.1,0,0,0-.068-.068c-.029-.007-.049-.026-.049-.046,0-.036-.047-.085-.1-.1a.074.074,0,0,1-.039-.056.1.1,0,0,0-.059-.07c-.033-.016-.053-.034-.053-.043A1.7,1.7,0,0,0,4.6,8.8a.616.616,0,0,1-.075-.109.289.289,0,0,0-.08-.093A.1.1,0,0,1,4.4,8.529a.143.143,0,0,0-.056-.083.247.247,0,0,1-.068-.1.283.283,0,0,0-.073-.11.327.327,0,0,1-.076-.122.411.411,0,0,0-.066-.124A.329.329,0,0,1,4,7.85a.333.333,0,0,0-.066-.143.4.4,0,0,1-.075-.175.388.388,0,0,0-.064-.159c-.031-.033-.044-.081-.058-.214-.023-.238-.031-.273-.08-.342a2.482,2.482,0,0,1-.012-.936.692.692,0,0,0,.084-.365c.012-.156.018-.177.067-.223a.222.222,0,0,0,.068-.163.262.262,0,0,1,.07-.173.2.2,0,0,0,.057-.095.169.169,0,0,1,.057-.086.388.388,0,0,0,.086-.123.258.258,0,0,1,.076-.1.157.157,0,0,0,.059-.091c.009-.044.022-.059.052-.059a.1.1,0,0,0,.073-.057.158.158,0,0,1,.076-.068.187.187,0,0,0,.084-.068c.021-.031.052-.058.066-.058a.3.3,0,0,0,.1-.069.632.632,0,0,1,.138-.1.138.138,0,0,0,.074-.063c.011-.031.042-.04.2-.057a.52.52,0,0,0,.256-.068c.062-.042.108-.052.324-.07s.26-.028.31-.065A.3.3,0,0,1,6.19,3.6a.288.288,0,0,1,.188.068.372.372,0,0,0,.1.07.762.762,0,0,1,.242.305.211.211,0,0,0,.068.109.151.151,0,0,1,.06.112.238.238,0,0,0,.068.131.244.244,0,0,1,.067.125.271.271,0,0,0,.066.126.308.308,0,0,1,.075.185.372.372,0,0,0,.067.179c.037.039.048.083.068.28a1.817,1.817,0,0,0,.047.291.6.6,0,0,1-.112.489c-.036.022-.063.049-.063.062,0,.033-.063.049-.2.049A.557.557,0,0,0,6.6,6.26a.383.383,0,0,1-.19.055c-.141.017-.247.059-.247.1,0,.009-.049.023-.112.031-.228.029-.284.107-.282.4,0,.2.033.311.1.347a.084.084,0,0,1,.041.065c0,.071.071.155.506.595a1.9,1.9,0,0,1,.2.221.08.08,0,0,0,.05.045.182.182,0,0,1,.077.076c.023.037.051.066.067.066s.046.031.068.068.053.068.069.068.043.026.059.058.037.058.048.058c.04,0,1.435,1.394,1.435,1.435,0,.011.03.033.059.048s.058.04.058.051a.588.588,0,0,0,.112.125c.061.056.123.115.136.129l.024.025.034.034c.053.054.431.416.6.571a.769.769,0,0,0,.216.158.231.231,0,0,1,.1.068.184.184,0,0,0,.13.061,1.535,1.535,0,0,1,.153.028.421.421,0,0,0,.1.014.334.334,0,0,0,.34-.3.205.205,0,0,1,.061-.144c.039-.033.05-.07.067-.205a.494.494,0,0,1,.038-.171c.045-.016.079-.136.094-.328s.02-.208.067-.243a.116.116,0,0,0,.05-.064c0-.058.217-.113.384-.113a.417.417,0,0,1,.135.017,1.4,1.4,0,0,0,.278.042c.17.011.2.019.253.06a.419.419,0,0,0,.26.081.118.118,0,0,1,.1.057.174.174,0,0,0,.122.07.28.28,0,0,1,.134.067.354.354,0,0,0,.143.076.2.2,0,0,1,.11.06.183.183,0,0,0,.1.06.78.78,0,0,1,.306.242.334.334,0,0,0,.068.1.29.29,0,0,1,.031.338.734.734,0,0,0-.089.4c-.011.173-.019.21-.061.266a.473.473,0,0,0-.068.249c-.019.165-.027.19-.066.208a.149.149,0,0,0-.065.076.388.388,0,0,1-.078.115.294.294,0,0,0-.07.1.131.131,0,0,1-.058.069.175.175,0,0,0-.068.088.1.1,0,0,1-.068.075.083.083,0,0,0-.059.059.1.1,0,0,1-.078.068.173.173,0,0,0-.085.059.329.329,0,0,1-.109.08c-.078.039-.119.088-.113.134s.047.068.113.078a1.221,1.221,0,0,0,.181.011,1.5,1.5,0,0,0,.56-.077.145.145,0,0,1,.09-.052.508.508,0,0,0,.277-.092c.019-.028.058-.043.137-.053a.248.248,0,0,0,.158-.062.4.4,0,0,1,.144-.076c.066-.02.1-.043.116-.076a.081.081,0,0,1,.059-.048.173.173,0,0,0,.089-.053.528.528,0,0,1,.117-.085c.069-.036.09-.055.372-.336a1.607,1.607,0,0,0,.338-.394.114.114,0,0,1,.061-.063.1.1,0,0,0,.059-.077.1.1,0,0,1,.056-.077c.03-.012.054-.048.076-.113a.294.294,0,0,1,.076-.126.152.152,0,0,0,.057-.086.273.273,0,0,1,.068-.113.249.249,0,0,0,.07-.148.156.156,0,0,1,.049-.111c.038-.02.069-.089.087-.194a.27.27,0,0,1,.061-.119.3.3,0,0,0,.068-.192.349.349,0,0,1,.065-.2c.046-.055.054-.086.08-.336a.4.4,0,0,1,.05-.165,8.364,8.364,0,0,0,0-2.407.419.419,0,0,1-.049-.2c-.02-.264-.031-.316-.077-.372s-.049-.092-.066-.236-.029-.19-.068-.231a.321.321,0,0,1-.068-.184.334.334,0,0,0-.068-.184.273.273,0,0,1-.061-.148c-.015-.11-.039-.164-.088-.2a.211.211,0,0,1-.048-.115.222.222,0,0,0-.068-.141.238.238,0,0,1-.068-.137.237.237,0,0,0-.068-.135.264.264,0,0,1-.067-.107.291.291,0,0,0-.06-.107.394.394,0,0,1-.073-.126.189.189,0,0,0-.068-.1.152.152,0,0,1-.061-.1.254.254,0,0,0-.067-.117.391.391,0,0,1-.078-.1.212.212,0,0,0-.068-.082.12.12,0,0,1-.05-.064.356.356,0,0,0-.067-.1.659.659,0,0,1-.086-.121.287.287,0,0,0-.079-.095c-.025-.016-.049-.043-.049-.057s-.029-.048-.068-.078-.068-.064-.068-.079-.026-.042-.058-.06a.205.205,0,0,1-.076-.086.1.1,0,0,0-.067-.064.085.085,0,0,1-.06-.061.108.108,0,0,0-.068-.07.11.11,0,0,1-.067-.066.087.087,0,0,0-.059-.056.179.179,0,0,1-.086-.078c-.023-.037-.051-.066-.067-.066s-.049-.029-.079-.067-.063-.068-.077-.068-.041-.022-.058-.048a.309.309,0,0,0-.1-.086.512.512,0,0,1-.119-.087.154.154,0,0,0-.082-.05.106.106,0,0,1-.067-.049.294.294,0,0,0-.092-.08.338.338,0,0,1-.094-.074.266.266,0,0,0-.118-.067.169.169,0,0,1-.1-.064.18.18,0,0,0-.1-.067.394.394,0,0,1-.126-.073.284.284,0,0,0-.107-.06.267.267,0,0,1-.108-.067.226.226,0,0,0-.139-.067.161.161,0,0,1-.12-.059.205.205,0,0,0-.139-.069.237.237,0,0,1-.119-.051c-.015-.039-.1-.076-.209-.092a.269.269,0,0,1-.148-.062.289.289,0,0,0-.184-.065.332.332,0,0,1-.152-.043c-.038-.052-.116-.078-.278-.094a.365.365,0,0,1-.219-.064c-.056-.047-.074-.051-.394-.08a.413.413,0,0,1-.184-.049A5.142,5.142,0,0,0,8.585.957a5.351,5.351,0,0,0-1.442.106.446.446,0,0,1-.162.031c-.287.023-.335.033-.391.081s-.088.049-.221.063a.526.526,0,0,0-.218.053.3.3,0,0,1-.207.085.288.288,0,0,0-.205.085.257.257,0,0,1-.125.042c-.113.015-.167.039-.2.086a.289.289,0,0,1-.131.057.21.21,0,0,0-.139.069.157.157,0,0,1-.119.059.226.226,0,0,0-.14.067.28.28,0,0,1-.108.067.329.329,0,0,0-.117.068.4.4,0,0,1-.13.077.136.136,0,0,0-.084.06c-.008.024-.042.045-.1.059a.252.252,0,0,0-.126.072.285.285,0,0,1-.1.075.124.124,0,0,0-.069.064.082.082,0,0,1-.061.051.24.24,0,0,0-.1.064.407.407,0,0,1-.112.077.3.3,0,0,0-.1.076.462.462,0,0,1-.1.085c-.032.019-.058.047-.058.061s-.027.039-.059.052a.156.156,0,0,0-.077.07.134.134,0,0,1-.067.065.142.142,0,0,0-.07.066.119.119,0,0,1-.069.059.1.1,0,0,0-.067.067.147.147,0,0,1-.067.076.152.152,0,0,0-.067.071.129.129,0,0,1-.065.067.149.149,0,0,0-.07.077c-.013.032-.037.059-.051.059s-.043.026-.062.058a.462.462,0,0,1-.085.1.281.281,0,0,0-.075.1.361.361,0,0,1-.08.11.151.151,0,0,0-.055.089.075.075,0,0,1-.049.065.17.17,0,0,0-.073.076.377.377,0,0,1-.076.1.329.329,0,0,0-.073.13c-.013.049-.036.085-.058.092a.136.136,0,0,0-.06.083.414.414,0,0,1-.068.122.391.391,0,0,0-.069.116.34.34,0,0,1-.076.116.234.234,0,0,0-.066.141c-.008.053-.026.1-.042.1-.037.014-.076.092-.094.187a.227.227,0,0,1-.06.116.262.262,0,0,0-.068.158.4.4,0,0,1-.057.155.323.323,0,0,0-.077.21.308.308,0,0,1-.084.193.6.6,0,0,0-.053.23c-.014.126-.028.186-.049.2-.047.026-.068.1-.086.325a.643.643,0,0,1-.058.274,9.606,9.606,0,0,0,.013,2.673.65.65,0,0,1,.045.242c.019.232.028.269.08.328a.446.446,0,0,1,.055.211.6.6,0,0,0,.054.22.3.3,0,0,1,.083.193.33.33,0,0,0,.083.214.209.209,0,0,1,.043.106c.021.134.049.205.086.217s.041.046.058.127.035.124.069.147a.154.154,0,0,1,.06.121.217.217,0,0,0,.067.14.266.266,0,0,1,.067.107.3.3,0,0,0,.067.114.435.435,0,0,1,.077.133c.014.045.039.079.06.085s.044.039.058.088a.325.325,0,0,0,.075.13.274.274,0,0,1,.068.093.2.2,0,0,0,.071.084.13.13,0,0,1,.057.076.088.088,0,0,0,.037.062.378.378,0,0,1,.08.1.86.86,0,0,0,.1.136l.132.14a.37.37,0,0,1,.078.1c0,.011.026.033.056.049a.15.15,0,0,1,.068.078.079.079,0,0,0,.057.059.11.11,0,0,1,.065.068.111.111,0,0,0,.069.068.119.119,0,0,1,.069.058.2.2,0,0,0,.077.076.138.138,0,0,1,.067.068.1.1,0,0,0,.056.057.261.261,0,0,1,.09.078c.025.034.056.06.07.06s.043.023.058.049a.3.3,0,0,0,.1.083.419.419,0,0,1,.116.085.217.217,0,0,0,.1.065.088.088,0,0,1,.065.048.157.157,0,0,0,.074.069.384.384,0,0,1,.1.079.257.257,0,0,0,.12.068.138.138,0,0,1,.1.066.121.121,0,0,0,.082.059.328.328,0,0,1,.123.068.359.359,0,0,0,.12.069.258.258,0,0,1,.106.067.239.239,0,0,0,.135.067.243.243,0,0,1,.135.068.231.231,0,0,0,.141.067.2.2,0,0,1,.116.049c.035.05.087.073.2.089a.273.273,0,0,1,.148.061.332.332,0,0,0,.184.068.391.391,0,0,1,.188.067c.056.046.089.055.294.076a.309.309,0,0,1,.169.058c.057.048.109.059.368.078a.415.415,0,0,1,.192.039c.045.055.176.07.735.086s.574.017.66.065a.853.853,0,0,0,.185.072c.1.023.1.028.122.113a.988.988,0,0,0,.054.152c.033.071.029.11-.034.3-.041.122-.046.128-.129.153a.449.449,0,0,0-.14.071A.431.431,0,0,1,8.369,17Zm4.255-8.514c-.1,0-.163,0-.191-.029s-.027-.067-.027-.138a.988.988,0,0,0-.07-.387.781.781,0,0,1-.045-.217c-.018-.173-.041-.245-.094-.284a.214.214,0,0,1-.037-.116c-.013-.147-.022-.175-.073-.235a.425.425,0,0,1-.068-.136.22.22,0,0,0-.067-.11.154.154,0,0,1-.059-.1c-.016-.089-.06-.161-.1-.161-.014,0-.032-.026-.037-.056a.963.963,0,0,0-.211-.292.665.665,0,0,1-.076-.1.2.2,0,0,0-.071-.069.106.106,0,0,1-.053-.065.113.113,0,0,0-.068-.067.112.112,0,0,1-.067-.066.084.084,0,0,0-.058-.056.239.239,0,0,1-.1-.078c-.029-.037-.06-.066-.071-.066a.382.382,0,0,1-.105-.077.293.293,0,0,0-.122-.077.1.1,0,0,1-.068-.049.2.2,0,0,0-.117-.069.321.321,0,0,1-.129-.068.307.307,0,0,0-.123-.068.316.316,0,0,1-.123-.067c-.047-.046-.078-.056-.251-.077-.055-.006-.1-.02-.1-.03,0-.04-.1-.079-.248-.094a.856.856,0,0,1-.239-.057.974.974,0,0,0-.314-.061A1.832,1.832,0,0,1,8.8,4.834a1.979,1.979,0,0,1-.017-.348V4.147h.159a.511.511,0,0,1,.237.038,1.831,1.831,0,0,0,.516.079.305.305,0,0,1,.218.083.562.562,0,0,0,.209.052c.131.015.171.028.212.067a.283.283,0,0,0,.136.061A.222.222,0,0,1,10.6,4.6a.3.3,0,0,0,.148.077c.065.014.1.035.116.062a.188.188,0,0,0,.115.067.272.272,0,0,1,.131.073.182.182,0,0,0,.09.058.114.114,0,0,1,.076.06.155.155,0,0,0,.078.068.11.11,0,0,1,.066.055.141.141,0,0,0,.067.066.7.7,0,0,1,.122.091.456.456,0,0,0,.111.078.13.13,0,0,1,.063.067.135.135,0,0,0,.068.068.14.14,0,0,1,.068.071,1.35,1.35,0,0,0,.228.288.342.342,0,0,1,.068.092.119.119,0,0,0,.06.056.115.115,0,0,1,.059.075.228.228,0,0,0,.06.1.31.31,0,0,1,.069.13.207.207,0,0,0,.066.113.214.214,0,0,1,.068.125.207.207,0,0,0,.068.127.2.2,0,0,1,.067.135.438.438,0,0,0,.07.162.342.342,0,0,1,.064.2c.015.14.062.267.1.267.018,0,.023.031.059.416a.977.977,0,0,0,.06.293.386.386,0,0,1,.033.214l-.005.133-.329,0h-.012Zm1.8,0c-.046,0-.1,0-.181,0l-.334,0-.023-.393a1.222,1.222,0,0,0-.072-.5.512.512,0,0,1-.049-.174.485.485,0,0,0-.08-.29.727.727,0,0,1-.075-.338.152.152,0,0,0-.048-.068.282.282,0,0,1-.068-.156.362.362,0,0,0-.076-.176.328.328,0,0,1-.068-.132.159.159,0,0,0-.057-.1.222.222,0,0,1-.069-.13c-.019-.072-.038-.106-.07-.121s-.048-.042-.057-.1a.23.23,0,0,0-.069-.131.332.332,0,0,1-.076-.1A.131.131,0,0,0,12.88,5.5c-.028-.011-.05-.034-.05-.054a.187.187,0,0,0-.059-.093.746.746,0,0,1-.1-.125.5.5,0,0,0-.086-.1.115.115,0,0,1-.045-.064c0-.016-.025-.043-.055-.06a.2.2,0,0,1-.076-.086.107.107,0,0,0-.066-.066.162.162,0,0,1-.079-.068c-.018-.031-.046-.058-.061-.058a.115.115,0,0,1-.064-.044.477.477,0,0,0-.1-.086.765.765,0,0,1-.124-.1.185.185,0,0,0-.093-.059.069.069,0,0,1-.055-.049.153.153,0,0,0-.076-.073.3.3,0,0,1-.1-.076.18.18,0,0,0-.127-.065c-.06-.009-.09-.024-.1-.049-.013-.042-.051-.065-.14-.084a.3.3,0,0,1-.12-.07A.179.179,0,0,0,11,3.915a.145.145,0,0,1-.087-.038A.35.35,0,0,0,10.7,3.77a.229.229,0,0,1-.114-.041c-.042-.05-.087-.066-.244-.086a.409.409,0,0,1-.19-.055c-.063-.057-.079-.062-.242-.08A.484.484,0,0,1,9.7,3.451a2.565,2.565,0,0,0-.781-.084l-.126,0-.005-.338c0-.256,0-.342.02-.354a.438.438,0,0,1,.127-.009,3.217,3.217,0,0,1,.569.043,1.37,1.37,0,0,0,.444.085c.194.019.23.028.273.069s.083.052.213.068a.38.38,0,0,1,.2.059.393.393,0,0,0,.255.076.152.152,0,0,1,.137.059.211.211,0,0,0,.138.071.152.152,0,0,1,.121.066.16.16,0,0,0,.12.068.223.223,0,0,1,.13.067.31.31,0,0,0,.14.076.215.215,0,0,1,.121.067.157.157,0,0,0,.095.057A.236.236,0,0,1,12,3.656a.387.387,0,0,0,.111.077.174.174,0,0,1,.081.074.106.106,0,0,0,.073.058.115.115,0,0,1,.074.055.174.174,0,0,0,.082.07c.034.015.063.04.063.053s.033.046.077.075.077.056.077.067a.2.2,0,0,0,.073.061,1.262,1.262,0,0,1,.312.313c.024.04.052.073.062.073s.042.039.067.077.061.077.076.077.036.026.048.058a.148.148,0,0,0,.068.08.12.12,0,0,1,.059.067.189.189,0,0,0,.069.086c.031.021.059.054.059.069a.27.27,0,0,0,.066.1.4.4,0,0,1,.079.137.17.17,0,0,0,.058.093A.209.209,0,0,1,13.8,5.6a.211.211,0,0,0,.068.126.206.206,0,0,1,.068.126A.206.206,0,0,0,14,5.981a.209.209,0,0,1,.068.125.251.251,0,0,0,.069.132.611.611,0,0,1,.085.338.167.167,0,0,0,.046.058c.037.035.05.076.068.217s.03.182.069.216.049.066.07.3a1.628,1.628,0,0,0,.062.365,2.448,2.448,0,0,1,.05.723C14.58,8.48,14.557,8.486,14.422,8.486Z"/></g></g></svg>