<svg xmlns="http://www.w3.org/2000/svg" width="24" height="18.45" viewBox="0 0 24 18.45"><defs><style>.save-exit{fill:#57606f;}</style></defs><g transform="translate(0.11)"><g transform="translate(-0.11)"><path class="save-exit" d="M10.125,9.058v6.173H20.5l-2.723-2.763a.751.751,0,0,1,1.067-1.056l3.981,4.038a.762.762,0,0,1,.213.525.716.716,0,0,1-.058.288.8.8,0,0,1-.156.237h0l-3.981,4.038a.751.751,0,1,1-1.067-1.056L20.5,16.719H10.125v6.173A2.314,2.314,0,0,0,12.433,25.2H26.279a2.314,2.314,0,0,0,2.308-2.308V9.058A2.314,2.314,0,0,0,26.279,6.75H12.433A2.314,2.314,0,0,0,10.125,9.058Z" transform="translate(-4.587 -6.75)"/><path class="save-exit" d="M4.125,17.086a.75.75,0,0,0,0,1.5H8.913v-1.5Z" transform="translate(-3.375 -8.605)"/></g></g></svg>