<svg xmlns="http://www.w3.org/2000/svg" width="36.501" height="34.519" viewBox="0 0 36.501 34.519">
    <defs>
        <style>
            .service-class1,.service-class2{fill:currentColor;stroke:currentColor;stroke-linejoin:round}.service-class2{fill:none}
        </style>
    </defs>
    <g id="services-impacted-nav" transform="translate(0 .5)">
        <circle id="Ellipse_249" cx="3.273" cy="3.273" r="3.273" class="service-class1" data-name="Ellipse 249" transform="translate(21.491 26.973)"/>
        <circle id="Ellipse_250" cx="3.273" cy="3.273" r="3.273" class="service-class1" data-name="Ellipse 250" transform="translate(10.079 26.973)"/>
        <path id="Path_37663" d="M3754.67 742.287h-22.8l-3.273-12.546h29.564z" class="service-class2" data-name="Path 37663" transform="translate(-3722.16 -723.169)"/>
        <path id="Path_37664" d="M3738.755 728.468l-1.585-3.237 5.1-2.495 2.806 5.731" class="service-class1" data-name="Path 37664" transform="translate(-3723.719 -721.895)"/>
        <path id="Path_37665" d="M3748.6 728.707l-1.058-2.162 5.095-2.495 2.28 4.656" class="service-class1" data-name="Path 37665" transform="translate(-3725.605 -722.134)"/>
        <path id="Path_37666" d="M3720.73 721.708h1.6a4.07 4.07 0 0 1 3.94 3.048l4.173 16.071" class="service-class2" data-name="Path 37666" transform="translate(-3720.73 -721.708)"/>
        <path id="Path_37667" d="M3754.921 750.5h-21.4a2.5 2.5 0 0 1-2.5-2.5v-.436a2.5 2.5 0 0 1 2.5-2.5h21.4" class="service-class2" data-name="Path 37667" transform="translate(-3722.603 -725.956)"/>
    </g>
</svg>
