<svg xmlns="http://www.w3.org/2000/svg" width="23.877" height="23.95" viewBox="0 0 23.877 23.95"><g transform="translate(-109.038 -4414)"><path d="M1239.412,781.532c.129.02.258.044.388.06a.544.544,0,0,1,.5.355.532.532,0,0,1-.173.59c-.375.374-.756.744-1.123,1.126a2.492,2.492,0,0,0,3.415,3.63c.406-.376.792-.773,1.179-1.169a.594.594,0,0,1,.663-.222c.262.1.319.323.349.581a5.674,5.674,0,0,1-6.049,6.378,8.269,8.269,0,0,1-1.3-.248.255.255,0,0,0-.283.079c-.214.227-.437.444-.634.643a9.368,9.368,0,0,0-.882-.437,1.825,1.825,0,0,0-1.3.041.29.29,0,0,1-.242-.014c-.668-.653-1.327-1.316-2.005-1.995.429-.428.823-.872,1.271-1.253a.923.923,0,0,0,.313-1.1,5.628,5.628,0,0,1,3.8-6.776c.4-.123.818-.178,1.227-.264Z" transform="translate(-1111.745 3632.468)" fill="#fff"/><path d="M1233.979,794.686c.106-.123.213-.269.34-.393a.753.753,0,0,1,1.156-.006c2.363,2.357,4.732,4.707,7.076,7.082a2.411,2.411,0,1,1-3.445,3.374c-.86-.849-1.71-1.708-2.565-2.562l-4.383-4.384a.8.8,0,0,1-.005-1.341c.1-.1.212-.2.3-.285l-7.738-7.738a4,4,0,0,1-.278.313.756.756,0,0,1-1.2-.1q-1.145-1.537-2.273-3.088a.756.756,0,0,1,.086-1.04q.632-.642,1.274-1.273a.764.764,0,0,1,1.058-.078q1.528,1.119,3.049,2.247a.76.76,0,0,1,.089,1.243,3.339,3.339,0,0,1-.313.255Z" transform="translate(-1111.745 3632.468)" fill="#fff"/><path d="M1228.721,794.089c.694.7,1.355,1.356,2.011,2.022a.207.207,0,0,1,.027.178,2,2,0,0,0,.375,2.233c-.03.036-.06.079-.1.115q-3.051,3.051-6.1,6.1a2.413,2.413,0,0,1-3.556-3.26c.057-.064.116-.127.177-.187l7.043-7.045C1228.637,794.207,1228.666,794.159,1228.721,794.089Z" transform="translate(-1111.745 3632.468)" fill="#fff"/></g></svg>