<svg xmlns="http://www.w3.org/2000/svg" width="21" height="28.56" viewBox="0 0 21 28.56">
  <path id="Path_43152" data-name="Path 43152" d="M424,58.521A2.52,2.52,0,0,1,426.52,56H436.6a3.143,3.143,0,0,1,2.027.842l5.527,5.527A3.159,3.159,0,0,1,445,64.4V82.036a2.522,2.522,0,0,1-2.521,2.524H426.521A2.522,2.522,0,0,1,424,82.039Zm1.68,0V82.039a.842.842,0,0,0,.841.841h15.958a.842.842,0,0,0,.841-.844V64.4a1.532,1.532,0,0,0-.35-.843l-5.527-5.527a1.513,1.513,0,0,0-.839-.35H426.52A.84.84,0,0,0,425.68,58.521Zm1.68,10.918a2.519,2.519,0,0,1,2.52-2.52h9.241a2.519,2.519,0,0,1,2.52,2.52V78.68a2.519,2.519,0,0,1-2.52,2.52H429.88a2.519,2.519,0,0,1-2.52-2.52Zm5.88,5.88h3.36a.84.84,0,0,1,.84.84v3.36h1.68a.839.839,0,0,0,.84-.84V72.8h-6.72Zm2.52-4.2V68.6h-2.52v2.52Zm0,8.4V77h-2.52v2.52Zm-4.2-4.2V72.8h-2.52v2.52Zm5.88-4.2h2.52V69.44a.839.839,0,0,0-.84-.84h-1.68Zm-5.88,0V68.6h-1.68a.839.839,0,0,0-.84.84v1.68Zm0,5.88h-2.52v1.68a.839.839,0,0,0,.84.84h1.68Z" transform="translate(-424 -56)" fill="#aaa" fill-rule="evenodd"/>
</svg>
