<svg xmlns="http://www.w3.org/2000/svg" width="22" height="30" viewBox="0 0 22 30">
    <defs>
              
        </style>
    </defs>
    <g id="SIM_Lost" transform="translate(-13.91 -12.62)">
        <path id="Path_27613" d="M30.382 31.129a6.209 6.209 0 0 1 1.691.118 1.129 1.129 0 0 0 .96-.22 1.147 1.147 0 0 0 .428-.893v-16.37a1.139 1.139 0 0 0-1.135-1.144H21.69a1.508 1.508 0 0 0-1.1.48l-6.266 6.7a1.531 1.531 0 0 0-.412 1.045V38.8a1.139 1.139 0 0 0 1.135 1.144h8.385a1.132 1.132 0 0 0 .873-.419 1.15 1.15 0 0 0 .235-.946 6.568 6.568 0 0 1-.072-1.6 6.407 6.407 0 0 1 5.914-5.85zm-1.1-15.665a.38.38 0 0 1 .378-.381h1.514a.38.38 0 0 1 .378.381v6.21a.38.38 0 0 1-.378.381h-1.519a.38.38 0 0 1-.378-.381zm-4.325 0a.38.38 0 0 1 .378-.381h1.514a.38.38 0 0 1 .378.381v6.21a.38.38 0 0 1-.378.381H25.33a.38.38 0 0 1-.378-.381zm-2.058 6.21a.38.38 0 0 1-.378.381H21a.38.38 0 0 1-.378-.381v-6.21a.38.38 0 0 1 .378-.381h1.514a.38.38 0 0 1 .378.381z"  data-name="Path 27613"/>
        <path id="Path_27614" d="M48.528 67.837a4.74 4.74 0 1 0 6.7 0 4.74 4.74 0 0 0-6.7 0zm4.595 3.622l.8.8a.381.381 0 0 1 0 .538l-.435.435a.381.381 0 0 1-.538 0l-.8-.8a.381.381 0 0 0-.538 0l-.8.8a.381.381 0 0 1-.538 0l-.442-.435a.381.381 0 0 1 0-.538l.8-.8a.381.381 0 0 0 0-.538l-.8-.8a.381.381 0 0 1 0-.538l.435-.435a.381.381 0 0 1 .538 0l.8.8a.381.381 0 0 0 .538 0l.8-.8a.381.381 0 0 1 .538 0l.435.435a.381.381 0 0 1 0 .538l-.8.8a.381.381 0 0 0 .007.539z"  data-name="Path 27614" transform="translate(-20.709 -33.308)"/>
    </g>
</svg>
