<svg xmlns="http://www.w3.org/2000/svg" id="Social_Network_Details" width="26" height="26" viewBox="0 0 26 26">
    <defs>
               
        </style>
    </defs>
    <path id="Path_325" d="M13 0a13 13 0 1 0 13 13A13 13 0 0 0 13 0zm7.1 9.828a2.176 2.176 0 0 1-2.106 1.43l-.858 2.392a3.062 3.062 0 0 1 1.248 3.588 3.027 3.027 0 0 1-5.694-2.054 3.4 3.4 0 0 1 .546-.936l-2-2.6a2.525 2.525 0 0 1-1.248.182l-1.46 4.056A1.678 1.678 0 0 1 9 17.758a1.727 1.727 0 1 1-1.69-2.314l1.456-4.056a2.6 2.6 0 0 1-.988-3.016 2.582 2.582 0 1 1 4.862 1.742 3.242 3.242 0 0 1-.39.728l2 2.6a3.049 3.049 0 0 1 1.664-.26l.858-2.392a2.176 2.176 0 0 1-.728-2.444 2.141 2.141 0 0 1 2.756-1.3 2.18 2.18 0 0 1 1.3 2.782z"  data-name="Path 325"/>
</svg>
