<svg id="STC_Logo" data-name="STC Logo" xmlns="http://www.w3.org/2000/svg" xmlns:xlink="http://www.w3.org/1999/xlink" width="64.404" height="44.922" viewBox="0 0 64.404 44.922">
  <defs>
    <clipPath id="clip-path">
      <path id="Path_46734" data-name="Path 46734" d="M61.613,44.922H2.792A2.792,2.792,0,0,1,0,42.13V2.792A2.792,2.792,0,0,1,2.792,0h58.82A2.792,2.792,0,0,1,64.4,2.792V42.129A2.79,2.79,0,0,1,61.613,44.922Z"/>
    </clipPath>
  </defs>
  <g id="Group_69413" data-name="Group 69413" clip-path="url(#clip-path)">
    <rect id="Rectangle_12088" data-name="Rectangle 12088" width="88.334" height="53" transform="translate(-12.049 -4.395)" fill="#482f82"/>
    <path id="Path_46729" data-name="Path 46729" d="M353.546,137.9l-4.706-1.54a10.389,10.389,0,0,1-.757,1.5,4.673,4.673,0,0,1-1.2,1.139,5.167,5.167,0,0,1-3.813.606c-2.408-.516-3.923-2.5-3.989-5.325-.069-2.942,1.341-5.037,3.674-5.64,2.979-.77,5.232.8,5.816,3.164l4.856-1.59a8.684,8.684,0,0,0-3.938-5.337c-6.122-3.7-15.841-.167-15.82,9.23.02,9.264,9.9,12.859,15.858,9.18a9.653,9.653,0,0,0,2.465-2.208,7.844,7.844,0,0,0,1.552-3.176" transform="translate(-295.159 -109.19)" fill="#fefefe" fill-rule="evenodd"/>
    <path id="Path_46730" data-name="Path 46730" d="M57.866,137.742l-4.626.969c.334,4.081,4.86,6.28,8.921,6.179a9.555,9.555,0,0,0,5.665-1.884,5.9,5.9,0,0,0-1-9.807c-3.494-1.87-7.7-.981-8.076-3.174-.422-2.454,4.328-3.145,5.954-.937a6.075,6.075,0,0,1,.574,1.327l4.39-1c.016-.007.044-.021.066-.032-.265-3.921-5.078-6.064-9.161-5.665-7.548.739-9.338,9.112-2.944,11.754,1.846.763,4.1.908,5.845,1.6,2.285.908,1.637,3.408-1.05,3.653-2.448.22-4.281-.848-4.557-2.981" transform="translate(-47.095 -109.396)" fill="#fefefe" fill-rule="evenodd"/>
    <path id="Path_46731" data-name="Path 46731" d="M231.61,173.99l-5.36,0c-.1,2.171-.01,4.551-.01,6.739s-.151,4.307.862,5.977c2.089,3.444,7.609,3.217,9.844,1.526l.033-4.4a5.135,5.135,0,0,1-3.34.734,2.093,2.093,0,0,1-2.019-2.209c-.089-1.156-.02-6.8-.01-8.373" transform="translate(-200.095 -153.909)" fill="#fefefe" fill-rule="evenodd"/>
    <path id="Path_46732" data-name="Path 46732" d="M231.9,86.942l0-5.467-5.366,0v5.462Z" transform="translate(-200.385 -72.067)" fill="#fefefe" fill-rule="evenodd"/>
    <path id="Path_46733" data-name="Path 46733" d="M273.05,134.086h5.369v-5.2l-5.368,0Z" transform="translate(-241.536 -114.005)" fill="#fefefe" fill-rule="evenodd"/>
  </g>
</svg>
