<svg id="Layer_1" data-name="Layer 1" xmlns="http://www.w3.org/2000/svg" viewBox="0 0 564.68 564.68"><defs><style>.cls-1{fill:#4f008b;}.cls-2{fill:#fefefe;fill-rule:evenodd;}</style></defs><rect class="cls-1" width="564.68" height="564.68" rx="131.76"/><path class="cls-2" d="M496.19,379l-35.75-11.71c-2.46,4.37-2.83,7.63-5.76,11.38a35.55,35.55,0,0,1-9.1,8.66c-7.56,4.88-18.3,6.89-29,4.6-18.28-3.92-29.8-19-30.3-40.46-.52-22.35,10.19-38.26,27.91-42.85,22.63-5.84,39.75,6.12,44.19,24L495.3,320.6c-3.59-18.2-17.89-33.28-29.91-40.54C418.88,252,345,278.79,345.19,350.18c.16,70.38,75.21,97.69,120.48,69.74a73.4,73.4,0,0,0,18.73-16.77c4.21-5.4,10.48-15.41,11.79-24.13" transform="translate(-15.4 -49.17)"/><path class="cls-2" d="M134.43,376.21l-35.14,7.37c2.53,31,36.92,47.72,67.77,46.95,17.26-.42,33-6.1,43-14.31,23.24-18.91,23.08-58.08-7.6-74.51C176,327.51,144,334.26,141.14,317.6c-3.21-18.64,32.88-23.89,45.24-7.12,2.83,3.85,2.45,6.19,4.35,10.08l33.35-7.62a3.32,3.32,0,0,0,.5-.25c-2-29.78-38.57-46.07-69.59-43-57.35,5.61-70.94,69.22-22.36,89.29,14,5.8,31.18,6.9,44.4,12.15,17.36,6.9,12.43,25.9-8,27.75-18.6,1.69-32.52-6.43-34.62-22.64" transform="translate(-15.4 -49.17)"/><path class="cls-2" d="M292,313.42l-40.72,0c-.75,16.49-.08,34.57-.08,51.21s-1.15,32.72,6.55,45.41c15.87,26.16,57.81,24.44,74.78,11.59l.26-33.4c-8.21,3.77-13.78,7.12-25.37,5.58-9.93-1.32-14.55-6.57-15.34-16.78-.68-8.8-.15-51.7-.08-63.63" transform="translate(-15.4 -49.17)"/><polygon class="cls-2" points="276.63 224.69 276.61 183.16 235.85 183.12 235.84 224.62 276.63 224.69"/><polygon class="cls-2" points="276.63 264.25 317.42 264.25 317.42 224.71 276.63 224.69 276.63 264.25"/></svg>