<svg id="Group_64584" data-name="Group 64584" xmlns="http://www.w3.org/2000/svg" xmlns:xlink="http://www.w3.org/1999/xlink" width="331.628" height="165.686" viewBox="0 0 331.628 165.686">
  <defs>
    <clipPath id="clip-path">
      <rect id="Rectangle_12665" data-name="Rectangle 12665" width="331.628" height="165.686" fill="none"/>
    </clipPath>
  </defs>
  <g id="Group_64583" data-name="Group 64583" clip-path="url(#clip-path)">
    <path id="Path_44334" data-name="Path 44334" d="M161.038,67.875V118.2c0,5.937,1.29,10.323,3.87,12.9,3.1,2.838,7.227,4.128,12.905,4.128a29.781,29.781,0,0,0,17.291-5.159v27.872c-4.129,3.613-13.677,7.742-27.1,7.742-13.162,0-23.743-3.87-30.97-11.1-6.45-6.708-10.063-16.259-10.063-28.131V67.875ZM53.421,30.97C70.455,30.97,84.906,36.9,94.2,46.2c5.934,5.937,9.807,13.162,10.581,21.42L76.133,74.069a19.234,19.234,0,0,0-4.9-10.582c-4.129-4.129-10.325-6.45-17.55-6.45-11.615,0-18.84,5.16-18.84,12.643,0,5.678,4.645,9.807,12.9,11.356l19.874,3.873C79.744,87.23,89.295,92.133,96,98.845a35.068,35.068,0,0,1,10.325,25.292,37.57,37.57,0,0,1-11.1,27.1c-9.289,9.032-23.484,14.452-40.774,14.452-17.809,0-33.551-6.193-43.357-16.518C4.9,142.977.775,135.231,0,126.458l29.421-6.453a17.934,17.934,0,0,0,5.161,11.872c4.388,4.647,11.356,7.483,19.873,7.483,11.872,0,19.1-4.644,19.1-12.643,0-6.453-4.388-10.067-14.2-12.387l-19.615-4.647c-11.871-2.839-20.9-7.483-27.1-13.677s-9.292-14.2-9.292-23.743a37.666,37.666,0,0,1,12.13-27.875C24.517,36.13,37.679,30.97,53.421,30.97m217.816,0c19.873,0,34.843,7.227,45.166,17.29a58.01,58.01,0,0,1,14.452,25.548L300.142,84.134A33.018,33.018,0,0,0,292.4,70.455c-4.644-4.645-11.1-7.74-20.388-7.74a31.549,31.549,0,0,0-22.71,9.032c-5.937,6.191-9.547,14.967-9.547,26.58,0,11.356,3.611,20.388,9.547,26.582a32.382,32.382,0,0,0,22.969,9.291c9.548,0,16.257-3.354,21.16-8a29.164,29.164,0,0,0,8-13.417l30.2,10.063a57.151,57.151,0,0,1-15.485,26.067c-10.063,9.807-24.774,16.775-43.872,16.775-18.581,0-35.358-6.968-47.227-18.84-12.131-12.13-19.615-28.905-19.615-48.519s7.224-36.386,19.1-48.517c11.872-11.872,28.39-18.839,46.711-18.839M195.1,67.875H161.038V34.84H195.1ZM161.038,34.84H126.973V0h34.066Z" fill="#390065"/>
  </g>
</svg>
