<svg xmlns="http://www.w3.org/2000/svg" width="29.93" height="30.865" viewBox="0 0 29.93 30.865">
  <defs>
    <style>
      .cls-199{
        fill: #4a494a;
      }
    </style>
  </defs>
  <g id="noun_926716_cc" class='cls-199' transform="translate(-3.531 -2.083)">
    <path id="Path_154" class='cls-199' data-name="Path 154"  d="M11.866,22.995V19.214H10.389V17.862h4.6v1.352H13.514v3.781Zm3.62,0,1.8-5.133H18.96l1.8,5.133H19.131l-.192-.68H17.305l-.2.68ZM17.6,21.238H18.64l-.512-1.777Zm3.819,1.756,1.763-2.669L21.58,17.862h1.854l.687,1.3.749-1.3h1.812l-1.662,2.463,1.718,2.669H24.877L24.1,21.6l-.78,1.39h-1.9ZM29.849,2.083H4.819A1.29,1.29,0,0,0,3.531,3.371V31.659a1.29,1.29,0,0,0,1.288,1.288H32.173a1.29,1.29,0,0,0,1.288-1.288V6.112ZM21.717,8.229h1.422a.854.854,0,0,0,.805-.9V3.049h2.711V9.222a.322.322,0,0,1-.322.322H13.17V3.049h7.742V7.333A.854.854,0,0,0,21.717,8.229ZM12.2,3.049V9.544H10.552a.322.322,0,0,1-.322-.322V3.049ZM4.5,15.563h28V25.834H4.5Zm28,16.1a.323.323,0,0,1-.322.322H4.819a.323.323,0,0,1-.322-.322V26.8h28ZM4.5,14.6V3.371a.323.323,0,0,1,.322-.322H9.263V9.222a1.289,1.289,0,0,0,1.288,1.288H26.333a1.29,1.29,0,0,0,1.288-1.288V3.049h1.8l3.077,3.432V14.6H4.5Z" transform="translate(0 0)"/>
  </g>
</svg>
