<svg xmlns="http://www.w3.org/2000/svg" viewBox="0 0 150 22.94"><defs><style>.cls-1{fill:#ffcc00;}</style></defs><title>Tecnotree_logo_1</title><g id="Layer_2" data-name="Layer 2"><g id="Layer_1-2" data-name="Layer 1"><polygon class="cls-1" points="0 0 0 3.65 7.94 3.65 7.94 22.42 11.89 22.42 11.89 3.65 19.77 3.65 19.77 0 0 0 0 0"/><path class="cls-1" d="M26.21,19.72a5,5,0,0,1-4.9-3.11V15.06H34.37V10.33a8.49,8.49,0,0,0-8.29-5.51,8.58,8.58,0,0,0-8.36,5.51v7.06a8.67,8.67,0,0,0,8.45,5.55c3.8,0,6.89-1.79,8.3-4.8l-3.33-1.32a5,5,0,0,1-4.93,2.9Zm-4.9-8.64A4.81,4.81,0,0,1,26,8a4.9,4.9,0,0,1,4.74,3.08v1.09H21.3V11.08Z"/><path class="cls-1" d="M49.53,10.94l3.36-1.36c-1.31-3-4.3-4.76-8-4.76-4,0-7.37,2.16-8.49,5.51v7.06c1.12,3.37,4.45,5.55,8.49,5.55,3.71,0,6.69-1.79,8-4.8l-3.36-1.32a4.92,4.92,0,0,1-4.64,2.8,5,5,0,0,1-4.84-3.14v-5.2a5,5,0,0,1,4.84-3.14,4.92,4.92,0,0,1,4.64,2.8Z"/><path class="cls-1" d="M63.62,4.85a6.52,6.52,0,0,0-5.19,2.27l-.14.16V5.34H54.87V22.42h3.65V10.49c.37-1.15,1.9-2.32,4.11-2.32,2.37,0,3.71,1.16,4.18,2.25v12h3.65V9.47a7.06,7.06,0,0,0-6.85-4.62Z"/><path class="cls-1" d="M81.56,22.94c4,0,7.51-2.23,8.65-5.55V10.33C89.07,7,85.59,4.82,81.56,4.82S74.08,7,72.9,10.33v7.06c1.17,3.32,4.65,5.55,8.66,5.55Zm-5-11.66a5.21,5.21,0,0,1,5-3.14c1.93,0,4.34,1.1,5,3.14v5.2c-.66,2-3.07,3.14-5,3.14a5.21,5.21,0,0,1-5-3.14v-5.2Z"/><path class="cls-1" d="M133.25,10.33v7.06a8.67,8.67,0,0,0,8.45,5.55c3.79,0,6.89-1.79,8.3-4.8l-3.33-1.32a5.53,5.53,0,0,1-9.84-.21V15.06H149.9V10.33a9,9,0,0,0-16.65,0Zm13.06.75v1.09h-9.48V11.08A4.84,4.84,0,0,1,141.57,8a4.9,4.9,0,0,1,4.74,3.08Z"/><path class="cls-1" d="M114.56,10.33v7.06A8.69,8.69,0,0,0,123,22.94c3.79,0,6.88-1.79,8.29-4.8L128,16.82a5.52,5.52,0,0,1-9.83-.21V15.06h13.06V10.33a8.49,8.49,0,0,0-8.29-5.51,8.59,8.59,0,0,0-8.36,5.51Zm13.06.75v1.09h-9.48V11.08A4.83,4.83,0,0,1,122.89,8a4.89,4.89,0,0,1,4.73,3.08Z"/><polygon class="cls-1" points="111.34 5.36 107.26 7.69 107.26 5.35 103.88 5.35 103.88 22.42 107.5 22.42 107.5 11.04 114.38 7.08 111.34 5.36 111.34 5.36"/><polygon class="cls-1" points="91.05 8.37 94.19 8.37 94.19 22.42 97.8 22.42 97.74 8.37 101.89 8.37 101.89 5.35 97.74 5.35 97.8 0.03 94.19 2.03 94.19 5.35 91.05 5.35 91.05 8.37 91.05 8.37"/></g></g></svg>