<svg xmlns="http://www.w3.org/2000/svg" width="30.739" height="30.739" viewBox="0 0 30.739 30.739"><defs><style>.a{fill:#57606f;}</style></defs><g transform="translate(-203.158 556.898)"><g transform="translate(195 -1510.16)"><path class="a" d="M23.769,992.506a7.187,7.187,0,1,1-10.163-10.163l5.646-5.646a7.2,7.2,0,0,1,10.164,0,1.2,1.2,0,1,1-1.694,1.694,4.754,4.754,0,0,0-6.776,0L15.3,984.036a4.791,4.791,0,1,0,6.776,6.776l5.364-5.364a1.2,1.2,0,1,1,1.694,1.694l-5.364,5.364ZM34.5,981.778a7.2,7.2,0,0,1-10.163,0,1.2,1.2,0,0,1,1.694-1.694,4.754,4.754,0,0,0,6.776,0l5.646-5.646a4.791,4.791,0,1,0-6.776-6.776l-5.364,5.364a1.2,1.2,0,1,1-1.694-1.694l5.364-5.364a7.187,7.187,0,1,1,10.163,10.163Z" transform="translate(-3.347 -10.605)"/></g></g></svg>