<?xml version="1.0" encoding="utf-8"?>
<!-- Generator: Adobe Illustrator 26.0.2, SVG Export Plug-In . SVG Version: 6.00 Build 0)  -->
<svg version="1.1" xmlns="http://www.w3.org/2000/svg" xmlns:xlink="http://www.w3.org/1999/xlink" x="0px" y="0px"
	 viewBox="0 0 35 35" style="enable-background:new 0 0 35 35;" xml:space="preserve">
<style type="text/css">
	.st0{display:none;}
	.st1{display:inline;fill:#E5E5E5;}
	.st2{display:inline;}
	.st3{fill:#E5E5E5;}
	.st4{fill:#E5E5E5;stroke:#E5E5E5;stroke-width:1.0859;stroke-miterlimit:10;}
	.st5{fill:#E5E5E5;stroke:#E5E5E5;stroke-miterlimit:10;}
	.st6{clip-path:url(#SVGID_00000166677664761052197240000017339406295264516257_);}
	.st7{fill:#707070;}
	.st8{clip-path:url(#SVGID_00000040562955944715827870000001510142175969545603_);}
	.st9{clip-path:url(#SVGID_00000095323535579205161470000001807607156636135591_);}
	.st10{fill:#FFFFFF;}
	.st11{clip-path:url(#SVGID_00000151533562785778259970000016053821953676636073_);}
</style>
<g id="Layer_1" class="st0">
	<path id="Path_43500" class="st1" d="M33.59,17.11c0.59-0.64,0.54-1.64-0.1-2.22c-0.01-0.01-0.02-0.02-0.03-0.03L18.71,1.96
		c-0.7-0.59-1.72-0.57-2.4,0.03L1.51,15.55c-0.64,0.58-0.69,1.57-0.11,2.21c0.01,0.01,0.02,0.03,0.04,0.04l0.37,0.39
		c0.58,0.64,1.55,0.71,2.22,0.17l1.11-0.99v14.5c0,0.89,0.72,1.61,1.61,1.61h5.77c0.89,0,1.61-0.72,1.61-1.61V21.72h7.36v10.15
		c-0.05,0.84,0.59,1.56,1.43,1.61c0.03,0,0.05,0,0.08,0h6.11c0.89,0,1.61-0.72,1.61-1.61c0,0,0,0,0-0.01v-14.3l0.68,0.6
		c0.38,0.33,1.17,0.06,1.76-0.59L33.59,17.11z"/>
</g>
<g id="Layer_2" class="st0">
	<g id="Group_34945" class="st2">
		<path id="ic_playlist_add_check_24px" class="st3" d="M26.42,20.54H8.58v2.95h17.84V20.54z M26.42,14.64H8.58v2.95h17.84V14.64z
			 M8.58,29.39h11.89v-2.95H8.58V29.39z"/>
		<path id="ic_content_paste_24px" class="st3" d="M27.88,4.15h-6.2c-0.81-2.31-3.34-3.53-5.65-2.72c-1.27,0.45-2.27,1.45-2.72,2.72
			h-6.2c-1.64,0-2.96,1.33-2.97,2.97v23.73c0,1.64,1.33,2.96,2.97,2.97h20.76c1.64,0,2.96-1.33,2.97-2.97V7.12
			C30.84,5.48,29.52,4.16,27.88,4.15z M17.5,4.15c0.82,0,1.48,0.66,1.48,1.48s-0.66,1.48-1.48,1.48c-0.82,0-1.48-0.66-1.48-1.48
			c0,0,0,0,0,0C16.02,4.82,16.68,4.16,17.5,4.15L17.5,4.15z M27.88,30.85H7.12V7.12h2.97v4.45h14.83V7.12h2.97V30.85z"/>
	</g>
</g>
<g id="Layer_3" class="st0">
	<path id="Union_3" class="st1" d="M19.85,33.91V17.49h14.08v16.42H19.85z M1.09,33.91V22.19h14.07v11.72H1.09z M1.08,17.49V1.09
		h14.07V17.5L1.08,17.49z M19.85,12.81V1.09h14.08v11.73L19.85,12.81z"/>
</g>
<g id="Layer_4" class="st0">
	<g id="Group_69301" transform="translate(-220.017 -103.047)" class="st2">
		<path id="Path_43729" class="st4" d="M237.47,133.35c-3.89,0-7.79,0-11.68,0c-0.8,0.04-1.58-0.22-2.2-0.72
			c-0.76-0.58-1.2-1.47-1.19-2.43c0.02-6.44,0.03-12.87-0.01-19.31c0.05-1.27,0.83-2.41,2-2.91c0.38-0.14,0.77-0.22,1.18-0.24
			c2.32-0.02,4.63-0.02,6.95-0.01c1.01,0,1.97,0.49,2.57,1.3c0.86,1.06,1.73,2.12,2.59,3.19c0.12,0.17,0.31,0.26,0.52,0.25
			c3.68-0.01,7.36-0.01,11.03-0.01c1.21-0.05,2.36,0.56,2.98,1.6c0.3,0.47,0.45,1.01,0.45,1.57c0,4.83,0.01,9.66,0,14.49
			c-0.03,1.8-1.51,3.23-3.31,3.2c-0.02,0-0.04,0-0.06,0c-2.61,0.01-5.21,0-7.81,0L237.47,133.35z M238.39,131.99
			c3.61,0,7.22,0,10.82,0c1.06,0.08,1.99-0.71,2.07-1.77c0.01-0.1,0.01-0.2,0-0.29c0-4.68,0-9.36,0-14.04
			c0.08-1.04-0.7-1.95-1.74-2.03c-0.1-0.01-0.19-0.01-0.29,0c-6.69,0-13.39,0-20.08,0c-0.23,0-0.45,0.03-0.67,0.09
			c-0.87,0.24-1.45,1.06-1.37,1.97c0,5.24,0,10.49,0,15.73c0,0.35,0,0.35,0.35,0.35H238.39z M236.08,112.49
			c-0.02-0.04-0.04-0.09-0.07-0.13c-0.69-0.85-1.37-1.71-2.06-2.55c-0.37-0.47-0.94-0.73-1.53-0.7h-0.06c-2.21,0-4.42,0-6.62,0
			c-0.65-0.03-1.28,0.27-1.66,0.79c-0.26,0.39-0.39,0.85-0.36,1.31c0,6.19,0,12.38,0,18.57c0,0.1,0,0.2,0,0.3
			c-0.01,0.97,0.72,1.79,1.68,1.89c0.37,0.05,0.37,0.05,0.37-0.33c0-5.19,0-10.39,0-15.58c0-0.17,0-0.34,0.01-0.5
			c0.01-0.52,0.16-1.02,0.43-1.45c0.61-1.04,1.74-1.65,2.94-1.61c2.18,0,4.36,0,6.54,0L236.08,112.49z"/>
		<path id="Path_43730" class="st4" d="M239.65,120.25v0.31c0,2.22,0,4.43,0,6.65c0,0.13,0,0.26-0.02,0.38
			c-0.06,0.31-0.33,0.54-0.65,0.54c-0.32,0-0.59-0.23-0.65-0.54c-0.03-0.15-0.04-0.29-0.04-0.44c0-2.18,0-4.35,0-6.53v-0.35
			l-0.09-0.06c-0.06,0.09-0.12,0.17-0.18,0.25c-0.78,0.85-1.56,1.7-2.36,2.53c-0.16,0.16-0.36,0.26-0.57,0.31
			c-0.24,0.04-0.49-0.09-0.59-0.31c-0.13-0.2-0.13-0.47,0-0.67c0.06-0.1,0.13-0.19,0.22-0.28c1.21-1.3,2.43-2.61,3.65-3.91
			c0.46-0.49,0.82-0.49,1.27-0.01c1.23,1.32,2.46,2.64,3.68,3.96c0.3,0.23,0.36,0.65,0.15,0.95c-0.2,0.29-0.59,0.37-0.89,0.18
			c-0.11-0.08-0.22-0.17-0.31-0.27c-0.78-0.83-1.56-1.67-2.34-2.5c-0.07-0.08-0.14-0.16-0.21-0.23L239.65,120.25z"/>
	</g>
</g>
<g id="Layer_5" class="st0">
	<g id="Group_69312" transform="translate(0 0)" class="st2">
		<g>
			<defs>
				<rect id="SVGID_1_" x="1.22" y="2.03" width="32.55" height="30.95"/>
			</defs>
			<clipPath id="SVGID_00000017478952803751425470000002415544226014882733_">
				<use xlink:href="#SVGID_1_"  style="overflow:visible;"/>
			</clipPath>
			
				<g id="Group_68540" transform="translate(0 0)" style="clip-path:url(#SVGID_00000017478952803751425470000002415544226014882733_);">
				<path id="Path_46638" class="st7" d="M1.22,17.86c0.19-0.31,0.55-0.49,0.91-0.44c0.74,0.02,1.48,0.01,2.23,0.01H4.7
					c-0.05-0.56-0.1-1.09-0.13-1.61c-0.09-2.08,0.31-4.15,1.18-6.05c0.1-0.34,0.46-0.53,0.8-0.43c0.34,0.1,0.53,0.46,0.43,0.8
					c-0.02,0.06-0.04,0.11-0.07,0.16c-0.74,1.6-1.11,3.35-1.08,5.12c0.01,0.6,0.11,1.2,0.15,1.8c0.01,0.18,0.09,0.24,0.26,0.23
					c0.87-0.08,1.13,0.22,1.07,1.12c-0.01,0.11,0,0.23,0,0.37h1.41v-0.35c0-1.92,0-3.84,0-5.75c0-0.59,0.21-0.8,0.8-0.81
					c1.49,0,2.99,0,4.48,0h0.38v-0.37c0-1.02,0-2.03,0-3.05c-0.06-0.36,0.19-0.69,0.55-0.75c0.06-0.01,0.13-0.01,0.19,0
					c1.83,0,3.67,0.01,5.5,0.03c0.48,0,0.7,0.24,0.7,0.75c0,2.08,0,4.15,0,6.23v0.41c0.14,0.01,0.26,0.02,0.38,0.02
					c1.47,0,2.95,0,4.42,0c0.67,0,0.87,0.2,0.87,0.88c0,2.12,0,4.24,0,6.36v0.4c0.07-0.05,0.13-0.1,0.18-0.16
					c2.06-2.55,2.97-5.83,2.51-9.08c-0.03-0.28-0.09-0.56-0.14-0.85c-0.1-0.35,0.1-0.71,0.45-0.8c0.01,0,0.02,0,0.03-0.01
					c0.34-0.08,0.68,0.13,0.76,0.47c0.01,0.03,0.01,0.06,0.01,0.09c0.84,3.95-0.18,8.07-2.78,11.16c-0.12,0.19-0.27,0.35-0.45,0.49
					c-0.75,0.5-0.56,1.23-0.55,1.96c1.01-0.23,1.98-0.45,2.96-0.68c0.66-0.21,1.37-0.2,2.03,0.02c0.87,0.33,1.52,1.07,1.72,1.98
					c0.02,0.07,0.05,0.14,0.07,0.2v0.82c-0.02,0.02-0.04,0.05-0.05,0.08c-0.2,1.12-1.06,2-2.18,2.22c-2.46,0.62-4.92,1.25-7.38,1.88
					c-1.59,0.42-3.27,0.32-4.8-0.29c-2.82-1.11-5.64-2.2-8.44-3.32c-0.77-0.35-1.61-0.51-2.46-0.47c-0.37,0.03-0.75,0.01-1.15,0.01
					c0,0.16,0,0.28,0,0.4c0,0.63-0.21,0.84-0.84,0.84c-1.47,0-2.95-0.01-4.42,0.01c-0.34,0.04-0.67-0.14-0.83-0.45V17.86z
					 M7.33,27.37c0.78,0,1.53-0.01,2.29,0.01c0.23,0,0.46,0.05,0.68,0.13c3.17,1.24,6.34,2.48,9.51,3.72
					c1.17,0.49,2.47,0.61,3.71,0.32c2.62-0.64,5.23-1.31,7.84-1.99c0.79-0.17,1.29-0.95,1.13-1.74c-0.01-0.03-0.01-0.06-0.02-0.09
					c-0.2-0.8-1-1.28-1.8-1.09c-0.02,0-0.03,0.01-0.05,0.01c-1.94,0.44-3.88,0.87-5.81,1.33c-1.58,0.44-3.26,0.38-4.81-0.17
					c-2.09-0.79-4.17-1.59-6.25-2.39c-0.44-0.17-0.62-0.49-0.48-0.86c0.13-0.37,0.49-0.49,0.93-0.33l0.15,0.06
					c1.32,0.51,2.65,1.01,3.97,1.52c0.45,0.19,0.96,0.16,1.38-0.07c0.59-0.29,0.94-0.92,0.88-1.57c-0.02-0.62-0.42-1.17-1.01-1.38
					c-2.01-0.84-4.02-1.67-6.04-2.5c-0.17-0.07-0.36-0.11-0.55-0.11c-1.76-0.01-3.52,0-5.28,0H7.33V27.37z M20.03,21.64V9.13h-4.36
					c-0.01,0.07-0.01,0.12-0.01,0.17c0,3.43,0,6.87-0.01,10.3c-0.01,0.16,0.09,0.31,0.25,0.34c0.89,0.37,1.78,0.73,2.67,1.1
					L20.03,21.64 M25.7,26.48v-9.92h-4.35c-0.01,0.06-0.02,0.11-0.02,0.17c0,1.92,0,3.84,0,5.75c0.01,0.12,0.05,0.24,0.12,0.35
					c0.49,0.82,0.53,1.83,0.11,2.68c-0.17,0.35-0.25,0.74-0.23,1.12c0,0.21,0.07,0.28,0.28,0.32C22.98,27.09,24.37,26.93,25.7,26.48
					 M2.52,28.58h3.5v-9.87h-3.5V28.58z M10.01,18.94c0.89,0,1.76,0.01,2.62-0.01c0.54-0.04,1.08,0.06,1.57,0.3
					c0.05,0.02,0.1,0.03,0.16,0.04v-5.97h-4.35V18.94z"/>
				<path id="Path_46639" class="st7" d="M17.75,2.03c1.58,0,3.15,0.28,4.63,0.82c0.46,0.17,0.65,0.49,0.51,0.87
					c-0.14,0.34-0.53,0.5-0.87,0.36C22,4.07,21.98,4.06,21.96,4.05C19.32,3.07,16.43,3.05,13.78,4c-1.4,0.49-2.7,1.25-3.82,2.23
					c-0.44,0.38-0.8,0.42-1.08,0.11c-0.28-0.31-0.2-0.69,0.26-1.07C11.53,3.18,14.58,2.03,17.75,2.03"/>
				<path id="Path_46640" class="st7" d="M30.08,4.66c-0.06,0.14-0.13,0.28-0.22,0.41c-1.7,1.97-3.41,3.94-5.12,5.9
					c-0.19,0.3-0.58,0.39-0.88,0.2c-0.3-0.19-0.39-0.58-0.2-0.88c0.03-0.05,0.07-0.1,0.12-0.14c1.71-1.98,3.42-3.95,5.14-5.93
					c0.17-0.23,0.47-0.32,0.74-0.22C29.92,4.1,30.1,4.37,30.08,4.66"/>
				<path id="Path_46641" class="st7" d="M28.49,8.37c0.88,0.01,1.59,0.72,1.58,1.6c0.01,0.88-0.69,1.6-1.57,1.62
					c-0.88,0.01-1.6-0.69-1.62-1.57c0-0.02,0-0.05,0-0.07c0-0.87,0.71-1.58,1.59-1.58C28.48,8.37,28.48,8.37,28.49,8.37
					 M28.84,10.04l0-0.14c-0.12-0.09-0.23-0.22-0.37-0.25c-0.13-0.04-0.27,0.04-0.31,0.17c-0.01,0.04-0.01,0.08,0,0.12
					c0.04,0.15,0.15,0.26,0.29,0.31C28.58,10.28,28.71,10.12,28.84,10.04"/>
				<path id="Path_46642" class="st7" d="M26.53,5.35c0.01,0.88-0.7,1.6-1.58,1.6c-0.88,0.01-1.6-0.7-1.6-1.58l0,0
					c-0.01-0.88,0.7-1.6,1.58-1.6S26.53,4.47,26.53,5.35 M25,4.98l-0.14,0.01c-0.08,0.13-0.23,0.26-0.22,0.38
					c0.05,0.14,0.17,0.25,0.32,0.29c0.13,0.03,0.27-0.06,0.29-0.19c0.01-0.04,0.01-0.08,0-0.12C25.22,5.21,25.08,5.1,25,4.98"/>
				<path id="Path_46643" class="st7" d="M7.69,7.17c0.34,0,0.62,0.28,0.62,0.62c0,0,0,0,0,0.01c0,0.35-0.27,0.63-0.62,0.64
					c-0.35,0-0.63-0.28-0.63-0.63c0-0.01,0-0.01,0-0.02c0-0.34,0.27-0.61,0.61-0.61C7.68,7.18,7.68,7.18,7.69,7.17"/>
			</g>
		</g>
	</g>
</g>
<g id="Layer_6">
	<g id="Group_69346" transform="translate(0 0)">
		<g>
			<defs>
				<rect id="SVGID_00000019675824244506397650000016699625442910380712_" x="1.15" y="6.17" width="32.69" height="22.66"/>
			</defs>
			<clipPath id="SVGID_00000060751841621149385400000000857070321665337007_">
				<use xlink:href="#SVGID_00000019675824244506397650000016699625442910380712_"  style="overflow:visible;"/>
			</clipPath>
			
				<g id="Group_69345" transform="translate(0 0)" style="clip-path:url(#SVGID_00000060751841621149385400000000857070321665337007_);">
				<path id="Path_46681" class="st10" d="M14.63,17.2c0.57,0.29,1.15,0.55,1.69,0.87c0.46,0.27,0.61,0.86,0.34,1.31
					c-0.08,0.13-0.18,0.24-0.3,0.32c-0.33,0.23-0.78,0.22-1.11-0.01c-0.83-0.5-1.73-0.85-2.68-1.03c-4.33-0.82-8.51,2.03-9.33,6.36
					C3.15,25.5,3.1,25.98,3.1,26.46c0.02,0.5-0.34,0.93-0.83,1c-0.5,0.08-0.98-0.25-1.08-0.74c-0.04-0.27-0.04-0.54-0.01-0.81
					c0.15-2.51,1.26-4.87,3.1-6.59c0.85-0.81,1.83-1.46,2.91-1.92c0.06-0.02,0.11-0.05,0.16-0.07c0.01-0.01,0.02-0.02,0.03-0.03
					c-2.76-1.97-3.39-5.8-1.42-8.56s5.8-3.39,8.56-1.42s3.39,5.8,1.42,8.56C15.57,16.38,15.13,16.83,14.63,17.2 M6.76,12.28
					c-0.01,2.32,1.86,4.2,4.18,4.21s4.2-1.86,4.21-4.18c0.01-2.32-1.86-4.2-4.18-4.21c0,0,0,0,0,0c-2.3-0.02-4.18,1.83-4.2,4.13
					C6.76,12.25,6.76,12.27,6.76,12.28"/>
				<path id="Path_46682" class="st10" d="M27.67,18.46c0.57,0.29,1.15,0.55,1.69,0.87c0.46,0.27,0.61,0.86,0.34,1.31
					c-0.08,0.13-0.18,0.24-0.3,0.32c-0.33,0.23-0.78,0.22-1.11-0.01c-0.83-0.5-1.73-0.85-2.68-1.03c-4.33-0.82-8.51,2.03-9.33,6.37
					c-0.09,0.48-0.14,0.96-0.14,1.44c0.02,0.5-0.34,0.93-0.83,1c-0.5,0.08-0.98-0.25-1.08-0.74c-0.04-0.27-0.04-0.54-0.01-0.81
					c0.15-2.51,1.26-4.87,3.1-6.59c0.85-0.81,1.83-1.46,2.91-1.92c0.06-0.02,0.11-0.05,0.16-0.07c0.01-0.01,0.02-0.02,0.03-0.03
					c-2.76-1.97-3.39-5.8-1.42-8.56s5.8-3.39,8.56-1.42s3.39,5.8,1.42,8.56C28.61,17.64,28.17,18.09,27.67,18.46 M19.8,13.54
					c-0.01,2.32,1.86,4.2,4.18,4.21s4.2-1.86,4.21-4.18c0.01-2.32-1.86-4.2-4.18-4.21c0,0,0,0,0,0c-2.3-0.02-4.18,1.83-4.2,4.13
					C19.8,13.51,19.8,13.52,19.8,13.54"/>
				<path id="Path_46683" class="st10" d="M19.78,9.26c2.43-2.36,6.32-2.3,8.68,0.13s2.3,6.32-0.13,8.68
					c-0.22,0.21-0.45,0.41-0.7,0.59c0.01,0.01,0.02,0.02,0.03,0.03c0.05,0.03,0.11,0.05,0.16,0.07c1.08,0.46,2.07,1.11,2.91,1.92
					c1.84,1.72,2.94,4.08,3.1,6.59c0.03,0.27,0.03,0.54-0.01,0.81c-0.1,0.5-0.58,0.83-1.08,0.74c-0.49-0.07-0.85-0.5-0.83-1
					c-0.03-4.41-3.62-7.97-8.03-7.94c-0.48,0-0.96,0.05-1.44,0.14c-0.95,0.18-1.86,0.53-2.68,1.03c-0.33,0.23-0.77,0.24-1.11,0.01
					c-0.44-0.29-0.57-0.88-0.28-1.32c0.08-0.12,0.19-0.23,0.32-0.3c0.54-0.32,1.12-0.58,1.69-0.87c-2.71-2.04-3.25-5.88-1.21-8.59
					C19.34,9.72,19.55,9.48,19.78,9.26 M24.03,9.47c-2.32,0.01-4.19,1.89-4.18,4.2s1.89,4.19,4.2,4.18c2.32-0.01,4.19-1.89,4.18-4.2
					c0,0,0,0,0,0c0-2.31-1.88-4.18-4.19-4.18C24.04,9.47,24.04,9.47,24.03,9.47"/>
			</g>
		</g>
	</g>
</g>
</svg>
