<svg xmlns="http://www.w3.org/2000/svg" width="30.385" height="37.031" viewBox="0 0 30.385 37.031">
    <defs>
        <style>
            .cls-1{fill:none}.cls-2{opacity:.32;isolation:isolate}.cls-3{fill:#ff6b81}.cls-4{opacity:.24}.cls-5{clip-path:url(#clip-path)}
        </style>
        <clipPath id="clip-path">
            <path id="Path_27401" d="M352.682 47v22.41l-2.772 2.014-3.927-2.184-4.406 2.189-3.1-2.206-3.212 1.8V44.478H350.2A2.545 2.545 0 0 1 352.682 47z" class="cls-1" data-name="Path 27401"/>
        </clipPath>
    </defs>
    <g id="Unpaid-Inv" transform="translate(-521.861 -91.366)">
        <g id="Path_27332" class="cls-2" data-name="Path 27332" transform="translate(198.724 56.377)">
            <path id="Path_27397" d="M352.987 47.056V69.47l-2.772 2.013-3.927-2.183-4.406 2.19-3.1-2.2-3.212 1.8V47.165a6.818 6.818 0 0 0-.456-1.312c-.55-1.1-1.1-1.316-1.1-1.316h16.5a2.545 2.545 0 0 1 2.473 2.519z" class="cls-3" data-name="Path 27397"/>
        </g>
        <g id="Path_27333" data-name="Path 27333" transform="translate(198.724 56.377)">
            <path id="Path_27398" d="M326.664 62.94h-.551a2.985 2.985 0 0 1-2.976-2.973V34.989h20.8v9.3h-1v-8.3h-18.8v23.977a1.982 1.982 0 0 0 1.977 1.974h.549a1.98 1.98 0 0 0 1.975-1.975h1a2.982 2.982 0 0 1-2.974 2.975z" class="cls-3" data-name="Path 27398"/>
        </g>
        <g id="Path_27334" data-name="Path 27334" transform="translate(198.724 56.377)">
            <path id="Path_27399" d="M350.286 72.02l-3.976-2.211-4.433 2.206-3.087-2.2-3.123 1.746-.489-.873 3.676-2.054 3.114 2.216 4.367-2.174 3.88 2.157 2.307-1.676V47a2.039 2.039 0 0 0-1.989-2.02h-18.166v-1h18.18a3.041 3.041 0 0 1 2.975 3.014v22.675z" class="cls-3" data-name="Path 27399"/>
        </g>
        <g id="Path_27335" data-name="Path 27335" transform="translate(198.724 56.377)">
            <path id="Path_27400" d="M336.109 71.389h-1V44.978h-5.46v15.451h-1V43.978h7.46z" class="cls-3" data-name="Path 27400"/>
        </g>
        <g id="Group_48503" class="cls-4" data-name="Group 48503" transform="translate(198.724 56.377)">
            <g id="Group_49424" data-name="Group 49424">
                <g id="Group_49423" class="cls-5" data-name="Group 49423">
                    <g id="Group_48502" data-name="Group 48502">
                        <g id="Group_48501" data-name="Group 48501">
                            <g id="Line_1646" data-name="Line 1646">
                                <path id="Rectangle_8225" d="M0 0h1v.369H0z" class="cls-3" data-name="Rectangle 8225" transform="translate(334.768 71.021)"/>
                            </g>
                            <g id="Line_1647" data-name="Line 1647">
                                <path id="Rectangle_8226" d="M0 0h37.337v1H0z" class="cls-3" data-name="Rectangle 8226" transform="rotate(-45 234.238 -355.7)"/>
                            </g>
                            <g id="Line_1648" data-name="Line 1648">
                                <path id="Rectangle_8227" d="M0 0h37.336v1H0z" class="cls-3" data-name="Rectangle 8227" transform="rotate(-45 237.055 -356.867)"/>
                            </g>
                            <g id="Line_1649" data-name="Line 1649">
                                <path id="Rectangle_8228" d="M0 0h37.336v1H0z" class="cls-3" data-name="Rectangle 8228" transform="rotate(-45 239.871 -358.034)"/>
                            </g>
                            <g id="Line_1650" data-name="Line 1650">
                                <path id="Rectangle_8229" d="M0 0h37.336v1H0z" class="cls-3" data-name="Rectangle 8229" transform="rotate(-45 242.688 -359.2)"/>
                            </g>
                            <g id="Line_1651" data-name="Line 1651">
                                <path id="Rectangle_8230" d="M0 0h37.337v1H0z" class="cls-3" data-name="Rectangle 8230" transform="rotate(-45 245.506 -360.366)"/>
                            </g>
                            <g id="Line_1652" data-name="Line 1652">
                                <path id="Rectangle_8231" d="M0 0h37.337v1H0z" class="cls-3" data-name="Rectangle 8231" transform="rotate(-45 248.323 -361.535)"/>
                            </g>
                            <g id="Line_1653" data-name="Line 1653">
                                <path id="Rectangle_8232" d="M0 0h37.336v1H0z" class="cls-3" data-name="Rectangle 8232" transform="rotate(-45 251.14 -362.702)"/>
                            </g>
                            <g id="Line_1654" data-name="Line 1654">
                                <path id="Rectangle_8233" d="M0 0h37.336v1H0z" class="cls-3" data-name="Rectangle 8233" transform="rotate(-45 253.957 -363.868)"/>
                            </g>
                            <g id="Line_1655" data-name="Line 1655">
                                <path id="Rectangle_8234" d="M0 0h37.336v1H0z" class="cls-3" data-name="Rectangle 8234" transform="rotate(-45 256.774 -365.035)"/>
                            </g>
                            <g id="Line_1656" data-name="Line 1656">
                                <path id="Rectangle_8235" d="M0 0h37.337v1H0z" class="cls-3" data-name="Rectangle 8235" transform="rotate(-45 259.59 -366.202)"/>
                            </g>
                            <g id="Line_1657" data-name="Line 1657">
                                <path id="Rectangle_8236" d="M0 0h37.337v1H0z" class="cls-3" data-name="Rectangle 8236" transform="rotate(-45 262.407 -367.369)"/>
                            </g>
                            <g id="Line_1658" data-name="Line 1658">
                                <path id="Rectangle_8237" d="M0 0h37.336v1H0z" class="cls-3" data-name="Rectangle 8237" transform="rotate(-45 265.224 -368.535)"/>
                            </g>
                            <g id="Line_1659" data-name="Line 1659">
                                <path id="Rectangle_8238" d="M0 0h37.336v1H0z" class="cls-3" data-name="Rectangle 8238" transform="rotate(-45 268.04 -369.702)"/>
                            </g>
                            <g id="Line_1660" data-name="Line 1660">
                                <path id="Rectangle_8239" d="M0 0h37.336v1H0z" class="cls-3" data-name="Rectangle 8239" transform="rotate(-45 270.857 -370.869)"/>
                            </g>
                        </g>
                    </g>
                </g>
            </g>
        </g>
        <g id="Group_48552" data-name="Group 48552" transform="translate(198.724 56.377)">
            <g id="Path_27109" data-name="Path 27109">
                <path id="Path_27402" d="M349.148 55.034l-3.06 3.06 3.06 3.06A1.165 1.165 0 1 1 347.5 62.8l-3.06-3.06-3.06 3.06a1.165 1.165 0 0 1-1.648-1.648l3.06-3.06-3.06-3.06a1.165 1.165 0 0 1 1.648-1.648l3.06 3.06 3.06-3.06a1.165 1.165 0 1 1 1.648 1.648z" class="cls-3" data-name="Path 27402"/>
            </g>
        </g>
    </g>
</svg>
