<svg xmlns="http://www.w3.org/2000/svg" width="18" height="13.855" viewBox="0 0 18 13.855">
  <style>.wallet{fill:"#777"}</style>
  <path id="Shape" d="M15.311,13.856H1.092A1.093,1.093,0,0,1,0,12.764V1.092A1.093,1.093,0,0,1,1.092,0H15.311A1.093,1.093,0,0,1,16.4,1.092V3.875H12.427a1.188,1.188,0,0,0-1.169,1.183V8.8a1.177,1.177,0,0,0,1.169,1.171H16.4v2.8A1.093,1.093,0,0,1,15.311,13.856Zm2.34-4.7H12.427a.349.349,0,0,1-.349-.352V5.058a.35.35,0,0,1,.349-.343h5.224A.351.351,0,0,1,18,5.058V8.8a.344.344,0,0,1-.1.25A.352.352,0,0,1,17.651,9.152ZM15.039,6.209a.719.719,0,1,0,.719.719A.72.72,0,0,0,15.039,6.209Z" class="wallet" fill="#777"/>
</svg>
