<?xml version="1.0" encoding="utf-8"?>
<!-- Generator: Adobe Illustrator 26.1.0, SVG Export Plug-In . SVG Version: 6.00 Build 0)  -->
<svg version="1.1" id="Layer_1" xmlns="http://www.w3.org/2000/svg" xmlns:xlink="http://www.w3.org/1999/xlink" x="0px" y="0px"
	 viewBox="0 0 962.2 275.1" style="enable-background:new 0 0 962.2 275.1;" xml:space="preserve">
<style type="text/css">
	.st0{clip-path:url(#SVGID_00000011752967009078279420000008492482441624990624_);}
	.st1{fill:#7F8285;}
</style>
<g>
	<defs>
		<rect id="SVGID_1_" x="296.4" y="11.7" width="646.8" height="232.1"/>
	</defs>
	<clipPath id="SVGID_00000103232839494030390150000014571577822155167375_">
		<use xlink:href="#SVGID_1_"  style="overflow:visible;"/>
	</clipPath>
	
		<g transform="translate(-54.8247 -96.289) scale(.35278)" style="clip-path:url(#SVGID_00000103232839494030390150000014571577822155167375_);">
		<path class="st1" d="M1136.4,863.9c-4,0-6.3-1.4-6.3-4c0-1.4,1.1-3.2,3.4-5c31.1-25.2,236.6-191,268-216.8
			c54.5-43.9,66-65.3,66-96.5c0-19.4-9.1-38.2-22.8-49.6c-16.5-14-41.2-21.6-81.1-21.6h-350.2v5.6c0,18.1,3.9,37.9,12.9,50.9
			c14.1,20.3,40.9,32,77,32h229.9c4.1,0,6.3,1.2,6.3,3.3c0,1.8-1,3-3.6,5c-32.5,26.4-222.3,179.5-269.6,217.3
			c-54.7,43.9-65.5,65.8-65.5,96.8c0,19.3,9.1,38,22.9,49.4c16.5,14.1,41.2,21.8,81.2,21.8h366.3v-3.5c0-26-7.4-48.4-22.9-62.5
			c-17.9-16.5-41.1-22.5-84.4-22.5H1136.4z M2728.1,826.6c-1.2,0-2.1-0.7-3.1-2c-72.6-94.5-205.9-268.8-234.8-306.7
			c-30.6-39.8-54.5-52.9-86.1-52.9c-23.4,0-42.2,8.6-55.2,22.4c-14.5,15.5-21.8,39.5-21.8,66.8v311.7c0,31.1,8.1,52.4,23.7,68
			c16.4,16.6,39.9,25.8,68.4,25.8c2.2,0,3.7,0,5.8-0.2V602.2c0-2.6,1.1-4,2.9-4c1.3,0,2.1,0.6,3.1,2.1
			c42.6,55.4,204.1,266.7,235.1,306.4c30.6,39.7,54.4,53.1,85.8,53.1c23.5,0,42.5-8.5,55.3-22.2c14.4-15.6,21.8-39.3,21.8-66.8
			V558.9c0-31.1-8.3-52.5-23.8-68.3c-16.5-16.5-39.8-25.6-68.5-25.6c-2,0-3.5,0-5.6,0.1v357.6C2731,825.3,2729.7,826.6,2728.1,826.6
			 M1938.1,764.5v101.4c0,31.1,8.2,52.4,23.8,68c16.3,16.6,41,25.8,70.1,25.8c2.4,0,5,0,7.4-0.2V743.3c0-93.1-25.4-155.6-70.5-204.4
			c-46.5-50-116.1-79-196.6-79c-154.5,0-261.5,113.1-261.5,260.4c0,144.8,99.1,241.4,227.7,241.4c99.1,0,158.6-59,158.6-128
			c0-25.8-8.1-53.5-25.7-79.8c-14.3,74.3-55.4,115.2-121.6,115.2c-70.7,0-132.8-53.6-132.8-151.3c0-96,62.3-161.7,155.6-161.7
			c46.7,0,84.3,16.3,112.7,44.2C1918.7,633.5,1938.1,684.3,1938.1,764.5 M2241.2,365.7c0-32.9-26.8-59.6-59.8-59.6
			c-32.9,0-59.7,26.7-59.7,59.6c0,33.1,26.8,60,59.7,60C2214.4,425.7,2241.2,398.8,2241.2,365.7 M2232,959.5V557
			c0-31.4-8.3-52.6-23.7-68.2c-16.5-16.7-40.9-25.7-70.2-25.7c-2.2,0-5.1,0-7.2,0.3v402.4c0,31.1,8.2,52.4,23.7,68
			c16.3,16.6,40.9,25.8,70,25.8C2226.8,959.7,2229.5,959.7,2232,959.5"/>
	</g>
</g>
<path class="st1" d="M217.2,103.7c0-20.6-15.8-36.1-38.4-34.4c-47.9,3.7-54.1,58.2-22.9,61.7c32.6,3.6,44.3-30.9,44.9-32.8h0
	c0.1,2.3,1.8,49.8-46.6,49.8c-25.2,0-38.1-20.6-38.1-38.4c0-26.4,25.7-52.7,61.9-54.1c20.3-0.8,33.7,4,44.1,14.5
	c21.3,21.3,15.2,61.4-2.1,81.1c-27.4,31.4-66,39.4-101.9,23.2c-35.9-16.1-48.8-62.8-27-101.8c8-14.4,37.1-46.3,87.1-46.3
	c63.5,0,95.6,45,89.8,97.8c-4.5,40.5-29.1,69.8-40.4,82.2c-50.1,54.4-123.7,65.3-170.1,37c-25.5-15.6-40.4-43.5-37.1-75.2
	c2.8,22.9,14.2,42.6,33.2,55.6c37.9,25.9,101.3,29.4,147.1-21c-46,34.4-99.9,33.9-136.6,9.9c-33.7-22-43-65.8-26.5-109.2
	c-8.3,38.7,5,74.5,34.3,93.2c45.6,29.1,112,12.4,153.8-34.5c14.3-16,22.4-37.5,22.2-57.2c-0.4-32.8-23.3-62.2-69.4-62.2
	c-47.4,0-79.9,36.6-79.9,67.1c0,33.8,23.2,53.1,53.5,53.1C182.1,162.9,217.2,144,217.2,103.7"/>
<g transform="translate(-54.8247 -96.289) scale(.35278)">
</g>
</svg>
